<?xml version="1.0" encoding="UTF-8"?>
<svg xmlns="http://www.w3.org/2000/svg" width="920" height="552" viewBox="0 0 920 552" shape-rendering="crispEdges">
<rect x="0" y="0" width="920" height="552" fill="none" opacity="0"/><rect x="0" y="0" width="920" height="10" fill="#8f9fe0" opacity="0.14"/><rect x="0" y="542" width="920" height="10" fill="#8f9fe0" opacity="0.14"/><rect x="0" y="0" width="10" height="552" fill="#8f9fe0" opacity="0.1"/><rect x="910" y="0" width="10" height="552" fill="#8f9fe0" opacity="0.1"/><rect x="18" y="18" width="92" height="10" fill="#8f9fe0" opacity="0.5"/><rect x="18" y="18" width="10" height="72" fill="#8f9fe0" opacity="0.5"/><rect x="810" y="18" width="92" height="10" fill="#8f9fe0" opacity="0.5"/><rect x="892" y="18" width="10" height="72" fill="#8f9fe0" opacity="0.5"/><rect x="18" y="524" width="92" height="10" fill="#8f9fe0" opacity="0.5"/><rect x="18" y="462" width="10" height="72" fill="#8f9fe0" opacity="0.5"/><rect x="810" y="524" width="92" height="10" fill="#8f9fe0" opacity="0.5"/><rect x="892" y="462" width="10" height="72" fill="#8f9fe0" opacity="0.5"/><rect x="28" y="28" width="864" height="496" fill="#182231" opacity="0.08"/><rect x="0" y="0" width="920" height="72" fill="#0e1722" opacity="0.18"/><rect x="0" y="456" width="920" height="96" fill="#0e1722" opacity="0.16"/><polygon points="212,239.92000000000002 708,239.92000000000002 708,267.92 212,267.92" fill="#a1acde" opacity="0.16"/><polygon points="114.35965069432909,367.97141543370816 440.02325371803954,407.0510477965534 437.64034930567095,426.90858456629184 111.97674628196047,387.8289522034466" fill="#889bd6" opacity="0.16"/><polygon points="524.9202090734603,166.2856462806241 833.9068340358514,123.02751878588931 836.6797909265396,142.8343537193759 527.6931659641485,186.09248121411068" fill="#e5dfd7" opacity="0.12"/><rect x="0" y="0" width="4" height="552" fill="#8f9fe0" opacity="0.035"/><rect x="12" y="0" width="4" height="552" fill="#8f9fe0" opacity="0.02"/><rect x="24" y="0" width="4" height="552" fill="#8f9fe0" opacity="0.035"/><rect x="36" y="0" width="4" height="552" fill="#8f9fe0" opacity="0.02"/><rect x="48" y="0" width="4" height="552" fill="#8f9fe0" opacity="0.035"/><rect x="60" y="0" width="4" height="552" fill="#8f9fe0" opacity="0.02"/><rect x="72" y="0" width="4" height="552" fill="#8f9fe0" opacity="0.035"/><rect x="84" y="0" width="4" height="552" fill="#8f9fe0" opacity="0.02"/><rect x="96" y="0" width="4" height="552" fill="#8f9fe0" opacity="0.035"/><rect x="108" y="0" width="4" height="552" fill="#8f9fe0" opacity="0.02"/><rect x="120" y="0" width="4" height="552" fill="#8f9fe0" opacity="0.035"/><rect x="132" y="0" width="4" height="552" fill="#8f9fe0" opacity="0.02"/><rect x="144" y="0" width="4" height="552" fill="#8f9fe0" opacity="0.035"/><rect x="156" y="0" width="4" height="552" fill="#8f9fe0" opacity="0.02"/><rect x="168" y="0" width="4" height="552" fill="#8f9fe0" opacity="0.035"/><rect x="180" y="0" width="4" height="552" fill="#8f9fe0" opacity="0.02"/><rect x="192" y="0" width="4" height="552" fill="#8f9fe0" opacity="0.035"/><rect x="204" y="0" width="4" height="552" fill="#8f9fe0" opacity="0.02"/><rect x="216" y="0" width="4" height="552" fill="#8f9fe0" opacity="0.035"/><rect x="228" y="0" width="4" height="552" fill="#8f9fe0" opacity="0.02"/><rect x="240" y="0" width="4" height="552" fill="#8f9fe0" opacity="0.035"/><rect x="252" y="0" width="4" height="552" fill="#8f9fe0" opacity="0.02"/><rect x="264" y="0" width="4" height="552" fill="#8f9fe0" opacity="0.035"/><rect x="276" y="0" width="4" height="552" fill="#8f9fe0" opacity="0.02"/><rect x="288" y="0" width="4" height="552" fill="#8f9fe0" opacity="0.035"/><rect x="300" y="0" width="4" height="552" fill="#8f9fe0" opacity="0.02"/><rect x="312" y="0" width="4" height="552" fill="#8f9fe0" opacity="0.035"/><rect x="324" y="0" width="4" height="552" fill="#8f9fe0" opacity="0.02"/><rect x="336" y="0" width="4" height="552" fill="#8f9fe0" opacity="0.035"/><rect x="348" y="0" width="4" height="552" fill="#8f9fe0" opacity="0.02"/><rect x="360" y="0" width="4" height="552" fill="#8f9fe0" opacity="0.035"/><rect x="372" y="0" width="4" height="552" fill="#8f9fe0" opacity="0.02"/><rect x="384" y="0" width="4" height="552" fill="#8f9fe0" opacity="0.035"/><rect x="396" y="0" width="4" height="552" fill="#8f9fe0" opacity="0.02"/><rect x="408" y="0" width="4" height="552" fill="#8f9fe0" opacity="0.035"/><rect x="420" y="0" width="4" height="552" fill="#8f9fe0" opacity="0.02"/><rect x="432" y="0" width="4" height="552" fill="#8f9fe0" opacity="0.035"/><rect x="444" y="0" width="4" height="552" fill="#8f9fe0" opacity="0.02"/><rect x="456" y="0" width="4" height="552" fill="#8f9fe0" opacity="0.035"/><rect x="468" y="0" width="4" height="552" fill="#8f9fe0" opacity="0.02"/><rect x="480" y="0" width="4" height="552" fill="#8f9fe0" opacity="0.035"/><rect x="492" y="0" width="4" height="552" fill="#8f9fe0" opacity="0.02"/><rect x="504" y="0" width="4" height="552" fill="#8f9fe0" opacity="0.035"/><rect x="516" y="0" width="4" height="552" fill="#8f9fe0" opacity="0.02"/><rect x="528" y="0" width="4" height="552" fill="#8f9fe0" opacity="0.035"/><rect x="540" y="0" width="4" height="552" fill="#8f9fe0" opacity="0.02"/><rect x="552" y="0" width="4" height="552" fill="#8f9fe0" opacity="0.035"/><rect x="564" y="0" width="4" height="552" fill="#8f9fe0" opacity="0.02"/><rect x="576" y="0" width="4" height="552" fill="#8f9fe0" opacity="0.035"/><rect x="588" y="0" width="4" height="552" fill="#8f9fe0" opacity="0.02"/><rect x="600" y="0" width="4" height="552" fill="#8f9fe0" opacity="0.035"/><rect x="612" y="0" width="4" height="552" fill="#8f9fe0" opacity="0.02"/><rect x="624" y="0" width="4" height="552" fill="#8f9fe0" opacity="0.035"/><rect x="636" y="0" width="4" height="552" fill="#8f9fe0" opacity="0.02"/><rect x="648" y="0" width="4" height="552" fill="#8f9fe0" opacity="0.035"/><rect x="660" y="0" width="4" height="552" fill="#8f9fe0" opacity="0.02"/><rect x="672" y="0" width="4" height="552" fill="#8f9fe0" opacity="0.035"/><rect x="684" y="0" width="4" height="552" fill="#8f9fe0" opacity="0.02"/><rect x="696" y="0" width="4" height="552" fill="#8f9fe0" opacity="0.035"/><rect x="708" y="0" width="4" height="552" fill="#8f9fe0" opacity="0.02"/><rect x="720" y="0" width="4" height="552" fill="#8f9fe0" opacity="0.035"/><rect x="732" y="0" width="4" height="552" fill="#8f9fe0" opacity="0.02"/><rect x="744" y="0" width="4" height="552" fill="#8f9fe0" opacity="0.035"/><rect x="756" y="0" width="4" height="552" fill="#8f9fe0" opacity="0.02"/><rect x="768" y="0" width="4" height="552" fill="#8f9fe0" opacity="0.035"/><rect x="780" y="0" width="4" height="552" fill="#8f9fe0" opacity="0.02"/><rect x="792" y="0" width="4" height="552" fill="#8f9fe0" opacity="0.035"/><rect x="804" y="0" width="4" height="552" fill="#8f9fe0" opacity="0.02"/><rect x="816" y="0" width="4" height="552" fill="#8f9fe0" opacity="0.035"/><rect x="828" y="0" width="4" height="552" fill="#8f9fe0" opacity="0.02"/><rect x="840" y="0" width="4" height="552" fill="#8f9fe0" opacity="0.035"/><rect x="852" y="0" width="4" height="552" fill="#8f9fe0" opacity="0.02"/><rect x="864" y="0" width="4" height="552" fill="#8f9fe0" opacity="0.035"/><rect x="876" y="0" width="4" height="552" fill="#8f9fe0" opacity="0.02"/><rect x="888" y="0" width="4" height="552" fill="#8f9fe0" opacity="0.035"/><rect x="900" y="0" width="4" height="552" fill="#8f9fe0" opacity="0.02"/><rect x="912" y="0" width="4" height="552" fill="#8f9fe0" opacity="0.035"/><rect x="134" y="362" width="8" height="8" fill="#a1acde" opacity="0.220702"/><rect x="146" y="364" width="6" height="2" fill="#8f9fe0" opacity="0.2394464"/><rect x="124" y="374" width="26" height="2" fill="#dfdbd8" opacity="0.1313874"/><rect x="240" y="500" width="9" height="9" fill="#a1acde" opacity="0.30496840000000003"/><rect x="253" y="502" width="7" height="2" fill="#8f9fe0" opacity="0.2031728"/><rect x="230" y="513" width="27" height="2" fill="#dfdbd8" opacity="0.12932939999999998"/><rect x="165" y="389" width="10" height="10" fill="#a1acde" opacity="0.2733712"/><rect x="179" y="391" width="8" height="2" fill="#8f9fe0" opacity="0.2471776"/><rect x="155" y="403" width="28" height="2" fill="#dfdbd8" opacity="0.144822"/><rect x="240" y="419" width="10" height="10" fill="#a1acde" opacity="0.255544"/><rect x="254" y="421" width="8" height="2" fill="#8f9fe0" opacity="0.194104"/><rect x="230" y="433" width="28" height="2" fill="#dfdbd8" opacity="0.144999"/><rect x="776" y="168" width="7" height="7" fill="#a1acde" opacity="0.2835256"/><rect x="787" y="170" width="5" height="2" fill="#8f9fe0" opacity="0.2327968"/><rect x="766" y="179" width="25" height="2" fill="#dfdbd8" opacity="0.1612602"/><rect x="487" y="333" width="13" height="13" fill="#a1acde" opacity="0.2819716"/><rect x="504" y="335" width="11" height="2" fill="#8f9fe0" opacity="0.2019128"/><rect x="477" y="350" width="31" height="2" fill="#dfdbd8" opacity="0.1541208"/><rect x="538" y="260" width="9" height="9" fill="#a1acde" opacity="0.31056039999999996"/><rect x="551" y="262" width="7" height="2" fill="#8f9fe0" opacity="0.18605919999999998"/><rect x="528" y="273" width="27" height="2" fill="#dfdbd8" opacity="0.1356492"/><rect x="616" y="509" width="7" height="7" fill="#a1acde" opacity="0.2556388"/><rect x="627" y="511" width="5" height="2" fill="#8f9fe0" opacity="0.2561768"/><rect x="606" y="520" width="25" height="2" fill="#dfdbd8" opacity="0.1508046"/><rect x="366" y="478" width="14" height="14" fill="#a1acde" opacity="0.25371520000000003"/><rect x="384" y="480" width="12" height="2" fill="#8f9fe0" opacity="0.22409279999999998"/><rect x="356" y="496" width="32" height="2" fill="#dfdbd8" opacity="0.1708236"/><rect x="493" y="184" width="8" height="8" fill="#a1acde" opacity="0.3104032"/><rect x="505" y="186" width="6" height="2" fill="#8f9fe0" opacity="0.22082639999999998"/><rect x="483" y="196" width="26" height="2" fill="#dfdbd8" opacity="0.15378419999999998"/><rect x="329" y="165" width="10" height="10" fill="#a1acde" opacity="0.33592120000000003"/><rect x="343" y="167" width="8" height="2" fill="#8f9fe0" opacity="0.2310632"/><rect x="319" y="179" width="28" height="2" fill="#dfdbd8" opacity="0.13711199999999998"/><rect x="108" y="443" width="7" height="7" fill="#a1acde" opacity="0.3064036"/><rect x="119" y="445" width="5" height="2" fill="#8f9fe0" opacity="0.2222232"/><rect x="98" y="454" width="25" height="2" fill="#dfdbd8" opacity="0.1723572"/><rect x="261" y="215" width="14" height="14" fill="#a1acde" opacity="0.32073640000000003"/><rect x="279" y="217" width="12" height="2" fill="#8f9fe0" opacity="0.254652"/><rect x="251" y="233" width="32" height="2" fill="#dfdbd8" opacity="0.1452222"/><rect x="210" y="341" width="13" height="13" fill="#a1acde" opacity="0.2354872"/><rect x="227" y="343" width="11" height="2" fill="#8f9fe0" opacity="0.2464448"/><rect x="200" y="358" width="31" height="2" fill="#dfdbd8" opacity="0.1609632"/><rect x="0" y="0" width="920" height="1" fill="#000000" opacity="0.08"/><rect x="0" y="4" width="920" height="1" fill="#000000" opacity="0.08"/><rect x="0" y="8" width="920" height="1" fill="#000000" opacity="0.08"/><rect x="0" y="12" width="920" height="1" fill="#000000" opacity="0.08"/><rect x="0" y="16" width="920" height="1" fill="#000000" opacity="0.08"/><rect x="0" y="20" width="920" height="1" fill="#000000" opacity="0.08"/><rect x="0" y="24" width="920" height="1" fill="#000000" opacity="0.08"/><rect x="0" y="28" width="920" height="1" fill="#000000" opacity="0.08"/><rect x="0" y="32" width="920" height="1" fill="#000000" opacity="0.08"/><rect x="0" y="36" width="920" height="1" fill="#000000" opacity="0.08"/><rect x="0" y="40" width="920" height="1" fill="#000000" opacity="0.08"/><rect x="0" y="44" width="920" height="1" fill="#000000" opacity="0.08"/><rect x="0" y="48" width="920" height="1" fill="#000000" opacity="0.08"/><rect x="0" y="52" width="920" height="1" fill="#000000" opacity="0.08"/><rect x="0" y="56" width="920" height="1" fill="#000000" opacity="0.08"/><rect x="0" y="60" width="920" height="1" fill="#000000" opacity="0.08"/><rect x="0" y="64" width="920" height="1" fill="#000000" opacity="0.08"/><rect x="0" y="68" width="920" height="1" fill="#000000" opacity="0.08"/><rect x="0" y="72" width="920" height="1" fill="#000000" opacity="0.08"/><rect x="0" y="76" width="920" height="1" fill="#000000" opacity="0.08"/><rect x="0" y="80" width="920" height="1" fill="#000000" opacity="0.08"/><rect x="0" y="84" width="920" height="1" fill="#000000" opacity="0.08"/><rect x="0" y="88" width="920" height="1" fill="#000000" opacity="0.08"/><rect x="0" y="92" width="920" height="1" fill="#000000" opacity="0.08"/><rect x="0" y="96" width="920" height="1" fill="#000000" opacity="0.08"/><rect x="0" y="100" width="920" height="1" fill="#000000" opacity="0.08"/><rect x="0" y="104" width="920" height="1" fill="#000000" opacity="0.08"/><rect x="0" y="108" width="920" height="1" fill="#000000" opacity="0.08"/><rect x="0" y="112" width="920" height="1" fill="#000000" opacity="0.08"/><rect x="0" y="116" width="920" height="1" fill="#000000" opacity="0.08"/><rect x="0" y="120" width="920" height="1" fill="#000000" opacity="0.08"/><rect x="0" y="124" width="920" height="1" fill="#000000" opacity="0.08"/><rect x="0" y="128" width="920" height="1" fill="#000000" opacity="0.08"/><rect x="0" y="132" width="920" height="1" fill="#000000" opacity="0.08"/><rect x="0" y="136" width="920" height="1" fill="#000000" opacity="0.08"/><rect x="0" y="140" width="920" height="1" fill="#000000" opacity="0.08"/><rect x="0" y="144" width="920" height="1" fill="#000000" opacity="0.08"/><rect x="0" y="148" width="920" height="1" fill="#000000" opacity="0.08"/><rect x="0" y="152" width="920" height="1" fill="#000000" opacity="0.08"/><rect x="0" y="156" width="920" height="1" fill="#000000" opacity="0.08"/><rect x="0" y="160" width="920" height="1" fill="#000000" opacity="0.08"/><rect x="0" y="164" width="920" height="1" fill="#000000" opacity="0.08"/><rect x="0" y="168" width="920" height="1" fill="#000000" opacity="0.08"/><rect x="0" y="172" width="920" height="1" fill="#000000" opacity="0.08"/><rect x="0" y="176" width="920" height="1" fill="#000000" opacity="0.08"/><rect x="0" y="180" width="920" height="1" fill="#000000" opacity="0.08"/><rect x="0" y="184" width="920" height="1" fill="#000000" opacity="0.08"/><rect x="0" y="188" width="920" height="1" fill="#000000" opacity="0.08"/><rect x="0" y="192" width="920" height="1" fill="#000000" opacity="0.08"/><rect x="0" y="196" width="920" height="1" fill="#000000" opacity="0.08"/><rect x="0" y="200" width="920" height="1" fill="#000000" opacity="0.08"/><rect x="0" y="204" width="920" height="1" fill="#000000" opacity="0.08"/><rect x="0" y="208" width="920" height="1" fill="#000000" opacity="0.08"/><rect x="0" y="212" width="920" height="1" fill="#000000" opacity="0.08"/><rect x="0" y="216" width="920" height="1" fill="#000000" opacity="0.08"/><rect x="0" y="220" width="920" height="1" fill="#000000" opacity="0.08"/><rect x="0" y="224" width="920" height="1" fill="#000000" opacity="0.08"/><rect x="0" y="228" width="920" height="1" fill="#000000" opacity="0.08"/><rect x="0" y="232" width="920" height="1" fill="#000000" opacity="0.08"/><rect x="0" y="236" width="920" height="1" fill="#000000" opacity="0.08"/><rect x="0" y="240" width="920" height="1" fill="#000000" opacity="0.08"/><rect x="0" y="244" width="920" height="1" fill="#000000" opacity="0.08"/><rect x="0" y="248" width="920" height="1" fill="#000000" opacity="0.08"/><rect x="0" y="252" width="920" height="1" fill="#000000" opacity="0.08"/><rect x="0" y="256" width="920" height="1" fill="#000000" opacity="0.08"/><rect x="0" y="260" width="920" height="1" fill="#000000" opacity="0.08"/><rect x="0" y="264" width="920" height="1" fill="#000000" opacity="0.08"/><rect x="0" y="268" width="920" height="1" fill="#000000" opacity="0.08"/><rect x="0" y="272" width="920" height="1" fill="#000000" opacity="0.08"/><rect x="0" y="276" width="920" height="1" fill="#000000" opacity="0.08"/><rect x="0" y="280" width="920" height="1" fill="#000000" opacity="0.08"/><rect x="0" y="284" width="920" height="1" fill="#000000" opacity="0.08"/><rect x="0" y="288" width="920" height="1" fill="#000000" opacity="0.08"/><rect x="0" y="292" width="920" height="1" fill="#000000" opacity="0.08"/><rect x="0" y="296" width="920" height="1" fill="#000000" opacity="0.08"/><rect x="0" y="300" width="920" height="1" fill="#000000" opacity="0.08"/><rect x="0" y="304" width="920" height="1" fill="#000000" opacity="0.08"/><rect x="0" y="308" width="920" height="1" fill="#000000" opacity="0.08"/><rect x="0" y="312" width="920" height="1" fill="#000000" opacity="0.08"/><rect x="0" y="316" width="920" height="1" fill="#000000" opacity="0.08"/><rect x="0" y="320" width="920" height="1" fill="#000000" opacity="0.08"/><rect x="0" y="324" width="920" height="1" fill="#000000" opacity="0.08"/><rect x="0" y="328" width="920" height="1" fill="#000000" opacity="0.08"/><rect x="0" y="332" width="920" height="1" fill="#000000" opacity="0.08"/><rect x="0" y="336" width="920" height="1" fill="#000000" opacity="0.08"/><rect x="0" y="340" width="920" height="1" fill="#000000" opacity="0.08"/><rect x="0" y="344" width="920" height="1" fill="#000000" opacity="0.08"/><rect x="0" y="348" width="920" height="1" fill="#000000" opacity="0.08"/><rect x="0" y="352" width="920" height="1" fill="#000000" opacity="0.08"/><rect x="0" y="356" width="920" height="1" fill="#000000" opacity="0.08"/><rect x="0" y="360" width="920" height="1" fill="#000000" opacity="0.08"/><rect x="0" y="364" width="920" height="1" fill="#000000" opacity="0.08"/><rect x="0" y="368" width="920" height="1" fill="#000000" opacity="0.08"/><rect x="0" y="372" width="920" height="1" fill="#000000" opacity="0.08"/><rect x="0" y="376" width="920" height="1" fill="#000000" opacity="0.08"/><rect x="0" y="380" width="920" height="1" fill="#000000" opacity="0.08"/><rect x="0" y="384" width="920" height="1" fill="#000000" opacity="0.08"/><rect x="0" y="388" width="920" height="1" fill="#000000" opacity="0.08"/><rect x="0" y="392" width="920" height="1" fill="#000000" opacity="0.08"/><rect x="0" y="396" width="920" height="1" fill="#000000" opacity="0.08"/><rect x="0" y="400" width="920" height="1" fill="#000000" opacity="0.08"/><rect x="0" y="404" width="920" height="1" fill="#000000" opacity="0.08"/><rect x="0" y="408" width="920" height="1" fill="#000000" opacity="0.08"/><rect x="0" y="412" width="920" height="1" fill="#000000" opacity="0.08"/><rect x="0" y="416" width="920" height="1" fill="#000000" opacity="0.08"/><rect x="0" y="420" width="920" height="1" fill="#000000" opacity="0.08"/><rect x="0" y="424" width="920" height="1" fill="#000000" opacity="0.08"/><rect x="0" y="428" width="920" height="1" fill="#000000" opacity="0.08"/><rect x="0" y="432" width="920" height="1" fill="#000000" opacity="0.08"/><rect x="0" y="436" width="920" height="1" fill="#000000" opacity="0.08"/><rect x="0" y="440" width="920" height="1" fill="#000000" opacity="0.08"/><rect x="0" y="444" width="920" height="1" fill="#000000" opacity="0.08"/><rect x="0" y="448" width="920" height="1" fill="#000000" opacity="0.08"/><rect x="0" y="452" width="920" height="1" fill="#000000" opacity="0.08"/><rect x="0" y="456" width="920" height="1" fill="#000000" opacity="0.08"/><rect x="0" y="460" width="920" height="1" fill="#000000" opacity="0.08"/><rect x="0" y="464" width="920" height="1" fill="#000000" opacity="0.08"/><rect x="0" y="468" width="920" height="1" fill="#000000" opacity="0.08"/><rect x="0" y="472" width="920" height="1" fill="#000000" opacity="0.08"/><rect x="0" y="476" width="920" height="1" fill="#000000" opacity="0.08"/><rect x="0" y="480" width="920" height="1" fill="#000000" opacity="0.08"/><rect x="0" y="484" width="920" height="1" fill="#000000" opacity="0.08"/><rect x="0" y="488" width="920" height="1" fill="#000000" opacity="0.08"/><rect x="0" y="492" width="920" height="1" fill="#000000" opacity="0.08"/><rect x="0" y="496" width="920" height="1" fill="#000000" opacity="0.08"/><rect x="0" y="500" width="920" height="1" fill="#000000" opacity="0.08"/><rect x="0" y="504" width="920" height="1" fill="#000000" opacity="0.08"/><rect x="0" y="508" width="920" height="1" fill="#000000" opacity="0.08"/><rect x="0" y="512" width="920" height="1" fill="#000000" opacity="0.08"/><rect x="0" y="516" width="920" height="1" fill="#000000" opacity="0.08"/><rect x="0" y="520" width="920" height="1" fill="#000000" opacity="0.08"/><rect x="0" y="524" width="920" height="1" fill="#000000" opacity="0.08"/><rect x="0" y="528" width="920" height="1" fill="#000000" opacity="0.08"/><rect x="0" y="532" width="920" height="1" fill="#000000" opacity="0.08"/><rect x="0" y="536" width="920" height="1" fill="#000000" opacity="0.08"/><rect x="0" y="540" width="920" height="1" fill="#000000" opacity="0.08"/><rect x="0" y="544" width="920" height="1" fill="#000000" opacity="0.08"/><rect x="0" y="548" width="920" height="1" fill="#000000" opacity="0.08"/>
</svg>