<?xml version="1.0" encoding="UTF-8"?>
<svg xmlns="http://www.w3.org/2000/svg" width="920" height="552" viewBox="0 0 920 552" shape-rendering="crispEdges">
<rect x="0" y="0" width="920" height="552" fill="none" opacity="0"/><rect x="0" y="0" width="920" height="10" fill="#79afd2" opacity="0.14"/><rect x="0" y="542" width="920" height="10" fill="#79afd2" opacity="0.14"/><rect x="0" y="0" width="10" height="552" fill="#79afd2" opacity="0.1"/><rect x="910" y="0" width="10" height="552" fill="#79afd2" opacity="0.1"/><rect x="18" y="18" width="92" height="10" fill="#79afd2" opacity="0.5"/><rect x="18" y="18" width="10" height="72" fill="#79afd2" opacity="0.5"/><rect x="810" y="18" width="92" height="10" fill="#79afd2" opacity="0.5"/><rect x="892" y="18" width="10" height="72" fill="#79afd2" opacity="0.5"/><rect x="18" y="524" width="92" height="10" fill="#79afd2" opacity="0.5"/><rect x="18" y="462" width="10" height="72" fill="#79afd2" opacity="0.5"/><rect x="810" y="524" width="92" height="10" fill="#79afd2" opacity="0.5"/><rect x="892" y="462" width="10" height="72" fill="#79afd2" opacity="0.5"/><rect x="28" y="28" width="864" height="496" fill="#172330" opacity="0.08"/><rect x="0" y="0" width="920" height="72" fill="#0e1722" opacity="0.18"/><rect x="0" y="456" width="920" height="96" fill="#0e1722" opacity="0.16"/><polygon points="212,239.92000000000002 708,239.92000000000002 708,267.92 212,267.92" fill="#8fb9d3" opacity="0.16"/><polygon points="114.35965069432909,367.97141543370816 440.02325371803954,407.0510477965534 437.64034930567095,426.90858456629184 111.97674628196047,387.8289522034466" fill="#76a8ca" opacity="0.16"/><polygon points="524.9202090734603,166.2856462806241 833.9068340358514,123.02751878588931 836.6797909265396,142.8343537193759 527.6931659641485,186.09248121411068" fill="#e3e1d6" opacity="0.12"/><rect x="0" y="0" width="4" height="552" fill="#79afd2" opacity="0.035"/><rect x="12" y="0" width="4" height="552" fill="#79afd2" opacity="0.02"/><rect x="24" y="0" width="4" height="552" fill="#79afd2" opacity="0.035"/><rect x="36" y="0" width="4" height="552" fill="#79afd2" opacity="0.02"/><rect x="48" y="0" width="4" height="552" fill="#79afd2" opacity="0.035"/><rect x="60" y="0" width="4" height="552" fill="#79afd2" opacity="0.02"/><rect x="72" y="0" width="4" height="552" fill="#79afd2" opacity="0.035"/><rect x="84" y="0" width="4" height="552" fill="#79afd2" opacity="0.02"/><rect x="96" y="0" width="4" height="552" fill="#79afd2" opacity="0.035"/><rect x="108" y="0" width="4" height="552" fill="#79afd2" opacity="0.02"/><rect x="120" y="0" width="4" height="552" fill="#79afd2" opacity="0.035"/><rect x="132" y="0" width="4" height="552" fill="#79afd2" opacity="0.02"/><rect x="144" y="0" width="4" height="552" fill="#79afd2" opacity="0.035"/><rect x="156" y="0" width="4" height="552" fill="#79afd2" opacity="0.02"/><rect x="168" y="0" width="4" height="552" fill="#79afd2" opacity="0.035"/><rect x="180" y="0" width="4" height="552" fill="#79afd2" opacity="0.02"/><rect x="192" y="0" width="4" height="552" fill="#79afd2" opacity="0.035"/><rect x="204" y="0" width="4" height="552" fill="#79afd2" opacity="0.02"/><rect x="216" y="0" width="4" height="552" fill="#79afd2" opacity="0.035"/><rect x="228" y="0" width="4" height="552" fill="#79afd2" opacity="0.02"/><rect x="240" y="0" width="4" height="552" fill="#79afd2" opacity="0.035"/><rect x="252" y="0" width="4" height="552" fill="#79afd2" opacity="0.02"/><rect x="264" y="0" width="4" height="552" fill="#79afd2" opacity="0.035"/><rect x="276" y="0" width="4" height="552" fill="#79afd2" opacity="0.02"/><rect x="288" y="0" width="4" height="552" fill="#79afd2" opacity="0.035"/><rect x="300" y="0" width="4" height="552" fill="#79afd2" opacity="0.02"/><rect x="312" y="0" width="4" height="552" fill="#79afd2" opacity="0.035"/><rect x="324" y="0" width="4" height="552" fill="#79afd2" opacity="0.02"/><rect x="336" y="0" width="4" height="552" fill="#79afd2" opacity="0.035"/><rect x="348" y="0" width="4" height="552" fill="#79afd2" opacity="0.02"/><rect x="360" y="0" width="4" height="552" fill="#79afd2" opacity="0.035"/><rect x="372" y="0" width="4" height="552" fill="#79afd2" opacity="0.02"/><rect x="384" y="0" width="4" height="552" fill="#79afd2" opacity="0.035"/><rect x="396" y="0" width="4" height="552" fill="#79afd2" opacity="0.02"/><rect x="408" y="0" width="4" height="552" fill="#79afd2" opacity="0.035"/><rect x="420" y="0" width="4" height="552" fill="#79afd2" opacity="0.02"/><rect x="432" y="0" width="4" height="552" fill="#79afd2" opacity="0.035"/><rect x="444" y="0" width="4" height="552" fill="#79afd2" opacity="0.02"/><rect x="456" y="0" width="4" height="552" fill="#79afd2" opacity="0.035"/><rect x="468" y="0" width="4" height="552" fill="#79afd2" opacity="0.02"/><rect x="480" y="0" width="4" height="552" fill="#79afd2" opacity="0.035"/><rect x="492" y="0" width="4" height="552" fill="#79afd2" opacity="0.02"/><rect x="504" y="0" width="4" height="552" fill="#79afd2" opacity="0.035"/><rect x="516" y="0" width="4" height="552" fill="#79afd2" opacity="0.02"/><rect x="528" y="0" width="4" height="552" fill="#79afd2" opacity="0.035"/><rect x="540" y="0" width="4" height="552" fill="#79afd2" opacity="0.02"/><rect x="552" y="0" width="4" height="552" fill="#79afd2" opacity="0.035"/><rect x="564" y="0" width="4" height="552" fill="#79afd2" opacity="0.02"/><rect x="576" y="0" width="4" height="552" fill="#79afd2" opacity="0.035"/><rect x="588" y="0" width="4" height="552" fill="#79afd2" opacity="0.02"/><rect x="600" y="0" width="4" height="552" fill="#79afd2" opacity="0.035"/><rect x="612" y="0" width="4" height="552" fill="#79afd2" opacity="0.02"/><rect x="624" y="0" width="4" height="552" fill="#79afd2" opacity="0.035"/><rect x="636" y="0" width="4" height="552" fill="#79afd2" opacity="0.02"/><rect x="648" y="0" width="4" height="552" fill="#79afd2" opacity="0.035"/><rect x="660" y="0" width="4" height="552" fill="#79afd2" opacity="0.02"/><rect x="672" y="0" width="4" height="552" fill="#79afd2" opacity="0.035"/><rect x="684" y="0" width="4" height="552" fill="#79afd2" opacity="0.02"/><rect x="696" y="0" width="4" height="552" fill="#79afd2" opacity="0.035"/><rect x="708" y="0" width="4" height="552" fill="#79afd2" opacity="0.02"/><rect x="720" y="0" width="4" height="552" fill="#79afd2" opacity="0.035"/><rect x="732" y="0" width="4" height="552" fill="#79afd2" opacity="0.02"/><rect x="744" y="0" width="4" height="552" fill="#79afd2" opacity="0.035"/><rect x="756" y="0" width="4" height="552" fill="#79afd2" opacity="0.02"/><rect x="768" y="0" width="4" height="552" fill="#79afd2" opacity="0.035"/><rect x="780" y="0" width="4" height="552" fill="#79afd2" opacity="0.02"/><rect x="792" y="0" width="4" height="552" fill="#79afd2" opacity="0.035"/><rect x="804" y="0" width="4" height="552" fill="#79afd2" opacity="0.02"/><rect x="816" y="0" width="4" height="552" fill="#79afd2" opacity="0.035"/><rect x="828" y="0" width="4" height="552" fill="#79afd2" opacity="0.02"/><rect x="840" y="0" width="4" height="552" fill="#79afd2" opacity="0.035"/><rect x="852" y="0" width="4" height="552" fill="#79afd2" opacity="0.02"/><rect x="864" y="0" width="4" height="552" fill="#79afd2" opacity="0.035"/><rect x="876" y="0" width="4" height="552" fill="#79afd2" opacity="0.02"/><rect x="888" y="0" width="4" height="552" fill="#79afd2" opacity="0.035"/><rect x="900" y="0" width="4" height="552" fill="#79afd2" opacity="0.02"/><rect x="912" y="0" width="4" height="552" fill="#79afd2" opacity="0.035"/><rect x="385" y="217" width="14" height="14" fill="#8fb9d3" opacity="0.246736"/><rect x="403" y="219" width="12" height="2" fill="#79afd2" opacity="0.25708"/><rect x="375" y="235" width="32" height="2" fill="#dbded5" opacity="0.17083979999999999"/><rect x="292" y="93" width="13" height="13" fill="#8fb9d3" opacity="0.3278968"/><rect x="309" y="95" width="11" height="2" fill="#79afd2" opacity="0.19376559999999998"/><rect x="282" y="110" width="31" height="2" fill="#dbded5" opacity="0.1460646"/><rect x="798" y="201" width="7" height="7" fill="#8fb9d3" opacity="0.2908204"/><rect x="809" y="203" width="5" height="2" fill="#79afd2" opacity="0.2462392"/><rect x="788" y="212" width="25" height="2" fill="#dbded5" opacity="0.1269042"/><rect x="491" y="374" width="7" height="7" fill="#8fb9d3" opacity="0.2596384"/><rect x="502" y="376" width="5" height="2" fill="#79afd2" opacity="0.21026319999999998"/><rect x="481" y="385" width="25" height="2" fill="#dbded5" opacity="0.1600344"/><rect x="333" y="433" width="12" height="12" fill="#8fb9d3" opacity="0.291592"/><rect x="349" y="435" width="10" height="2" fill="#79afd2" opacity="0.2087056"/><rect x="323" y="449" width="30" height="2" fill="#dbded5" opacity="0.131691"/><rect x="429" y="233" width="12" height="12" fill="#8fb9d3" opacity="0.3233296"/><rect x="445" y="235" width="10" height="2" fill="#79afd2" opacity="0.2313984"/><rect x="419" y="249" width="30" height="2" fill="#dbded5" opacity="0.1601988"/><rect x="589" y="199" width="11" height="11" fill="#8fb9d3" opacity="0.3362872"/><rect x="604" y="201" width="9" height="2" fill="#79afd2" opacity="0.24421359999999998"/><rect x="579" y="214" width="29" height="2" fill="#dbded5" opacity="0.1324122"/><rect x="696" y="281" width="10" height="10" fill="#8fb9d3" opacity="0.2433532"/><rect x="710" y="283" width="8" height="2" fill="#79afd2" opacity="0.192888"/><rect x="686" y="295" width="28" height="2" fill="#dbded5" opacity="0.1249362"/><rect x="844" y="268" width="13" height="13" fill="#8fb9d3" opacity="0.2525716"/><rect x="861" y="270" width="11" height="2" fill="#79afd2" opacity="0.2541928"/><rect x="834" y="285" width="31" height="2" fill="#dbded5" opacity="0.1776306"/><rect x="142" y="264" width="14" height="14" fill="#8fb9d3" opacity="0.3321016"/><rect x="160" y="266" width="12" height="2" fill="#79afd2" opacity="0.23074719999999999"/><rect x="132" y="282" width="32" height="2" fill="#dbded5" opacity="0.1778088"/><rect x="418" y="323" width="9" height="9" fill="#8fb9d3" opacity="0.2221696"/><rect x="431" y="325" width="7" height="2" fill="#79afd2" opacity="0.255212"/><rect x="408" y="336" width="27" height="2" fill="#dbded5" opacity="0.1647246"/><rect x="633" y="161" width="7" height="7" fill="#8fb9d3" opacity="0.2479552"/><rect x="644" y="163" width="5" height="2" fill="#79afd2" opacity="0.2516224"/><rect x="623" y="172" width="25" height="2" fill="#dbded5" opacity="0.1319826"/><rect x="842" y="82" width="8" height="8" fill="#8fb9d3" opacity="0.2234116"/><rect x="854" y="84" width="6" height="2" fill="#79afd2" opacity="0.2083544"/><rect x="832" y="94" width="26" height="2" fill="#dbded5" opacity="0.17779319999999998"/><rect x="708" y="417" width="13" height="13" fill="#8fb9d3" opacity="0.2524012"/><rect x="725" y="419" width="11" height="2" fill="#79afd2" opacity="0.1994552"/><rect x="698" y="434" width="31" height="2" fill="#dbded5" opacity="0.125529"/><rect x="0" y="0" width="920" height="1" fill="#000000" opacity="0.08"/><rect x="0" y="4" width="920" height="1" fill="#000000" opacity="0.08"/><rect x="0" y="8" width="920" height="1" fill="#000000" opacity="0.08"/><rect x="0" y="12" width="920" height="1" fill="#000000" opacity="0.08"/><rect x="0" y="16" width="920" height="1" fill="#000000" opacity="0.08"/><rect x="0" y="20" width="920" height="1" fill="#000000" opacity="0.08"/><rect x="0" y="24" width="920" height="1" fill="#000000" opacity="0.08"/><rect x="0" y="28" width="920" height="1" fill="#000000" opacity="0.08"/><rect x="0" y="32" width="920" height="1" fill="#000000" opacity="0.08"/><rect x="0" y="36" width="920" height="1" fill="#000000" opacity="0.08"/><rect x="0" y="40" width="920" height="1" fill="#000000" opacity="0.08"/><rect x="0" y="44" width="920" height="1" fill="#000000" opacity="0.08"/><rect x="0" y="48" width="920" height="1" fill="#000000" opacity="0.08"/><rect x="0" y="52" width="920" height="1" fill="#000000" opacity="0.08"/><rect x="0" y="56" width="920" height="1" fill="#000000" opacity="0.08"/><rect x="0" y="60" width="920" height="1" fill="#000000" opacity="0.08"/><rect x="0" y="64" width="920" height="1" fill="#000000" opacity="0.08"/><rect x="0" y="68" width="920" height="1" fill="#000000" opacity="0.08"/><rect x="0" y="72" width="920" height="1" fill="#000000" opacity="0.08"/><rect x="0" y="76" width="920" height="1" fill="#000000" opacity="0.08"/><rect x="0" y="80" width="920" height="1" fill="#000000" opacity="0.08"/><rect x="0" y="84" width="920" height="1" fill="#000000" opacity="0.08"/><rect x="0" y="88" width="920" height="1" fill="#000000" opacity="0.08"/><rect x="0" y="92" width="920" height="1" fill="#000000" opacity="0.08"/><rect x="0" y="96" width="920" height="1" fill="#000000" opacity="0.08"/><rect x="0" y="100" width="920" height="1" fill="#000000" opacity="0.08"/><rect x="0" y="104" width="920" height="1" fill="#000000" opacity="0.08"/><rect x="0" y="108" width="920" height="1" fill="#000000" opacity="0.08"/><rect x="0" y="112" width="920" height="1" fill="#000000" opacity="0.08"/><rect x="0" y="116" width="920" height="1" fill="#000000" opacity="0.08"/><rect x="0" y="120" width="920" height="1" fill="#000000" opacity="0.08"/><rect x="0" y="124" width="920" height="1" fill="#000000" opacity="0.08"/><rect x="0" y="128" width="920" height="1" fill="#000000" opacity="0.08"/><rect x="0" y="132" width="920" height="1" fill="#000000" opacity="0.08"/><rect x="0" y="136" width="920" height="1" fill="#000000" opacity="0.08"/><rect x="0" y="140" width="920" height="1" fill="#000000" opacity="0.08"/><rect x="0" y="144" width="920" height="1" fill="#000000" opacity="0.08"/><rect x="0" y="148" width="920" height="1" fill="#000000" opacity="0.08"/><rect x="0" y="152" width="920" height="1" fill="#000000" opacity="0.08"/><rect x="0" y="156" width="920" height="1" fill="#000000" opacity="0.08"/><rect x="0" y="160" width="920" height="1" fill="#000000" opacity="0.08"/><rect x="0" y="164" width="920" height="1" fill="#000000" opacity="0.08"/><rect x="0" y="168" width="920" height="1" fill="#000000" opacity="0.08"/><rect x="0" y="172" width="920" height="1" fill="#000000" opacity="0.08"/><rect x="0" y="176" width="920" height="1" fill="#000000" opacity="0.08"/><rect x="0" y="180" width="920" height="1" fill="#000000" opacity="0.08"/><rect x="0" y="184" width="920" height="1" fill="#000000" opacity="0.08"/><rect x="0" y="188" width="920" height="1" fill="#000000" opacity="0.08"/><rect x="0" y="192" width="920" height="1" fill="#000000" opacity="0.08"/><rect x="0" y="196" width="920" height="1" fill="#000000" opacity="0.08"/><rect x="0" y="200" width="920" height="1" fill="#000000" opacity="0.08"/><rect x="0" y="204" width="920" height="1" fill="#000000" opacity="0.08"/><rect x="0" y="208" width="920" height="1" fill="#000000" opacity="0.08"/><rect x="0" y="212" width="920" height="1" fill="#000000" opacity="0.08"/><rect x="0" y="216" width="920" height="1" fill="#000000" opacity="0.08"/><rect x="0" y="220" width="920" height="1" fill="#000000" opacity="0.08"/><rect x="0" y="224" width="920" height="1" fill="#000000" opacity="0.08"/><rect x="0" y="228" width="920" height="1" fill="#000000" opacity="0.08"/><rect x="0" y="232" width="920" height="1" fill="#000000" opacity="0.08"/><rect x="0" y="236" width="920" height="1" fill="#000000" opacity="0.08"/><rect x="0" y="240" width="920" height="1" fill="#000000" opacity="0.08"/><rect x="0" y="244" width="920" height="1" fill="#000000" opacity="0.08"/><rect x="0" y="248" width="920" height="1" fill="#000000" opacity="0.08"/><rect x="0" y="252" width="920" height="1" fill="#000000" opacity="0.08"/><rect x="0" y="256" width="920" height="1" fill="#000000" opacity="0.08"/><rect x="0" y="260" width="920" height="1" fill="#000000" opacity="0.08"/><rect x="0" y="264" width="920" height="1" fill="#000000" opacity="0.08"/><rect x="0" y="268" width="920" height="1" fill="#000000" opacity="0.08"/><rect x="0" y="272" width="920" height="1" fill="#000000" opacity="0.08"/><rect x="0" y="276" width="920" height="1" fill="#000000" opacity="0.08"/><rect x="0" y="280" width="920" height="1" fill="#000000" opacity="0.08"/><rect x="0" y="284" width="920" height="1" fill="#000000" opacity="0.08"/><rect x="0" y="288" width="920" height="1" fill="#000000" opacity="0.08"/><rect x="0" y="292" width="920" height="1" fill="#000000" opacity="0.08"/><rect x="0" y="296" width="920" height="1" fill="#000000" opacity="0.08"/><rect x="0" y="300" width="920" height="1" fill="#000000" opacity="0.08"/><rect x="0" y="304" width="920" height="1" fill="#000000" opacity="0.08"/><rect x="0" y="308" width="920" height="1" fill="#000000" opacity="0.08"/><rect x="0" y="312" width="920" height="1" fill="#000000" opacity="0.08"/><rect x="0" y="316" width="920" height="1" fill="#000000" opacity="0.08"/><rect x="0" y="320" width="920" height="1" fill="#000000" opacity="0.08"/><rect x="0" y="324" width="920" height="1" fill="#000000" opacity="0.08"/><rect x="0" y="328" width="920" height="1" fill="#000000" opacity="0.08"/><rect x="0" y="332" width="920" height="1" fill="#000000" opacity="0.08"/><rect x="0" y="336" width="920" height="1" fill="#000000" opacity="0.08"/><rect x="0" y="340" width="920" height="1" fill="#000000" opacity="0.08"/><rect x="0" y="344" width="920" height="1" fill="#000000" opacity="0.08"/><rect x="0" y="348" width="920" height="1" fill="#000000" opacity="0.08"/><rect x="0" y="352" width="920" height="1" fill="#000000" opacity="0.08"/><rect x="0" y="356" width="920" height="1" fill="#000000" opacity="0.08"/><rect x="0" y="360" width="920" height="1" fill="#000000" opacity="0.08"/><rect x="0" y="364" width="920" height="1" fill="#000000" opacity="0.08"/><rect x="0" y="368" width="920" height="1" fill="#000000" opacity="0.08"/><rect x="0" y="372" width="920" height="1" fill="#000000" opacity="0.08"/><rect x="0" y="376" width="920" height="1" fill="#000000" opacity="0.08"/><rect x="0" y="380" width="920" height="1" fill="#000000" opacity="0.08"/><rect x="0" y="384" width="920" height="1" fill="#000000" opacity="0.08"/><rect x="0" y="388" width="920" height="1" fill="#000000" opacity="0.08"/><rect x="0" y="392" width="920" height="1" fill="#000000" opacity="0.08"/><rect x="0" y="396" width="920" height="1" fill="#000000" opacity="0.08"/><rect x="0" y="400" width="920" height="1" fill="#000000" opacity="0.08"/><rect x="0" y="404" width="920" height="1" fill="#000000" opacity="0.08"/><rect x="0" y="408" width="920" height="1" fill="#000000" opacity="0.08"/><rect x="0" y="412" width="920" height="1" fill="#000000" opacity="0.08"/><rect x="0" y="416" width="920" height="1" fill="#000000" opacity="0.08"/><rect x="0" y="420" width="920" height="1" fill="#000000" opacity="0.08"/><rect x="0" y="424" width="920" height="1" fill="#000000" opacity="0.08"/><rect x="0" y="428" width="920" height="1" fill="#000000" opacity="0.08"/><rect x="0" y="432" width="920" height="1" fill="#000000" opacity="0.08"/><rect x="0" y="436" width="920" height="1" fill="#000000" opacity="0.08"/><rect x="0" y="440" width="920" height="1" fill="#000000" opacity="0.08"/><rect x="0" y="444" width="920" height="1" fill="#000000" opacity="0.08"/><rect x="0" y="448" width="920" height="1" fill="#000000" opacity="0.08"/><rect x="0" y="452" width="920" height="1" fill="#000000" opacity="0.08"/><rect x="0" y="456" width="920" height="1" fill="#000000" opacity="0.08"/><rect x="0" y="460" width="920" height="1" fill="#000000" opacity="0.08"/><rect x="0" y="464" width="920" height="1" fill="#000000" opacity="0.08"/><rect x="0" y="468" width="920" height="1" fill="#000000" opacity="0.08"/><rect x="0" y="472" width="920" height="1" fill="#000000" opacity="0.08"/><rect x="0" y="476" width="920" height="1" fill="#000000" opacity="0.08"/><rect x="0" y="480" width="920" height="1" fill="#000000" opacity="0.08"/><rect x="0" y="484" width="920" height="1" fill="#000000" opacity="0.08"/><rect x="0" y="488" width="920" height="1" fill="#000000" opacity="0.08"/><rect x="0" y="492" width="920" height="1" fill="#000000" opacity="0.08"/><rect x="0" y="496" width="920" height="1" fill="#000000" opacity="0.08"/><rect x="0" y="500" width="920" height="1" fill="#000000" opacity="0.08"/><rect x="0" y="504" width="920" height="1" fill="#000000" opacity="0.08"/><rect x="0" y="508" width="920" height="1" fill="#000000" opacity="0.08"/><rect x="0" y="512" width="920" height="1" fill="#000000" opacity="0.08"/><rect x="0" y="516" width="920" height="1" fill="#000000" opacity="0.08"/><rect x="0" y="520" width="920" height="1" fill="#000000" opacity="0.08"/><rect x="0" y="524" width="920" height="1" fill="#000000" opacity="0.08"/><rect x="0" y="528" width="920" height="1" fill="#000000" opacity="0.08"/><rect x="0" y="532" width="920" height="1" fill="#000000" opacity="0.08"/><rect x="0" y="536" width="920" height="1" fill="#000000" opacity="0.08"/><rect x="0" y="540" width="920" height="1" fill="#000000" opacity="0.08"/><rect x="0" y="544" width="920" height="1" fill="#000000" opacity="0.08"/><rect x="0" y="548" width="920" height="1" fill="#000000" opacity="0.08"/>
</svg>