<?xml version="1.0" encoding="UTF-8"?>
<svg xmlns="http://www.w3.org/2000/svg" width="256" height="64" viewBox="0 0 256 64" shape-rendering="crispEdges">
<rect x="0" y="0" width="256" height="64" fill="#536f89"/><rect x="0" y="8" width="256" height="48" fill="#6788a6" opacity="0.88"/><polygon points="12,12 36,12 24,32" fill="#c97370" opacity="0.78"/><polygon points="24,32 36,52 12,52" fill="#223344" opacity="0.9"/><polygon points="42,12 66,12 54,32" fill="#c97370" opacity="0.78"/><polygon points="54,32 66,52 42,52" fill="#223344" opacity="0.9"/><polygon points="72,12 96,12 84,32" fill="#c97370" opacity="0.78"/><polygon points="84,32 96,52 72,52" fill="#223344" opacity="0.9"/><polygon points="102,12 126,12 114,32" fill="#c97370" opacity="0.78"/><polygon points="114,32 126,52 102,52" fill="#223344" opacity="0.9"/><polygon points="132,12 156,12 144,32" fill="#c97370" opacity="0.78"/><polygon points="144,32 156,52 132,52" fill="#223344" opacity="0.9"/><polygon points="162,12 186,12 174,32" fill="#c97370" opacity="0.78"/><polygon points="174,32 186,52 162,52" fill="#223344" opacity="0.9"/><polygon points="192,12 216,12 204,32" fill="#c97370" opacity="0.78"/><polygon points="204,32 216,52 192,52" fill="#223344" opacity="0.9"/><polygon points="222,12 246,12 234,32" fill="#c97370" opacity="0.78"/><polygon points="234,32 246,52 222,52" fill="#223344" opacity="0.9"/><rect x="14" y="22" width="228" height="6" fill="#c46362" opacity="0.54"/><rect x="28" y="36" width="200" height="4" fill="#e9d0c1" opacity="0.46"/><rect x="0" y="0" width="256" height="1" fill="#000000" opacity="0.08"/><rect x="0" y="4" width="256" height="1" fill="#000000" opacity="0.08"/><rect x="0" y="8" width="256" height="1" fill="#000000" opacity="0.08"/><rect x="0" y="12" width="256" height="1" fill="#000000" opacity="0.08"/><rect x="0" y="16" width="256" height="1" fill="#000000" opacity="0.08"/><rect x="0" y="20" width="256" height="1" fill="#000000" opacity="0.08"/><rect x="0" y="24" width="256" height="1" fill="#000000" opacity="0.08"/><rect x="0" y="28" width="256" height="1" fill="#000000" opacity="0.08"/><rect x="0" y="32" width="256" height="1" fill="#000000" opacity="0.08"/><rect x="0" y="36" width="256" height="1" fill="#000000" opacity="0.08"/><rect x="0" y="40" width="256" height="1" fill="#000000" opacity="0.08"/><rect x="0" y="44" width="256" height="1" fill="#000000" opacity="0.08"/><rect x="0" y="48" width="256" height="1" fill="#000000" opacity="0.08"/><rect x="0" y="52" width="256" height="1" fill="#000000" opacity="0.08"/><rect x="0" y="56" width="256" height="1" fill="#000000" opacity="0.08"/><rect x="0" y="60" width="256" height="1" fill="#000000" opacity="0.08"/>
</svg>