<?xml version="1.0" encoding="UTF-8"?>
<svg xmlns="http://www.w3.org/2000/svg" width="112" height="112" viewBox="0 0 112 112" shape-rendering="crispEdges">
<rect x="0" y="0" width="112" height="112" fill="none" opacity="0"/><circle cx="56" cy="56" r="44" fill="none" stroke="#df9e73" stroke-width="8" opacity="0.82"/><circle cx="56" cy="56" r="28" fill="none" stroke="#df9e73" stroke-width="4" opacity="0.54"/><rect x="24" y="50" width="64" height="12" fill="#df9e73" opacity="0.86"/><rect x="30" y="66" width="52" height="6" fill="#df9e73" opacity="0.56"/><line x1="22" y1="24" x2="90" y2="92" stroke="#df9e73" stroke-width="5" opacity="0.38" stroke-linecap="square"/><line x1="22" y1="88" x2="90" y2="20" stroke="#df9e73" stroke-width="3" opacity="0.24" stroke-linecap="square"/><rect x="0" y="0" width="112" height="1" fill="#000000" opacity="0.08"/><rect x="0" y="4" width="112" height="1" fill="#000000" opacity="0.08"/><rect x="0" y="8" width="112" height="1" fill="#000000" opacity="0.08"/><rect x="0" y="12" width="112" height="1" fill="#000000" opacity="0.08"/><rect x="0" y="16" width="112" height="1" fill="#000000" opacity="0.08"/><rect x="0" y="20" width="112" height="1" fill="#000000" opacity="0.08"/><rect x="0" y="24" width="112" height="1" fill="#000000" opacity="0.08"/><rect x="0" y="28" width="112" height="1" fill="#000000" opacity="0.08"/><rect x="0" y="32" width="112" height="1" fill="#000000" opacity="0.08"/><rect x="0" y="36" width="112" height="1" fill="#000000" opacity="0.08"/><rect x="0" y="40" width="112" height="1" fill="#000000" opacity="0.08"/><rect x="0" y="44" width="112" height="1" fill="#000000" opacity="0.08"/><rect x="0" y="48" width="112" height="1" fill="#000000" opacity="0.08"/><rect x="0" y="52" width="112" height="1" fill="#000000" opacity="0.08"/><rect x="0" y="56" width="112" height="1" fill="#000000" opacity="0.08"/><rect x="0" y="60" width="112" height="1" fill="#000000" opacity="0.08"/><rect x="0" y="64" width="112" height="1" fill="#000000" opacity="0.08"/><rect x="0" y="68" width="112" height="1" fill="#000000" opacity="0.08"/><rect x="0" y="72" width="112" height="1" fill="#000000" opacity="0.08"/><rect x="0" y="76" width="112" height="1" fill="#000000" opacity="0.08"/><rect x="0" y="80" width="112" height="1" fill="#000000" opacity="0.08"/><rect x="0" y="84" width="112" height="1" fill="#000000" opacity="0.08"/><rect x="0" y="88" width="112" height="1" fill="#000000" opacity="0.08"/><rect x="0" y="92" width="112" height="1" fill="#000000" opacity="0.08"/><rect x="0" y="96" width="112" height="1" fill="#000000" opacity="0.08"/><rect x="0" y="100" width="112" height="1" fill="#000000" opacity="0.08"/><rect x="0" y="104" width="112" height="1" fill="#000000" opacity="0.08"/><rect x="0" y="108" width="112" height="1" fill="#000000" opacity="0.08"/>
</svg>