<?xml version="1.0" encoding="UTF-8"?>
<svg xmlns="http://www.w3.org/2000/svg" width="320" height="448" viewBox="0 0 320 448" shape-rendering="crispEdges">
<rect x="0" y="0" width="320" height="448" fill="#161821" opacity="0.92"/><rect x="16" y="16" width="288" height="416" fill="#ede1d2" opacity="0.1"/><rect x="24" y="24" width="272" height="22" fill="#bc8d6c" opacity="0.74"/><rect x="28" y="60" width="248" height="8" fill="#c4bdb5" opacity="0.72"/><rect x="28" y="78" width="232" height="6" fill="#c4bdb5" opacity="0.54"/><rect x="28" y="94" width="256" height="6" fill="#c4bdb5" opacity="0.54"/><rect x="232" y="54" width="44" height="44" fill="#bc8d6c" opacity="0.42"/><rect x="28" y="138" width="244" height="4" fill="#c4bdb5" opacity="0.34"/><rect x="28" y="146" width="202" height="3" fill="#ccc5bb" opacity="0.26"/><rect x="28" y="162" width="244" height="4" fill="#c4bdb5" opacity="0.34"/><rect x="28" y="186" width="244" height="4" fill="#c4bdb5" opacity="0.34"/><rect x="28" y="194" width="202" height="3" fill="#ccc5bb" opacity="0.26"/><rect x="28" y="210" width="244" height="4" fill="#c4bdb5" opacity="0.34"/><rect x="28" y="234" width="244" height="4" fill="#c4bdb5" opacity="0.34"/><rect x="28" y="242" width="202" height="3" fill="#ccc5bb" opacity="0.26"/><rect x="28" y="258" width="244" height="4" fill="#c4bdb5" opacity="0.34"/><rect x="28" y="282" width="244" height="4" fill="#c4bdb5" opacity="0.34"/><rect x="28" y="290" width="202" height="3" fill="#ccc5bb" opacity="0.26"/><rect x="28" y="306" width="244" height="4" fill="#c4bdb5" opacity="0.34"/><rect x="28" y="330" width="244" height="4" fill="#c4bdb5" opacity="0.34"/><rect x="28" y="338" width="202" height="3" fill="#ccc5bb" opacity="0.26"/><rect x="28" y="354" width="244" height="4" fill="#c4bdb5" opacity="0.34"/><polygon points="260,378 278,396 260,414 242,396" fill="#bc8d6c" opacity="0.58"/><polygon points="260,388 268,396 260,404 252,396" fill="#090910" opacity="0.58"/><rect x="0" y="0" width="320" height="1" fill="#000000" opacity="0.08"/><rect x="0" y="4" width="320" height="1" fill="#000000" opacity="0.08"/><rect x="0" y="8" width="320" height="1" fill="#000000" opacity="0.08"/><rect x="0" y="12" width="320" height="1" fill="#000000" opacity="0.08"/><rect x="0" y="16" width="320" height="1" fill="#000000" opacity="0.08"/><rect x="0" y="20" width="320" height="1" fill="#000000" opacity="0.08"/><rect x="0" y="24" width="320" height="1" fill="#000000" opacity="0.08"/><rect x="0" y="28" width="320" height="1" fill="#000000" opacity="0.08"/><rect x="0" y="32" width="320" height="1" fill="#000000" opacity="0.08"/><rect x="0" y="36" width="320" height="1" fill="#000000" opacity="0.08"/><rect x="0" y="40" width="320" height="1" fill="#000000" opacity="0.08"/><rect x="0" y="44" width="320" height="1" fill="#000000" opacity="0.08"/><rect x="0" y="48" width="320" height="1" fill="#000000" opacity="0.08"/><rect x="0" y="52" width="320" height="1" fill="#000000" opacity="0.08"/><rect x="0" y="56" width="320" height="1" fill="#000000" opacity="0.08"/><rect x="0" y="60" width="320" height="1" fill="#000000" opacity="0.08"/><rect x="0" y="64" width="320" height="1" fill="#000000" opacity="0.08"/><rect x="0" y="68" width="320" height="1" fill="#000000" opacity="0.08"/><rect x="0" y="72" width="320" height="1" fill="#000000" opacity="0.08"/><rect x="0" y="76" width="320" height="1" fill="#000000" opacity="0.08"/><rect x="0" y="80" width="320" height="1" fill="#000000" opacity="0.08"/><rect x="0" y="84" width="320" height="1" fill="#000000" opacity="0.08"/><rect x="0" y="88" width="320" height="1" fill="#000000" opacity="0.08"/><rect x="0" y="92" width="320" height="1" fill="#000000" opacity="0.08"/><rect x="0" y="96" width="320" height="1" fill="#000000" opacity="0.08"/><rect x="0" y="100" width="320" height="1" fill="#000000" opacity="0.08"/><rect x="0" y="104" width="320" height="1" fill="#000000" opacity="0.08"/><rect x="0" y="108" width="320" height="1" fill="#000000" opacity="0.08"/><rect x="0" y="112" width="320" height="1" fill="#000000" opacity="0.08"/><rect x="0" y="116" width="320" height="1" fill="#000000" opacity="0.08"/><rect x="0" y="120" width="320" height="1" fill="#000000" opacity="0.08"/><rect x="0" y="124" width="320" height="1" fill="#000000" opacity="0.08"/><rect x="0" y="128" width="320" height="1" fill="#000000" opacity="0.08"/><rect x="0" y="132" width="320" height="1" fill="#000000" opacity="0.08"/><rect x="0" y="136" width="320" height="1" fill="#000000" opacity="0.08"/><rect x="0" y="140" width="320" height="1" fill="#000000" opacity="0.08"/><rect x="0" y="144" width="320" height="1" fill="#000000" opacity="0.08"/><rect x="0" y="148" width="320" height="1" fill="#000000" opacity="0.08"/><rect x="0" y="152" width="320" height="1" fill="#000000" opacity="0.08"/><rect x="0" y="156" width="320" height="1" fill="#000000" opacity="0.08"/><rect x="0" y="160" width="320" height="1" fill="#000000" opacity="0.08"/><rect x="0" y="164" width="320" height="1" fill="#000000" opacity="0.08"/><rect x="0" y="168" width="320" height="1" fill="#000000" opacity="0.08"/><rect x="0" y="172" width="320" height="1" fill="#000000" opacity="0.08"/><rect x="0" y="176" width="320" height="1" fill="#000000" opacity="0.08"/><rect x="0" y="180" width="320" height="1" fill="#000000" opacity="0.08"/><rect x="0" y="184" width="320" height="1" fill="#000000" opacity="0.08"/><rect x="0" y="188" width="320" height="1" fill="#000000" opacity="0.08"/><rect x="0" y="192" width="320" height="1" fill="#000000" opacity="0.08"/><rect x="0" y="196" width="320" height="1" fill="#000000" opacity="0.08"/><rect x="0" y="200" width="320" height="1" fill="#000000" opacity="0.08"/><rect x="0" y="204" width="320" height="1" fill="#000000" opacity="0.08"/><rect x="0" y="208" width="320" height="1" fill="#000000" opacity="0.08"/><rect x="0" y="212" width="320" height="1" fill="#000000" opacity="0.08"/><rect x="0" y="216" width="320" height="1" fill="#000000" opacity="0.08"/><rect x="0" y="220" width="320" height="1" fill="#000000" opacity="0.08"/><rect x="0" y="224" width="320" height="1" fill="#000000" opacity="0.08"/><rect x="0" y="228" width="320" height="1" fill="#000000" opacity="0.08"/><rect x="0" y="232" width="320" height="1" fill="#000000" opacity="0.08"/><rect x="0" y="236" width="320" height="1" fill="#000000" opacity="0.08"/><rect x="0" y="240" width="320" height="1" fill="#000000" opacity="0.08"/><rect x="0" y="244" width="320" height="1" fill="#000000" opacity="0.08"/><rect x="0" y="248" width="320" height="1" fill="#000000" opacity="0.08"/><rect x="0" y="252" width="320" height="1" fill="#000000" opacity="0.08"/><rect x="0" y="256" width="320" height="1" fill="#000000" opacity="0.08"/><rect x="0" y="260" width="320" height="1" fill="#000000" opacity="0.08"/><rect x="0" y="264" width="320" height="1" fill="#000000" opacity="0.08"/><rect x="0" y="268" width="320" height="1" fill="#000000" opacity="0.08"/><rect x="0" y="272" width="320" height="1" fill="#000000" opacity="0.08"/><rect x="0" y="276" width="320" height="1" fill="#000000" opacity="0.08"/><rect x="0" y="280" width="320" height="1" fill="#000000" opacity="0.08"/><rect x="0" y="284" width="320" height="1" fill="#000000" opacity="0.08"/><rect x="0" y="288" width="320" height="1" fill="#000000" opacity="0.08"/><rect x="0" y="292" width="320" height="1" fill="#000000" opacity="0.08"/><rect x="0" y="296" width="320" height="1" fill="#000000" opacity="0.08"/><rect x="0" y="300" width="320" height="1" fill="#000000" opacity="0.08"/><rect x="0" y="304" width="320" height="1" fill="#000000" opacity="0.08"/><rect x="0" y="308" width="320" height="1" fill="#000000" opacity="0.08"/><rect x="0" y="312" width="320" height="1" fill="#000000" opacity="0.08"/><rect x="0" y="316" width="320" height="1" fill="#000000" opacity="0.08"/><rect x="0" y="320" width="320" height="1" fill="#000000" opacity="0.08"/><rect x="0" y="324" width="320" height="1" fill="#000000" opacity="0.08"/><rect x="0" y="328" width="320" height="1" fill="#000000" opacity="0.08"/><rect x="0" y="332" width="320" height="1" fill="#000000" opacity="0.08"/><rect x="0" y="336" width="320" height="1" fill="#000000" opacity="0.08"/><rect x="0" y="340" width="320" height="1" fill="#000000" opacity="0.08"/><rect x="0" y="344" width="320" height="1" fill="#000000" opacity="0.08"/><rect x="0" y="348" width="320" height="1" fill="#000000" opacity="0.08"/><rect x="0" y="352" width="320" height="1" fill="#000000" opacity="0.08"/><rect x="0" y="356" width="320" height="1" fill="#000000" opacity="0.08"/><rect x="0" y="360" width="320" height="1" fill="#000000" opacity="0.08"/><rect x="0" y="364" width="320" height="1" fill="#000000" opacity="0.08"/><rect x="0" y="368" width="320" height="1" fill="#000000" opacity="0.08"/><rect x="0" y="372" width="320" height="1" fill="#000000" opacity="0.08"/><rect x="0" y="376" width="320" height="1" fill="#000000" opacity="0.08"/><rect x="0" y="380" width="320" height="1" fill="#000000" opacity="0.08"/><rect x="0" y="384" width="320" height="1" fill="#000000" opacity="0.08"/><rect x="0" y="388" width="320" height="1" fill="#000000" opacity="0.08"/><rect x="0" y="392" width="320" height="1" fill="#000000" opacity="0.08"/><rect x="0" y="396" width="320" height="1" fill="#000000" opacity="0.08"/><rect x="0" y="400" width="320" height="1" fill="#000000" opacity="0.08"/><rect x="0" y="404" width="320" height="1" fill="#000000" opacity="0.08"/><rect x="0" y="408" width="320" height="1" fill="#000000" opacity="0.08"/><rect x="0" y="412" width="320" height="1" fill="#000000" opacity="0.08"/><rect x="0" y="416" width="320" height="1" fill="#000000" opacity="0.08"/><rect x="0" y="420" width="320" height="1" fill="#000000" opacity="0.08"/><rect x="0" y="424" width="320" height="1" fill="#000000" opacity="0.08"/><rect x="0" y="428" width="320" height="1" fill="#000000" opacity="0.08"/><rect x="0" y="432" width="320" height="1" fill="#000000" opacity="0.08"/><rect x="0" y="436" width="320" height="1" fill="#000000" opacity="0.08"/><rect x="0" y="440" width="320" height="1" fill="#000000" opacity="0.08"/><rect x="0" y="444" width="320" height="1" fill="#000000" opacity="0.08"/>
</svg>