<?xml version="1.0" encoding="UTF-8"?>
<svg xmlns="http://www.w3.org/2000/svg" width="192" height="144" viewBox="0 0 192 144" shape-rendering="crispEdges">
<rect x="0" y="0" width="192" height="144" fill="none" opacity="0"/><polygon points="16,32 112,16 138,98 42,112" fill="#e1d9cf" opacity="0.96"/><polygon points="42,24 156,28 150,118 36,114" fill="#f0e6d8" opacity="0.94"/><polygon points="66,34 176,52 160,132 50,114" fill="#e9e0d4" opacity="0.92"/><rect x="54" y="42" width="80" height="12" fill="#9a9aa5" opacity="0.8"/><rect x="58" y="62" width="84" height="6" fill="#515259" opacity="0.76"/><rect x="58" y="76" width="70" height="5" fill="#515259" opacity="0.56"/><rect x="58" y="88" width="62" height="5" fill="#515259" opacity="0.56"/><rect x="92" y="96" width="46" height="24" fill="#afacb1" opacity="0.58"/><polygon points="122,98 132,108 122,118 112,108" fill="#9a9aa5" opacity="0.82"/><polygon points="122,103 127,108 122,113 117,108" fill="#090910" opacity="0.68"/><rect x="18" y="28" width="4" height="84" fill="#45474f" opacity="0.28"/><rect x="24" y="30" width="4" height="84" fill="#45474f" opacity="0.28"/><rect x="30" y="32" width="4" height="84" fill="#45474f" opacity="0.28"/><rect x="36" y="34" width="4" height="84" fill="#45474f" opacity="0.28"/><rect x="0" y="0" width="192" height="1" fill="#000000" opacity="0.08"/><rect x="0" y="4" width="192" height="1" fill="#000000" opacity="0.08"/><rect x="0" y="8" width="192" height="1" fill="#000000" opacity="0.08"/><rect x="0" y="12" width="192" height="1" fill="#000000" opacity="0.08"/><rect x="0" y="16" width="192" height="1" fill="#000000" opacity="0.08"/><rect x="0" y="20" width="192" height="1" fill="#000000" opacity="0.08"/><rect x="0" y="24" width="192" height="1" fill="#000000" opacity="0.08"/><rect x="0" y="28" width="192" height="1" fill="#000000" opacity="0.08"/><rect x="0" y="32" width="192" height="1" fill="#000000" opacity="0.08"/><rect x="0" y="36" width="192" height="1" fill="#000000" opacity="0.08"/><rect x="0" y="40" width="192" height="1" fill="#000000" opacity="0.08"/><rect x="0" y="44" width="192" height="1" fill="#000000" opacity="0.08"/><rect x="0" y="48" width="192" height="1" fill="#000000" opacity="0.08"/><rect x="0" y="52" width="192" height="1" fill="#000000" opacity="0.08"/><rect x="0" y="56" width="192" height="1" fill="#000000" opacity="0.08"/><rect x="0" y="60" width="192" height="1" fill="#000000" opacity="0.08"/><rect x="0" y="64" width="192" height="1" fill="#000000" opacity="0.08"/><rect x="0" y="68" width="192" height="1" fill="#000000" opacity="0.08"/><rect x="0" y="72" width="192" height="1" fill="#000000" opacity="0.08"/><rect x="0" y="76" width="192" height="1" fill="#000000" opacity="0.08"/><rect x="0" y="80" width="192" height="1" fill="#000000" opacity="0.08"/><rect x="0" y="84" width="192" height="1" fill="#000000" opacity="0.08"/><rect x="0" y="88" width="192" height="1" fill="#000000" opacity="0.08"/><rect x="0" y="92" width="192" height="1" fill="#000000" opacity="0.08"/><rect x="0" y="96" width="192" height="1" fill="#000000" opacity="0.08"/><rect x="0" y="100" width="192" height="1" fill="#000000" opacity="0.08"/><rect x="0" y="104" width="192" height="1" fill="#000000" opacity="0.08"/><rect x="0" y="108" width="192" height="1" fill="#000000" opacity="0.08"/><rect x="0" y="112" width="192" height="1" fill="#000000" opacity="0.08"/><rect x="0" y="116" width="192" height="1" fill="#000000" opacity="0.08"/><rect x="0" y="120" width="192" height="1" fill="#000000" opacity="0.08"/><rect x="0" y="124" width="192" height="1" fill="#000000" opacity="0.08"/><rect x="0" y="128" width="192" height="1" fill="#000000" opacity="0.08"/><rect x="0" y="132" width="192" height="1" fill="#000000" opacity="0.08"/><rect x="0" y="136" width="192" height="1" fill="#000000" opacity="0.08"/><rect x="0" y="140" width="192" height="1" fill="#000000" opacity="0.08"/>
</svg>