<?xml version="1.0" encoding="UTF-8"?>
<svg xmlns="http://www.w3.org/2000/svg" width="1280" height="720" viewBox="0 0 1280 720" shape-rendering="crispEdges">
<rect x="0" y="0" width="1280" height="720" fill="#0e1722" opacity="0.94"/><rect x="0" y="0" width="1280" height="10" fill="#79afd2" opacity="0.14"/><rect x="0" y="710" width="1280" height="10" fill="#79afd2" opacity="0.14"/><rect x="0" y="0" width="10" height="720" fill="#79afd2" opacity="0.1"/><rect x="1270" y="0" width="10" height="720" fill="#79afd2" opacity="0.1"/><rect x="18" y="18" width="92" height="10" fill="#79afd2" opacity="0.5"/><rect x="18" y="18" width="10" height="72" fill="#79afd2" opacity="0.5"/><rect x="1170" y="18" width="92" height="10" fill="#79afd2" opacity="0.5"/><rect x="1252" y="18" width="10" height="72" fill="#79afd2" opacity="0.5"/><rect x="18" y="692" width="92" height="10" fill="#79afd2" opacity="0.5"/><rect x="18" y="630" width="10" height="72" fill="#79afd2" opacity="0.5"/><rect x="1170" y="692" width="92" height="10" fill="#79afd2" opacity="0.5"/><rect x="1252" y="630" width="10" height="72" fill="#79afd2" opacity="0.5"/><rect x="28" y="28" width="1224" height="664" fill="#172330" opacity="0.08"/><rect x="0" y="0" width="1280" height="112" fill="#0e1722" opacity="0.28"/><rect x="0" y="598" width="1280" height="122" fill="#0e1722" opacity="0.22"/><polygon points="146.39999999999998,391.59999999999997 1082.4,391.59999999999997 1082.4,443.59999999999997 146.39999999999998,443.59999999999997" fill="#8fb9d3" opacity="0.12"/><rect x="260" y="438" width="360" height="216" fill="#eae5d6" opacity="0.86"/><rect x="286" y="466" width="170" height="16" fill="#79afd2" opacity="0.42"/><rect x="286" y="502" width="286" height="6" fill="#c3c1b7" opacity="0.54"/><rect x="286" y="522" width="252" height="6" fill="#c3c1b7" opacity="0.42"/><rect x="286" y="542" width="226" height="6" fill="#c3c1b7" opacity="0.42"/><rect x="470" y="570" width="112" height="54" fill="#8fb9d3" opacity="0.22"/><polygon points="526,576 548,598 526,620 504,598" fill="#79afd2" opacity="0.34"/><polygon points="526,586 538,598 526,610 514,598" fill="#f1e8d6" opacity="0.46"/><line x1="344" y1="618" x2="578" y2="618" stroke="#79afd2" stroke-width="5" opacity="0.12" stroke-linecap="square"/><line x1="462" y1="526" x2="462" y2="650" stroke="#79afd2" stroke-width="5" opacity="0.12" stroke-linecap="square"/><rect x="0" y="0" width="4" height="720" fill="#79afd2" opacity="0.035"/><rect x="18" y="0" width="4" height="720" fill="#79afd2" opacity="0.02"/><rect x="36" y="0" width="4" height="720" fill="#79afd2" opacity="0.035"/><rect x="54" y="0" width="4" height="720" fill="#79afd2" opacity="0.02"/><rect x="72" y="0" width="4" height="720" fill="#79afd2" opacity="0.035"/><rect x="90" y="0" width="4" height="720" fill="#79afd2" opacity="0.02"/><rect x="108" y="0" width="4" height="720" fill="#79afd2" opacity="0.035"/><rect x="126" y="0" width="4" height="720" fill="#79afd2" opacity="0.02"/><rect x="144" y="0" width="4" height="720" fill="#79afd2" opacity="0.035"/><rect x="162" y="0" width="4" height="720" fill="#79afd2" opacity="0.02"/><rect x="180" y="0" width="4" height="720" fill="#79afd2" opacity="0.035"/><rect x="198" y="0" width="4" height="720" fill="#79afd2" opacity="0.02"/><rect x="216" y="0" width="4" height="720" fill="#79afd2" opacity="0.035"/><rect x="234" y="0" width="4" height="720" fill="#79afd2" opacity="0.02"/><rect x="252" y="0" width="4" height="720" fill="#79afd2" opacity="0.035"/><rect x="270" y="0" width="4" height="720" fill="#79afd2" opacity="0.02"/><rect x="288" y="0" width="4" height="720" fill="#79afd2" opacity="0.035"/><rect x="306" y="0" width="4" height="720" fill="#79afd2" opacity="0.02"/><rect x="324" y="0" width="4" height="720" fill="#79afd2" opacity="0.035"/><rect x="342" y="0" width="4" height="720" fill="#79afd2" opacity="0.02"/><rect x="360" y="0" width="4" height="720" fill="#79afd2" opacity="0.035"/><rect x="378" y="0" width="4" height="720" fill="#79afd2" opacity="0.02"/><rect x="396" y="0" width="4" height="720" fill="#79afd2" opacity="0.035"/><rect x="414" y="0" width="4" height="720" fill="#79afd2" opacity="0.02"/><rect x="432" y="0" width="4" height="720" fill="#79afd2" opacity="0.035"/><rect x="450" y="0" width="4" height="720" fill="#79afd2" opacity="0.02"/><rect x="468" y="0" width="4" height="720" fill="#79afd2" opacity="0.035"/><rect x="486" y="0" width="4" height="720" fill="#79afd2" opacity="0.02"/><rect x="504" y="0" width="4" height="720" fill="#79afd2" opacity="0.035"/><rect x="522" y="0" width="4" height="720" fill="#79afd2" opacity="0.02"/><rect x="540" y="0" width="4" height="720" fill="#79afd2" opacity="0.035"/><rect x="558" y="0" width="4" height="720" fill="#79afd2" opacity="0.02"/><rect x="576" y="0" width="4" height="720" fill="#79afd2" opacity="0.035"/><rect x="594" y="0" width="4" height="720" fill="#79afd2" opacity="0.02"/><rect x="612" y="0" width="4" height="720" fill="#79afd2" opacity="0.035"/><rect x="630" y="0" width="4" height="720" fill="#79afd2" opacity="0.02"/><rect x="648" y="0" width="4" height="720" fill="#79afd2" opacity="0.035"/><rect x="666" y="0" width="4" height="720" fill="#79afd2" opacity="0.02"/><rect x="684" y="0" width="4" height="720" fill="#79afd2" opacity="0.035"/><rect x="702" y="0" width="4" height="720" fill="#79afd2" opacity="0.02"/><rect x="720" y="0" width="4" height="720" fill="#79afd2" opacity="0.035"/><rect x="738" y="0" width="4" height="720" fill="#79afd2" opacity="0.02"/><rect x="756" y="0" width="4" height="720" fill="#79afd2" opacity="0.035"/><rect x="774" y="0" width="4" height="720" fill="#79afd2" opacity="0.02"/><rect x="792" y="0" width="4" height="720" fill="#79afd2" opacity="0.035"/><rect x="810" y="0" width="4" height="720" fill="#79afd2" opacity="0.02"/><rect x="828" y="0" width="4" height="720" fill="#79afd2" opacity="0.035"/><rect x="846" y="0" width="4" height="720" fill="#79afd2" opacity="0.02"/><rect x="864" y="0" width="4" height="720" fill="#79afd2" opacity="0.035"/><rect x="882" y="0" width="4" height="720" fill="#79afd2" opacity="0.02"/><rect x="900" y="0" width="4" height="720" fill="#79afd2" opacity="0.035"/><rect x="918" y="0" width="4" height="720" fill="#79afd2" opacity="0.02"/><rect x="936" y="0" width="4" height="720" fill="#79afd2" opacity="0.035"/><rect x="954" y="0" width="4" height="720" fill="#79afd2" opacity="0.02"/><rect x="972" y="0" width="4" height="720" fill="#79afd2" opacity="0.035"/><rect x="990" y="0" width="4" height="720" fill="#79afd2" opacity="0.02"/><rect x="1008" y="0" width="4" height="720" fill="#79afd2" opacity="0.035"/><rect x="1026" y="0" width="4" height="720" fill="#79afd2" opacity="0.02"/><rect x="1044" y="0" width="4" height="720" fill="#79afd2" opacity="0.035"/><rect x="1062" y="0" width="4" height="720" fill="#79afd2" opacity="0.02"/><rect x="1080" y="0" width="4" height="720" fill="#79afd2" opacity="0.035"/><rect x="1098" y="0" width="4" height="720" fill="#79afd2" opacity="0.02"/><rect x="1116" y="0" width="4" height="720" fill="#79afd2" opacity="0.035"/><rect x="1134" y="0" width="4" height="720" fill="#79afd2" opacity="0.02"/><rect x="1152" y="0" width="4" height="720" fill="#79afd2" opacity="0.035"/><rect x="1170" y="0" width="4" height="720" fill="#79afd2" opacity="0.02"/><rect x="1188" y="0" width="4" height="720" fill="#79afd2" opacity="0.035"/><rect x="1206" y="0" width="4" height="720" fill="#79afd2" opacity="0.02"/><rect x="1224" y="0" width="4" height="720" fill="#79afd2" opacity="0.035"/><rect x="1242" y="0" width="4" height="720" fill="#79afd2" opacity="0.02"/><rect x="1260" y="0" width="4" height="720" fill="#79afd2" opacity="0.035"/><rect x="1278" y="0" width="4" height="720" fill="#79afd2" opacity="0.02"/><rect x="0" y="0" width="1280" height="1" fill="#000000" opacity="0.08"/><rect x="0" y="4" width="1280" height="1" fill="#000000" opacity="0.08"/><rect x="0" y="8" width="1280" height="1" fill="#000000" opacity="0.08"/><rect x="0" y="12" width="1280" height="1" fill="#000000" opacity="0.08"/><rect x="0" y="16" width="1280" height="1" fill="#000000" opacity="0.08"/><rect x="0" y="20" width="1280" height="1" fill="#000000" opacity="0.08"/><rect x="0" y="24" width="1280" height="1" fill="#000000" opacity="0.08"/><rect x="0" y="28" width="1280" height="1" fill="#000000" opacity="0.08"/><rect x="0" y="32" width="1280" height="1" fill="#000000" opacity="0.08"/><rect x="0" y="36" width="1280" height="1" fill="#000000" opacity="0.08"/><rect x="0" y="40" width="1280" height="1" fill="#000000" opacity="0.08"/><rect x="0" y="44" width="1280" height="1" fill="#000000" opacity="0.08"/><rect x="0" y="48" width="1280" height="1" fill="#000000" opacity="0.08"/><rect x="0" y="52" width="1280" height="1" fill="#000000" opacity="0.08"/><rect x="0" y="56" width="1280" height="1" fill="#000000" opacity="0.08"/><rect x="0" y="60" width="1280" height="1" fill="#000000" opacity="0.08"/><rect x="0" y="64" width="1280" height="1" fill="#000000" opacity="0.08"/><rect x="0" y="68" width="1280" height="1" fill="#000000" opacity="0.08"/><rect x="0" y="72" width="1280" height="1" fill="#000000" opacity="0.08"/><rect x="0" y="76" width="1280" height="1" fill="#000000" opacity="0.08"/><rect x="0" y="80" width="1280" height="1" fill="#000000" opacity="0.08"/><rect x="0" y="84" width="1280" height="1" fill="#000000" opacity="0.08"/><rect x="0" y="88" width="1280" height="1" fill="#000000" opacity="0.08"/><rect x="0" y="92" width="1280" height="1" fill="#000000" opacity="0.08"/><rect x="0" y="96" width="1280" height="1" fill="#000000" opacity="0.08"/><rect x="0" y="100" width="1280" height="1" fill="#000000" opacity="0.08"/><rect x="0" y="104" width="1280" height="1" fill="#000000" opacity="0.08"/><rect x="0" y="108" width="1280" height="1" fill="#000000" opacity="0.08"/><rect x="0" y="112" width="1280" height="1" fill="#000000" opacity="0.08"/><rect x="0" y="116" width="1280" height="1" fill="#000000" opacity="0.08"/><rect x="0" y="120" width="1280" height="1" fill="#000000" opacity="0.08"/><rect x="0" y="124" width="1280" height="1" fill="#000000" opacity="0.08"/><rect x="0" y="128" width="1280" height="1" fill="#000000" opacity="0.08"/><rect x="0" y="132" width="1280" height="1" fill="#000000" opacity="0.08"/><rect x="0" y="136" width="1280" height="1" fill="#000000" opacity="0.08"/><rect x="0" y="140" width="1280" height="1" fill="#000000" opacity="0.08"/><rect x="0" y="144" width="1280" height="1" fill="#000000" opacity="0.08"/><rect x="0" y="148" width="1280" height="1" fill="#000000" opacity="0.08"/><rect x="0" y="152" width="1280" height="1" fill="#000000" opacity="0.08"/><rect x="0" y="156" width="1280" height="1" fill="#000000" opacity="0.08"/><rect x="0" y="160" width="1280" height="1" fill="#000000" opacity="0.08"/><rect x="0" y="164" width="1280" height="1" fill="#000000" opacity="0.08"/><rect x="0" y="168" width="1280" height="1" fill="#000000" opacity="0.08"/><rect x="0" y="172" width="1280" height="1" fill="#000000" opacity="0.08"/><rect x="0" y="176" width="1280" height="1" fill="#000000" opacity="0.08"/><rect x="0" y="180" width="1280" height="1" fill="#000000" opacity="0.08"/><rect x="0" y="184" width="1280" height="1" fill="#000000" opacity="0.08"/><rect x="0" y="188" width="1280" height="1" fill="#000000" opacity="0.08"/><rect x="0" y="192" width="1280" height="1" fill="#000000" opacity="0.08"/><rect x="0" y="196" width="1280" height="1" fill="#000000" opacity="0.08"/><rect x="0" y="200" width="1280" height="1" fill="#000000" opacity="0.08"/><rect x="0" y="204" width="1280" height="1" fill="#000000" opacity="0.08"/><rect x="0" y="208" width="1280" height="1" fill="#000000" opacity="0.08"/><rect x="0" y="212" width="1280" height="1" fill="#000000" opacity="0.08"/><rect x="0" y="216" width="1280" height="1" fill="#000000" opacity="0.08"/><rect x="0" y="220" width="1280" height="1" fill="#000000" opacity="0.08"/><rect x="0" y="224" width="1280" height="1" fill="#000000" opacity="0.08"/><rect x="0" y="228" width="1280" height="1" fill="#000000" opacity="0.08"/><rect x="0" y="232" width="1280" height="1" fill="#000000" opacity="0.08"/><rect x="0" y="236" width="1280" height="1" fill="#000000" opacity="0.08"/><rect x="0" y="240" width="1280" height="1" fill="#000000" opacity="0.08"/><rect x="0" y="244" width="1280" height="1" fill="#000000" opacity="0.08"/><rect x="0" y="248" width="1280" height="1" fill="#000000" opacity="0.08"/><rect x="0" y="252" width="1280" height="1" fill="#000000" opacity="0.08"/><rect x="0" y="256" width="1280" height="1" fill="#000000" opacity="0.08"/><rect x="0" y="260" width="1280" height="1" fill="#000000" opacity="0.08"/><rect x="0" y="264" width="1280" height="1" fill="#000000" opacity="0.08"/><rect x="0" y="268" width="1280" height="1" fill="#000000" opacity="0.08"/><rect x="0" y="272" width="1280" height="1" fill="#000000" opacity="0.08"/><rect x="0" y="276" width="1280" height="1" fill="#000000" opacity="0.08"/><rect x="0" y="280" width="1280" height="1" fill="#000000" opacity="0.08"/><rect x="0" y="284" width="1280" height="1" fill="#000000" opacity="0.08"/><rect x="0" y="288" width="1280" height="1" fill="#000000" opacity="0.08"/><rect x="0" y="292" width="1280" height="1" fill="#000000" opacity="0.08"/><rect x="0" y="296" width="1280" height="1" fill="#000000" opacity="0.08"/><rect x="0" y="300" width="1280" height="1" fill="#000000" opacity="0.08"/><rect x="0" y="304" width="1280" height="1" fill="#000000" opacity="0.08"/><rect x="0" y="308" width="1280" height="1" fill="#000000" opacity="0.08"/><rect x="0" y="312" width="1280" height="1" fill="#000000" opacity="0.08"/><rect x="0" y="316" width="1280" height="1" fill="#000000" opacity="0.08"/><rect x="0" y="320" width="1280" height="1" fill="#000000" opacity="0.08"/><rect x="0" y="324" width="1280" height="1" fill="#000000" opacity="0.08"/><rect x="0" y="328" width="1280" height="1" fill="#000000" opacity="0.08"/><rect x="0" y="332" width="1280" height="1" fill="#000000" opacity="0.08"/><rect x="0" y="336" width="1280" height="1" fill="#000000" opacity="0.08"/><rect x="0" y="340" width="1280" height="1" fill="#000000" opacity="0.08"/><rect x="0" y="344" width="1280" height="1" fill="#000000" opacity="0.08"/><rect x="0" y="348" width="1280" height="1" fill="#000000" opacity="0.08"/><rect x="0" y="352" width="1280" height="1" fill="#000000" opacity="0.08"/><rect x="0" y="356" width="1280" height="1" fill="#000000" opacity="0.08"/><rect x="0" y="360" width="1280" height="1" fill="#000000" opacity="0.08"/><rect x="0" y="364" width="1280" height="1" fill="#000000" opacity="0.08"/><rect x="0" y="368" width="1280" height="1" fill="#000000" opacity="0.08"/><rect x="0" y="372" width="1280" height="1" fill="#000000" opacity="0.08"/><rect x="0" y="376" width="1280" height="1" fill="#000000" opacity="0.08"/><rect x="0" y="380" width="1280" height="1" fill="#000000" opacity="0.08"/><rect x="0" y="384" width="1280" height="1" fill="#000000" opacity="0.08"/><rect x="0" y="388" width="1280" height="1" fill="#000000" opacity="0.08"/><rect x="0" y="392" width="1280" height="1" fill="#000000" opacity="0.08"/><rect x="0" y="396" width="1280" height="1" fill="#000000" opacity="0.08"/><rect x="0" y="400" width="1280" height="1" fill="#000000" opacity="0.08"/><rect x="0" y="404" width="1280" height="1" fill="#000000" opacity="0.08"/><rect x="0" y="408" width="1280" height="1" fill="#000000" opacity="0.08"/><rect x="0" y="412" width="1280" height="1" fill="#000000" opacity="0.08"/><rect x="0" y="416" width="1280" height="1" fill="#000000" opacity="0.08"/><rect x="0" y="420" width="1280" height="1" fill="#000000" opacity="0.08"/><rect x="0" y="424" width="1280" height="1" fill="#000000" opacity="0.08"/><rect x="0" y="428" width="1280" height="1" fill="#000000" opacity="0.08"/><rect x="0" y="432" width="1280" height="1" fill="#000000" opacity="0.08"/><rect x="0" y="436" width="1280" height="1" fill="#000000" opacity="0.08"/><rect x="0" y="440" width="1280" height="1" fill="#000000" opacity="0.08"/><rect x="0" y="444" width="1280" height="1" fill="#000000" opacity="0.08"/><rect x="0" y="448" width="1280" height="1" fill="#000000" opacity="0.08"/><rect x="0" y="452" width="1280" height="1" fill="#000000" opacity="0.08"/><rect x="0" y="456" width="1280" height="1" fill="#000000" opacity="0.08"/><rect x="0" y="460" width="1280" height="1" fill="#000000" opacity="0.08"/><rect x="0" y="464" width="1280" height="1" fill="#000000" opacity="0.08"/><rect x="0" y="468" width="1280" height="1" fill="#000000" opacity="0.08"/><rect x="0" y="472" width="1280" height="1" fill="#000000" opacity="0.08"/><rect x="0" y="476" width="1280" height="1" fill="#000000" opacity="0.08"/><rect x="0" y="480" width="1280" height="1" fill="#000000" opacity="0.08"/><rect x="0" y="484" width="1280" height="1" fill="#000000" opacity="0.08"/><rect x="0" y="488" width="1280" height="1" fill="#000000" opacity="0.08"/><rect x="0" y="492" width="1280" height="1" fill="#000000" opacity="0.08"/><rect x="0" y="496" width="1280" height="1" fill="#000000" opacity="0.08"/><rect x="0" y="500" width="1280" height="1" fill="#000000" opacity="0.08"/><rect x="0" y="504" width="1280" height="1" fill="#000000" opacity="0.08"/><rect x="0" y="508" width="1280" height="1" fill="#000000" opacity="0.08"/><rect x="0" y="512" width="1280" height="1" fill="#000000" opacity="0.08"/><rect x="0" y="516" width="1280" height="1" fill="#000000" opacity="0.08"/><rect x="0" y="520" width="1280" height="1" fill="#000000" opacity="0.08"/><rect x="0" y="524" width="1280" height="1" fill="#000000" opacity="0.08"/><rect x="0" y="528" width="1280" height="1" fill="#000000" opacity="0.08"/><rect x="0" y="532" width="1280" height="1" fill="#000000" opacity="0.08"/><rect x="0" y="536" width="1280" height="1" fill="#000000" opacity="0.08"/><rect x="0" y="540" width="1280" height="1" fill="#000000" opacity="0.08"/><rect x="0" y="544" width="1280" height="1" fill="#000000" opacity="0.08"/><rect x="0" y="548" width="1280" height="1" fill="#000000" opacity="0.08"/><rect x="0" y="552" width="1280" height="1" fill="#000000" opacity="0.08"/><rect x="0" y="556" width="1280" height="1" fill="#000000" opacity="0.08"/><rect x="0" y="560" width="1280" height="1" fill="#000000" opacity="0.08"/><rect x="0" y="564" width="1280" height="1" fill="#000000" opacity="0.08"/><rect x="0" y="568" width="1280" height="1" fill="#000000" opacity="0.08"/><rect x="0" y="572" width="1280" height="1" fill="#000000" opacity="0.08"/><rect x="0" y="576" width="1280" height="1" fill="#000000" opacity="0.08"/><rect x="0" y="580" width="1280" height="1" fill="#000000" opacity="0.08"/><rect x="0" y="584" width="1280" height="1" fill="#000000" opacity="0.08"/><rect x="0" y="588" width="1280" height="1" fill="#000000" opacity="0.08"/><rect x="0" y="592" width="1280" height="1" fill="#000000" opacity="0.08"/><rect x="0" y="596" width="1280" height="1" fill="#000000" opacity="0.08"/><rect x="0" y="600" width="1280" height="1" fill="#000000" opacity="0.08"/><rect x="0" y="604" width="1280" height="1" fill="#000000" opacity="0.08"/><rect x="0" y="608" width="1280" height="1" fill="#000000" opacity="0.08"/><rect x="0" y="612" width="1280" height="1" fill="#000000" opacity="0.08"/><rect x="0" y="616" width="1280" height="1" fill="#000000" opacity="0.08"/><rect x="0" y="620" width="1280" height="1" fill="#000000" opacity="0.08"/><rect x="0" y="624" width="1280" height="1" fill="#000000" opacity="0.08"/><rect x="0" y="628" width="1280" height="1" fill="#000000" opacity="0.08"/><rect x="0" y="632" width="1280" height="1" fill="#000000" opacity="0.08"/><rect x="0" y="636" width="1280" height="1" fill="#000000" opacity="0.08"/><rect x="0" y="640" width="1280" height="1" fill="#000000" opacity="0.08"/><rect x="0" y="644" width="1280" height="1" fill="#000000" opacity="0.08"/><rect x="0" y="648" width="1280" height="1" fill="#000000" opacity="0.08"/><rect x="0" y="652" width="1280" height="1" fill="#000000" opacity="0.08"/><rect x="0" y="656" width="1280" height="1" fill="#000000" opacity="0.08"/><rect x="0" y="660" width="1280" height="1" fill="#000000" opacity="0.08"/><rect x="0" y="664" width="1280" height="1" fill="#000000" opacity="0.08"/><rect x="0" y="668" width="1280" height="1" fill="#000000" opacity="0.08"/><rect x="0" y="672" width="1280" height="1" fill="#000000" opacity="0.08"/><rect x="0" y="676" width="1280" height="1" fill="#000000" opacity="0.08"/><rect x="0" y="680" width="1280" height="1" fill="#000000" opacity="0.08"/><rect x="0" y="684" width="1280" height="1" fill="#000000" opacity="0.08"/><rect x="0" y="688" width="1280" height="1" fill="#000000" opacity="0.08"/><rect x="0" y="692" width="1280" height="1" fill="#000000" opacity="0.08"/><rect x="0" y="696" width="1280" height="1" fill="#000000" opacity="0.08"/><rect x="0" y="700" width="1280" height="1" fill="#000000" opacity="0.08"/><rect x="0" y="704" width="1280" height="1" fill="#000000" opacity="0.08"/><rect x="0" y="708" width="1280" height="1" fill="#000000" opacity="0.08"/><rect x="0" y="712" width="1280" height="1" fill="#000000" opacity="0.08"/><rect x="0" y="716" width="1280" height="1" fill="#000000" opacity="0.08"/>
</svg>