<?xml version="1.0" encoding="UTF-8"?>
<svg xmlns="http://www.w3.org/2000/svg" width="160" height="160" viewBox="0 0 160 160" shape-rendering="crispEdges">
<rect x="0" y="0" width="160" height="160" fill="none" opacity="0"/><polygon points="80,114 120,130 80,146 40,130" fill="#1b1512" opacity="0.34"/><polygon points="80,110 108,120 80,130 52,120" fill="#a98a87" opacity="0.14"/><rect x="24" y="54" width="18" height="76" fill="#372624" opacity="0.96"/><rect x="60" y="42" width="18" height="88" fill="#372624" opacity="0.98"/><rect x="96" y="42" width="18" height="88" fill="#372624" opacity="0.98"/><rect x="132" y="54" width="18" height="76" fill="#372624" opacity="0.96"/><line x1="72" y1="78" x2="88" y2="78" stroke="#c9a4a1" stroke-width="4" opacity="0.82" stroke-linecap="square"/><line x1="62" y1="96" x2="98" y2="96" stroke="#c9a4a1" stroke-width="3" opacity="0.58" stroke-linecap="square"/><polygon points="80,18 92,30 80,42 68,30" fill="#c9a4a1" opacity="0.72"/><rect x="0" y="0" width="160" height="1" fill="#000000" opacity="0.08"/><rect x="0" y="4" width="160" height="1" fill="#000000" opacity="0.08"/><rect x="0" y="8" width="160" height="1" fill="#000000" opacity="0.08"/><rect x="0" y="12" width="160" height="1" fill="#000000" opacity="0.08"/><rect x="0" y="16" width="160" height="1" fill="#000000" opacity="0.08"/><rect x="0" y="20" width="160" height="1" fill="#000000" opacity="0.08"/><rect x="0" y="24" width="160" height="1" fill="#000000" opacity="0.08"/><rect x="0" y="28" width="160" height="1" fill="#000000" opacity="0.08"/><rect x="0" y="32" width="160" height="1" fill="#000000" opacity="0.08"/><rect x="0" y="36" width="160" height="1" fill="#000000" opacity="0.08"/><rect x="0" y="40" width="160" height="1" fill="#000000" opacity="0.08"/><rect x="0" y="44" width="160" height="1" fill="#000000" opacity="0.08"/><rect x="0" y="48" width="160" height="1" fill="#000000" opacity="0.08"/><rect x="0" y="52" width="160" height="1" fill="#000000" opacity="0.08"/><rect x="0" y="56" width="160" height="1" fill="#000000" opacity="0.08"/><rect x="0" y="60" width="160" height="1" fill="#000000" opacity="0.08"/><rect x="0" y="64" width="160" height="1" fill="#000000" opacity="0.08"/><rect x="0" y="68" width="160" height="1" fill="#000000" opacity="0.08"/><rect x="0" y="72" width="160" height="1" fill="#000000" opacity="0.08"/><rect x="0" y="76" width="160" height="1" fill="#000000" opacity="0.08"/><rect x="0" y="80" width="160" height="1" fill="#000000" opacity="0.08"/><rect x="0" y="84" width="160" height="1" fill="#000000" opacity="0.08"/><rect x="0" y="88" width="160" height="1" fill="#000000" opacity="0.08"/><rect x="0" y="92" width="160" height="1" fill="#000000" opacity="0.08"/><rect x="0" y="96" width="160" height="1" fill="#000000" opacity="0.08"/><rect x="0" y="100" width="160" height="1" fill="#000000" opacity="0.08"/><rect x="0" y="104" width="160" height="1" fill="#000000" opacity="0.08"/><rect x="0" y="108" width="160" height="1" fill="#000000" opacity="0.08"/><rect x="0" y="112" width="160" height="1" fill="#000000" opacity="0.08"/><rect x="0" y="116" width="160" height="1" fill="#000000" opacity="0.08"/><rect x="0" y="120" width="160" height="1" fill="#000000" opacity="0.08"/><rect x="0" y="124" width="160" height="1" fill="#000000" opacity="0.08"/><rect x="0" y="128" width="160" height="1" fill="#000000" opacity="0.08"/><rect x="0" y="132" width="160" height="1" fill="#000000" opacity="0.08"/><rect x="0" y="136" width="160" height="1" fill="#000000" opacity="0.08"/><rect x="0" y="140" width="160" height="1" fill="#000000" opacity="0.08"/><rect x="0" y="144" width="160" height="1" fill="#000000" opacity="0.08"/><rect x="0" y="148" width="160" height="1" fill="#000000" opacity="0.08"/><rect x="0" y="152" width="160" height="1" fill="#000000" opacity="0.08"/><rect x="0" y="156" width="160" height="1" fill="#000000" opacity="0.08"/>
</svg>