<?xml version="1.0" encoding="UTF-8"?>
<svg xmlns="http://www.w3.org/2000/svg" width="128" height="176" viewBox="0 0 128 176" shape-rendering="crispEdges">
<rect x="0" y="0" width="128" height="176" fill="none" opacity="0"/><polygon points="64,140 98,154 64,168 30,154" fill="#191412" opacity="0.34"/><polygon points="64,136 86,146 64,156 42,146" fill="#b97a53" opacity="0.12"/><polygon points="64,66 86,84 84,124 64,142 44,124 42,84" fill="#514033" opacity="0.98" stroke="#45372c" stroke-width="2"/><rect x="56" y="82" width="16" height="66" fill="#5e4d3f" opacity="0.42"/><polygon points="54,88 64,100 74,88 64,86" fill="#dc9162" opacity="0.76"/><circle cx="64" cy="42" r="15" fill="#efcfba" opacity="0.98" stroke="#bfa594" stroke-width="2"/><rect x="51" y="29" width="26" height="10" fill="#d8ddd8" opacity="0.9"/><rect x="55" y="37" width="18" height="4" fill="#d8ddd8" opacity="0.62"/><rect x="61" y="132" width="6" height="26" fill="#47382d" opacity="0.84"/><rect x="46" y="148" width="12" height="6" fill="#1e1813" opacity="0.72"/><rect x="70" y="148" width="12" height="6" fill="#1e1813" opacity="0.72"/><rect x="44" y="78" width="40" height="10" fill="#5e4d3f" opacity="0.32"/><rect x="78" y="92" width="26" height="34" fill="#eddbc5" opacity="0.94"/><line x1="82" y1="100" x2="98" y2="114" stroke="#dc9162" stroke-width="3" opacity="0.46" stroke-linecap="square"/><polygon points="96,108 102,114 96,120 90,114" fill="#dc9162" opacity="0.68"/><rect x="0" y="0" width="128" height="1" fill="#000000" opacity="0.08"/><rect x="0" y="4" width="128" height="1" fill="#000000" opacity="0.08"/><rect x="0" y="8" width="128" height="1" fill="#000000" opacity="0.08"/><rect x="0" y="12" width="128" height="1" fill="#000000" opacity="0.08"/><rect x="0" y="16" width="128" height="1" fill="#000000" opacity="0.08"/><rect x="0" y="20" width="128" height="1" fill="#000000" opacity="0.08"/><rect x="0" y="24" width="128" height="1" fill="#000000" opacity="0.08"/><rect x="0" y="28" width="128" height="1" fill="#000000" opacity="0.08"/><rect x="0" y="32" width="128" height="1" fill="#000000" opacity="0.08"/><rect x="0" y="36" width="128" height="1" fill="#000000" opacity="0.08"/><rect x="0" y="40" width="128" height="1" fill="#000000" opacity="0.08"/><rect x="0" y="44" width="128" height="1" fill="#000000" opacity="0.08"/><rect x="0" y="48" width="128" height="1" fill="#000000" opacity="0.08"/><rect x="0" y="52" width="128" height="1" fill="#000000" opacity="0.08"/><rect x="0" y="56" width="128" height="1" fill="#000000" opacity="0.08"/><rect x="0" y="60" width="128" height="1" fill="#000000" opacity="0.08"/><rect x="0" y="64" width="128" height="1" fill="#000000" opacity="0.08"/><rect x="0" y="68" width="128" height="1" fill="#000000" opacity="0.08"/><rect x="0" y="72" width="128" height="1" fill="#000000" opacity="0.08"/><rect x="0" y="76" width="128" height="1" fill="#000000" opacity="0.08"/><rect x="0" y="80" width="128" height="1" fill="#000000" opacity="0.08"/><rect x="0" y="84" width="128" height="1" fill="#000000" opacity="0.08"/><rect x="0" y="88" width="128" height="1" fill="#000000" opacity="0.08"/><rect x="0" y="92" width="128" height="1" fill="#000000" opacity="0.08"/><rect x="0" y="96" width="128" height="1" fill="#000000" opacity="0.08"/><rect x="0" y="100" width="128" height="1" fill="#000000" opacity="0.08"/><rect x="0" y="104" width="128" height="1" fill="#000000" opacity="0.08"/><rect x="0" y="108" width="128" height="1" fill="#000000" opacity="0.08"/><rect x="0" y="112" width="128" height="1" fill="#000000" opacity="0.08"/><rect x="0" y="116" width="128" height="1" fill="#000000" opacity="0.08"/><rect x="0" y="120" width="128" height="1" fill="#000000" opacity="0.08"/><rect x="0" y="124" width="128" height="1" fill="#000000" opacity="0.08"/><rect x="0" y="128" width="128" height="1" fill="#000000" opacity="0.08"/><rect x="0" y="132" width="128" height="1" fill="#000000" opacity="0.08"/><rect x="0" y="136" width="128" height="1" fill="#000000" opacity="0.08"/><rect x="0" y="140" width="128" height="1" fill="#000000" opacity="0.08"/><rect x="0" y="144" width="128" height="1" fill="#000000" opacity="0.08"/><rect x="0" y="148" width="128" height="1" fill="#000000" opacity="0.08"/><rect x="0" y="152" width="128" height="1" fill="#000000" opacity="0.08"/><rect x="0" y="156" width="128" height="1" fill="#000000" opacity="0.08"/><rect x="0" y="160" width="128" height="1" fill="#000000" opacity="0.08"/><rect x="0" y="164" width="128" height="1" fill="#000000" opacity="0.08"/><rect x="0" y="168" width="128" height="1" fill="#000000" opacity="0.08"/><rect x="0" y="172" width="128" height="1" fill="#000000" opacity="0.08"/>
</svg>