<?xml version="1.0" encoding="UTF-8"?>
<svg xmlns="http://www.w3.org/2000/svg" width="920" height="552" viewBox="0 0 920 552" shape-rendering="crispEdges">
<rect x="0" y="0" width="920" height="552" fill="none" opacity="0"/><rect x="0" y="0" width="920" height="10" fill="#b2a79e" opacity="0.14"/><rect x="0" y="542" width="920" height="10" fill="#b2a79e" opacity="0.14"/><rect x="0" y="0" width="10" height="552" fill="#b2a79e" opacity="0.1"/><rect x="910" y="0" width="10" height="552" fill="#b2a79e" opacity="0.1"/><rect x="18" y="18" width="92" height="10" fill="#b2a79e" opacity="0.5"/><rect x="18" y="18" width="10" height="72" fill="#b2a79e" opacity="0.5"/><rect x="810" y="18" width="92" height="10" fill="#b2a79e" opacity="0.5"/><rect x="892" y="18" width="10" height="72" fill="#b2a79e" opacity="0.5"/><rect x="18" y="524" width="92" height="10" fill="#b2a79e" opacity="0.5"/><rect x="18" y="462" width="10" height="72" fill="#b2a79e" opacity="0.5"/><rect x="810" y="524" width="92" height="10" fill="#b2a79e" opacity="0.5"/><rect x="892" y="462" width="10" height="72" fill="#b2a79e" opacity="0.5"/><rect x="28" y="28" width="864" height="496" fill="#231e1a" opacity="0.08"/><rect x="0" y="0" width="920" height="74" fill="#17120f" opacity="0.16"/><rect x="0" y="456" width="920" height="96" fill="#17120f" opacity="0.18"/><rect x="204" y="156" width="506" height="240" fill="#eadcca" opacity="0.12"/><rect x="230" y="184" width="220" height="18" fill="#b2a79e" opacity="0.32"/><rect x="230" y="222" width="452" height="4" fill="#c4b7a7" opacity="0.42"/><rect x="230" y="258" width="452" height="4" fill="#c4b7a7" opacity="0.42"/><rect x="230" y="294" width="452" height="4" fill="#c4b7a7" opacity="0.42"/><rect x="230" y="330" width="452" height="4" fill="#c4b7a7" opacity="0.42"/><line x1="262" y1="338" x2="354" y2="282" stroke="#b2a79e" stroke-width="8" opacity="0.32" stroke-linecap="square"/><line x1="352" y1="284" x2="424" y2="348" stroke="#b2a79e" stroke-width="8" opacity="0.32" stroke-linecap="square"/><line x1="426" y1="350" x2="534" y2="254" stroke="#e5d8c6" stroke-width="5" opacity="0.24000000000000002" stroke-linecap="square"/><polygon points="604,296 622,314 604,332 586,314" fill="#b2a79e" opacity="0.72"/><polygon points="604,305 613,314 604,323 595,314" fill="#efe1ce" opacity="0.58"/><rect x="414" y="239" width="12" height="12" fill="#bdb1a7" opacity="0.2792608"/><rect x="430" y="241" width="10" height="2" fill="#b2a79e" opacity="0.2091856"/><rect x="404" y="255" width="30" height="2" fill="#e4d7c5" opacity="0.1286052"/><rect x="510" y="503" width="12" height="12" fill="#bdb1a7" opacity="0.3237568"/><rect x="526" y="505" width="10" height="2" fill="#b2a79e" opacity="0.1935488"/><rect x="500" y="519" width="30" height="2" fill="#e4d7c5" opacity="0.1225974"/><rect x="514" y="241" width="11" height="11" fill="#bdb1a7" opacity="0.2427316"/><rect x="529" y="243" width="9" height="2" fill="#b2a79e" opacity="0.256844"/><rect x="504" y="256" width="29" height="2" fill="#e4d7c5" opacity="0.1615248"/><rect x="654" y="389" width="13" height="13" fill="#bdb1a7" opacity="0.2857456"/><rect x="671" y="391" width="11" height="2" fill="#b2a79e" opacity="0.23734159999999999"/><rect x="644" y="406" width="31" height="2" fill="#e4d7c5" opacity="0.1513044"/><rect x="869" y="233" width="11" height="11" fill="#bdb1a7" opacity="0.2323984"/><rect x="884" y="235" width="9" height="2" fill="#b2a79e" opacity="0.223388"/><rect x="859" y="248" width="29" height="2" fill="#e4d7c5" opacity="0.1542354"/><rect x="304" y="452" width="8" height="8" fill="#bdb1a7" opacity="0.2701684"/><rect x="316" y="454" width="6" height="2" fill="#b2a79e" opacity="0.2294128"/><rect x="294" y="464" width="26" height="2" fill="#e4d7c5" opacity="0.128277"/><rect x="406" y="112" width="11" height="11" fill="#bdb1a7" opacity="0.28243"/><rect x="421" y="114" width="9" height="2" fill="#b2a79e" opacity="0.22824319999999998"/><rect x="396" y="127" width="29" height="2" fill="#e4d7c5" opacity="0.13880879999999998"/><rect x="867" y="144" width="14" height="14" fill="#bdb1a7" opacity="0.2245216"/><rect x="885" y="146" width="12" height="2" fill="#b2a79e" opacity="0.1839632"/><rect x="857" y="162" width="32" height="2" fill="#e4d7c5" opacity="0.1481844"/><rect x="0" y="0" width="920" height="1" fill="#000000" opacity="0.08"/><rect x="0" y="4" width="920" height="1" fill="#000000" opacity="0.08"/><rect x="0" y="8" width="920" height="1" fill="#000000" opacity="0.08"/><rect x="0" y="12" width="920" height="1" fill="#000000" opacity="0.08"/><rect x="0" y="16" width="920" height="1" fill="#000000" opacity="0.08"/><rect x="0" y="20" width="920" height="1" fill="#000000" opacity="0.08"/><rect x="0" y="24" width="920" height="1" fill="#000000" opacity="0.08"/><rect x="0" y="28" width="920" height="1" fill="#000000" opacity="0.08"/><rect x="0" y="32" width="920" height="1" fill="#000000" opacity="0.08"/><rect x="0" y="36" width="920" height="1" fill="#000000" opacity="0.08"/><rect x="0" y="40" width="920" height="1" fill="#000000" opacity="0.08"/><rect x="0" y="44" width="920" height="1" fill="#000000" opacity="0.08"/><rect x="0" y="48" width="920" height="1" fill="#000000" opacity="0.08"/><rect x="0" y="52" width="920" height="1" fill="#000000" opacity="0.08"/><rect x="0" y="56" width="920" height="1" fill="#000000" opacity="0.08"/><rect x="0" y="60" width="920" height="1" fill="#000000" opacity="0.08"/><rect x="0" y="64" width="920" height="1" fill="#000000" opacity="0.08"/><rect x="0" y="68" width="920" height="1" fill="#000000" opacity="0.08"/><rect x="0" y="72" width="920" height="1" fill="#000000" opacity="0.08"/><rect x="0" y="76" width="920" height="1" fill="#000000" opacity="0.08"/><rect x="0" y="80" width="920" height="1" fill="#000000" opacity="0.08"/><rect x="0" y="84" width="920" height="1" fill="#000000" opacity="0.08"/><rect x="0" y="88" width="920" height="1" fill="#000000" opacity="0.08"/><rect x="0" y="92" width="920" height="1" fill="#000000" opacity="0.08"/><rect x="0" y="96" width="920" height="1" fill="#000000" opacity="0.08"/><rect x="0" y="100" width="920" height="1" fill="#000000" opacity="0.08"/><rect x="0" y="104" width="920" height="1" fill="#000000" opacity="0.08"/><rect x="0" y="108" width="920" height="1" fill="#000000" opacity="0.08"/><rect x="0" y="112" width="920" height="1" fill="#000000" opacity="0.08"/><rect x="0" y="116" width="920" height="1" fill="#000000" opacity="0.08"/><rect x="0" y="120" width="920" height="1" fill="#000000" opacity="0.08"/><rect x="0" y="124" width="920" height="1" fill="#000000" opacity="0.08"/><rect x="0" y="128" width="920" height="1" fill="#000000" opacity="0.08"/><rect x="0" y="132" width="920" height="1" fill="#000000" opacity="0.08"/><rect x="0" y="136" width="920" height="1" fill="#000000" opacity="0.08"/><rect x="0" y="140" width="920" height="1" fill="#000000" opacity="0.08"/><rect x="0" y="144" width="920" height="1" fill="#000000" opacity="0.08"/><rect x="0" y="148" width="920" height="1" fill="#000000" opacity="0.08"/><rect x="0" y="152" width="920" height="1" fill="#000000" opacity="0.08"/><rect x="0" y="156" width="920" height="1" fill="#000000" opacity="0.08"/><rect x="0" y="160" width="920" height="1" fill="#000000" opacity="0.08"/><rect x="0" y="164" width="920" height="1" fill="#000000" opacity="0.08"/><rect x="0" y="168" width="920" height="1" fill="#000000" opacity="0.08"/><rect x="0" y="172" width="920" height="1" fill="#000000" opacity="0.08"/><rect x="0" y="176" width="920" height="1" fill="#000000" opacity="0.08"/><rect x="0" y="180" width="920" height="1" fill="#000000" opacity="0.08"/><rect x="0" y="184" width="920" height="1" fill="#000000" opacity="0.08"/><rect x="0" y="188" width="920" height="1" fill="#000000" opacity="0.08"/><rect x="0" y="192" width="920" height="1" fill="#000000" opacity="0.08"/><rect x="0" y="196" width="920" height="1" fill="#000000" opacity="0.08"/><rect x="0" y="200" width="920" height="1" fill="#000000" opacity="0.08"/><rect x="0" y="204" width="920" height="1" fill="#000000" opacity="0.08"/><rect x="0" y="208" width="920" height="1" fill="#000000" opacity="0.08"/><rect x="0" y="212" width="920" height="1" fill="#000000" opacity="0.08"/><rect x="0" y="216" width="920" height="1" fill="#000000" opacity="0.08"/><rect x="0" y="220" width="920" height="1" fill="#000000" opacity="0.08"/><rect x="0" y="224" width="920" height="1" fill="#000000" opacity="0.08"/><rect x="0" y="228" width="920" height="1" fill="#000000" opacity="0.08"/><rect x="0" y="232" width="920" height="1" fill="#000000" opacity="0.08"/><rect x="0" y="236" width="920" height="1" fill="#000000" opacity="0.08"/><rect x="0" y="240" width="920" height="1" fill="#000000" opacity="0.08"/><rect x="0" y="244" width="920" height="1" fill="#000000" opacity="0.08"/><rect x="0" y="248" width="920" height="1" fill="#000000" opacity="0.08"/><rect x="0" y="252" width="920" height="1" fill="#000000" opacity="0.08"/><rect x="0" y="256" width="920" height="1" fill="#000000" opacity="0.08"/><rect x="0" y="260" width="920" height="1" fill="#000000" opacity="0.08"/><rect x="0" y="264" width="920" height="1" fill="#000000" opacity="0.08"/><rect x="0" y="268" width="920" height="1" fill="#000000" opacity="0.08"/><rect x="0" y="272" width="920" height="1" fill="#000000" opacity="0.08"/><rect x="0" y="276" width="920" height="1" fill="#000000" opacity="0.08"/><rect x="0" y="280" width="920" height="1" fill="#000000" opacity="0.08"/><rect x="0" y="284" width="920" height="1" fill="#000000" opacity="0.08"/><rect x="0" y="288" width="920" height="1" fill="#000000" opacity="0.08"/><rect x="0" y="292" width="920" height="1" fill="#000000" opacity="0.08"/><rect x="0" y="296" width="920" height="1" fill="#000000" opacity="0.08"/><rect x="0" y="300" width="920" height="1" fill="#000000" opacity="0.08"/><rect x="0" y="304" width="920" height="1" fill="#000000" opacity="0.08"/><rect x="0" y="308" width="920" height="1" fill="#000000" opacity="0.08"/><rect x="0" y="312" width="920" height="1" fill="#000000" opacity="0.08"/><rect x="0" y="316" width="920" height="1" fill="#000000" opacity="0.08"/><rect x="0" y="320" width="920" height="1" fill="#000000" opacity="0.08"/><rect x="0" y="324" width="920" height="1" fill="#000000" opacity="0.08"/><rect x="0" y="328" width="920" height="1" fill="#000000" opacity="0.08"/><rect x="0" y="332" width="920" height="1" fill="#000000" opacity="0.08"/><rect x="0" y="336" width="920" height="1" fill="#000000" opacity="0.08"/><rect x="0" y="340" width="920" height="1" fill="#000000" opacity="0.08"/><rect x="0" y="344" width="920" height="1" fill="#000000" opacity="0.08"/><rect x="0" y="348" width="920" height="1" fill="#000000" opacity="0.08"/><rect x="0" y="352" width="920" height="1" fill="#000000" opacity="0.08"/><rect x="0" y="356" width="920" height="1" fill="#000000" opacity="0.08"/><rect x="0" y="360" width="920" height="1" fill="#000000" opacity="0.08"/><rect x="0" y="364" width="920" height="1" fill="#000000" opacity="0.08"/><rect x="0" y="368" width="920" height="1" fill="#000000" opacity="0.08"/><rect x="0" y="372" width="920" height="1" fill="#000000" opacity="0.08"/><rect x="0" y="376" width="920" height="1" fill="#000000" opacity="0.08"/><rect x="0" y="380" width="920" height="1" fill="#000000" opacity="0.08"/><rect x="0" y="384" width="920" height="1" fill="#000000" opacity="0.08"/><rect x="0" y="388" width="920" height="1" fill="#000000" opacity="0.08"/><rect x="0" y="392" width="920" height="1" fill="#000000" opacity="0.08"/><rect x="0" y="396" width="920" height="1" fill="#000000" opacity="0.08"/><rect x="0" y="400" width="920" height="1" fill="#000000" opacity="0.08"/><rect x="0" y="404" width="920" height="1" fill="#000000" opacity="0.08"/><rect x="0" y="408" width="920" height="1" fill="#000000" opacity="0.08"/><rect x="0" y="412" width="920" height="1" fill="#000000" opacity="0.08"/><rect x="0" y="416" width="920" height="1" fill="#000000" opacity="0.08"/><rect x="0" y="420" width="920" height="1" fill="#000000" opacity="0.08"/><rect x="0" y="424" width="920" height="1" fill="#000000" opacity="0.08"/><rect x="0" y="428" width="920" height="1" fill="#000000" opacity="0.08"/><rect x="0" y="432" width="920" height="1" fill="#000000" opacity="0.08"/><rect x="0" y="436" width="920" height="1" fill="#000000" opacity="0.08"/><rect x="0" y="440" width="920" height="1" fill="#000000" opacity="0.08"/><rect x="0" y="444" width="920" height="1" fill="#000000" opacity="0.08"/><rect x="0" y="448" width="920" height="1" fill="#000000" opacity="0.08"/><rect x="0" y="452" width="920" height="1" fill="#000000" opacity="0.08"/><rect x="0" y="456" width="920" height="1" fill="#000000" opacity="0.08"/><rect x="0" y="460" width="920" height="1" fill="#000000" opacity="0.08"/><rect x="0" y="464" width="920" height="1" fill="#000000" opacity="0.08"/><rect x="0" y="468" width="920" height="1" fill="#000000" opacity="0.08"/><rect x="0" y="472" width="920" height="1" fill="#000000" opacity="0.08"/><rect x="0" y="476" width="920" height="1" fill="#000000" opacity="0.08"/><rect x="0" y="480" width="920" height="1" fill="#000000" opacity="0.08"/><rect x="0" y="484" width="920" height="1" fill="#000000" opacity="0.08"/><rect x="0" y="488" width="920" height="1" fill="#000000" opacity="0.08"/><rect x="0" y="492" width="920" height="1" fill="#000000" opacity="0.08"/><rect x="0" y="496" width="920" height="1" fill="#000000" opacity="0.08"/><rect x="0" y="500" width="920" height="1" fill="#000000" opacity="0.08"/><rect x="0" y="504" width="920" height="1" fill="#000000" opacity="0.08"/><rect x="0" y="508" width="920" height="1" fill="#000000" opacity="0.08"/><rect x="0" y="512" width="920" height="1" fill="#000000" opacity="0.08"/><rect x="0" y="516" width="920" height="1" fill="#000000" opacity="0.08"/><rect x="0" y="520" width="920" height="1" fill="#000000" opacity="0.08"/><rect x="0" y="524" width="920" height="1" fill="#000000" opacity="0.08"/><rect x="0" y="528" width="920" height="1" fill="#000000" opacity="0.08"/><rect x="0" y="532" width="920" height="1" fill="#000000" opacity="0.08"/><rect x="0" y="536" width="920" height="1" fill="#000000" opacity="0.08"/><rect x="0" y="540" width="920" height="1" fill="#000000" opacity="0.08"/><rect x="0" y="544" width="920" height="1" fill="#000000" opacity="0.08"/><rect x="0" y="548" width="920" height="1" fill="#000000" opacity="0.08"/>
</svg>