<?xml version="1.0" encoding="UTF-8"?>
<svg xmlns="http://www.w3.org/2000/svg" width="920" height="552" viewBox="0 0 920 552" shape-rendering="crispEdges">
<rect x="0" y="0" width="920" height="552" fill="#17120f"/><rect x="0" y="0" width="920" height="86" fill="#281c18"/><rect x="42" y="84" width="836" height="412" fill="#231d1e"/><rect x="84" y="124" width="752" height="340" fill="#3d302d"/><polygon points="66.14802747902124,323.5256055161215 564.5556667470838,363.3982166575665 559.4519725209788,427.1943944838785 61.04433325291628,387.32178334243355" fill="#ceaba6" opacity="0.3"/><polygon points="455.1421672867689,365.81630607865384 873.8045842719414,399.30929943746764 869.6578327132311,451.1436939213462 450.99541572805856,417.6507005625324" fill="#4b3e3a" opacity="0.22"/><rect x="126" y="184" width="668" height="18" fill="#eadac9" opacity="0.34"/><rect x="126" y="222" width="668" height="8" fill="#cbbeae" opacity="0.24"/><rect x="126" y="260" width="668" height="8" fill="#cbbeae" opacity="0.24"/><rect x="148" y="150" width="176" height="42" fill="#c9a4a1" opacity="0.6"/><rect x="596" y="150" width="176" height="42" fill="#4b3c39" opacity="0.72"/><rect x="214" y="312" width="18" height="108" fill="#c9a4a1" opacity="0.72"/><rect x="232" y="352" width="96" height="22" fill="#c9a4a1" opacity="0.44"/><rect x="670" y="302" width="18" height="116" fill="#af5d4b" opacity="0.64"/><rect x="688" y="350" width="86" height="22" fill="#af5d4b" opacity="0.34"/><polygon points="156,322 190,336 156,350 168,336" fill="#c9a4a1" opacity="0.82"/><polygon points="274,378 308,392 274,406 286,392" fill="#c9a4a1" opacity="0.82"/><polygon points="392,434 426,448 392,462 404,448" fill="#c9a4a1" opacity="0.82"/><polygon points="582,342 606,352 582,362 590,352" fill="#b46855" opacity="0.68"/><polygon points="676,400 700,410 676,420 684,410" fill="#b46855" opacity="0.68"/><polygon points="770,452 794,462 770,472 778,462" fill="#b46855" opacity="0.68"/><line x1="122" y1="124" x2="122" y2="478" stroke="#ceada7" stroke-width="2" opacity="0.22" stroke-linecap="square"/><line x1="270" y1="124" x2="270" y2="478" stroke="#ceada7" stroke-width="2" opacity="0.22" stroke-linecap="square"/><line x1="418" y1="124" x2="418" y2="478" stroke="#ceada7" stroke-width="2" opacity="0.22" stroke-linecap="square"/><line x1="566" y1="124" x2="566" y2="478" stroke="#ceada7" stroke-width="2" opacity="0.22" stroke-linecap="square"/><line x1="714" y1="124" x2="714" y2="478" stroke="#ceada7" stroke-width="2" opacity="0.22" stroke-linecap="square"/><rect x="0" y="0" width="920" height="1" fill="#000000" opacity="0.08"/><rect x="0" y="4" width="920" height="1" fill="#000000" opacity="0.08"/><rect x="0" y="8" width="920" height="1" fill="#000000" opacity="0.08"/><rect x="0" y="12" width="920" height="1" fill="#000000" opacity="0.08"/><rect x="0" y="16" width="920" height="1" fill="#000000" opacity="0.08"/><rect x="0" y="20" width="920" height="1" fill="#000000" opacity="0.08"/><rect x="0" y="24" width="920" height="1" fill="#000000" opacity="0.08"/><rect x="0" y="28" width="920" height="1" fill="#000000" opacity="0.08"/><rect x="0" y="32" width="920" height="1" fill="#000000" opacity="0.08"/><rect x="0" y="36" width="920" height="1" fill="#000000" opacity="0.08"/><rect x="0" y="40" width="920" height="1" fill="#000000" opacity="0.08"/><rect x="0" y="44" width="920" height="1" fill="#000000" opacity="0.08"/><rect x="0" y="48" width="920" height="1" fill="#000000" opacity="0.08"/><rect x="0" y="52" width="920" height="1" fill="#000000" opacity="0.08"/><rect x="0" y="56" width="920" height="1" fill="#000000" opacity="0.08"/><rect x="0" y="60" width="920" height="1" fill="#000000" opacity="0.08"/><rect x="0" y="64" width="920" height="1" fill="#000000" opacity="0.08"/><rect x="0" y="68" width="920" height="1" fill="#000000" opacity="0.08"/><rect x="0" y="72" width="920" height="1" fill="#000000" opacity="0.08"/><rect x="0" y="76" width="920" height="1" fill="#000000" opacity="0.08"/><rect x="0" y="80" width="920" height="1" fill="#000000" opacity="0.08"/><rect x="0" y="84" width="920" height="1" fill="#000000" opacity="0.08"/><rect x="0" y="88" width="920" height="1" fill="#000000" opacity="0.08"/><rect x="0" y="92" width="920" height="1" fill="#000000" opacity="0.08"/><rect x="0" y="96" width="920" height="1" fill="#000000" opacity="0.08"/><rect x="0" y="100" width="920" height="1" fill="#000000" opacity="0.08"/><rect x="0" y="104" width="920" height="1" fill="#000000" opacity="0.08"/><rect x="0" y="108" width="920" height="1" fill="#000000" opacity="0.08"/><rect x="0" y="112" width="920" height="1" fill="#000000" opacity="0.08"/><rect x="0" y="116" width="920" height="1" fill="#000000" opacity="0.08"/><rect x="0" y="120" width="920" height="1" fill="#000000" opacity="0.08"/><rect x="0" y="124" width="920" height="1" fill="#000000" opacity="0.08"/><rect x="0" y="128" width="920" height="1" fill="#000000" opacity="0.08"/><rect x="0" y="132" width="920" height="1" fill="#000000" opacity="0.08"/><rect x="0" y="136" width="920" height="1" fill="#000000" opacity="0.08"/><rect x="0" y="140" width="920" height="1" fill="#000000" opacity="0.08"/><rect x="0" y="144" width="920" height="1" fill="#000000" opacity="0.08"/><rect x="0" y="148" width="920" height="1" fill="#000000" opacity="0.08"/><rect x="0" y="152" width="920" height="1" fill="#000000" opacity="0.08"/><rect x="0" y="156" width="920" height="1" fill="#000000" opacity="0.08"/><rect x="0" y="160" width="920" height="1" fill="#000000" opacity="0.08"/><rect x="0" y="164" width="920" height="1" fill="#000000" opacity="0.08"/><rect x="0" y="168" width="920" height="1" fill="#000000" opacity="0.08"/><rect x="0" y="172" width="920" height="1" fill="#000000" opacity="0.08"/><rect x="0" y="176" width="920" height="1" fill="#000000" opacity="0.08"/><rect x="0" y="180" width="920" height="1" fill="#000000" opacity="0.08"/><rect x="0" y="184" width="920" height="1" fill="#000000" opacity="0.08"/><rect x="0" y="188" width="920" height="1" fill="#000000" opacity="0.08"/><rect x="0" y="192" width="920" height="1" fill="#000000" opacity="0.08"/><rect x="0" y="196" width="920" height="1" fill="#000000" opacity="0.08"/><rect x="0" y="200" width="920" height="1" fill="#000000" opacity="0.08"/><rect x="0" y="204" width="920" height="1" fill="#000000" opacity="0.08"/><rect x="0" y="208" width="920" height="1" fill="#000000" opacity="0.08"/><rect x="0" y="212" width="920" height="1" fill="#000000" opacity="0.08"/><rect x="0" y="216" width="920" height="1" fill="#000000" opacity="0.08"/><rect x="0" y="220" width="920" height="1" fill="#000000" opacity="0.08"/><rect x="0" y="224" width="920" height="1" fill="#000000" opacity="0.08"/><rect x="0" y="228" width="920" height="1" fill="#000000" opacity="0.08"/><rect x="0" y="232" width="920" height="1" fill="#000000" opacity="0.08"/><rect x="0" y="236" width="920" height="1" fill="#000000" opacity="0.08"/><rect x="0" y="240" width="920" height="1" fill="#000000" opacity="0.08"/><rect x="0" y="244" width="920" height="1" fill="#000000" opacity="0.08"/><rect x="0" y="248" width="920" height="1" fill="#000000" opacity="0.08"/><rect x="0" y="252" width="920" height="1" fill="#000000" opacity="0.08"/><rect x="0" y="256" width="920" height="1" fill="#000000" opacity="0.08"/><rect x="0" y="260" width="920" height="1" fill="#000000" opacity="0.08"/><rect x="0" y="264" width="920" height="1" fill="#000000" opacity="0.08"/><rect x="0" y="268" width="920" height="1" fill="#000000" opacity="0.08"/><rect x="0" y="272" width="920" height="1" fill="#000000" opacity="0.08"/><rect x="0" y="276" width="920" height="1" fill="#000000" opacity="0.08"/><rect x="0" y="280" width="920" height="1" fill="#000000" opacity="0.08"/><rect x="0" y="284" width="920" height="1" fill="#000000" opacity="0.08"/><rect x="0" y="288" width="920" height="1" fill="#000000" opacity="0.08"/><rect x="0" y="292" width="920" height="1" fill="#000000" opacity="0.08"/><rect x="0" y="296" width="920" height="1" fill="#000000" opacity="0.08"/><rect x="0" y="300" width="920" height="1" fill="#000000" opacity="0.08"/><rect x="0" y="304" width="920" height="1" fill="#000000" opacity="0.08"/><rect x="0" y="308" width="920" height="1" fill="#000000" opacity="0.08"/><rect x="0" y="312" width="920" height="1" fill="#000000" opacity="0.08"/><rect x="0" y="316" width="920" height="1" fill="#000000" opacity="0.08"/><rect x="0" y="320" width="920" height="1" fill="#000000" opacity="0.08"/><rect x="0" y="324" width="920" height="1" fill="#000000" opacity="0.08"/><rect x="0" y="328" width="920" height="1" fill="#000000" opacity="0.08"/><rect x="0" y="332" width="920" height="1" fill="#000000" opacity="0.08"/><rect x="0" y="336" width="920" height="1" fill="#000000" opacity="0.08"/><rect x="0" y="340" width="920" height="1" fill="#000000" opacity="0.08"/><rect x="0" y="344" width="920" height="1" fill="#000000" opacity="0.08"/><rect x="0" y="348" width="920" height="1" fill="#000000" opacity="0.08"/><rect x="0" y="352" width="920" height="1" fill="#000000" opacity="0.08"/><rect x="0" y="356" width="920" height="1" fill="#000000" opacity="0.08"/><rect x="0" y="360" width="920" height="1" fill="#000000" opacity="0.08"/><rect x="0" y="364" width="920" height="1" fill="#000000" opacity="0.08"/><rect x="0" y="368" width="920" height="1" fill="#000000" opacity="0.08"/><rect x="0" y="372" width="920" height="1" fill="#000000" opacity="0.08"/><rect x="0" y="376" width="920" height="1" fill="#000000" opacity="0.08"/><rect x="0" y="380" width="920" height="1" fill="#000000" opacity="0.08"/><rect x="0" y="384" width="920" height="1" fill="#000000" opacity="0.08"/><rect x="0" y="388" width="920" height="1" fill="#000000" opacity="0.08"/><rect x="0" y="392" width="920" height="1" fill="#000000" opacity="0.08"/><rect x="0" y="396" width="920" height="1" fill="#000000" opacity="0.08"/><rect x="0" y="400" width="920" height="1" fill="#000000" opacity="0.08"/><rect x="0" y="404" width="920" height="1" fill="#000000" opacity="0.08"/><rect x="0" y="408" width="920" height="1" fill="#000000" opacity="0.08"/><rect x="0" y="412" width="920" height="1" fill="#000000" opacity="0.08"/><rect x="0" y="416" width="920" height="1" fill="#000000" opacity="0.08"/><rect x="0" y="420" width="920" height="1" fill="#000000" opacity="0.08"/><rect x="0" y="424" width="920" height="1" fill="#000000" opacity="0.08"/><rect x="0" y="428" width="920" height="1" fill="#000000" opacity="0.08"/><rect x="0" y="432" width="920" height="1" fill="#000000" opacity="0.08"/><rect x="0" y="436" width="920" height="1" fill="#000000" opacity="0.08"/><rect x="0" y="440" width="920" height="1" fill="#000000" opacity="0.08"/><rect x="0" y="444" width="920" height="1" fill="#000000" opacity="0.08"/><rect x="0" y="448" width="920" height="1" fill="#000000" opacity="0.08"/><rect x="0" y="452" width="920" height="1" fill="#000000" opacity="0.08"/><rect x="0" y="456" width="920" height="1" fill="#000000" opacity="0.08"/><rect x="0" y="460" width="920" height="1" fill="#000000" opacity="0.08"/><rect x="0" y="464" width="920" height="1" fill="#000000" opacity="0.08"/><rect x="0" y="468" width="920" height="1" fill="#000000" opacity="0.08"/><rect x="0" y="472" width="920" height="1" fill="#000000" opacity="0.08"/><rect x="0" y="476" width="920" height="1" fill="#000000" opacity="0.08"/><rect x="0" y="480" width="920" height="1" fill="#000000" opacity="0.08"/><rect x="0" y="484" width="920" height="1" fill="#000000" opacity="0.08"/><rect x="0" y="488" width="920" height="1" fill="#000000" opacity="0.08"/><rect x="0" y="492" width="920" height="1" fill="#000000" opacity="0.08"/><rect x="0" y="496" width="920" height="1" fill="#000000" opacity="0.08"/><rect x="0" y="500" width="920" height="1" fill="#000000" opacity="0.08"/><rect x="0" y="504" width="920" height="1" fill="#000000" opacity="0.08"/><rect x="0" y="508" width="920" height="1" fill="#000000" opacity="0.08"/><rect x="0" y="512" width="920" height="1" fill="#000000" opacity="0.08"/><rect x="0" y="516" width="920" height="1" fill="#000000" opacity="0.08"/><rect x="0" y="520" width="920" height="1" fill="#000000" opacity="0.08"/><rect x="0" y="524" width="920" height="1" fill="#000000" opacity="0.08"/><rect x="0" y="528" width="920" height="1" fill="#000000" opacity="0.08"/><rect x="0" y="532" width="920" height="1" fill="#000000" opacity="0.08"/><rect x="0" y="536" width="920" height="1" fill="#000000" opacity="0.08"/><rect x="0" y="540" width="920" height="1" fill="#000000" opacity="0.08"/><rect x="0" y="544" width="920" height="1" fill="#000000" opacity="0.08"/><rect x="0" y="548" width="920" height="1" fill="#000000" opacity="0.08"/>
</svg>