<?xml version="1.0" encoding="UTF-8"?>
<svg xmlns="http://www.w3.org/2000/svg" width="1280" height="720" viewBox="0 0 1280 720" shape-rendering="crispEdges">
<rect x="0" y="0" width="1280" height="720" fill="#090910" opacity="0.96"/><rect x="0" y="0" width="1280" height="10" fill="#bc8d6c" opacity="0.14"/><rect x="0" y="710" width="1280" height="10" fill="#bc8d6c" opacity="0.14"/><rect x="0" y="0" width="10" height="720" fill="#bc8d6c" opacity="0.1"/><rect x="1270" y="0" width="10" height="720" fill="#bc8d6c" opacity="0.1"/><rect x="18" y="18" width="92" height="10" fill="#bc8d6c" opacity="0.5"/><rect x="18" y="18" width="10" height="72" fill="#bc8d6c" opacity="0.5"/><rect x="1170" y="18" width="92" height="10" fill="#bc8d6c" opacity="0.5"/><rect x="1252" y="18" width="10" height="72" fill="#bc8d6c" opacity="0.5"/><rect x="18" y="692" width="92" height="10" fill="#bc8d6c" opacity="0.5"/><rect x="18" y="630" width="10" height="72" fill="#bc8d6c" opacity="0.5"/><rect x="1170" y="692" width="92" height="10" fill="#bc8d6c" opacity="0.5"/><rect x="1252" y="630" width="10" height="72" fill="#bc8d6c" opacity="0.5"/><rect x="28" y="28" width="1224" height="664" fill="#171417" opacity="0.08"/><rect x="0" y="0" width="1280" height="110" fill="#090910" opacity="0.34"/><rect x="0" y="586" width="1280" height="134" fill="#090910" opacity="0.28"/><rect x="208" y="136" width="864" height="448" fill="#161821" opacity="0.72"/><rect x="266" y="196" width="198" height="136" fill="#ecdfcf" opacity="0.30500000000000005"/><rect x="542" y="176" width="214" height="148" fill="#ecdfcf" opacity="0.28060000000000007"/><rect x="836" y="214" width="166" height="122" fill="#ecdfcf" opacity="0.26230000000000003"/><rect x="184" y="38" width="912" height="196" fill="#957058" opacity="0.49000000000000005"/><line x1="184" y1="80" x2="1096" y2="80" stroke="#bc8d6c" stroke-width="5" opacity="0.315" stroke-linecap="square"/><line x1="184" y1="134" x2="1096" y2="134" stroke="#bc8d6c" stroke-width="5" opacity="0.315" stroke-linecap="square"/><line x1="184" y1="188" x2="1096" y2="188" stroke="#bc8d6c" stroke-width="5" opacity="0.315" stroke-linecap="square"/><polygon points="120,461.6 1160,461.6 1160,517.6 120,517.6" fill="#c29879" opacity="0.16999999999999998"/><rect x="536" y="649" width="10" height="10" fill="#c59d7f" opacity="0.3366664"/><rect x="550" y="651" width="8" height="2" fill="#bc8d6c" opacity="0.233292"/><rect x="526" y="663" width="28" height="2" fill="#e7d6c5" opacity="0.13160159999999999"/><rect x="1224" y="111" width="8" height="8" fill="#c59d7f" opacity="0.2862628"/><rect x="1236" y="113" width="6" height="2" fill="#bc8d6c" opacity="0.21009919999999999"/><rect x="1214" y="123" width="26" height="2" fill="#e7d6c5" opacity="0.164631"/><rect x="744" y="428" width="7" height="7" fill="#c59d7f" opacity="0.2400388"/><rect x="755" y="430" width="5" height="2" fill="#bc8d6c" opacity="0.2256832"/><rect x="734" y="439" width="25" height="2" fill="#e7d6c5" opacity="0.1270458"/><rect x="91" y="529" width="6" height="6" fill="#c59d7f" opacity="0.3222136"/><rect x="101" y="531" width="4" height="2" fill="#bc8d6c" opacity="0.192804"/><rect x="81" y="539" width="24" height="2" fill="#e7d6c5" opacity="0.1445556"/><rect x="896" y="293" width="13" height="13" fill="#c59d7f" opacity="0.297604"/><rect x="913" y="295" width="11" height="2" fill="#bc8d6c" opacity="0.182444"/><rect x="886" y="310" width="31" height="2" fill="#e7d6c5" opacity="0.179562"/><rect x="741" y="204" width="6" height="6" fill="#c59d7f" opacity="0.2254228"/><rect x="751" y="206" width="4" height="2" fill="#bc8d6c" opacity="0.22579359999999998"/><rect x="731" y="214" width="24" height="2" fill="#e7d6c5" opacity="0.1209546"/><rect x="175" y="323" width="7" height="7" fill="#c59d7f" opacity="0.3161452"/><rect x="186" y="325" width="5" height="2" fill="#bc8d6c" opacity="0.1980112"/><rect x="165" y="334" width="25" height="2" fill="#e7d6c5" opacity="0.1619766"/><rect x="456" y="291" width="12" height="12" fill="#c59d7f" opacity="0.2384548"/><rect x="472" y="293" width="10" height="2" fill="#bc8d6c" opacity="0.2212544"/><rect x="446" y="307" width="30" height="2" fill="#e7d6c5" opacity="0.13417679999999998"/><rect x="457" y="555" width="12" height="12" fill="#c59d7f" opacity="0.2603368"/><rect x="473" y="557" width="10" height="2" fill="#bc8d6c" opacity="0.2586584"/><rect x="447" y="571" width="30" height="2" fill="#e7d6c5" opacity="0.1280004"/><rect x="577" y="576" width="13" height="13" fill="#c59d7f" opacity="0.315568"/><rect x="594" y="578" width="11" height="2" fill="#bc8d6c" opacity="0.21973199999999998"/><rect x="567" y="593" width="31" height="2" fill="#e7d6c5" opacity="0.12480659999999999"/><rect x="753" y="299" width="9" height="9" fill="#c59d7f" opacity="0.2891956"/><rect x="766" y="301" width="7" height="2" fill="#bc8d6c" opacity="0.19484079999999998"/><rect x="743" y="312" width="27" height="2" fill="#e7d6c5" opacity="0.17008079999999998"/><rect x="598" y="539" width="13" height="13" fill="#c59d7f" opacity="0.2452504"/><rect x="615" y="541" width="11" height="2" fill="#bc8d6c" opacity="0.215952"/><rect x="588" y="556" width="31" height="2" fill="#e7d6c5" opacity="0.1763448"/><rect x="542" y="651" width="8" height="8" fill="#c59d7f" opacity="0.232276"/><rect x="554" y="653" width="6" height="2" fill="#bc8d6c" opacity="0.1801128"/><rect x="532" y="663" width="26" height="2" fill="#e7d6c5" opacity="0.1419852"/><rect x="649" y="496" width="9" height="9" fill="#c59d7f" opacity="0.311164"/><rect x="662" y="498" width="7" height="2" fill="#bc8d6c" opacity="0.24949919999999998"/><rect x="639" y="509" width="27" height="2" fill="#e7d6c5" opacity="0.1480224"/><rect x="640" y="339" width="7" height="7" fill="#c59d7f" opacity="0.3335896"/><rect x="651" y="341" width="5" height="2" fill="#bc8d6c" opacity="0.25320319999999996"/><rect x="630" y="350" width="25" height="2" fill="#e7d6c5" opacity="0.1296684"/><rect x="117" y="588" width="7" height="7" fill="#c59d7f" opacity="0.2355088"/><rect x="128" y="590" width="5" height="2" fill="#bc8d6c" opacity="0.24912079999999998"/><rect x="107" y="599" width="25" height="2" fill="#e7d6c5" opacity="0.1583058"/><rect x="0" y="0" width="1280" height="1" fill="#000000" opacity="0.08"/><rect x="0" y="4" width="1280" height="1" fill="#000000" opacity="0.08"/><rect x="0" y="8" width="1280" height="1" fill="#000000" opacity="0.08"/><rect x="0" y="12" width="1280" height="1" fill="#000000" opacity="0.08"/><rect x="0" y="16" width="1280" height="1" fill="#000000" opacity="0.08"/><rect x="0" y="20" width="1280" height="1" fill="#000000" opacity="0.08"/><rect x="0" y="24" width="1280" height="1" fill="#000000" opacity="0.08"/><rect x="0" y="28" width="1280" height="1" fill="#000000" opacity="0.08"/><rect x="0" y="32" width="1280" height="1" fill="#000000" opacity="0.08"/><rect x="0" y="36" width="1280" height="1" fill="#000000" opacity="0.08"/><rect x="0" y="40" width="1280" height="1" fill="#000000" opacity="0.08"/><rect x="0" y="44" width="1280" height="1" fill="#000000" opacity="0.08"/><rect x="0" y="48" width="1280" height="1" fill="#000000" opacity="0.08"/><rect x="0" y="52" width="1280" height="1" fill="#000000" opacity="0.08"/><rect x="0" y="56" width="1280" height="1" fill="#000000" opacity="0.08"/><rect x="0" y="60" width="1280" height="1" fill="#000000" opacity="0.08"/><rect x="0" y="64" width="1280" height="1" fill="#000000" opacity="0.08"/><rect x="0" y="68" width="1280" height="1" fill="#000000" opacity="0.08"/><rect x="0" y="72" width="1280" height="1" fill="#000000" opacity="0.08"/><rect x="0" y="76" width="1280" height="1" fill="#000000" opacity="0.08"/><rect x="0" y="80" width="1280" height="1" fill="#000000" opacity="0.08"/><rect x="0" y="84" width="1280" height="1" fill="#000000" opacity="0.08"/><rect x="0" y="88" width="1280" height="1" fill="#000000" opacity="0.08"/><rect x="0" y="92" width="1280" height="1" fill="#000000" opacity="0.08"/><rect x="0" y="96" width="1280" height="1" fill="#000000" opacity="0.08"/><rect x="0" y="100" width="1280" height="1" fill="#000000" opacity="0.08"/><rect x="0" y="104" width="1280" height="1" fill="#000000" opacity="0.08"/><rect x="0" y="108" width="1280" height="1" fill="#000000" opacity="0.08"/><rect x="0" y="112" width="1280" height="1" fill="#000000" opacity="0.08"/><rect x="0" y="116" width="1280" height="1" fill="#000000" opacity="0.08"/><rect x="0" y="120" width="1280" height="1" fill="#000000" opacity="0.08"/><rect x="0" y="124" width="1280" height="1" fill="#000000" opacity="0.08"/><rect x="0" y="128" width="1280" height="1" fill="#000000" opacity="0.08"/><rect x="0" y="132" width="1280" height="1" fill="#000000" opacity="0.08"/><rect x="0" y="136" width="1280" height="1" fill="#000000" opacity="0.08"/><rect x="0" y="140" width="1280" height="1" fill="#000000" opacity="0.08"/><rect x="0" y="144" width="1280" height="1" fill="#000000" opacity="0.08"/><rect x="0" y="148" width="1280" height="1" fill="#000000" opacity="0.08"/><rect x="0" y="152" width="1280" height="1" fill="#000000" opacity="0.08"/><rect x="0" y="156" width="1280" height="1" fill="#000000" opacity="0.08"/><rect x="0" y="160" width="1280" height="1" fill="#000000" opacity="0.08"/><rect x="0" y="164" width="1280" height="1" fill="#000000" opacity="0.08"/><rect x="0" y="168" width="1280" height="1" fill="#000000" opacity="0.08"/><rect x="0" y="172" width="1280" height="1" fill="#000000" opacity="0.08"/><rect x="0" y="176" width="1280" height="1" fill="#000000" opacity="0.08"/><rect x="0" y="180" width="1280" height="1" fill="#000000" opacity="0.08"/><rect x="0" y="184" width="1280" height="1" fill="#000000" opacity="0.08"/><rect x="0" y="188" width="1280" height="1" fill="#000000" opacity="0.08"/><rect x="0" y="192" width="1280" height="1" fill="#000000" opacity="0.08"/><rect x="0" y="196" width="1280" height="1" fill="#000000" opacity="0.08"/><rect x="0" y="200" width="1280" height="1" fill="#000000" opacity="0.08"/><rect x="0" y="204" width="1280" height="1" fill="#000000" opacity="0.08"/><rect x="0" y="208" width="1280" height="1" fill="#000000" opacity="0.08"/><rect x="0" y="212" width="1280" height="1" fill="#000000" opacity="0.08"/><rect x="0" y="216" width="1280" height="1" fill="#000000" opacity="0.08"/><rect x="0" y="220" width="1280" height="1" fill="#000000" opacity="0.08"/><rect x="0" y="224" width="1280" height="1" fill="#000000" opacity="0.08"/><rect x="0" y="228" width="1280" height="1" fill="#000000" opacity="0.08"/><rect x="0" y="232" width="1280" height="1" fill="#000000" opacity="0.08"/><rect x="0" y="236" width="1280" height="1" fill="#000000" opacity="0.08"/><rect x="0" y="240" width="1280" height="1" fill="#000000" opacity="0.08"/><rect x="0" y="244" width="1280" height="1" fill="#000000" opacity="0.08"/><rect x="0" y="248" width="1280" height="1" fill="#000000" opacity="0.08"/><rect x="0" y="252" width="1280" height="1" fill="#000000" opacity="0.08"/><rect x="0" y="256" width="1280" height="1" fill="#000000" opacity="0.08"/><rect x="0" y="260" width="1280" height="1" fill="#000000" opacity="0.08"/><rect x="0" y="264" width="1280" height="1" fill="#000000" opacity="0.08"/><rect x="0" y="268" width="1280" height="1" fill="#000000" opacity="0.08"/><rect x="0" y="272" width="1280" height="1" fill="#000000" opacity="0.08"/><rect x="0" y="276" width="1280" height="1" fill="#000000" opacity="0.08"/><rect x="0" y="280" width="1280" height="1" fill="#000000" opacity="0.08"/><rect x="0" y="284" width="1280" height="1" fill="#000000" opacity="0.08"/><rect x="0" y="288" width="1280" height="1" fill="#000000" opacity="0.08"/><rect x="0" y="292" width="1280" height="1" fill="#000000" opacity="0.08"/><rect x="0" y="296" width="1280" height="1" fill="#000000" opacity="0.08"/><rect x="0" y="300" width="1280" height="1" fill="#000000" opacity="0.08"/><rect x="0" y="304" width="1280" height="1" fill="#000000" opacity="0.08"/><rect x="0" y="308" width="1280" height="1" fill="#000000" opacity="0.08"/><rect x="0" y="312" width="1280" height="1" fill="#000000" opacity="0.08"/><rect x="0" y="316" width="1280" height="1" fill="#000000" opacity="0.08"/><rect x="0" y="320" width="1280" height="1" fill="#000000" opacity="0.08"/><rect x="0" y="324" width="1280" height="1" fill="#000000" opacity="0.08"/><rect x="0" y="328" width="1280" height="1" fill="#000000" opacity="0.08"/><rect x="0" y="332" width="1280" height="1" fill="#000000" opacity="0.08"/><rect x="0" y="336" width="1280" height="1" fill="#000000" opacity="0.08"/><rect x="0" y="340" width="1280" height="1" fill="#000000" opacity="0.08"/><rect x="0" y="344" width="1280" height="1" fill="#000000" opacity="0.08"/><rect x="0" y="348" width="1280" height="1" fill="#000000" opacity="0.08"/><rect x="0" y="352" width="1280" height="1" fill="#000000" opacity="0.08"/><rect x="0" y="356" width="1280" height="1" fill="#000000" opacity="0.08"/><rect x="0" y="360" width="1280" height="1" fill="#000000" opacity="0.08"/><rect x="0" y="364" width="1280" height="1" fill="#000000" opacity="0.08"/><rect x="0" y="368" width="1280" height="1" fill="#000000" opacity="0.08"/><rect x="0" y="372" width="1280" height="1" fill="#000000" opacity="0.08"/><rect x="0" y="376" width="1280" height="1" fill="#000000" opacity="0.08"/><rect x="0" y="380" width="1280" height="1" fill="#000000" opacity="0.08"/><rect x="0" y="384" width="1280" height="1" fill="#000000" opacity="0.08"/><rect x="0" y="388" width="1280" height="1" fill="#000000" opacity="0.08"/><rect x="0" y="392" width="1280" height="1" fill="#000000" opacity="0.08"/><rect x="0" y="396" width="1280" height="1" fill="#000000" opacity="0.08"/><rect x="0" y="400" width="1280" height="1" fill="#000000" opacity="0.08"/><rect x="0" y="404" width="1280" height="1" fill="#000000" opacity="0.08"/><rect x="0" y="408" width="1280" height="1" fill="#000000" opacity="0.08"/><rect x="0" y="412" width="1280" height="1" fill="#000000" opacity="0.08"/><rect x="0" y="416" width="1280" height="1" fill="#000000" opacity="0.08"/><rect x="0" y="420" width="1280" height="1" fill="#000000" opacity="0.08"/><rect x="0" y="424" width="1280" height="1" fill="#000000" opacity="0.08"/><rect x="0" y="428" width="1280" height="1" fill="#000000" opacity="0.08"/><rect x="0" y="432" width="1280" height="1" fill="#000000" opacity="0.08"/><rect x="0" y="436" width="1280" height="1" fill="#000000" opacity="0.08"/><rect x="0" y="440" width="1280" height="1" fill="#000000" opacity="0.08"/><rect x="0" y="444" width="1280" height="1" fill="#000000" opacity="0.08"/><rect x="0" y="448" width="1280" height="1" fill="#000000" opacity="0.08"/><rect x="0" y="452" width="1280" height="1" fill="#000000" opacity="0.08"/><rect x="0" y="456" width="1280" height="1" fill="#000000" opacity="0.08"/><rect x="0" y="460" width="1280" height="1" fill="#000000" opacity="0.08"/><rect x="0" y="464" width="1280" height="1" fill="#000000" opacity="0.08"/><rect x="0" y="468" width="1280" height="1" fill="#000000" opacity="0.08"/><rect x="0" y="472" width="1280" height="1" fill="#000000" opacity="0.08"/><rect x="0" y="476" width="1280" height="1" fill="#000000" opacity="0.08"/><rect x="0" y="480" width="1280" height="1" fill="#000000" opacity="0.08"/><rect x="0" y="484" width="1280" height="1" fill="#000000" opacity="0.08"/><rect x="0" y="488" width="1280" height="1" fill="#000000" opacity="0.08"/><rect x="0" y="492" width="1280" height="1" fill="#000000" opacity="0.08"/><rect x="0" y="496" width="1280" height="1" fill="#000000" opacity="0.08"/><rect x="0" y="500" width="1280" height="1" fill="#000000" opacity="0.08"/><rect x="0" y="504" width="1280" height="1" fill="#000000" opacity="0.08"/><rect x="0" y="508" width="1280" height="1" fill="#000000" opacity="0.08"/><rect x="0" y="512" width="1280" height="1" fill="#000000" opacity="0.08"/><rect x="0" y="516" width="1280" height="1" fill="#000000" opacity="0.08"/><rect x="0" y="520" width="1280" height="1" fill="#000000" opacity="0.08"/><rect x="0" y="524" width="1280" height="1" fill="#000000" opacity="0.08"/><rect x="0" y="528" width="1280" height="1" fill="#000000" opacity="0.08"/><rect x="0" y="532" width="1280" height="1" fill="#000000" opacity="0.08"/><rect x="0" y="536" width="1280" height="1" fill="#000000" opacity="0.08"/><rect x="0" y="540" width="1280" height="1" fill="#000000" opacity="0.08"/><rect x="0" y="544" width="1280" height="1" fill="#000000" opacity="0.08"/><rect x="0" y="548" width="1280" height="1" fill="#000000" opacity="0.08"/><rect x="0" y="552" width="1280" height="1" fill="#000000" opacity="0.08"/><rect x="0" y="556" width="1280" height="1" fill="#000000" opacity="0.08"/><rect x="0" y="560" width="1280" height="1" fill="#000000" opacity="0.08"/><rect x="0" y="564" width="1280" height="1" fill="#000000" opacity="0.08"/><rect x="0" y="568" width="1280" height="1" fill="#000000" opacity="0.08"/><rect x="0" y="572" width="1280" height="1" fill="#000000" opacity="0.08"/><rect x="0" y="576" width="1280" height="1" fill="#000000" opacity="0.08"/><rect x="0" y="580" width="1280" height="1" fill="#000000" opacity="0.08"/><rect x="0" y="584" width="1280" height="1" fill="#000000" opacity="0.08"/><rect x="0" y="588" width="1280" height="1" fill="#000000" opacity="0.08"/><rect x="0" y="592" width="1280" height="1" fill="#000000" opacity="0.08"/><rect x="0" y="596" width="1280" height="1" fill="#000000" opacity="0.08"/><rect x="0" y="600" width="1280" height="1" fill="#000000" opacity="0.08"/><rect x="0" y="604" width="1280" height="1" fill="#000000" opacity="0.08"/><rect x="0" y="608" width="1280" height="1" fill="#000000" opacity="0.08"/><rect x="0" y="612" width="1280" height="1" fill="#000000" opacity="0.08"/><rect x="0" y="616" width="1280" height="1" fill="#000000" opacity="0.08"/><rect x="0" y="620" width="1280" height="1" fill="#000000" opacity="0.08"/><rect x="0" y="624" width="1280" height="1" fill="#000000" opacity="0.08"/><rect x="0" y="628" width="1280" height="1" fill="#000000" opacity="0.08"/><rect x="0" y="632" width="1280" height="1" fill="#000000" opacity="0.08"/><rect x="0" y="636" width="1280" height="1" fill="#000000" opacity="0.08"/><rect x="0" y="640" width="1280" height="1" fill="#000000" opacity="0.08"/><rect x="0" y="644" width="1280" height="1" fill="#000000" opacity="0.08"/><rect x="0" y="648" width="1280" height="1" fill="#000000" opacity="0.08"/><rect x="0" y="652" width="1280" height="1" fill="#000000" opacity="0.08"/><rect x="0" y="656" width="1280" height="1" fill="#000000" opacity="0.08"/><rect x="0" y="660" width="1280" height="1" fill="#000000" opacity="0.08"/><rect x="0" y="664" width="1280" height="1" fill="#000000" opacity="0.08"/><rect x="0" y="668" width="1280" height="1" fill="#000000" opacity="0.08"/><rect x="0" y="672" width="1280" height="1" fill="#000000" opacity="0.08"/><rect x="0" y="676" width="1280" height="1" fill="#000000" opacity="0.08"/><rect x="0" y="680" width="1280" height="1" fill="#000000" opacity="0.08"/><rect x="0" y="684" width="1280" height="1" fill="#000000" opacity="0.08"/><rect x="0" y="688" width="1280" height="1" fill="#000000" opacity="0.08"/><rect x="0" y="692" width="1280" height="1" fill="#000000" opacity="0.08"/><rect x="0" y="696" width="1280" height="1" fill="#000000" opacity="0.08"/><rect x="0" y="700" width="1280" height="1" fill="#000000" opacity="0.08"/><rect x="0" y="704" width="1280" height="1" fill="#000000" opacity="0.08"/><rect x="0" y="708" width="1280" height="1" fill="#000000" opacity="0.08"/><rect x="0" y="712" width="1280" height="1" fill="#000000" opacity="0.08"/><rect x="0" y="716" width="1280" height="1" fill="#000000" opacity="0.08"/>
</svg>