<?xml version="1.0" encoding="UTF-8"?>
<svg xmlns="http://www.w3.org/2000/svg" width="1280" height="720" viewBox="0 0 1280 720" shape-rendering="crispEdges">
<rect x="0" y="0" width="1280" height="720" fill="#090910" opacity="0.96"/><rect x="0" y="0" width="1280" height="10" fill="#8790b7" opacity="0.14"/><rect x="0" y="710" width="1280" height="10" fill="#8790b7" opacity="0.14"/><rect x="0" y="0" width="10" height="720" fill="#8790b7" opacity="0.1"/><rect x="1270" y="0" width="10" height="720" fill="#8790b7" opacity="0.1"/><rect x="18" y="18" width="92" height="10" fill="#8790b7" opacity="0.5"/><rect x="18" y="18" width="10" height="72" fill="#8790b7" opacity="0.5"/><rect x="1170" y="18" width="92" height="10" fill="#8790b7" opacity="0.5"/><rect x="1252" y="18" width="10" height="72" fill="#8790b7" opacity="0.5"/><rect x="18" y="692" width="92" height="10" fill="#8790b7" opacity="0.5"/><rect x="18" y="630" width="10" height="72" fill="#8790b7" opacity="0.5"/><rect x="1170" y="692" width="92" height="10" fill="#8790b7" opacity="0.5"/><rect x="1252" y="630" width="10" height="72" fill="#8790b7" opacity="0.5"/><rect x="28" y="28" width="1224" height="664" fill="#13141d" opacity="0.08"/><rect x="0" y="0" width="1280" height="110" fill="#090910" opacity="0.34"/><rect x="0" y="586" width="1280" height="134" fill="#090910" opacity="0.28"/><rect x="208" y="136" width="864" height="448" fill="#161821" opacity="0.72"/><rect x="266" y="196" width="198" height="136" fill="#e8dfd5" opacity="0.25"/><rect x="542" y="176" width="214" height="148" fill="#e8dfd5" opacity="0.23"/><rect x="836" y="214" width="166" height="122" fill="#e8dfd5" opacity="0.215"/><rect x="184" y="-48" width="912" height="196" fill="#6b7292" opacity="0.42000000000000004"/><line x1="184" y1="-6" x2="1096" y2="-6" stroke="#8790b7" stroke-width="5" opacity="0.27" stroke-linecap="square"/><line x1="184" y1="48" x2="1096" y2="48" stroke="#8790b7" stroke-width="5" opacity="0.27" stroke-linecap="square"/><line x1="184" y1="102" x2="1096" y2="102" stroke="#8790b7" stroke-width="5" opacity="0.27" stroke-linecap="square"/><polygon points="120,461.6 1160,461.6 1160,517.6 120,517.6" fill="#949abb" opacity="0.14"/><rect x="664" y="112" width="14" height="14" fill="#9a9fbd" opacity="0.2208532"/><rect x="682" y="114" width="12" height="2" fill="#8790b7" opacity="0.25760879999999997"/><rect x="654" y="130" width="32" height="2" fill="#ddd7d2" opacity="0.16262939999999998"/><rect x="93" y="191" width="11" height="11" fill="#9a9fbd" opacity="0.2441872"/><rect x="108" y="193" width="9" height="2" fill="#8790b7" opacity="0.23147199999999998"/><rect x="83" y="206" width="29" height="2" fill="#ddd7d2" opacity="0.1784904"/><rect x="281" y="94" width="13" height="13" fill="#9a9fbd" opacity="0.3039652"/><rect x="298" y="96" width="11" height="2" fill="#8790b7" opacity="0.2409912"/><rect x="271" y="111" width="31" height="2" fill="#ddd7d2" opacity="0.1282956"/><rect x="546" y="397" width="12" height="12" fill="#9a9fbd" opacity="0.253786"/><rect x="562" y="399" width="10" height="2" fill="#8790b7" opacity="0.2394616"/><rect x="536" y="413" width="30" height="2" fill="#ddd7d2" opacity="0.149187"/><rect x="450" y="106" width="13" height="13" fill="#9a9fbd" opacity="0.275992"/><rect x="467" y="108" width="11" height="2" fill="#8790b7" opacity="0.234152"/><rect x="440" y="123" width="31" height="2" fill="#ddd7d2" opacity="0.1576212"/><rect x="507" y="48" width="10" height="10" fill="#9a9fbd" opacity="0.2845324"/><rect x="521" y="50" width="8" height="2" fill="#8790b7" opacity="0.19840639999999998"/><rect x="497" y="62" width="28" height="2" fill="#ddd7d2" opacity="0.1641186"/><rect x="886" y="595" width="11" height="11" fill="#9a9fbd" opacity="0.2983744"/><rect x="901" y="597" width="9" height="2" fill="#8790b7" opacity="0.2045296"/><rect x="876" y="610" width="29" height="2" fill="#ddd7d2" opacity="0.1265958"/><rect x="1069" y="352" width="10" height="10" fill="#9a9fbd" opacity="0.282448"/><rect x="1083" y="354" width="8" height="2" fill="#8790b7" opacity="0.2439296"/><rect x="1059" y="366" width="28" height="2" fill="#ddd7d2" opacity="0.1298022"/><rect x="401" y="649" width="14" height="14" fill="#9a9fbd" opacity="0.2485156"/><rect x="419" y="651" width="12" height="2" fill="#8790b7" opacity="0.22815439999999998"/><rect x="391" y="667" width="32" height="2" fill="#ddd7d2" opacity="0.1497258"/><rect x="399" y="252" width="11" height="11" fill="#9a9fbd" opacity="0.2649616"/><rect x="414" y="254" width="9" height="2" fill="#8790b7" opacity="0.2008192"/><rect x="389" y="267" width="29" height="2" fill="#ddd7d2" opacity="0.170373"/><rect x="445" y="523" width="10" height="10" fill="#9a9fbd" opacity="0.3112012"/><rect x="459" y="525" width="8" height="2" fill="#8790b7" opacity="0.25148159999999997"/><rect x="435" y="537" width="28" height="2" fill="#ddd7d2" opacity="0.1471998"/><rect x="925" y="343" width="8" height="8" fill="#9a9fbd" opacity="0.2576884"/><rect x="937" y="345" width="6" height="2" fill="#8790b7" opacity="0.2442464"/><rect x="915" y="355" width="26" height="2" fill="#ddd7d2" opacity="0.1674948"/><rect x="651" y="324" width="11" height="11" fill="#9a9fbd" opacity="0.2483824"/><rect x="666" y="326" width="9" height="2" fill="#8790b7" opacity="0.1999208"/><rect x="641" y="339" width="29" height="2" fill="#ddd7d2" opacity="0.145056"/><rect x="125" y="201" width="14" height="14" fill="#9a9fbd" opacity="0.2781652"/><rect x="143" y="203" width="12" height="2" fill="#8790b7" opacity="0.2277536"/><rect x="115" y="219" width="32" height="2" fill="#ddd7d2" opacity="0.158808"/><rect x="1012" y="535" width="11" height="11" fill="#9a9fbd" opacity="0.2914384"/><rect x="1027" y="537" width="9" height="2" fill="#8790b7" opacity="0.2567656"/><rect x="1002" y="550" width="29" height="2" fill="#ddd7d2" opacity="0.1311192"/><rect x="379" y="333" width="7" height="7" fill="#9a9fbd" opacity="0.278698"/><rect x="390" y="335" width="5" height="2" fill="#8790b7" opacity="0.1850792"/><rect x="369" y="344" width="25" height="2" fill="#ddd7d2" opacity="0.1577844"/><rect x="0" y="0" width="1280" height="1" fill="#000000" opacity="0.08"/><rect x="0" y="4" width="1280" height="1" fill="#000000" opacity="0.08"/><rect x="0" y="8" width="1280" height="1" fill="#000000" opacity="0.08"/><rect x="0" y="12" width="1280" height="1" fill="#000000" opacity="0.08"/><rect x="0" y="16" width="1280" height="1" fill="#000000" opacity="0.08"/><rect x="0" y="20" width="1280" height="1" fill="#000000" opacity="0.08"/><rect x="0" y="24" width="1280" height="1" fill="#000000" opacity="0.08"/><rect x="0" y="28" width="1280" height="1" fill="#000000" opacity="0.08"/><rect x="0" y="32" width="1280" height="1" fill="#000000" opacity="0.08"/><rect x="0" y="36" width="1280" height="1" fill="#000000" opacity="0.08"/><rect x="0" y="40" width="1280" height="1" fill="#000000" opacity="0.08"/><rect x="0" y="44" width="1280" height="1" fill="#000000" opacity="0.08"/><rect x="0" y="48" width="1280" height="1" fill="#000000" opacity="0.08"/><rect x="0" y="52" width="1280" height="1" fill="#000000" opacity="0.08"/><rect x="0" y="56" width="1280" height="1" fill="#000000" opacity="0.08"/><rect x="0" y="60" width="1280" height="1" fill="#000000" opacity="0.08"/><rect x="0" y="64" width="1280" height="1" fill="#000000" opacity="0.08"/><rect x="0" y="68" width="1280" height="1" fill="#000000" opacity="0.08"/><rect x="0" y="72" width="1280" height="1" fill="#000000" opacity="0.08"/><rect x="0" y="76" width="1280" height="1" fill="#000000" opacity="0.08"/><rect x="0" y="80" width="1280" height="1" fill="#000000" opacity="0.08"/><rect x="0" y="84" width="1280" height="1" fill="#000000" opacity="0.08"/><rect x="0" y="88" width="1280" height="1" fill="#000000" opacity="0.08"/><rect x="0" y="92" width="1280" height="1" fill="#000000" opacity="0.08"/><rect x="0" y="96" width="1280" height="1" fill="#000000" opacity="0.08"/><rect x="0" y="100" width="1280" height="1" fill="#000000" opacity="0.08"/><rect x="0" y="104" width="1280" height="1" fill="#000000" opacity="0.08"/><rect x="0" y="108" width="1280" height="1" fill="#000000" opacity="0.08"/><rect x="0" y="112" width="1280" height="1" fill="#000000" opacity="0.08"/><rect x="0" y="116" width="1280" height="1" fill="#000000" opacity="0.08"/><rect x="0" y="120" width="1280" height="1" fill="#000000" opacity="0.08"/><rect x="0" y="124" width="1280" height="1" fill="#000000" opacity="0.08"/><rect x="0" y="128" width="1280" height="1" fill="#000000" opacity="0.08"/><rect x="0" y="132" width="1280" height="1" fill="#000000" opacity="0.08"/><rect x="0" y="136" width="1280" height="1" fill="#000000" opacity="0.08"/><rect x="0" y="140" width="1280" height="1" fill="#000000" opacity="0.08"/><rect x="0" y="144" width="1280" height="1" fill="#000000" opacity="0.08"/><rect x="0" y="148" width="1280" height="1" fill="#000000" opacity="0.08"/><rect x="0" y="152" width="1280" height="1" fill="#000000" opacity="0.08"/><rect x="0" y="156" width="1280" height="1" fill="#000000" opacity="0.08"/><rect x="0" y="160" width="1280" height="1" fill="#000000" opacity="0.08"/><rect x="0" y="164" width="1280" height="1" fill="#000000" opacity="0.08"/><rect x="0" y="168" width="1280" height="1" fill="#000000" opacity="0.08"/><rect x="0" y="172" width="1280" height="1" fill="#000000" opacity="0.08"/><rect x="0" y="176" width="1280" height="1" fill="#000000" opacity="0.08"/><rect x="0" y="180" width="1280" height="1" fill="#000000" opacity="0.08"/><rect x="0" y="184" width="1280" height="1" fill="#000000" opacity="0.08"/><rect x="0" y="188" width="1280" height="1" fill="#000000" opacity="0.08"/><rect x="0" y="192" width="1280" height="1" fill="#000000" opacity="0.08"/><rect x="0" y="196" width="1280" height="1" fill="#000000" opacity="0.08"/><rect x="0" y="200" width="1280" height="1" fill="#000000" opacity="0.08"/><rect x="0" y="204" width="1280" height="1" fill="#000000" opacity="0.08"/><rect x="0" y="208" width="1280" height="1" fill="#000000" opacity="0.08"/><rect x="0" y="212" width="1280" height="1" fill="#000000" opacity="0.08"/><rect x="0" y="216" width="1280" height="1" fill="#000000" opacity="0.08"/><rect x="0" y="220" width="1280" height="1" fill="#000000" opacity="0.08"/><rect x="0" y="224" width="1280" height="1" fill="#000000" opacity="0.08"/><rect x="0" y="228" width="1280" height="1" fill="#000000" opacity="0.08"/><rect x="0" y="232" width="1280" height="1" fill="#000000" opacity="0.08"/><rect x="0" y="236" width="1280" height="1" fill="#000000" opacity="0.08"/><rect x="0" y="240" width="1280" height="1" fill="#000000" opacity="0.08"/><rect x="0" y="244" width="1280" height="1" fill="#000000" opacity="0.08"/><rect x="0" y="248" width="1280" height="1" fill="#000000" opacity="0.08"/><rect x="0" y="252" width="1280" height="1" fill="#000000" opacity="0.08"/><rect x="0" y="256" width="1280" height="1" fill="#000000" opacity="0.08"/><rect x="0" y="260" width="1280" height="1" fill="#000000" opacity="0.08"/><rect x="0" y="264" width="1280" height="1" fill="#000000" opacity="0.08"/><rect x="0" y="268" width="1280" height="1" fill="#000000" opacity="0.08"/><rect x="0" y="272" width="1280" height="1" fill="#000000" opacity="0.08"/><rect x="0" y="276" width="1280" height="1" fill="#000000" opacity="0.08"/><rect x="0" y="280" width="1280" height="1" fill="#000000" opacity="0.08"/><rect x="0" y="284" width="1280" height="1" fill="#000000" opacity="0.08"/><rect x="0" y="288" width="1280" height="1" fill="#000000" opacity="0.08"/><rect x="0" y="292" width="1280" height="1" fill="#000000" opacity="0.08"/><rect x="0" y="296" width="1280" height="1" fill="#000000" opacity="0.08"/><rect x="0" y="300" width="1280" height="1" fill="#000000" opacity="0.08"/><rect x="0" y="304" width="1280" height="1" fill="#000000" opacity="0.08"/><rect x="0" y="308" width="1280" height="1" fill="#000000" opacity="0.08"/><rect x="0" y="312" width="1280" height="1" fill="#000000" opacity="0.08"/><rect x="0" y="316" width="1280" height="1" fill="#000000" opacity="0.08"/><rect x="0" y="320" width="1280" height="1" fill="#000000" opacity="0.08"/><rect x="0" y="324" width="1280" height="1" fill="#000000" opacity="0.08"/><rect x="0" y="328" width="1280" height="1" fill="#000000" opacity="0.08"/><rect x="0" y="332" width="1280" height="1" fill="#000000" opacity="0.08"/><rect x="0" y="336" width="1280" height="1" fill="#000000" opacity="0.08"/><rect x="0" y="340" width="1280" height="1" fill="#000000" opacity="0.08"/><rect x="0" y="344" width="1280" height="1" fill="#000000" opacity="0.08"/><rect x="0" y="348" width="1280" height="1" fill="#000000" opacity="0.08"/><rect x="0" y="352" width="1280" height="1" fill="#000000" opacity="0.08"/><rect x="0" y="356" width="1280" height="1" fill="#000000" opacity="0.08"/><rect x="0" y="360" width="1280" height="1" fill="#000000" opacity="0.08"/><rect x="0" y="364" width="1280" height="1" fill="#000000" opacity="0.08"/><rect x="0" y="368" width="1280" height="1" fill="#000000" opacity="0.08"/><rect x="0" y="372" width="1280" height="1" fill="#000000" opacity="0.08"/><rect x="0" y="376" width="1280" height="1" fill="#000000" opacity="0.08"/><rect x="0" y="380" width="1280" height="1" fill="#000000" opacity="0.08"/><rect x="0" y="384" width="1280" height="1" fill="#000000" opacity="0.08"/><rect x="0" y="388" width="1280" height="1" fill="#000000" opacity="0.08"/><rect x="0" y="392" width="1280" height="1" fill="#000000" opacity="0.08"/><rect x="0" y="396" width="1280" height="1" fill="#000000" opacity="0.08"/><rect x="0" y="400" width="1280" height="1" fill="#000000" opacity="0.08"/><rect x="0" y="404" width="1280" height="1" fill="#000000" opacity="0.08"/><rect x="0" y="408" width="1280" height="1" fill="#000000" opacity="0.08"/><rect x="0" y="412" width="1280" height="1" fill="#000000" opacity="0.08"/><rect x="0" y="416" width="1280" height="1" fill="#000000" opacity="0.08"/><rect x="0" y="420" width="1280" height="1" fill="#000000" opacity="0.08"/><rect x="0" y="424" width="1280" height="1" fill="#000000" opacity="0.08"/><rect x="0" y="428" width="1280" height="1" fill="#000000" opacity="0.08"/><rect x="0" y="432" width="1280" height="1" fill="#000000" opacity="0.08"/><rect x="0" y="436" width="1280" height="1" fill="#000000" opacity="0.08"/><rect x="0" y="440" width="1280" height="1" fill="#000000" opacity="0.08"/><rect x="0" y="444" width="1280" height="1" fill="#000000" opacity="0.08"/><rect x="0" y="448" width="1280" height="1" fill="#000000" opacity="0.08"/><rect x="0" y="452" width="1280" height="1" fill="#000000" opacity="0.08"/><rect x="0" y="456" width="1280" height="1" fill="#000000" opacity="0.08"/><rect x="0" y="460" width="1280" height="1" fill="#000000" opacity="0.08"/><rect x="0" y="464" width="1280" height="1" fill="#000000" opacity="0.08"/><rect x="0" y="468" width="1280" height="1" fill="#000000" opacity="0.08"/><rect x="0" y="472" width="1280" height="1" fill="#000000" opacity="0.08"/><rect x="0" y="476" width="1280" height="1" fill="#000000" opacity="0.08"/><rect x="0" y="480" width="1280" height="1" fill="#000000" opacity="0.08"/><rect x="0" y="484" width="1280" height="1" fill="#000000" opacity="0.08"/><rect x="0" y="488" width="1280" height="1" fill="#000000" opacity="0.08"/><rect x="0" y="492" width="1280" height="1" fill="#000000" opacity="0.08"/><rect x="0" y="496" width="1280" height="1" fill="#000000" opacity="0.08"/><rect x="0" y="500" width="1280" height="1" fill="#000000" opacity="0.08"/><rect x="0" y="504" width="1280" height="1" fill="#000000" opacity="0.08"/><rect x="0" y="508" width="1280" height="1" fill="#000000" opacity="0.08"/><rect x="0" y="512" width="1280" height="1" fill="#000000" opacity="0.08"/><rect x="0" y="516" width="1280" height="1" fill="#000000" opacity="0.08"/><rect x="0" y="520" width="1280" height="1" fill="#000000" opacity="0.08"/><rect x="0" y="524" width="1280" height="1" fill="#000000" opacity="0.08"/><rect x="0" y="528" width="1280" height="1" fill="#000000" opacity="0.08"/><rect x="0" y="532" width="1280" height="1" fill="#000000" opacity="0.08"/><rect x="0" y="536" width="1280" height="1" fill="#000000" opacity="0.08"/><rect x="0" y="540" width="1280" height="1" fill="#000000" opacity="0.08"/><rect x="0" y="544" width="1280" height="1" fill="#000000" opacity="0.08"/><rect x="0" y="548" width="1280" height="1" fill="#000000" opacity="0.08"/><rect x="0" y="552" width="1280" height="1" fill="#000000" opacity="0.08"/><rect x="0" y="556" width="1280" height="1" fill="#000000" opacity="0.08"/><rect x="0" y="560" width="1280" height="1" fill="#000000" opacity="0.08"/><rect x="0" y="564" width="1280" height="1" fill="#000000" opacity="0.08"/><rect x="0" y="568" width="1280" height="1" fill="#000000" opacity="0.08"/><rect x="0" y="572" width="1280" height="1" fill="#000000" opacity="0.08"/><rect x="0" y="576" width="1280" height="1" fill="#000000" opacity="0.08"/><rect x="0" y="580" width="1280" height="1" fill="#000000" opacity="0.08"/><rect x="0" y="584" width="1280" height="1" fill="#000000" opacity="0.08"/><rect x="0" y="588" width="1280" height="1" fill="#000000" opacity="0.08"/><rect x="0" y="592" width="1280" height="1" fill="#000000" opacity="0.08"/><rect x="0" y="596" width="1280" height="1" fill="#000000" opacity="0.08"/><rect x="0" y="600" width="1280" height="1" fill="#000000" opacity="0.08"/><rect x="0" y="604" width="1280" height="1" fill="#000000" opacity="0.08"/><rect x="0" y="608" width="1280" height="1" fill="#000000" opacity="0.08"/><rect x="0" y="612" width="1280" height="1" fill="#000000" opacity="0.08"/><rect x="0" y="616" width="1280" height="1" fill="#000000" opacity="0.08"/><rect x="0" y="620" width="1280" height="1" fill="#000000" opacity="0.08"/><rect x="0" y="624" width="1280" height="1" fill="#000000" opacity="0.08"/><rect x="0" y="628" width="1280" height="1" fill="#000000" opacity="0.08"/><rect x="0" y="632" width="1280" height="1" fill="#000000" opacity="0.08"/><rect x="0" y="636" width="1280" height="1" fill="#000000" opacity="0.08"/><rect x="0" y="640" width="1280" height="1" fill="#000000" opacity="0.08"/><rect x="0" y="644" width="1280" height="1" fill="#000000" opacity="0.08"/><rect x="0" y="648" width="1280" height="1" fill="#000000" opacity="0.08"/><rect x="0" y="652" width="1280" height="1" fill="#000000" opacity="0.08"/><rect x="0" y="656" width="1280" height="1" fill="#000000" opacity="0.08"/><rect x="0" y="660" width="1280" height="1" fill="#000000" opacity="0.08"/><rect x="0" y="664" width="1280" height="1" fill="#000000" opacity="0.08"/><rect x="0" y="668" width="1280" height="1" fill="#000000" opacity="0.08"/><rect x="0" y="672" width="1280" height="1" fill="#000000" opacity="0.08"/><rect x="0" y="676" width="1280" height="1" fill="#000000" opacity="0.08"/><rect x="0" y="680" width="1280" height="1" fill="#000000" opacity="0.08"/><rect x="0" y="684" width="1280" height="1" fill="#000000" opacity="0.08"/><rect x="0" y="688" width="1280" height="1" fill="#000000" opacity="0.08"/><rect x="0" y="692" width="1280" height="1" fill="#000000" opacity="0.08"/><rect x="0" y="696" width="1280" height="1" fill="#000000" opacity="0.08"/><rect x="0" y="700" width="1280" height="1" fill="#000000" opacity="0.08"/><rect x="0" y="704" width="1280" height="1" fill="#000000" opacity="0.08"/><rect x="0" y="708" width="1280" height="1" fill="#000000" opacity="0.08"/><rect x="0" y="712" width="1280" height="1" fill="#000000" opacity="0.08"/><rect x="0" y="716" width="1280" height="1" fill="#000000" opacity="0.08"/>
</svg>