<?xml version="1.0" encoding="UTF-8"?>
<svg xmlns="http://www.w3.org/2000/svg" width="1280" height="720" viewBox="0 0 1280 720" shape-rendering="crispEdges">
<rect x="0" y="0" width="1280" height="720" fill="#090910" opacity="0.96"/><rect x="0" y="0" width="1280" height="10" fill="#b16b67" opacity="0.14"/><rect x="0" y="710" width="1280" height="10" fill="#b16b67" opacity="0.14"/><rect x="0" y="0" width="10" height="720" fill="#b16b67" opacity="0.1"/><rect x="1270" y="0" width="10" height="720" fill="#b16b67" opacity="0.1"/><rect x="18" y="18" width="92" height="10" fill="#b16b67" opacity="0.5"/><rect x="18" y="18" width="10" height="72" fill="#b16b67" opacity="0.5"/><rect x="1170" y="18" width="92" height="10" fill="#b16b67" opacity="0.5"/><rect x="1252" y="18" width="10" height="72" fill="#b16b67" opacity="0.5"/><rect x="18" y="692" width="92" height="10" fill="#b16b67" opacity="0.5"/><rect x="18" y="630" width="10" height="72" fill="#b16b67" opacity="0.5"/><rect x="1170" y="692" width="92" height="10" fill="#b16b67" opacity="0.5"/><rect x="1252" y="630" width="10" height="72" fill="#b16b67" opacity="0.5"/><rect x="28" y="28" width="1224" height="664" fill="#161117" opacity="0.08"/><rect x="0" y="0" width="1280" height="110" fill="#090910" opacity="0.34"/><rect x="0" y="586" width="1280" height="134" fill="#090910" opacity="0.28"/><rect x="208" y="136" width="864" height="448" fill="#161821" opacity="0.72"/><rect x="266" y="196" width="198" height="136" fill="#ebdccf" opacity="0.25"/><rect x="542" y="176" width="214" height="148" fill="#ebdccf" opacity="0.23"/><rect x="836" y="214" width="166" height="122" fill="#ebdccf" opacity="0.215"/><rect x="184" y="-48" width="912" height="196" fill="#8c5554" opacity="0.42000000000000004"/><line x1="184" y1="-6" x2="1096" y2="-6" stroke="#b16b67" stroke-width="5" opacity="0.27" stroke-linecap="square"/><line x1="184" y1="48" x2="1096" y2="48" stroke="#b16b67" stroke-width="5" opacity="0.27" stroke-linecap="square"/><line x1="184" y1="102" x2="1096" y2="102" stroke="#b16b67" stroke-width="5" opacity="0.27" stroke-linecap="square"/><polygon points="120,461.6 1160,461.6 1160,517.6 120,517.6" fill="#b97a75" opacity="0.14"/><rect x="433" y="138" width="14" height="14" fill="#bc817b" opacity="0.2360584"/><rect x="451" y="140" width="12" height="2" fill="#b16b67" opacity="0.2591008"/><rect x="423" y="156" width="32" height="2" fill="#e5d0c4" opacity="0.1288818"/><rect x="706" y="195" width="8" height="8" fill="#bc817b" opacity="0.27960039999999997"/><rect x="718" y="197" width="6" height="2" fill="#b16b67" opacity="0.1900008"/><rect x="696" y="207" width="26" height="2" fill="#e5d0c4" opacity="0.1402008"/><rect x="560" y="176" width="6" height="6" fill="#bc817b" opacity="0.2232172"/><rect x="570" y="178" width="4" height="2" fill="#b16b67" opacity="0.2021432"/><rect x="550" y="186" width="24" height="2" fill="#e5d0c4" opacity="0.124191"/><rect x="361" y="137" width="10" height="10" fill="#bc817b" opacity="0.2605696"/><rect x="375" y="139" width="8" height="2" fill="#b16b67" opacity="0.2536168"/><rect x="351" y="151" width="28" height="2" fill="#e5d0c4" opacity="0.1463208"/><rect x="1045" y="464" width="6" height="6" fill="#bc817b" opacity="0.268054"/><rect x="1055" y="466" width="4" height="2" fill="#b16b67" opacity="0.1988672"/><rect x="1035" y="474" width="24" height="2" fill="#e5d0c4" opacity="0.1575432"/><rect x="778" y="287" width="7" height="7" fill="#bc817b" opacity="0.2372104"/><rect x="789" y="289" width="5" height="2" fill="#b16b67" opacity="0.22565759999999999"/><rect x="768" y="298" width="25" height="2" fill="#e5d0c4" opacity="0.1494714"/><rect x="1209" y="428" width="8" height="8" fill="#bc817b" opacity="0.2329012"/><rect x="1221" y="430" width="6" height="2" fill="#b16b67" opacity="0.24776320000000002"/><rect x="1199" y="440" width="26" height="2" fill="#e5d0c4" opacity="0.1676262"/><rect x="1188" y="294" width="8" height="8" fill="#bc817b" opacity="0.2552956"/><rect x="1200" y="296" width="6" height="2" fill="#b16b67" opacity="0.2384568"/><rect x="1178" y="306" width="26" height="2" fill="#e5d0c4" opacity="0.1799052"/><rect x="159" y="274" width="10" height="10" fill="#bc817b" opacity="0.2854552"/><rect x="173" y="276" width="8" height="2" fill="#b16b67" opacity="0.2469064"/><rect x="149" y="288" width="28" height="2" fill="#e5d0c4" opacity="0.1554612"/><rect x="268" y="638" width="11" height="11" fill="#bc817b" opacity="0.3305344"/><rect x="283" y="640" width="9" height="2" fill="#b16b67" opacity="0.2268016"/><rect x="258" y="653" width="29" height="2" fill="#e5d0c4" opacity="0.1437066"/><rect x="963" y="660" width="10" height="10" fill="#bc817b" opacity="0.2940856"/><rect x="977" y="662" width="8" height="2" fill="#b16b67" opacity="0.1967816"/><rect x="953" y="674" width="28" height="2" fill="#e5d0c4" opacity="0.1307604"/><rect x="399" y="113" width="11" height="11" fill="#bc817b" opacity="0.2405644"/><rect x="414" y="115" width="9" height="2" fill="#b16b67" opacity="0.18196479999999998"/><rect x="389" y="128" width="29" height="2" fill="#e5d0c4" opacity="0.1790526"/><rect x="1010" y="545" width="7" height="7" fill="#bc817b" opacity="0.3003364"/><rect x="1021" y="547" width="5" height="2" fill="#b16b67" opacity="0.2335336"/><rect x="1000" y="556" width="25" height="2" fill="#e5d0c4" opacity="0.1213698"/><rect x="108" y="544" width="9" height="9" fill="#bc817b" opacity="0.33373359999999996"/><rect x="121" y="546" width="7" height="2" fill="#b16b67" opacity="0.1989632"/><rect x="98" y="557" width="27" height="2" fill="#e5d0c4" opacity="0.17737019999999998"/><rect x="199" y="165" width="8" height="8" fill="#bc817b" opacity="0.3235036"/><rect x="211" y="167" width="6" height="2" fill="#b16b67" opacity="0.25018"/><rect x="189" y="177" width="26" height="2" fill="#e5d0c4" opacity="0.1346406"/><rect x="325" y="484" width="10" height="10" fill="#bc817b" opacity="0.2829976"/><rect x="339" y="486" width="8" height="2" fill="#b16b67" opacity="0.2364872"/><rect x="315" y="498" width="28" height="2" fill="#e5d0c4" opacity="0.1728168"/><rect x="0" y="0" width="1280" height="1" fill="#000000" opacity="0.08"/><rect x="0" y="4" width="1280" height="1" fill="#000000" opacity="0.08"/><rect x="0" y="8" width="1280" height="1" fill="#000000" opacity="0.08"/><rect x="0" y="12" width="1280" height="1" fill="#000000" opacity="0.08"/><rect x="0" y="16" width="1280" height="1" fill="#000000" opacity="0.08"/><rect x="0" y="20" width="1280" height="1" fill="#000000" opacity="0.08"/><rect x="0" y="24" width="1280" height="1" fill="#000000" opacity="0.08"/><rect x="0" y="28" width="1280" height="1" fill="#000000" opacity="0.08"/><rect x="0" y="32" width="1280" height="1" fill="#000000" opacity="0.08"/><rect x="0" y="36" width="1280" height="1" fill="#000000" opacity="0.08"/><rect x="0" y="40" width="1280" height="1" fill="#000000" opacity="0.08"/><rect x="0" y="44" width="1280" height="1" fill="#000000" opacity="0.08"/><rect x="0" y="48" width="1280" height="1" fill="#000000" opacity="0.08"/><rect x="0" y="52" width="1280" height="1" fill="#000000" opacity="0.08"/><rect x="0" y="56" width="1280" height="1" fill="#000000" opacity="0.08"/><rect x="0" y="60" width="1280" height="1" fill="#000000" opacity="0.08"/><rect x="0" y="64" width="1280" height="1" fill="#000000" opacity="0.08"/><rect x="0" y="68" width="1280" height="1" fill="#000000" opacity="0.08"/><rect x="0" y="72" width="1280" height="1" fill="#000000" opacity="0.08"/><rect x="0" y="76" width="1280" height="1" fill="#000000" opacity="0.08"/><rect x="0" y="80" width="1280" height="1" fill="#000000" opacity="0.08"/><rect x="0" y="84" width="1280" height="1" fill="#000000" opacity="0.08"/><rect x="0" y="88" width="1280" height="1" fill="#000000" opacity="0.08"/><rect x="0" y="92" width="1280" height="1" fill="#000000" opacity="0.08"/><rect x="0" y="96" width="1280" height="1" fill="#000000" opacity="0.08"/><rect x="0" y="100" width="1280" height="1" fill="#000000" opacity="0.08"/><rect x="0" y="104" width="1280" height="1" fill="#000000" opacity="0.08"/><rect x="0" y="108" width="1280" height="1" fill="#000000" opacity="0.08"/><rect x="0" y="112" width="1280" height="1" fill="#000000" opacity="0.08"/><rect x="0" y="116" width="1280" height="1" fill="#000000" opacity="0.08"/><rect x="0" y="120" width="1280" height="1" fill="#000000" opacity="0.08"/><rect x="0" y="124" width="1280" height="1" fill="#000000" opacity="0.08"/><rect x="0" y="128" width="1280" height="1" fill="#000000" opacity="0.08"/><rect x="0" y="132" width="1280" height="1" fill="#000000" opacity="0.08"/><rect x="0" y="136" width="1280" height="1" fill="#000000" opacity="0.08"/><rect x="0" y="140" width="1280" height="1" fill="#000000" opacity="0.08"/><rect x="0" y="144" width="1280" height="1" fill="#000000" opacity="0.08"/><rect x="0" y="148" width="1280" height="1" fill="#000000" opacity="0.08"/><rect x="0" y="152" width="1280" height="1" fill="#000000" opacity="0.08"/><rect x="0" y="156" width="1280" height="1" fill="#000000" opacity="0.08"/><rect x="0" y="160" width="1280" height="1" fill="#000000" opacity="0.08"/><rect x="0" y="164" width="1280" height="1" fill="#000000" opacity="0.08"/><rect x="0" y="168" width="1280" height="1" fill="#000000" opacity="0.08"/><rect x="0" y="172" width="1280" height="1" fill="#000000" opacity="0.08"/><rect x="0" y="176" width="1280" height="1" fill="#000000" opacity="0.08"/><rect x="0" y="180" width="1280" height="1" fill="#000000" opacity="0.08"/><rect x="0" y="184" width="1280" height="1" fill="#000000" opacity="0.08"/><rect x="0" y="188" width="1280" height="1" fill="#000000" opacity="0.08"/><rect x="0" y="192" width="1280" height="1" fill="#000000" opacity="0.08"/><rect x="0" y="196" width="1280" height="1" fill="#000000" opacity="0.08"/><rect x="0" y="200" width="1280" height="1" fill="#000000" opacity="0.08"/><rect x="0" y="204" width="1280" height="1" fill="#000000" opacity="0.08"/><rect x="0" y="208" width="1280" height="1" fill="#000000" opacity="0.08"/><rect x="0" y="212" width="1280" height="1" fill="#000000" opacity="0.08"/><rect x="0" y="216" width="1280" height="1" fill="#000000" opacity="0.08"/><rect x="0" y="220" width="1280" height="1" fill="#000000" opacity="0.08"/><rect x="0" y="224" width="1280" height="1" fill="#000000" opacity="0.08"/><rect x="0" y="228" width="1280" height="1" fill="#000000" opacity="0.08"/><rect x="0" y="232" width="1280" height="1" fill="#000000" opacity="0.08"/><rect x="0" y="236" width="1280" height="1" fill="#000000" opacity="0.08"/><rect x="0" y="240" width="1280" height="1" fill="#000000" opacity="0.08"/><rect x="0" y="244" width="1280" height="1" fill="#000000" opacity="0.08"/><rect x="0" y="248" width="1280" height="1" fill="#000000" opacity="0.08"/><rect x="0" y="252" width="1280" height="1" fill="#000000" opacity="0.08"/><rect x="0" y="256" width="1280" height="1" fill="#000000" opacity="0.08"/><rect x="0" y="260" width="1280" height="1" fill="#000000" opacity="0.08"/><rect x="0" y="264" width="1280" height="1" fill="#000000" opacity="0.08"/><rect x="0" y="268" width="1280" height="1" fill="#000000" opacity="0.08"/><rect x="0" y="272" width="1280" height="1" fill="#000000" opacity="0.08"/><rect x="0" y="276" width="1280" height="1" fill="#000000" opacity="0.08"/><rect x="0" y="280" width="1280" height="1" fill="#000000" opacity="0.08"/><rect x="0" y="284" width="1280" height="1" fill="#000000" opacity="0.08"/><rect x="0" y="288" width="1280" height="1" fill="#000000" opacity="0.08"/><rect x="0" y="292" width="1280" height="1" fill="#000000" opacity="0.08"/><rect x="0" y="296" width="1280" height="1" fill="#000000" opacity="0.08"/><rect x="0" y="300" width="1280" height="1" fill="#000000" opacity="0.08"/><rect x="0" y="304" width="1280" height="1" fill="#000000" opacity="0.08"/><rect x="0" y="308" width="1280" height="1" fill="#000000" opacity="0.08"/><rect x="0" y="312" width="1280" height="1" fill="#000000" opacity="0.08"/><rect x="0" y="316" width="1280" height="1" fill="#000000" opacity="0.08"/><rect x="0" y="320" width="1280" height="1" fill="#000000" opacity="0.08"/><rect x="0" y="324" width="1280" height="1" fill="#000000" opacity="0.08"/><rect x="0" y="328" width="1280" height="1" fill="#000000" opacity="0.08"/><rect x="0" y="332" width="1280" height="1" fill="#000000" opacity="0.08"/><rect x="0" y="336" width="1280" height="1" fill="#000000" opacity="0.08"/><rect x="0" y="340" width="1280" height="1" fill="#000000" opacity="0.08"/><rect x="0" y="344" width="1280" height="1" fill="#000000" opacity="0.08"/><rect x="0" y="348" width="1280" height="1" fill="#000000" opacity="0.08"/><rect x="0" y="352" width="1280" height="1" fill="#000000" opacity="0.08"/><rect x="0" y="356" width="1280" height="1" fill="#000000" opacity="0.08"/><rect x="0" y="360" width="1280" height="1" fill="#000000" opacity="0.08"/><rect x="0" y="364" width="1280" height="1" fill="#000000" opacity="0.08"/><rect x="0" y="368" width="1280" height="1" fill="#000000" opacity="0.08"/><rect x="0" y="372" width="1280" height="1" fill="#000000" opacity="0.08"/><rect x="0" y="376" width="1280" height="1" fill="#000000" opacity="0.08"/><rect x="0" y="380" width="1280" height="1" fill="#000000" opacity="0.08"/><rect x="0" y="384" width="1280" height="1" fill="#000000" opacity="0.08"/><rect x="0" y="388" width="1280" height="1" fill="#000000" opacity="0.08"/><rect x="0" y="392" width="1280" height="1" fill="#000000" opacity="0.08"/><rect x="0" y="396" width="1280" height="1" fill="#000000" opacity="0.08"/><rect x="0" y="400" width="1280" height="1" fill="#000000" opacity="0.08"/><rect x="0" y="404" width="1280" height="1" fill="#000000" opacity="0.08"/><rect x="0" y="408" width="1280" height="1" fill="#000000" opacity="0.08"/><rect x="0" y="412" width="1280" height="1" fill="#000000" opacity="0.08"/><rect x="0" y="416" width="1280" height="1" fill="#000000" opacity="0.08"/><rect x="0" y="420" width="1280" height="1" fill="#000000" opacity="0.08"/><rect x="0" y="424" width="1280" height="1" fill="#000000" opacity="0.08"/><rect x="0" y="428" width="1280" height="1" fill="#000000" opacity="0.08"/><rect x="0" y="432" width="1280" height="1" fill="#000000" opacity="0.08"/><rect x="0" y="436" width="1280" height="1" fill="#000000" opacity="0.08"/><rect x="0" y="440" width="1280" height="1" fill="#000000" opacity="0.08"/><rect x="0" y="444" width="1280" height="1" fill="#000000" opacity="0.08"/><rect x="0" y="448" width="1280" height="1" fill="#000000" opacity="0.08"/><rect x="0" y="452" width="1280" height="1" fill="#000000" opacity="0.08"/><rect x="0" y="456" width="1280" height="1" fill="#000000" opacity="0.08"/><rect x="0" y="460" width="1280" height="1" fill="#000000" opacity="0.08"/><rect x="0" y="464" width="1280" height="1" fill="#000000" opacity="0.08"/><rect x="0" y="468" width="1280" height="1" fill="#000000" opacity="0.08"/><rect x="0" y="472" width="1280" height="1" fill="#000000" opacity="0.08"/><rect x="0" y="476" width="1280" height="1" fill="#000000" opacity="0.08"/><rect x="0" y="480" width="1280" height="1" fill="#000000" opacity="0.08"/><rect x="0" y="484" width="1280" height="1" fill="#000000" opacity="0.08"/><rect x="0" y="488" width="1280" height="1" fill="#000000" opacity="0.08"/><rect x="0" y="492" width="1280" height="1" fill="#000000" opacity="0.08"/><rect x="0" y="496" width="1280" height="1" fill="#000000" opacity="0.08"/><rect x="0" y="500" width="1280" height="1" fill="#000000" opacity="0.08"/><rect x="0" y="504" width="1280" height="1" fill="#000000" opacity="0.08"/><rect x="0" y="508" width="1280" height="1" fill="#000000" opacity="0.08"/><rect x="0" y="512" width="1280" height="1" fill="#000000" opacity="0.08"/><rect x="0" y="516" width="1280" height="1" fill="#000000" opacity="0.08"/><rect x="0" y="520" width="1280" height="1" fill="#000000" opacity="0.08"/><rect x="0" y="524" width="1280" height="1" fill="#000000" opacity="0.08"/><rect x="0" y="528" width="1280" height="1" fill="#000000" opacity="0.08"/><rect x="0" y="532" width="1280" height="1" fill="#000000" opacity="0.08"/><rect x="0" y="536" width="1280" height="1" fill="#000000" opacity="0.08"/><rect x="0" y="540" width="1280" height="1" fill="#000000" opacity="0.08"/><rect x="0" y="544" width="1280" height="1" fill="#000000" opacity="0.08"/><rect x="0" y="548" width="1280" height="1" fill="#000000" opacity="0.08"/><rect x="0" y="552" width="1280" height="1" fill="#000000" opacity="0.08"/><rect x="0" y="556" width="1280" height="1" fill="#000000" opacity="0.08"/><rect x="0" y="560" width="1280" height="1" fill="#000000" opacity="0.08"/><rect x="0" y="564" width="1280" height="1" fill="#000000" opacity="0.08"/><rect x="0" y="568" width="1280" height="1" fill="#000000" opacity="0.08"/><rect x="0" y="572" width="1280" height="1" fill="#000000" opacity="0.08"/><rect x="0" y="576" width="1280" height="1" fill="#000000" opacity="0.08"/><rect x="0" y="580" width="1280" height="1" fill="#000000" opacity="0.08"/><rect x="0" y="584" width="1280" height="1" fill="#000000" opacity="0.08"/><rect x="0" y="588" width="1280" height="1" fill="#000000" opacity="0.08"/><rect x="0" y="592" width="1280" height="1" fill="#000000" opacity="0.08"/><rect x="0" y="596" width="1280" height="1" fill="#000000" opacity="0.08"/><rect x="0" y="600" width="1280" height="1" fill="#000000" opacity="0.08"/><rect x="0" y="604" width="1280" height="1" fill="#000000" opacity="0.08"/><rect x="0" y="608" width="1280" height="1" fill="#000000" opacity="0.08"/><rect x="0" y="612" width="1280" height="1" fill="#000000" opacity="0.08"/><rect x="0" y="616" width="1280" height="1" fill="#000000" opacity="0.08"/><rect x="0" y="620" width="1280" height="1" fill="#000000" opacity="0.08"/><rect x="0" y="624" width="1280" height="1" fill="#000000" opacity="0.08"/><rect x="0" y="628" width="1280" height="1" fill="#000000" opacity="0.08"/><rect x="0" y="632" width="1280" height="1" fill="#000000" opacity="0.08"/><rect x="0" y="636" width="1280" height="1" fill="#000000" opacity="0.08"/><rect x="0" y="640" width="1280" height="1" fill="#000000" opacity="0.08"/><rect x="0" y="644" width="1280" height="1" fill="#000000" opacity="0.08"/><rect x="0" y="648" width="1280" height="1" fill="#000000" opacity="0.08"/><rect x="0" y="652" width="1280" height="1" fill="#000000" opacity="0.08"/><rect x="0" y="656" width="1280" height="1" fill="#000000" opacity="0.08"/><rect x="0" y="660" width="1280" height="1" fill="#000000" opacity="0.08"/><rect x="0" y="664" width="1280" height="1" fill="#000000" opacity="0.08"/><rect x="0" y="668" width="1280" height="1" fill="#000000" opacity="0.08"/><rect x="0" y="672" width="1280" height="1" fill="#000000" opacity="0.08"/><rect x="0" y="676" width="1280" height="1" fill="#000000" opacity="0.08"/><rect x="0" y="680" width="1280" height="1" fill="#000000" opacity="0.08"/><rect x="0" y="684" width="1280" height="1" fill="#000000" opacity="0.08"/><rect x="0" y="688" width="1280" height="1" fill="#000000" opacity="0.08"/><rect x="0" y="692" width="1280" height="1" fill="#000000" opacity="0.08"/><rect x="0" y="696" width="1280" height="1" fill="#000000" opacity="0.08"/><rect x="0" y="700" width="1280" height="1" fill="#000000" opacity="0.08"/><rect x="0" y="704" width="1280" height="1" fill="#000000" opacity="0.08"/><rect x="0" y="708" width="1280" height="1" fill="#000000" opacity="0.08"/><rect x="0" y="712" width="1280" height="1" fill="#000000" opacity="0.08"/><rect x="0" y="716" width="1280" height="1" fill="#000000" opacity="0.08"/>
</svg>