<?xml version="1.0" encoding="UTF-8"?>
<svg xmlns="http://www.w3.org/2000/svg" width="1280" height="720" viewBox="0 0 1280 720" shape-rendering="crispEdges">
<rect x="0" y="0" width="1280" height="720" fill="none" opacity="0"/><rect x="0" y="0" width="1280" height="10" fill="#c98f68" opacity="0.14"/><rect x="0" y="710" width="1280" height="10" fill="#c98f68" opacity="0.14"/><rect x="0" y="0" width="10" height="720" fill="#c98f68" opacity="0.1"/><rect x="1270" y="0" width="10" height="720" fill="#c98f68" opacity="0.1"/><rect x="18" y="18" width="92" height="10" fill="#c98f68" opacity="0.5"/><rect x="18" y="18" width="10" height="72" fill="#c98f68" opacity="0.5"/><rect x="1170" y="18" width="92" height="10" fill="#c98f68" opacity="0.5"/><rect x="1252" y="18" width="10" height="72" fill="#c98f68" opacity="0.5"/><rect x="18" y="692" width="92" height="10" fill="#c98f68" opacity="0.5"/><rect x="18" y="630" width="10" height="72" fill="#c98f68" opacity="0.5"/><rect x="1170" y="692" width="92" height="10" fill="#c98f68" opacity="0.5"/><rect x="1252" y="630" width="10" height="72" fill="#c98f68" opacity="0.5"/><rect x="28" y="28" width="1224" height="664" fill="#1d2128" opacity="0.08"/><polygon points="160.5645890464961,192.56687940470707 918.1442007339512,253.17324833970343 914.635410953504,297.0331205952929 157.05579926604895,236.42675166029656" fill="#cf9b77" opacity="0.14"/><polygon points="526.5722952655098,450.4703700577415 1165.4233963636082,488.8014361236274 1163.0277047344905,528.7296299422586 524.1766036363919,490.39856387637263" fill="#ebdac4" opacity="0.1"/><rect x="0" y="0" width="1280" height="96" fill="#0e1722" opacity="0.16"/><rect x="0" y="596" width="1280" height="124" fill="#0e1722" opacity="0.12"/><rect x="0" y="0" width="4" height="720" fill="#c98f68" opacity="0.035"/><rect x="16" y="0" width="4" height="720" fill="#c98f68" opacity="0.02"/><rect x="32" y="0" width="4" height="720" fill="#c98f68" opacity="0.035"/><rect x="48" y="0" width="4" height="720" fill="#c98f68" opacity="0.02"/><rect x="64" y="0" width="4" height="720" fill="#c98f68" opacity="0.035"/><rect x="80" y="0" width="4" height="720" fill="#c98f68" opacity="0.02"/><rect x="96" y="0" width="4" height="720" fill="#c98f68" opacity="0.035"/><rect x="112" y="0" width="4" height="720" fill="#c98f68" opacity="0.02"/><rect x="128" y="0" width="4" height="720" fill="#c98f68" opacity="0.035"/><rect x="144" y="0" width="4" height="720" fill="#c98f68" opacity="0.02"/><rect x="160" y="0" width="4" height="720" fill="#c98f68" opacity="0.035"/><rect x="176" y="0" width="4" height="720" fill="#c98f68" opacity="0.02"/><rect x="192" y="0" width="4" height="720" fill="#c98f68" opacity="0.035"/><rect x="208" y="0" width="4" height="720" fill="#c98f68" opacity="0.02"/><rect x="224" y="0" width="4" height="720" fill="#c98f68" opacity="0.035"/><rect x="240" y="0" width="4" height="720" fill="#c98f68" opacity="0.02"/><rect x="256" y="0" width="4" height="720" fill="#c98f68" opacity="0.035"/><rect x="272" y="0" width="4" height="720" fill="#c98f68" opacity="0.02"/><rect x="288" y="0" width="4" height="720" fill="#c98f68" opacity="0.035"/><rect x="304" y="0" width="4" height="720" fill="#c98f68" opacity="0.02"/><rect x="320" y="0" width="4" height="720" fill="#c98f68" opacity="0.035"/><rect x="336" y="0" width="4" height="720" fill="#c98f68" opacity="0.02"/><rect x="352" y="0" width="4" height="720" fill="#c98f68" opacity="0.035"/><rect x="368" y="0" width="4" height="720" fill="#c98f68" opacity="0.02"/><rect x="384" y="0" width="4" height="720" fill="#c98f68" opacity="0.035"/><rect x="400" y="0" width="4" height="720" fill="#c98f68" opacity="0.02"/><rect x="416" y="0" width="4" height="720" fill="#c98f68" opacity="0.035"/><rect x="432" y="0" width="4" height="720" fill="#c98f68" opacity="0.02"/><rect x="448" y="0" width="4" height="720" fill="#c98f68" opacity="0.035"/><rect x="464" y="0" width="4" height="720" fill="#c98f68" opacity="0.02"/><rect x="480" y="0" width="4" height="720" fill="#c98f68" opacity="0.035"/><rect x="496" y="0" width="4" height="720" fill="#c98f68" opacity="0.02"/><rect x="512" y="0" width="4" height="720" fill="#c98f68" opacity="0.035"/><rect x="528" y="0" width="4" height="720" fill="#c98f68" opacity="0.02"/><rect x="544" y="0" width="4" height="720" fill="#c98f68" opacity="0.035"/><rect x="560" y="0" width="4" height="720" fill="#c98f68" opacity="0.02"/><rect x="576" y="0" width="4" height="720" fill="#c98f68" opacity="0.035"/><rect x="592" y="0" width="4" height="720" fill="#c98f68" opacity="0.02"/><rect x="608" y="0" width="4" height="720" fill="#c98f68" opacity="0.035"/><rect x="624" y="0" width="4" height="720" fill="#c98f68" opacity="0.02"/><rect x="640" y="0" width="4" height="720" fill="#c98f68" opacity="0.035"/><rect x="656" y="0" width="4" height="720" fill="#c98f68" opacity="0.02"/><rect x="672" y="0" width="4" height="720" fill="#c98f68" opacity="0.035"/><rect x="688" y="0" width="4" height="720" fill="#c98f68" opacity="0.02"/><rect x="704" y="0" width="4" height="720" fill="#c98f68" opacity="0.035"/><rect x="720" y="0" width="4" height="720" fill="#c98f68" opacity="0.02"/><rect x="736" y="0" width="4" height="720" fill="#c98f68" opacity="0.035"/><rect x="752" y="0" width="4" height="720" fill="#c98f68" opacity="0.02"/><rect x="768" y="0" width="4" height="720" fill="#c98f68" opacity="0.035"/><rect x="784" y="0" width="4" height="720" fill="#c98f68" opacity="0.02"/><rect x="800" y="0" width="4" height="720" fill="#c98f68" opacity="0.035"/><rect x="816" y="0" width="4" height="720" fill="#c98f68" opacity="0.02"/><rect x="832" y="0" width="4" height="720" fill="#c98f68" opacity="0.035"/><rect x="848" y="0" width="4" height="720" fill="#c98f68" opacity="0.02"/><rect x="864" y="0" width="4" height="720" fill="#c98f68" opacity="0.035"/><rect x="880" y="0" width="4" height="720" fill="#c98f68" opacity="0.02"/><rect x="896" y="0" width="4" height="720" fill="#c98f68" opacity="0.035"/><rect x="912" y="0" width="4" height="720" fill="#c98f68" opacity="0.02"/><rect x="928" y="0" width="4" height="720" fill="#c98f68" opacity="0.035"/><rect x="944" y="0" width="4" height="720" fill="#c98f68" opacity="0.02"/><rect x="960" y="0" width="4" height="720" fill="#c98f68" opacity="0.035"/><rect x="976" y="0" width="4" height="720" fill="#c98f68" opacity="0.02"/><rect x="992" y="0" width="4" height="720" fill="#c98f68" opacity="0.035"/><rect x="1008" y="0" width="4" height="720" fill="#c98f68" opacity="0.02"/><rect x="1024" y="0" width="4" height="720" fill="#c98f68" opacity="0.035"/><rect x="1040" y="0" width="4" height="720" fill="#c98f68" opacity="0.02"/><rect x="1056" y="0" width="4" height="720" fill="#c98f68" opacity="0.035"/><rect x="1072" y="0" width="4" height="720" fill="#c98f68" opacity="0.02"/><rect x="1088" y="0" width="4" height="720" fill="#c98f68" opacity="0.035"/><rect x="1104" y="0" width="4" height="720" fill="#c98f68" opacity="0.02"/><rect x="1120" y="0" width="4" height="720" fill="#c98f68" opacity="0.035"/><rect x="1136" y="0" width="4" height="720" fill="#c98f68" opacity="0.02"/><rect x="1152" y="0" width="4" height="720" fill="#c98f68" opacity="0.035"/><rect x="1168" y="0" width="4" height="720" fill="#c98f68" opacity="0.02"/><rect x="1184" y="0" width="4" height="720" fill="#c98f68" opacity="0.035"/><rect x="1200" y="0" width="4" height="720" fill="#c98f68" opacity="0.02"/><rect x="1216" y="0" width="4" height="720" fill="#c98f68" opacity="0.035"/><rect x="1232" y="0" width="4" height="720" fill="#c98f68" opacity="0.02"/><rect x="1248" y="0" width="4" height="720" fill="#c98f68" opacity="0.035"/><rect x="1264" y="0" width="4" height="720" fill="#c98f68" opacity="0.02"/><rect x="169" y="297" width="10" height="10" fill="#d09f7c" opacity="0.2694544"/><rect x="183" y="299" width="8" height="2" fill="#c98f68" opacity="0.2564304"/><rect x="159" y="311" width="28" height="2" fill="#ead8c2" opacity="0.155244"/><rect x="605" y="128" width="7" height="7" fill="#d09f7c" opacity="0.308326"/><rect x="616" y="130" width="5" height="2" fill="#c98f68" opacity="0.2332688"/><rect x="595" y="139" width="25" height="2" fill="#ead8c2" opacity="0.1749156"/><rect x="164" y="614" width="6" height="6" fill="#d09f7c" opacity="0.2354188"/><rect x="174" y="616" width="4" height="2" fill="#c98f68" opacity="0.206788"/><rect x="154" y="624" width="24" height="2" fill="#ead8c2" opacity="0.1558062"/><rect x="467" y="671" width="11" height="11" fill="#d09f7c" opacity="0.3336268"/><rect x="482" y="673" width="9" height="2" fill="#c98f68" opacity="0.2163272"/><rect x="457" y="686" width="29" height="2" fill="#ead8c2" opacity="0.1714992"/><rect x="1158" y="237" width="7" height="7" fill="#d09f7c" opacity="0.3014812"/><rect x="1169" y="239" width="5" height="2" fill="#c98f68" opacity="0.2593944"/><rect x="1148" y="248" width="25" height="2" fill="#ead8c2" opacity="0.1399182"/><rect x="595" y="226" width="11" height="11" fill="#d09f7c" opacity="0.2595172"/><rect x="610" y="228" width="9" height="2" fill="#c98f68" opacity="0.1806616"/><rect x="585" y="241" width="29" height="2" fill="#ead8c2" opacity="0.14121419999999998"/><rect x="589" y="315" width="6" height="6" fill="#d09f7c" opacity="0.2783164"/><rect x="599" y="317" width="4" height="2" fill="#c98f68" opacity="0.18497439999999998"/><rect x="579" y="325" width="24" height="2" fill="#ead8c2" opacity="0.1385844"/><rect x="369" y="398" width="11" height="11" fill="#d09f7c" opacity="0.2284216"/><rect x="384" y="400" width="9" height="2" fill="#c98f68" opacity="0.18240879999999998"/><rect x="359" y="413" width="29" height="2" fill="#ead8c2" opacity="0.142572"/><rect x="902" y="513" width="11" height="11" fill="#d09f7c" opacity="0.32029240000000003"/><rect x="917" y="515" width="9" height="2" fill="#c98f68" opacity="0.191548"/><rect x="892" y="528" width="29" height="2" fill="#ead8c2" opacity="0.1216734"/><rect x="1046" y="280" width="12" height="12" fill="#d09f7c" opacity="0.3253396"/><rect x="1062" y="282" width="10" height="2" fill="#c98f68" opacity="0.2248896"/><rect x="1036" y="296" width="30" height="2" fill="#ead8c2" opacity="0.1326882"/><rect x="121" y="274" width="13" height="13" fill="#d09f7c" opacity="0.269956"/><rect x="138" y="276" width="11" height="2" fill="#c98f68" opacity="0.24936160000000002"/><rect x="111" y="291" width="31" height="2" fill="#ead8c2" opacity="0.16263239999999998"/><rect x="455" y="145" width="7" height="7" fill="#d09f7c" opacity="0.2815576"/><rect x="466" y="147" width="5" height="2" fill="#c98f68" opacity="0.2065144"/><rect x="445" y="156" width="25" height="2" fill="#ead8c2" opacity="0.1513992"/><rect x="493" y="247" width="11" height="11" fill="#d09f7c" opacity="0.305002"/><rect x="508" y="249" width="9" height="2" fill="#c98f68" opacity="0.2416144"/><rect x="483" y="262" width="29" height="2" fill="#ead8c2" opacity="0.1402602"/><rect x="1104" y="285" width="12" height="12" fill="#d09f7c" opacity="0.3044188"/><rect x="1120" y="287" width="10" height="2" fill="#c98f68" opacity="0.1979008"/><rect x="1094" y="301" width="30" height="2" fill="#ead8c2" opacity="0.147093"/><rect x="1047" y="359" width="11" height="11" fill="#d09f7c" opacity="0.31011880000000003"/><rect x="1062" y="361" width="9" height="2" fill="#c98f68" opacity="0.2175856"/><rect x="1037" y="374" width="29" height="2" fill="#ead8c2" opacity="0.154926"/><rect x="908" y="156" width="6" height="6" fill="#d09f7c" opacity="0.2390164"/><rect x="918" y="158" width="4" height="2" fill="#c98f68" opacity="0.2014656"/><rect x="898" y="166" width="24" height="2" fill="#ead8c2" opacity="0.1210116"/><rect x="1014" y="274" width="8" height="8" fill="#d09f7c" opacity="0.298"/><rect x="1026" y="276" width="6" height="2" fill="#c98f68" opacity="0.23119279999999998"/><rect x="1004" y="286" width="26" height="2" fill="#ead8c2" opacity="0.145896"/><rect x="370" y="240" width="12" height="12" fill="#d09f7c" opacity="0.2551036"/><rect x="386" y="242" width="10" height="2" fill="#c98f68" opacity="0.2008168"/><rect x="360" y="256" width="30" height="2" fill="#ead8c2" opacity="0.1757418"/><rect x="0" y="0" width="1280" height="1" fill="#000000" opacity="0.08"/><rect x="0" y="4" width="1280" height="1" fill="#000000" opacity="0.08"/><rect x="0" y="8" width="1280" height="1" fill="#000000" opacity="0.08"/><rect x="0" y="12" width="1280" height="1" fill="#000000" opacity="0.08"/><rect x="0" y="16" width="1280" height="1" fill="#000000" opacity="0.08"/><rect x="0" y="20" width="1280" height="1" fill="#000000" opacity="0.08"/><rect x="0" y="24" width="1280" height="1" fill="#000000" opacity="0.08"/><rect x="0" y="28" width="1280" height="1" fill="#000000" opacity="0.08"/><rect x="0" y="32" width="1280" height="1" fill="#000000" opacity="0.08"/><rect x="0" y="36" width="1280" height="1" fill="#000000" opacity="0.08"/><rect x="0" y="40" width="1280" height="1" fill="#000000" opacity="0.08"/><rect x="0" y="44" width="1280" height="1" fill="#000000" opacity="0.08"/><rect x="0" y="48" width="1280" height="1" fill="#000000" opacity="0.08"/><rect x="0" y="52" width="1280" height="1" fill="#000000" opacity="0.08"/><rect x="0" y="56" width="1280" height="1" fill="#000000" opacity="0.08"/><rect x="0" y="60" width="1280" height="1" fill="#000000" opacity="0.08"/><rect x="0" y="64" width="1280" height="1" fill="#000000" opacity="0.08"/><rect x="0" y="68" width="1280" height="1" fill="#000000" opacity="0.08"/><rect x="0" y="72" width="1280" height="1" fill="#000000" opacity="0.08"/><rect x="0" y="76" width="1280" height="1" fill="#000000" opacity="0.08"/><rect x="0" y="80" width="1280" height="1" fill="#000000" opacity="0.08"/><rect x="0" y="84" width="1280" height="1" fill="#000000" opacity="0.08"/><rect x="0" y="88" width="1280" height="1" fill="#000000" opacity="0.08"/><rect x="0" y="92" width="1280" height="1" fill="#000000" opacity="0.08"/><rect x="0" y="96" width="1280" height="1" fill="#000000" opacity="0.08"/><rect x="0" y="100" width="1280" height="1" fill="#000000" opacity="0.08"/><rect x="0" y="104" width="1280" height="1" fill="#000000" opacity="0.08"/><rect x="0" y="108" width="1280" height="1" fill="#000000" opacity="0.08"/><rect x="0" y="112" width="1280" height="1" fill="#000000" opacity="0.08"/><rect x="0" y="116" width="1280" height="1" fill="#000000" opacity="0.08"/><rect x="0" y="120" width="1280" height="1" fill="#000000" opacity="0.08"/><rect x="0" y="124" width="1280" height="1" fill="#000000" opacity="0.08"/><rect x="0" y="128" width="1280" height="1" fill="#000000" opacity="0.08"/><rect x="0" y="132" width="1280" height="1" fill="#000000" opacity="0.08"/><rect x="0" y="136" width="1280" height="1" fill="#000000" opacity="0.08"/><rect x="0" y="140" width="1280" height="1" fill="#000000" opacity="0.08"/><rect x="0" y="144" width="1280" height="1" fill="#000000" opacity="0.08"/><rect x="0" y="148" width="1280" height="1" fill="#000000" opacity="0.08"/><rect x="0" y="152" width="1280" height="1" fill="#000000" opacity="0.08"/><rect x="0" y="156" width="1280" height="1" fill="#000000" opacity="0.08"/><rect x="0" y="160" width="1280" height="1" fill="#000000" opacity="0.08"/><rect x="0" y="164" width="1280" height="1" fill="#000000" opacity="0.08"/><rect x="0" y="168" width="1280" height="1" fill="#000000" opacity="0.08"/><rect x="0" y="172" width="1280" height="1" fill="#000000" opacity="0.08"/><rect x="0" y="176" width="1280" height="1" fill="#000000" opacity="0.08"/><rect x="0" y="180" width="1280" height="1" fill="#000000" opacity="0.08"/><rect x="0" y="184" width="1280" height="1" fill="#000000" opacity="0.08"/><rect x="0" y="188" width="1280" height="1" fill="#000000" opacity="0.08"/><rect x="0" y="192" width="1280" height="1" fill="#000000" opacity="0.08"/><rect x="0" y="196" width="1280" height="1" fill="#000000" opacity="0.08"/><rect x="0" y="200" width="1280" height="1" fill="#000000" opacity="0.08"/><rect x="0" y="204" width="1280" height="1" fill="#000000" opacity="0.08"/><rect x="0" y="208" width="1280" height="1" fill="#000000" opacity="0.08"/><rect x="0" y="212" width="1280" height="1" fill="#000000" opacity="0.08"/><rect x="0" y="216" width="1280" height="1" fill="#000000" opacity="0.08"/><rect x="0" y="220" width="1280" height="1" fill="#000000" opacity="0.08"/><rect x="0" y="224" width="1280" height="1" fill="#000000" opacity="0.08"/><rect x="0" y="228" width="1280" height="1" fill="#000000" opacity="0.08"/><rect x="0" y="232" width="1280" height="1" fill="#000000" opacity="0.08"/><rect x="0" y="236" width="1280" height="1" fill="#000000" opacity="0.08"/><rect x="0" y="240" width="1280" height="1" fill="#000000" opacity="0.08"/><rect x="0" y="244" width="1280" height="1" fill="#000000" opacity="0.08"/><rect x="0" y="248" width="1280" height="1" fill="#000000" opacity="0.08"/><rect x="0" y="252" width="1280" height="1" fill="#000000" opacity="0.08"/><rect x="0" y="256" width="1280" height="1" fill="#000000" opacity="0.08"/><rect x="0" y="260" width="1280" height="1" fill="#000000" opacity="0.08"/><rect x="0" y="264" width="1280" height="1" fill="#000000" opacity="0.08"/><rect x="0" y="268" width="1280" height="1" fill="#000000" opacity="0.08"/><rect x="0" y="272" width="1280" height="1" fill="#000000" opacity="0.08"/><rect x="0" y="276" width="1280" height="1" fill="#000000" opacity="0.08"/><rect x="0" y="280" width="1280" height="1" fill="#000000" opacity="0.08"/><rect x="0" y="284" width="1280" height="1" fill="#000000" opacity="0.08"/><rect x="0" y="288" width="1280" height="1" fill="#000000" opacity="0.08"/><rect x="0" y="292" width="1280" height="1" fill="#000000" opacity="0.08"/><rect x="0" y="296" width="1280" height="1" fill="#000000" opacity="0.08"/><rect x="0" y="300" width="1280" height="1" fill="#000000" opacity="0.08"/><rect x="0" y="304" width="1280" height="1" fill="#000000" opacity="0.08"/><rect x="0" y="308" width="1280" height="1" fill="#000000" opacity="0.08"/><rect x="0" y="312" width="1280" height="1" fill="#000000" opacity="0.08"/><rect x="0" y="316" width="1280" height="1" fill="#000000" opacity="0.08"/><rect x="0" y="320" width="1280" height="1" fill="#000000" opacity="0.08"/><rect x="0" y="324" width="1280" height="1" fill="#000000" opacity="0.08"/><rect x="0" y="328" width="1280" height="1" fill="#000000" opacity="0.08"/><rect x="0" y="332" width="1280" height="1" fill="#000000" opacity="0.08"/><rect x="0" y="336" width="1280" height="1" fill="#000000" opacity="0.08"/><rect x="0" y="340" width="1280" height="1" fill="#000000" opacity="0.08"/><rect x="0" y="344" width="1280" height="1" fill="#000000" opacity="0.08"/><rect x="0" y="348" width="1280" height="1" fill="#000000" opacity="0.08"/><rect x="0" y="352" width="1280" height="1" fill="#000000" opacity="0.08"/><rect x="0" y="356" width="1280" height="1" fill="#000000" opacity="0.08"/><rect x="0" y="360" width="1280" height="1" fill="#000000" opacity="0.08"/><rect x="0" y="364" width="1280" height="1" fill="#000000" opacity="0.08"/><rect x="0" y="368" width="1280" height="1" fill="#000000" opacity="0.08"/><rect x="0" y="372" width="1280" height="1" fill="#000000" opacity="0.08"/><rect x="0" y="376" width="1280" height="1" fill="#000000" opacity="0.08"/><rect x="0" y="380" width="1280" height="1" fill="#000000" opacity="0.08"/><rect x="0" y="384" width="1280" height="1" fill="#000000" opacity="0.08"/><rect x="0" y="388" width="1280" height="1" fill="#000000" opacity="0.08"/><rect x="0" y="392" width="1280" height="1" fill="#000000" opacity="0.08"/><rect x="0" y="396" width="1280" height="1" fill="#000000" opacity="0.08"/><rect x="0" y="400" width="1280" height="1" fill="#000000" opacity="0.08"/><rect x="0" y="404" width="1280" height="1" fill="#000000" opacity="0.08"/><rect x="0" y="408" width="1280" height="1" fill="#000000" opacity="0.08"/><rect x="0" y="412" width="1280" height="1" fill="#000000" opacity="0.08"/><rect x="0" y="416" width="1280" height="1" fill="#000000" opacity="0.08"/><rect x="0" y="420" width="1280" height="1" fill="#000000" opacity="0.08"/><rect x="0" y="424" width="1280" height="1" fill="#000000" opacity="0.08"/><rect x="0" y="428" width="1280" height="1" fill="#000000" opacity="0.08"/><rect x="0" y="432" width="1280" height="1" fill="#000000" opacity="0.08"/><rect x="0" y="436" width="1280" height="1" fill="#000000" opacity="0.08"/><rect x="0" y="440" width="1280" height="1" fill="#000000" opacity="0.08"/><rect x="0" y="444" width="1280" height="1" fill="#000000" opacity="0.08"/><rect x="0" y="448" width="1280" height="1" fill="#000000" opacity="0.08"/><rect x="0" y="452" width="1280" height="1" fill="#000000" opacity="0.08"/><rect x="0" y="456" width="1280" height="1" fill="#000000" opacity="0.08"/><rect x="0" y="460" width="1280" height="1" fill="#000000" opacity="0.08"/><rect x="0" y="464" width="1280" height="1" fill="#000000" opacity="0.08"/><rect x="0" y="468" width="1280" height="1" fill="#000000" opacity="0.08"/><rect x="0" y="472" width="1280" height="1" fill="#000000" opacity="0.08"/><rect x="0" y="476" width="1280" height="1" fill="#000000" opacity="0.08"/><rect x="0" y="480" width="1280" height="1" fill="#000000" opacity="0.08"/><rect x="0" y="484" width="1280" height="1" fill="#000000" opacity="0.08"/><rect x="0" y="488" width="1280" height="1" fill="#000000" opacity="0.08"/><rect x="0" y="492" width="1280" height="1" fill="#000000" opacity="0.08"/><rect x="0" y="496" width="1280" height="1" fill="#000000" opacity="0.08"/><rect x="0" y="500" width="1280" height="1" fill="#000000" opacity="0.08"/><rect x="0" y="504" width="1280" height="1" fill="#000000" opacity="0.08"/><rect x="0" y="508" width="1280" height="1" fill="#000000" opacity="0.08"/><rect x="0" y="512" width="1280" height="1" fill="#000000" opacity="0.08"/><rect x="0" y="516" width="1280" height="1" fill="#000000" opacity="0.08"/><rect x="0" y="520" width="1280" height="1" fill="#000000" opacity="0.08"/><rect x="0" y="524" width="1280" height="1" fill="#000000" opacity="0.08"/><rect x="0" y="528" width="1280" height="1" fill="#000000" opacity="0.08"/><rect x="0" y="532" width="1280" height="1" fill="#000000" opacity="0.08"/><rect x="0" y="536" width="1280" height="1" fill="#000000" opacity="0.08"/><rect x="0" y="540" width="1280" height="1" fill="#000000" opacity="0.08"/><rect x="0" y="544" width="1280" height="1" fill="#000000" opacity="0.08"/><rect x="0" y="548" width="1280" height="1" fill="#000000" opacity="0.08"/><rect x="0" y="552" width="1280" height="1" fill="#000000" opacity="0.08"/><rect x="0" y="556" width="1280" height="1" fill="#000000" opacity="0.08"/><rect x="0" y="560" width="1280" height="1" fill="#000000" opacity="0.08"/><rect x="0" y="564" width="1280" height="1" fill="#000000" opacity="0.08"/><rect x="0" y="568" width="1280" height="1" fill="#000000" opacity="0.08"/><rect x="0" y="572" width="1280" height="1" fill="#000000" opacity="0.08"/><rect x="0" y="576" width="1280" height="1" fill="#000000" opacity="0.08"/><rect x="0" y="580" width="1280" height="1" fill="#000000" opacity="0.08"/><rect x="0" y="584" width="1280" height="1" fill="#000000" opacity="0.08"/><rect x="0" y="588" width="1280" height="1" fill="#000000" opacity="0.08"/><rect x="0" y="592" width="1280" height="1" fill="#000000" opacity="0.08"/><rect x="0" y="596" width="1280" height="1" fill="#000000" opacity="0.08"/><rect x="0" y="600" width="1280" height="1" fill="#000000" opacity="0.08"/><rect x="0" y="604" width="1280" height="1" fill="#000000" opacity="0.08"/><rect x="0" y="608" width="1280" height="1" fill="#000000" opacity="0.08"/><rect x="0" y="612" width="1280" height="1" fill="#000000" opacity="0.08"/><rect x="0" y="616" width="1280" height="1" fill="#000000" opacity="0.08"/><rect x="0" y="620" width="1280" height="1" fill="#000000" opacity="0.08"/><rect x="0" y="624" width="1280" height="1" fill="#000000" opacity="0.08"/><rect x="0" y="628" width="1280" height="1" fill="#000000" opacity="0.08"/><rect x="0" y="632" width="1280" height="1" fill="#000000" opacity="0.08"/><rect x="0" y="636" width="1280" height="1" fill="#000000" opacity="0.08"/><rect x="0" y="640" width="1280" height="1" fill="#000000" opacity="0.08"/><rect x="0" y="644" width="1280" height="1" fill="#000000" opacity="0.08"/><rect x="0" y="648" width="1280" height="1" fill="#000000" opacity="0.08"/><rect x="0" y="652" width="1280" height="1" fill="#000000" opacity="0.08"/><rect x="0" y="656" width="1280" height="1" fill="#000000" opacity="0.08"/><rect x="0" y="660" width="1280" height="1" fill="#000000" opacity="0.08"/><rect x="0" y="664" width="1280" height="1" fill="#000000" opacity="0.08"/><rect x="0" y="668" width="1280" height="1" fill="#000000" opacity="0.08"/><rect x="0" y="672" width="1280" height="1" fill="#000000" opacity="0.08"/><rect x="0" y="676" width="1280" height="1" fill="#000000" opacity="0.08"/><rect x="0" y="680" width="1280" height="1" fill="#000000" opacity="0.08"/><rect x="0" y="684" width="1280" height="1" fill="#000000" opacity="0.08"/><rect x="0" y="688" width="1280" height="1" fill="#000000" opacity="0.08"/><rect x="0" y="692" width="1280" height="1" fill="#000000" opacity="0.08"/><rect x="0" y="696" width="1280" height="1" fill="#000000" opacity="0.08"/><rect x="0" y="700" width="1280" height="1" fill="#000000" opacity="0.08"/><rect x="0" y="704" width="1280" height="1" fill="#000000" opacity="0.08"/><rect x="0" y="708" width="1280" height="1" fill="#000000" opacity="0.08"/><rect x="0" y="712" width="1280" height="1" fill="#000000" opacity="0.08"/><rect x="0" y="716" width="1280" height="1" fill="#000000" opacity="0.08"/>
</svg>