<?xml version="1.0" encoding="UTF-8"?>
<svg xmlns="http://www.w3.org/2000/svg" width="1280" height="720" viewBox="0 0 1280 720" shape-rendering="crispEdges">
<rect x="0" y="0" width="1280" height="720" fill="#0e1722"/><rect x="0" y="0" width="1280" height="25" fill="#182436"/><rect x="0" y="24" width="1280" height="25" fill="#1b283b"/><rect x="0" y="48" width="1280" height="25" fill="#1f2d41"/><rect x="0" y="72" width="1280" height="25" fill="#223146"/><rect x="0" y="96" width="1280" height="25" fill="#25364c"/><rect x="0" y="120" width="1280" height="25" fill="#283a51"/><rect x="0" y="144" width="1280" height="25" fill="#2c3f57"/><rect x="0" y="168" width="1280" height="25" fill="#2f435c"/><rect x="0" y="192" width="1280" height="25" fill="#324862"/><rect x="0" y="216" width="1280" height="25" fill="#354c67"/><rect x="0" y="240" width="1280" height="25" fill="#39516d"/><rect x="0" y="264" width="1280" height="25" fill="#3c5572"/><rect x="1" y="35" width="186" height="152" fill="#13202e"/><rect x="13" y="51" width="8" height="8" fill="#6c8296" opacity="0.55"/><rect x="31" y="51" width="8" height="8" fill="#6c8296" opacity="0.55"/><rect x="49" y="51" width="8" height="8" fill="#6c8296" opacity="0.55"/><rect x="31" y="69" width="8" height="8" fill="#6c8296" opacity="0.55"/><rect x="49" y="69" width="8" height="8" fill="#6c8296" opacity="0.55"/><rect x="13" y="87" width="8" height="8" fill="#6c8296" opacity="0.55"/><rect x="31" y="87" width="8" height="8" fill="#6c8296" opacity="0.55"/><rect x="49" y="87" width="8" height="8" fill="#6c8296" opacity="0.55"/><rect x="67" y="87" width="8" height="8" fill="#6c8296" opacity="0.55"/><rect x="13" y="105" width="8" height="8" fill="#6c8296" opacity="0.55"/><rect x="31" y="105" width="8" height="8" fill="#6c8296" opacity="0.55"/><rect x="49" y="105" width="8" height="8" fill="#6c8296" opacity="0.55"/><rect x="67" y="105" width="8" height="8" fill="#6c8296" opacity="0.55"/><rect x="13" y="123" width="8" height="8" fill="#6c8296" opacity="0.55"/><rect x="31" y="123" width="8" height="8" fill="#6c8296" opacity="0.55"/><rect x="49" y="123" width="8" height="8" fill="#6c8296" opacity="0.55"/><rect x="67" y="123" width="8" height="8" fill="#6c8296" opacity="0.55"/><rect x="183" y="4" width="185" height="183" fill="#22364a"/><rect x="195" y="20" width="8" height="8" fill="#6c8296" opacity="0.55"/><rect x="231" y="20" width="8" height="8" fill="#6c8296" opacity="0.55"/><rect x="249" y="20" width="8" height="8" fill="#6c8296" opacity="0.55"/><rect x="195" y="38" width="8" height="8" fill="#6c8296" opacity="0.55"/><rect x="213" y="38" width="8" height="8" fill="#6c8296" opacity="0.55"/><rect x="231" y="38" width="8" height="8" fill="#6c8296" opacity="0.55"/><rect x="249" y="38" width="8" height="8" fill="#6c8296" opacity="0.55"/><rect x="195" y="56" width="8" height="8" fill="#6c8296" opacity="0.55"/><rect x="213" y="56" width="8" height="8" fill="#6c8296" opacity="0.55"/><rect x="231" y="56" width="8" height="8" fill="#6c8296" opacity="0.55"/><rect x="249" y="56" width="8" height="8" fill="#6c8296" opacity="0.55"/><rect x="195" y="74" width="8" height="8" fill="#6c8296" opacity="0.55"/><rect x="231" y="74" width="8" height="8" fill="#6c8296" opacity="0.55"/><rect x="249" y="74" width="8" height="8" fill="#6c8296" opacity="0.55"/><rect x="231" y="92" width="8" height="8" fill="#6c8296" opacity="0.55"/><rect x="363" y="67" width="182" height="120" fill="#13202e"/><rect x="375" y="83" width="8" height="8" fill="#6c8296" opacity="0.55"/><rect x="393" y="83" width="8" height="8" fill="#6c8296" opacity="0.55"/><rect x="429" y="83" width="8" height="8" fill="#6c8296" opacity="0.55"/><rect x="375" y="101" width="8" height="8" fill="#6c8296" opacity="0.55"/><rect x="393" y="101" width="8" height="8" fill="#6c8296" opacity="0.55"/><rect x="429" y="101" width="8" height="8" fill="#6c8296" opacity="0.55"/><rect x="375" y="119" width="8" height="8" fill="#6c8296" opacity="0.55"/><rect x="393" y="119" width="8" height="8" fill="#6c8296" opacity="0.55"/><rect x="411" y="119" width="8" height="8" fill="#6c8296" opacity="0.55"/><rect x="375" y="137" width="8" height="8" fill="#6c8296" opacity="0.55"/><rect x="393" y="137" width="8" height="8" fill="#6c8296" opacity="0.55"/><rect x="411" y="137" width="8" height="8" fill="#6c8296" opacity="0.55"/><rect x="429" y="137" width="8" height="8" fill="#6c8296" opacity="0.55"/><rect x="375" y="155" width="8" height="8" fill="#6c8296" opacity="0.55"/><rect x="393" y="155" width="8" height="8" fill="#6c8296" opacity="0.55"/><rect x="429" y="155" width="8" height="8" fill="#6c8296" opacity="0.55"/><rect x="548" y="4" width="192" height="183" fill="#22364a"/><rect x="578" y="20" width="8" height="8" fill="#6c8296" opacity="0.55"/><rect x="614" y="20" width="8" height="8" fill="#6c8296" opacity="0.55"/><rect x="560" y="38" width="8" height="8" fill="#6c8296" opacity="0.55"/><rect x="578" y="38" width="8" height="8" fill="#6c8296" opacity="0.55"/><rect x="596" y="38" width="8" height="8" fill="#6c8296" opacity="0.55"/><rect x="560" y="56" width="8" height="8" fill="#6c8296" opacity="0.55"/><rect x="578" y="56" width="8" height="8" fill="#6c8296" opacity="0.55"/><rect x="596" y="56" width="8" height="8" fill="#6c8296" opacity="0.55"/><rect x="614" y="74" width="8" height="8" fill="#6c8296" opacity="0.55"/><rect x="560" y="92" width="8" height="8" fill="#6c8296" opacity="0.55"/><rect x="596" y="92" width="8" height="8" fill="#6c8296" opacity="0.55"/><rect x="614" y="92" width="8" height="8" fill="#6c8296" opacity="0.55"/><rect x="738" y="-27" width="181" height="214" fill="#13202e"/><rect x="750" y="-11" width="8" height="8" fill="#6c8296" opacity="0.55"/><rect x="768" y="-11" width="8" height="8" fill="#6c8296" opacity="0.55"/><rect x="786" y="-11" width="8" height="8" fill="#6c8296" opacity="0.55"/><rect x="804" y="-11" width="8" height="8" fill="#6c8296" opacity="0.55"/><rect x="750" y="7" width="8" height="8" fill="#6c8296" opacity="0.55"/><rect x="768" y="7" width="8" height="8" fill="#6c8296" opacity="0.55"/><rect x="804" y="7" width="8" height="8" fill="#6c8296" opacity="0.55"/><rect x="768" y="25" width="8" height="8" fill="#6c8296" opacity="0.55"/><rect x="804" y="25" width="8" height="8" fill="#6c8296" opacity="0.55"/><rect x="750" y="43" width="8" height="8" fill="#6c8296" opacity="0.55"/><rect x="804" y="43" width="8" height="8" fill="#6c8296" opacity="0.55"/><rect x="750" y="61" width="8" height="8" fill="#6c8296" opacity="0.55"/><rect x="768" y="61" width="8" height="8" fill="#6c8296" opacity="0.55"/><rect x="786" y="61" width="8" height="8" fill="#6c8296" opacity="0.55"/><rect x="804" y="61" width="8" height="8" fill="#6c8296" opacity="0.55"/><rect x="918" y="54" width="175" height="133" fill="#22364a"/><rect x="930" y="70" width="8" height="8" fill="#6c8296" opacity="0.55"/><rect x="948" y="70" width="8" height="8" fill="#6c8296" opacity="0.55"/><rect x="966" y="70" width="8" height="8" fill="#6c8296" opacity="0.55"/><rect x="966" y="88" width="8" height="8" fill="#6c8296" opacity="0.55"/><rect x="930" y="106" width="8" height="8" fill="#6c8296" opacity="0.55"/><rect x="948" y="106" width="8" height="8" fill="#6c8296" opacity="0.55"/><rect x="966" y="106" width="8" height="8" fill="#6c8296" opacity="0.55"/><rect x="984" y="106" width="8" height="8" fill="#6c8296" opacity="0.55"/><rect x="948" y="124" width="8" height="8" fill="#6c8296" opacity="0.55"/><rect x="966" y="124" width="8" height="8" fill="#6c8296" opacity="0.55"/><rect x="984" y="124" width="8" height="8" fill="#6c8296" opacity="0.55"/><rect x="948" y="142" width="8" height="8" fill="#6c8296" opacity="0.55"/><rect x="966" y="142" width="8" height="8" fill="#6c8296" opacity="0.55"/><rect x="984" y="142" width="8" height="8" fill="#6c8296" opacity="0.55"/><rect x="1098" y="54" width="188" height="133" fill="#13202e"/><rect x="1110" y="70" width="8" height="8" fill="#6c8296" opacity="0.55"/><rect x="1128" y="70" width="8" height="8" fill="#6c8296" opacity="0.55"/><rect x="1146" y="70" width="8" height="8" fill="#6c8296" opacity="0.55"/><rect x="1164" y="70" width="8" height="8" fill="#6c8296" opacity="0.55"/><rect x="1128" y="88" width="8" height="8" fill="#6c8296" opacity="0.55"/><rect x="1164" y="88" width="8" height="8" fill="#6c8296" opacity="0.55"/><rect x="1110" y="106" width="8" height="8" fill="#6c8296" opacity="0.55"/><rect x="1128" y="106" width="8" height="8" fill="#6c8296" opacity="0.55"/><rect x="1146" y="106" width="8" height="8" fill="#6c8296" opacity="0.55"/><rect x="1128" y="124" width="8" height="8" fill="#6c8296" opacity="0.55"/><rect x="1146" y="124" width="8" height="8" fill="#6c8296" opacity="0.55"/><rect x="1164" y="124" width="8" height="8" fill="#6c8296" opacity="0.55"/><rect x="1110" y="142" width="8" height="8" fill="#6c8296" opacity="0.55"/><rect x="1128" y="142" width="8" height="8" fill="#6c8296" opacity="0.55"/><rect x="1146" y="142" width="8" height="8" fill="#6c8296" opacity="0.55"/><rect x="1164" y="142" width="8" height="8" fill="#6c8296" opacity="0.55"/><polygon points="640,90 722,130 640,170 558,130" fill="#212a34"/><polygon points="724,132 806,172 724,212 642,172" fill="#2d3946"/><polygon points="808,174 890,214 808,254 726,214" fill="#212a34"/><polygon points="892,216 974,256 892,296 810,256" fill="#2d3946"/><polygon points="976,258 1058,298 976,338 894,298" fill="#212a34"/><polygon points="1060,300 1142,340 1060,380 978,340" fill="#2d3946"/><polygon points="1144,342 1226,382 1144,422 1062,382" fill="#212a34"/><polygon points="1228,384 1310,424 1228,464 1146,424" fill="#2d3946"/><polygon points="556,132 638,172 556,212 474,172" fill="#2d3946"/><polygon points="640,174 722,214 640,254 558,214" fill="#212a34"/><polygon points="724,216 806,256 724,296 642,256" fill="#2d3946"/><polygon points="808,258 890,298 808,338 726,298" fill="#212a34"/><polygon points="892,300 974,340 892,380 810,340" fill="#2d3946"/><polygon points="976,342 1058,382 976,422 894,382" fill="#212a34"/><polygon points="1060,384 1142,424 1060,464 978,424" fill="#2d3946"/><polygon points="1144,426 1226,466 1144,506 1062,466" fill="#212a34"/><polygon points="472,174 554,214 472,254 390,214" fill="#2e3b49"/><polygon points="556,216 638,256 556,296 474,256" fill="#364556"/><polygon points="640,258 722,298 640,338 558,298" fill="#2e3b49"/><polygon points="724,300 806,340 724,380 642,340" fill="#364556"/><polygon points="808,342 890,382 808,422 726,382" fill="#2e3b49"/><polygon points="892,384 974,424 892,464 810,424" fill="#364556"/><polygon points="976,426 1058,466 976,506 894,466" fill="#2e3b49"/><polygon points="1060,468 1142,508 1060,548 978,508" fill="#364556"/><polygon points="388,216 470,256 388,296 306,256" fill="#364556"/><polygon points="472,258 554,298 472,338 390,298" fill="#2e3b49"/><polygon points="556,300 638,340 556,380 474,340" fill="#364556"/><polygon points="640,342 722,382 640,422 558,382" fill="#2e3b49"/><polygon points="724,384 806,424 724,464 642,424" fill="#364556"/><polygon points="808,426 890,466 808,506 726,466" fill="#2e3b49"/><polygon points="892,468 974,508 892,548 810,508" fill="#364556"/><polygon points="976,510 1058,550 976,590 894,550" fill="#2e3b49"/><polygon points="304,258 386,298 304,338 222,298" fill="#2e3b49"/><polygon points="388,300 470,340 388,380 306,340" fill="#364556"/><polygon points="472,342 554,382 472,422 390,382" fill="#2e3b49"/><polygon points="556,384 638,424 556,464 474,424" fill="#364556"/><polygon points="640,426 722,466 640,506 558,466" fill="#2e3b49"/><polygon points="724,468 806,508 724,548 642,508" fill="#364556"/><polygon points="808,510 890,550 808,590 726,550" fill="#2e3b49"/><polygon points="892,552 974,592 892,632 810,592" fill="#364556"/><polygon points="220,300 302,340 220,380 138,340" fill="#2d3946"/><polygon points="304,342 386,382 304,422 222,382" fill="#212a34"/><polygon points="388,384 470,424 388,464 306,424" fill="#2d3946"/><polygon points="472,426 554,466 472,506 390,466" fill="#212a34"/><polygon points="556,468 638,508 556,548 474,508" fill="#2d3946"/><polygon points="640,510 722,550 640,590 558,550" fill="#212a34"/><polygon points="724,552 806,592 724,632 642,592" fill="#2d3946"/><polygon points="808,594 890,634 808,674 726,634" fill="#212a34"/><polygon points="136,342 218,382 136,422 54,382" fill="#212a34"/><polygon points="220,384 302,424 220,464 138,424" fill="#2d3946"/><polygon points="304,426 386,466 304,506 222,466" fill="#212a34"/><polygon points="388,468 470,508 388,548 306,508" fill="#2d3946"/><polygon points="472,510 554,550 472,590 390,550" fill="#212a34"/><polygon points="556,552 638,592 556,632 474,592" fill="#2d3946"/><polygon points="640,594 722,634 640,674 558,634" fill="#212a34"/><polygon points="724,636 806,676 724,716 642,676" fill="#2d3946"/><polygon points="52,384 134,424 52,464 -30,424" fill="#2d3946"/><polygon points="136,426 218,466 136,506 54,466" fill="#212a34"/><polygon points="220,468 302,508 220,548 138,508" fill="#2d3946"/><polygon points="304,510 386,550 304,590 222,550" fill="#212a34"/><polygon points="388,552 470,592 388,632 306,592" fill="#2d3946"/><polygon points="472,594 554,634 472,674 390,634" fill="#212a34"/><polygon points="556,636 638,676 556,716 474,676" fill="#2d3946"/><polygon points="640,678 722,718 640,758 558,718" fill="#212a34"/><polygon points="640,268 772,278 640,288 508,278" fill="#4c627a"/><polygon points="640,302 772,312 640,322 508,312" fill="#3a4a61"/><polygon points="640,336 772,346 640,356 508,346" fill="#4c627a"/><polygon points="640,370 772,380 640,390 508,380" fill="#3a4a61"/><polygon points="640,404 772,414 640,424 508,414" fill="#4c627a"/><polygon points="640,438 772,448 640,458 508,448" fill="#3a4a61"/><polygon points="498,129.6 640,101.6 640,169.6 498,197.6" fill="#334658"/><polygon points="640,101.6 782,129.6 782,197.6 640,169.6" fill="#415970"/><polygon points="498,129.6 640,157.6 640,225.6 498,197.6" fill="#394e62"/><polygon points="640,101.6 782,129.6 640,157.6 498,129.6" fill="#4f6c88"/><polygon points="312.40000000000003,367.2 358.40000000000003,345.2 358.40000000000003,415.2 312.40000000000003,437.2" fill="#162330"/><polygon points="358.40000000000003,345.2 404.40000000000003,367.2 404.40000000000003,437.2 358.40000000000003,415.2" fill="#1c2c3d"/><polygon points="312.40000000000003,367.2 358.40000000000003,389.2 358.40000000000003,459.2 312.40000000000003,437.2" fill="#182735"/><polygon points="358.40000000000003,345.2 404.40000000000003,367.2 358.40000000000003,389.2 312.40000000000003,367.2" fill="#22364a"/><polygon points="875.5999999999999,367.2 921.5999999999999,345.2 921.5999999999999,415.2 875.5999999999999,437.2" fill="#162330"/><polygon points="921.5999999999999,345.2 967.5999999999999,367.2 967.5999999999999,437.2 921.5999999999999,415.2" fill="#1c2c3d"/><polygon points="875.5999999999999,367.2 921.5999999999999,389.2 921.5999999999999,459.2 875.5999999999999,437.2" fill="#182735"/><polygon points="921.5999999999999,345.2 967.5999999999999,367.2 921.5999999999999,389.2 875.5999999999999,367.2" fill="#22364a"/><polygon points="522,554.4 640,536.4 640,570.4 522,588.4" fill="#0c151e"/><polygon points="640,536.4 758,554.4 758,588.4 640,570.4" fill="#101a26"/><polygon points="522,554.4 640,572.4 640,606.4 522,588.4" fill="#0e1721"/><polygon points="640,536.4 758,554.4 640,572.4 522,554.4" fill="#13202e"/><polygon points="468,330 498,338 468,346 438,338" fill="#6788a6" opacity="1"/><polygon points="812,330 842,338 812,346 782,338" fill="#6788a6" opacity="1"/><polygon points="468,446 498,454 468,462 438,454" fill="#6788a6" opacity="1"/><polygon points="812,446 842,454 812,462 782,454" fill="#6788a6" opacity="1"/><polygon points="510.6082904083843,248.37255513955023 772.7277757689318,279.82689338281597 769.3917095916157,307.62744486044977 507.2722242310682,276.17310661718403" fill="#889ab0" opacity="0.22"/><polygon points="510.6082904083843,248.37255513955023 772.7277757689318,279.82689338281597 769.3917095916157,307.62744486044977 507.2722242310682,276.17310661718403" fill="none" stroke="#9ba4b5" stroke-width="2"/><polygon points="640,274 650,278 640,282 630,278" fill="#9ba4b5" opacity="0.42"/><polygon points="652,256 652,448 628,448 628,256" fill="#889ab0" opacity="0.22"/><polygon points="652,256 652,448 628,448 628,256" fill="none" stroke="#9ba4b5" stroke-width="2"/><polygon points="644,345 654,349 644,353 634,349" fill="#9ba4b5" opacity="0.42"/><polygon points="713.749961099385,238.84537192053386 655.550662685851,339.18898987490303 638.250038900615,329.15462807946614 696.449337314149,228.81101012509697" fill="#889ab0" opacity="0.22"/><polygon points="713.749961099385,238.84537192053386 655.550662685851,339.18898987490303 638.250038900615,329.15462807946614 696.449337314149,228.81101012509697" fill="none" stroke="#9ba4b5" stroke-width="2"/><polygon points="684,274 694,278 684,282 674,278" fill="#9ba4b5" opacity="0.42"/><polygon points="413,599 433,604 435,620 416,613" fill="#f1e8d6" opacity="0.88"/><polygon points="474,588 494,593 496,609 477,602" fill="#f1e8d6" opacity="0.88"/><polygon points="537,574 557,579 559,595 540,588" fill="#f1e8d6" opacity="0.88"/><polygon points="599,563 619,568 621,584 602,577" fill="#f1e8d6" opacity="0.88"/><polygon points="661,552 681,557 683,573 664,566" fill="#f1e8d6" opacity="0.88"/><polygon points="720,538 740,543 742,559 723,552" fill="#f1e8d6" opacity="0.88"/><rect x="0" y="0" width="1280" height="1" fill="#000000" opacity="0.08"/><rect x="0" y="4" width="1280" height="1" fill="#000000" opacity="0.08"/><rect x="0" y="8" width="1280" height="1" fill="#000000" opacity="0.08"/><rect x="0" y="12" width="1280" height="1" fill="#000000" opacity="0.08"/><rect x="0" y="16" width="1280" height="1" fill="#000000" opacity="0.08"/><rect x="0" y="20" width="1280" height="1" fill="#000000" opacity="0.08"/><rect x="0" y="24" width="1280" height="1" fill="#000000" opacity="0.08"/><rect x="0" y="28" width="1280" height="1" fill="#000000" opacity="0.08"/><rect x="0" y="32" width="1280" height="1" fill="#000000" opacity="0.08"/><rect x="0" y="36" width="1280" height="1" fill="#000000" opacity="0.08"/><rect x="0" y="40" width="1280" height="1" fill="#000000" opacity="0.08"/><rect x="0" y="44" width="1280" height="1" fill="#000000" opacity="0.08"/><rect x="0" y="48" width="1280" height="1" fill="#000000" opacity="0.08"/><rect x="0" y="52" width="1280" height="1" fill="#000000" opacity="0.08"/><rect x="0" y="56" width="1280" height="1" fill="#000000" opacity="0.08"/><rect x="0" y="60" width="1280" height="1" fill="#000000" opacity="0.08"/><rect x="0" y="64" width="1280" height="1" fill="#000000" opacity="0.08"/><rect x="0" y="68" width="1280" height="1" fill="#000000" opacity="0.08"/><rect x="0" y="72" width="1280" height="1" fill="#000000" opacity="0.08"/><rect x="0" y="76" width="1280" height="1" fill="#000000" opacity="0.08"/><rect x="0" y="80" width="1280" height="1" fill="#000000" opacity="0.08"/><rect x="0" y="84" width="1280" height="1" fill="#000000" opacity="0.08"/><rect x="0" y="88" width="1280" height="1" fill="#000000" opacity="0.08"/><rect x="0" y="92" width="1280" height="1" fill="#000000" opacity="0.08"/><rect x="0" y="96" width="1280" height="1" fill="#000000" opacity="0.08"/><rect x="0" y="100" width="1280" height="1" fill="#000000" opacity="0.08"/><rect x="0" y="104" width="1280" height="1" fill="#000000" opacity="0.08"/><rect x="0" y="108" width="1280" height="1" fill="#000000" opacity="0.08"/><rect x="0" y="112" width="1280" height="1" fill="#000000" opacity="0.08"/><rect x="0" y="116" width="1280" height="1" fill="#000000" opacity="0.08"/><rect x="0" y="120" width="1280" height="1" fill="#000000" opacity="0.08"/><rect x="0" y="124" width="1280" height="1" fill="#000000" opacity="0.08"/><rect x="0" y="128" width="1280" height="1" fill="#000000" opacity="0.08"/><rect x="0" y="132" width="1280" height="1" fill="#000000" opacity="0.08"/><rect x="0" y="136" width="1280" height="1" fill="#000000" opacity="0.08"/><rect x="0" y="140" width="1280" height="1" fill="#000000" opacity="0.08"/><rect x="0" y="144" width="1280" height="1" fill="#000000" opacity="0.08"/><rect x="0" y="148" width="1280" height="1" fill="#000000" opacity="0.08"/><rect x="0" y="152" width="1280" height="1" fill="#000000" opacity="0.08"/><rect x="0" y="156" width="1280" height="1" fill="#000000" opacity="0.08"/><rect x="0" y="160" width="1280" height="1" fill="#000000" opacity="0.08"/><rect x="0" y="164" width="1280" height="1" fill="#000000" opacity="0.08"/><rect x="0" y="168" width="1280" height="1" fill="#000000" opacity="0.08"/><rect x="0" y="172" width="1280" height="1" fill="#000000" opacity="0.08"/><rect x="0" y="176" width="1280" height="1" fill="#000000" opacity="0.08"/><rect x="0" y="180" width="1280" height="1" fill="#000000" opacity="0.08"/><rect x="0" y="184" width="1280" height="1" fill="#000000" opacity="0.08"/><rect x="0" y="188" width="1280" height="1" fill="#000000" opacity="0.08"/><rect x="0" y="192" width="1280" height="1" fill="#000000" opacity="0.08"/><rect x="0" y="196" width="1280" height="1" fill="#000000" opacity="0.08"/><rect x="0" y="200" width="1280" height="1" fill="#000000" opacity="0.08"/><rect x="0" y="204" width="1280" height="1" fill="#000000" opacity="0.08"/><rect x="0" y="208" width="1280" height="1" fill="#000000" opacity="0.08"/><rect x="0" y="212" width="1280" height="1" fill="#000000" opacity="0.08"/><rect x="0" y="216" width="1280" height="1" fill="#000000" opacity="0.08"/><rect x="0" y="220" width="1280" height="1" fill="#000000" opacity="0.08"/><rect x="0" y="224" width="1280" height="1" fill="#000000" opacity="0.08"/><rect x="0" y="228" width="1280" height="1" fill="#000000" opacity="0.08"/><rect x="0" y="232" width="1280" height="1" fill="#000000" opacity="0.08"/><rect x="0" y="236" width="1280" height="1" fill="#000000" opacity="0.08"/><rect x="0" y="240" width="1280" height="1" fill="#000000" opacity="0.08"/><rect x="0" y="244" width="1280" height="1" fill="#000000" opacity="0.08"/><rect x="0" y="248" width="1280" height="1" fill="#000000" opacity="0.08"/><rect x="0" y="252" width="1280" height="1" fill="#000000" opacity="0.08"/><rect x="0" y="256" width="1280" height="1" fill="#000000" opacity="0.08"/><rect x="0" y="260" width="1280" height="1" fill="#000000" opacity="0.08"/><rect x="0" y="264" width="1280" height="1" fill="#000000" opacity="0.08"/><rect x="0" y="268" width="1280" height="1" fill="#000000" opacity="0.08"/><rect x="0" y="272" width="1280" height="1" fill="#000000" opacity="0.08"/><rect x="0" y="276" width="1280" height="1" fill="#000000" opacity="0.08"/><rect x="0" y="280" width="1280" height="1" fill="#000000" opacity="0.08"/><rect x="0" y="284" width="1280" height="1" fill="#000000" opacity="0.08"/><rect x="0" y="288" width="1280" height="1" fill="#000000" opacity="0.08"/><rect x="0" y="292" width="1280" height="1" fill="#000000" opacity="0.08"/><rect x="0" y="296" width="1280" height="1" fill="#000000" opacity="0.08"/><rect x="0" y="300" width="1280" height="1" fill="#000000" opacity="0.08"/><rect x="0" y="304" width="1280" height="1" fill="#000000" opacity="0.08"/><rect x="0" y="308" width="1280" height="1" fill="#000000" opacity="0.08"/><rect x="0" y="312" width="1280" height="1" fill="#000000" opacity="0.08"/><rect x="0" y="316" width="1280" height="1" fill="#000000" opacity="0.08"/><rect x="0" y="320" width="1280" height="1" fill="#000000" opacity="0.08"/><rect x="0" y="324" width="1280" height="1" fill="#000000" opacity="0.08"/><rect x="0" y="328" width="1280" height="1" fill="#000000" opacity="0.08"/><rect x="0" y="332" width="1280" height="1" fill="#000000" opacity="0.08"/><rect x="0" y="336" width="1280" height="1" fill="#000000" opacity="0.08"/><rect x="0" y="340" width="1280" height="1" fill="#000000" opacity="0.08"/><rect x="0" y="344" width="1280" height="1" fill="#000000" opacity="0.08"/><rect x="0" y="348" width="1280" height="1" fill="#000000" opacity="0.08"/><rect x="0" y="352" width="1280" height="1" fill="#000000" opacity="0.08"/><rect x="0" y="356" width="1280" height="1" fill="#000000" opacity="0.08"/><rect x="0" y="360" width="1280" height="1" fill="#000000" opacity="0.08"/><rect x="0" y="364" width="1280" height="1" fill="#000000" opacity="0.08"/><rect x="0" y="368" width="1280" height="1" fill="#000000" opacity="0.08"/><rect x="0" y="372" width="1280" height="1" fill="#000000" opacity="0.08"/><rect x="0" y="376" width="1280" height="1" fill="#000000" opacity="0.08"/><rect x="0" y="380" width="1280" height="1" fill="#000000" opacity="0.08"/><rect x="0" y="384" width="1280" height="1" fill="#000000" opacity="0.08"/><rect x="0" y="388" width="1280" height="1" fill="#000000" opacity="0.08"/><rect x="0" y="392" width="1280" height="1" fill="#000000" opacity="0.08"/><rect x="0" y="396" width="1280" height="1" fill="#000000" opacity="0.08"/><rect x="0" y="400" width="1280" height="1" fill="#000000" opacity="0.08"/><rect x="0" y="404" width="1280" height="1" fill="#000000" opacity="0.08"/><rect x="0" y="408" width="1280" height="1" fill="#000000" opacity="0.08"/><rect x="0" y="412" width="1280" height="1" fill="#000000" opacity="0.08"/><rect x="0" y="416" width="1280" height="1" fill="#000000" opacity="0.08"/><rect x="0" y="420" width="1280" height="1" fill="#000000" opacity="0.08"/><rect x="0" y="424" width="1280" height="1" fill="#000000" opacity="0.08"/><rect x="0" y="428" width="1280" height="1" fill="#000000" opacity="0.08"/><rect x="0" y="432" width="1280" height="1" fill="#000000" opacity="0.08"/><rect x="0" y="436" width="1280" height="1" fill="#000000" opacity="0.08"/><rect x="0" y="440" width="1280" height="1" fill="#000000" opacity="0.08"/><rect x="0" y="444" width="1280" height="1" fill="#000000" opacity="0.08"/><rect x="0" y="448" width="1280" height="1" fill="#000000" opacity="0.08"/><rect x="0" y="452" width="1280" height="1" fill="#000000" opacity="0.08"/><rect x="0" y="456" width="1280" height="1" fill="#000000" opacity="0.08"/><rect x="0" y="460" width="1280" height="1" fill="#000000" opacity="0.08"/><rect x="0" y="464" width="1280" height="1" fill="#000000" opacity="0.08"/><rect x="0" y="468" width="1280" height="1" fill="#000000" opacity="0.08"/><rect x="0" y="472" width="1280" height="1" fill="#000000" opacity="0.08"/><rect x="0" y="476" width="1280" height="1" fill="#000000" opacity="0.08"/><rect x="0" y="480" width="1280" height="1" fill="#000000" opacity="0.08"/><rect x="0" y="484" width="1280" height="1" fill="#000000" opacity="0.08"/><rect x="0" y="488" width="1280" height="1" fill="#000000" opacity="0.08"/><rect x="0" y="492" width="1280" height="1" fill="#000000" opacity="0.08"/><rect x="0" y="496" width="1280" height="1" fill="#000000" opacity="0.08"/><rect x="0" y="500" width="1280" height="1" fill="#000000" opacity="0.08"/><rect x="0" y="504" width="1280" height="1" fill="#000000" opacity="0.08"/><rect x="0" y="508" width="1280" height="1" fill="#000000" opacity="0.08"/><rect x="0" y="512" width="1280" height="1" fill="#000000" opacity="0.08"/><rect x="0" y="516" width="1280" height="1" fill="#000000" opacity="0.08"/><rect x="0" y="520" width="1280" height="1" fill="#000000" opacity="0.08"/><rect x="0" y="524" width="1280" height="1" fill="#000000" opacity="0.08"/><rect x="0" y="528" width="1280" height="1" fill="#000000" opacity="0.08"/><rect x="0" y="532" width="1280" height="1" fill="#000000" opacity="0.08"/><rect x="0" y="536" width="1280" height="1" fill="#000000" opacity="0.08"/><rect x="0" y="540" width="1280" height="1" fill="#000000" opacity="0.08"/><rect x="0" y="544" width="1280" height="1" fill="#000000" opacity="0.08"/><rect x="0" y="548" width="1280" height="1" fill="#000000" opacity="0.08"/><rect x="0" y="552" width="1280" height="1" fill="#000000" opacity="0.08"/><rect x="0" y="556" width="1280" height="1" fill="#000000" opacity="0.08"/><rect x="0" y="560" width="1280" height="1" fill="#000000" opacity="0.08"/><rect x="0" y="564" width="1280" height="1" fill="#000000" opacity="0.08"/><rect x="0" y="568" width="1280" height="1" fill="#000000" opacity="0.08"/><rect x="0" y="572" width="1280" height="1" fill="#000000" opacity="0.08"/><rect x="0" y="576" width="1280" height="1" fill="#000000" opacity="0.08"/><rect x="0" y="580" width="1280" height="1" fill="#000000" opacity="0.08"/><rect x="0" y="584" width="1280" height="1" fill="#000000" opacity="0.08"/><rect x="0" y="588" width="1280" height="1" fill="#000000" opacity="0.08"/><rect x="0" y="592" width="1280" height="1" fill="#000000" opacity="0.08"/><rect x="0" y="596" width="1280" height="1" fill="#000000" opacity="0.08"/><rect x="0" y="600" width="1280" height="1" fill="#000000" opacity="0.08"/><rect x="0" y="604" width="1280" height="1" fill="#000000" opacity="0.08"/><rect x="0" y="608" width="1280" height="1" fill="#000000" opacity="0.08"/><rect x="0" y="612" width="1280" height="1" fill="#000000" opacity="0.08"/><rect x="0" y="616" width="1280" height="1" fill="#000000" opacity="0.08"/><rect x="0" y="620" width="1280" height="1" fill="#000000" opacity="0.08"/><rect x="0" y="624" width="1280" height="1" fill="#000000" opacity="0.08"/><rect x="0" y="628" width="1280" height="1" fill="#000000" opacity="0.08"/><rect x="0" y="632" width="1280" height="1" fill="#000000" opacity="0.08"/><rect x="0" y="636" width="1280" height="1" fill="#000000" opacity="0.08"/><rect x="0" y="640" width="1280" height="1" fill="#000000" opacity="0.08"/><rect x="0" y="644" width="1280" height="1" fill="#000000" opacity="0.08"/><rect x="0" y="648" width="1280" height="1" fill="#000000" opacity="0.08"/><rect x="0" y="652" width="1280" height="1" fill="#000000" opacity="0.08"/><rect x="0" y="656" width="1280" height="1" fill="#000000" opacity="0.08"/><rect x="0" y="660" width="1280" height="1" fill="#000000" opacity="0.08"/><rect x="0" y="664" width="1280" height="1" fill="#000000" opacity="0.08"/><rect x="0" y="668" width="1280" height="1" fill="#000000" opacity="0.08"/><rect x="0" y="672" width="1280" height="1" fill="#000000" opacity="0.08"/><rect x="0" y="676" width="1280" height="1" fill="#000000" opacity="0.08"/><rect x="0" y="680" width="1280" height="1" fill="#000000" opacity="0.08"/><rect x="0" y="684" width="1280" height="1" fill="#000000" opacity="0.08"/><rect x="0" y="688" width="1280" height="1" fill="#000000" opacity="0.08"/><rect x="0" y="692" width="1280" height="1" fill="#000000" opacity="0.08"/><rect x="0" y="696" width="1280" height="1" fill="#000000" opacity="0.08"/><rect x="0" y="700" width="1280" height="1" fill="#000000" opacity="0.08"/><rect x="0" y="704" width="1280" height="1" fill="#000000" opacity="0.08"/><rect x="0" y="708" width="1280" height="1" fill="#000000" opacity="0.08"/><rect x="0" y="712" width="1280" height="1" fill="#000000" opacity="0.08"/><rect x="0" y="716" width="1280" height="1" fill="#000000" opacity="0.08"/>
</svg>