<?xml version="1.0" encoding="UTF-8"?>
<svg xmlns="http://www.w3.org/2000/svg" width="1280" height="720" viewBox="0 0 1280 720" shape-rendering="crispEdges">
<rect x="0" y="0" width="1280" height="720" fill="none" opacity="0"/><rect x="0" y="0" width="1280" height="10" fill="#9ba4b5" opacity="0.14"/><rect x="0" y="710" width="1280" height="10" fill="#9ba4b5" opacity="0.14"/><rect x="0" y="0" width="10" height="720" fill="#9ba4b5" opacity="0.1"/><rect x="1270" y="0" width="10" height="720" fill="#9ba4b5" opacity="0.1"/><rect x="18" y="18" width="92" height="10" fill="#9ba4b5" opacity="0.5"/><rect x="18" y="18" width="10" height="72" fill="#9ba4b5" opacity="0.5"/><rect x="1170" y="18" width="92" height="10" fill="#9ba4b5" opacity="0.5"/><rect x="1252" y="18" width="10" height="72" fill="#9ba4b5" opacity="0.5"/><rect x="18" y="692" width="92" height="10" fill="#9ba4b5" opacity="0.5"/><rect x="18" y="630" width="10" height="72" fill="#9ba4b5" opacity="0.5"/><rect x="1170" y="692" width="92" height="10" fill="#9ba4b5" opacity="0.5"/><rect x="1252" y="630" width="10" height="72" fill="#9ba4b5" opacity="0.5"/><rect x="28" y="28" width="1224" height="664" fill="#19222e" opacity="0.08"/><polygon points="160.5645890464961,192.56687940470707 918.1442007339512,253.17324833970343 914.635410953504,297.0331205952929 157.05579926604895,236.42675166029656" fill="#a7aeba" opacity="0.14"/><polygon points="526.5722952655098,450.4703700577415 1165.4233963636082,488.8014361236274 1163.0277047344905,528.7296299422586 524.1766036363919,490.39856387637263" fill="#e3ddd1" opacity="0.1"/><rect x="0" y="0" width="1280" height="96" fill="#0e1722" opacity="0.16"/><rect x="0" y="596" width="1280" height="124" fill="#0e1722" opacity="0.12"/><rect x="0" y="0" width="4" height="720" fill="#9ba4b5" opacity="0.035"/><rect x="16" y="0" width="4" height="720" fill="#9ba4b5" opacity="0.02"/><rect x="32" y="0" width="4" height="720" fill="#9ba4b5" opacity="0.035"/><rect x="48" y="0" width="4" height="720" fill="#9ba4b5" opacity="0.02"/><rect x="64" y="0" width="4" height="720" fill="#9ba4b5" opacity="0.035"/><rect x="80" y="0" width="4" height="720" fill="#9ba4b5" opacity="0.02"/><rect x="96" y="0" width="4" height="720" fill="#9ba4b5" opacity="0.035"/><rect x="112" y="0" width="4" height="720" fill="#9ba4b5" opacity="0.02"/><rect x="128" y="0" width="4" height="720" fill="#9ba4b5" opacity="0.035"/><rect x="144" y="0" width="4" height="720" fill="#9ba4b5" opacity="0.02"/><rect x="160" y="0" width="4" height="720" fill="#9ba4b5" opacity="0.035"/><rect x="176" y="0" width="4" height="720" fill="#9ba4b5" opacity="0.02"/><rect x="192" y="0" width="4" height="720" fill="#9ba4b5" opacity="0.035"/><rect x="208" y="0" width="4" height="720" fill="#9ba4b5" opacity="0.02"/><rect x="224" y="0" width="4" height="720" fill="#9ba4b5" opacity="0.035"/><rect x="240" y="0" width="4" height="720" fill="#9ba4b5" opacity="0.02"/><rect x="256" y="0" width="4" height="720" fill="#9ba4b5" opacity="0.035"/><rect x="272" y="0" width="4" height="720" fill="#9ba4b5" opacity="0.02"/><rect x="288" y="0" width="4" height="720" fill="#9ba4b5" opacity="0.035"/><rect x="304" y="0" width="4" height="720" fill="#9ba4b5" opacity="0.02"/><rect x="320" y="0" width="4" height="720" fill="#9ba4b5" opacity="0.035"/><rect x="336" y="0" width="4" height="720" fill="#9ba4b5" opacity="0.02"/><rect x="352" y="0" width="4" height="720" fill="#9ba4b5" opacity="0.035"/><rect x="368" y="0" width="4" height="720" fill="#9ba4b5" opacity="0.02"/><rect x="384" y="0" width="4" height="720" fill="#9ba4b5" opacity="0.035"/><rect x="400" y="0" width="4" height="720" fill="#9ba4b5" opacity="0.02"/><rect x="416" y="0" width="4" height="720" fill="#9ba4b5" opacity="0.035"/><rect x="432" y="0" width="4" height="720" fill="#9ba4b5" opacity="0.02"/><rect x="448" y="0" width="4" height="720" fill="#9ba4b5" opacity="0.035"/><rect x="464" y="0" width="4" height="720" fill="#9ba4b5" opacity="0.02"/><rect x="480" y="0" width="4" height="720" fill="#9ba4b5" opacity="0.035"/><rect x="496" y="0" width="4" height="720" fill="#9ba4b5" opacity="0.02"/><rect x="512" y="0" width="4" height="720" fill="#9ba4b5" opacity="0.035"/><rect x="528" y="0" width="4" height="720" fill="#9ba4b5" opacity="0.02"/><rect x="544" y="0" width="4" height="720" fill="#9ba4b5" opacity="0.035"/><rect x="560" y="0" width="4" height="720" fill="#9ba4b5" opacity="0.02"/><rect x="576" y="0" width="4" height="720" fill="#9ba4b5" opacity="0.035"/><rect x="592" y="0" width="4" height="720" fill="#9ba4b5" opacity="0.02"/><rect x="608" y="0" width="4" height="720" fill="#9ba4b5" opacity="0.035"/><rect x="624" y="0" width="4" height="720" fill="#9ba4b5" opacity="0.02"/><rect x="640" y="0" width="4" height="720" fill="#9ba4b5" opacity="0.035"/><rect x="656" y="0" width="4" height="720" fill="#9ba4b5" opacity="0.02"/><rect x="672" y="0" width="4" height="720" fill="#9ba4b5" opacity="0.035"/><rect x="688" y="0" width="4" height="720" fill="#9ba4b5" opacity="0.02"/><rect x="704" y="0" width="4" height="720" fill="#9ba4b5" opacity="0.035"/><rect x="720" y="0" width="4" height="720" fill="#9ba4b5" opacity="0.02"/><rect x="736" y="0" width="4" height="720" fill="#9ba4b5" opacity="0.035"/><rect x="752" y="0" width="4" height="720" fill="#9ba4b5" opacity="0.02"/><rect x="768" y="0" width="4" height="720" fill="#9ba4b5" opacity="0.035"/><rect x="784" y="0" width="4" height="720" fill="#9ba4b5" opacity="0.02"/><rect x="800" y="0" width="4" height="720" fill="#9ba4b5" opacity="0.035"/><rect x="816" y="0" width="4" height="720" fill="#9ba4b5" opacity="0.02"/><rect x="832" y="0" width="4" height="720" fill="#9ba4b5" opacity="0.035"/><rect x="848" y="0" width="4" height="720" fill="#9ba4b5" opacity="0.02"/><rect x="864" y="0" width="4" height="720" fill="#9ba4b5" opacity="0.035"/><rect x="880" y="0" width="4" height="720" fill="#9ba4b5" opacity="0.02"/><rect x="896" y="0" width="4" height="720" fill="#9ba4b5" opacity="0.035"/><rect x="912" y="0" width="4" height="720" fill="#9ba4b5" opacity="0.02"/><rect x="928" y="0" width="4" height="720" fill="#9ba4b5" opacity="0.035"/><rect x="944" y="0" width="4" height="720" fill="#9ba4b5" opacity="0.02"/><rect x="960" y="0" width="4" height="720" fill="#9ba4b5" opacity="0.035"/><rect x="976" y="0" width="4" height="720" fill="#9ba4b5" opacity="0.02"/><rect x="992" y="0" width="4" height="720" fill="#9ba4b5" opacity="0.035"/><rect x="1008" y="0" width="4" height="720" fill="#9ba4b5" opacity="0.02"/><rect x="1024" y="0" width="4" height="720" fill="#9ba4b5" opacity="0.035"/><rect x="1040" y="0" width="4" height="720" fill="#9ba4b5" opacity="0.02"/><rect x="1056" y="0" width="4" height="720" fill="#9ba4b5" opacity="0.035"/><rect x="1072" y="0" width="4" height="720" fill="#9ba4b5" opacity="0.02"/><rect x="1088" y="0" width="4" height="720" fill="#9ba4b5" opacity="0.035"/><rect x="1104" y="0" width="4" height="720" fill="#9ba4b5" opacity="0.02"/><rect x="1120" y="0" width="4" height="720" fill="#9ba4b5" opacity="0.035"/><rect x="1136" y="0" width="4" height="720" fill="#9ba4b5" opacity="0.02"/><rect x="1152" y="0" width="4" height="720" fill="#9ba4b5" opacity="0.035"/><rect x="1168" y="0" width="4" height="720" fill="#9ba4b5" opacity="0.02"/><rect x="1184" y="0" width="4" height="720" fill="#9ba4b5" opacity="0.035"/><rect x="1200" y="0" width="4" height="720" fill="#9ba4b5" opacity="0.02"/><rect x="1216" y="0" width="4" height="720" fill="#9ba4b5" opacity="0.035"/><rect x="1232" y="0" width="4" height="720" fill="#9ba4b5" opacity="0.02"/><rect x="1248" y="0" width="4" height="720" fill="#9ba4b5" opacity="0.035"/><rect x="1264" y="0" width="4" height="720" fill="#9ba4b5" opacity="0.02"/><rect x="137" y="142" width="10" height="10" fill="#aab0bb" opacity="0.272896"/><rect x="151" y="144" width="8" height="2" fill="#9ba4b5" opacity="0.24991039999999998"/><rect x="127" y="156" width="28" height="2" fill="#e2dcd0" opacity="0.1773246"/><rect x="641" y="403" width="14" height="14" fill="#aab0bb" opacity="0.2217916"/><rect x="659" y="405" width="12" height="2" fill="#9ba4b5" opacity="0.2155984"/><rect x="631" y="421" width="32" height="2" fill="#e2dcd0" opacity="0.1523784"/><rect x="470" y="184" width="12" height="12" fill="#aab0bb" opacity="0.2574436"/><rect x="486" y="186" width="10" height="2" fill="#9ba4b5" opacity="0.1818608"/><rect x="460" y="200" width="30" height="2" fill="#e2dcd0" opacity="0.1440282"/><rect x="942" y="177" width="7" height="7" fill="#aab0bb" opacity="0.2319976"/><rect x="953" y="179" width="5" height="2" fill="#9ba4b5" opacity="0.249748"/><rect x="932" y="188" width="25" height="2" fill="#e2dcd0" opacity="0.171864"/><rect x="1028" y="116" width="6" height="6" fill="#aab0bb" opacity="0.3023212"/><rect x="1038" y="118" width="4" height="2" fill="#9ba4b5" opacity="0.23108399999999998"/><rect x="1018" y="126" width="24" height="2" fill="#e2dcd0" opacity="0.16483979999999998"/><rect x="422" y="258" width="7" height="7" fill="#aab0bb" opacity="0.2504884"/><rect x="433" y="260" width="5" height="2" fill="#9ba4b5" opacity="0.212916"/><rect x="412" y="269" width="25" height="2" fill="#e2dcd0" opacity="0.1682268"/><rect x="1075" y="485" width="8" height="8" fill="#aab0bb" opacity="0.2957248"/><rect x="1087" y="487" width="6" height="2" fill="#9ba4b5" opacity="0.21964"/><rect x="1065" y="497" width="26" height="2" fill="#e2dcd0" opacity="0.1536024"/><rect x="326" y="377" width="12" height="12" fill="#aab0bb" opacity="0.2647588"/><rect x="342" y="379" width="10" height="2" fill="#9ba4b5" opacity="0.2045272"/><rect x="316" y="393" width="30" height="2" fill="#e2dcd0" opacity="0.132015"/><rect x="142" y="463" width="7" height="7" fill="#aab0bb" opacity="0.2959324"/><rect x="153" y="465" width="5" height="2" fill="#9ba4b5" opacity="0.246076"/><rect x="132" y="474" width="25" height="2" fill="#e2dcd0" opacity="0.1531152"/><rect x="1009" y="349" width="6" height="6" fill="#aab0bb" opacity="0.25901799999999997"/><rect x="1019" y="351" width="4" height="2" fill="#9ba4b5" opacity="0.1868232"/><rect x="999" y="359" width="24" height="2" fill="#e2dcd0" opacity="0.1319328"/><rect x="196" y="346" width="14" height="14" fill="#aab0bb" opacity="0.3211816"/><rect x="214" y="348" width="12" height="2" fill="#9ba4b5" opacity="0.236484"/><rect x="186" y="364" width="32" height="2" fill="#e2dcd0" opacity="0.1550724"/><rect x="388" y="113" width="9" height="9" fill="#aab0bb" opacity="0.2337172"/><rect x="401" y="115" width="7" height="2" fill="#9ba4b5" opacity="0.2179144"/><rect x="378" y="126" width="27" height="2" fill="#e2dcd0" opacity="0.14403359999999998"/><rect x="781" y="568" width="8" height="8" fill="#aab0bb" opacity="0.2322496"/><rect x="793" y="570" width="6" height="2" fill="#9ba4b5" opacity="0.21578239999999999"/><rect x="771" y="580" width="26" height="2" fill="#e2dcd0" opacity="0.125334"/><rect x="347" y="395" width="6" height="6" fill="#aab0bb" opacity="0.31078479999999997"/><rect x="357" y="397" width="4" height="2" fill="#9ba4b5" opacity="0.2439"/><rect x="337" y="405" width="24" height="2" fill="#e2dcd0" opacity="0.1792134"/><rect x="1010" y="210" width="12" height="12" fill="#aab0bb" opacity="0.2660668"/><rect x="1026" y="212" width="10" height="2" fill="#9ba4b5" opacity="0.1992208"/><rect x="1000" y="226" width="30" height="2" fill="#e2dcd0" opacity="0.1653828"/><rect x="722" y="501" width="12" height="12" fill="#aab0bb" opacity="0.2875156"/><rect x="738" y="503" width="10" height="2" fill="#9ba4b5" opacity="0.18880639999999999"/><rect x="712" y="517" width="30" height="2" fill="#e2dcd0" opacity="0.15918359999999998"/><rect x="1037" y="532" width="14" height="14" fill="#aab0bb" opacity="0.3193072"/><rect x="1055" y="534" width="12" height="2" fill="#9ba4b5" opacity="0.2309792"/><rect x="1027" y="550" width="32" height="2" fill="#e2dcd0" opacity="0.1494048"/><rect x="211" y="271" width="8" height="8" fill="#aab0bb" opacity="0.29317119999999997"/><rect x="223" y="273" width="6" height="2" fill="#9ba4b5" opacity="0.254488"/><rect x="201" y="283" width="26" height="2" fill="#e2dcd0" opacity="0.1557816"/><rect x="0" y="0" width="1280" height="1" fill="#000000" opacity="0.08"/><rect x="0" y="4" width="1280" height="1" fill="#000000" opacity="0.08"/><rect x="0" y="8" width="1280" height="1" fill="#000000" opacity="0.08"/><rect x="0" y="12" width="1280" height="1" fill="#000000" opacity="0.08"/><rect x="0" y="16" width="1280" height="1" fill="#000000" opacity="0.08"/><rect x="0" y="20" width="1280" height="1" fill="#000000" opacity="0.08"/><rect x="0" y="24" width="1280" height="1" fill="#000000" opacity="0.08"/><rect x="0" y="28" width="1280" height="1" fill="#000000" opacity="0.08"/><rect x="0" y="32" width="1280" height="1" fill="#000000" opacity="0.08"/><rect x="0" y="36" width="1280" height="1" fill="#000000" opacity="0.08"/><rect x="0" y="40" width="1280" height="1" fill="#000000" opacity="0.08"/><rect x="0" y="44" width="1280" height="1" fill="#000000" opacity="0.08"/><rect x="0" y="48" width="1280" height="1" fill="#000000" opacity="0.08"/><rect x="0" y="52" width="1280" height="1" fill="#000000" opacity="0.08"/><rect x="0" y="56" width="1280" height="1" fill="#000000" opacity="0.08"/><rect x="0" y="60" width="1280" height="1" fill="#000000" opacity="0.08"/><rect x="0" y="64" width="1280" height="1" fill="#000000" opacity="0.08"/><rect x="0" y="68" width="1280" height="1" fill="#000000" opacity="0.08"/><rect x="0" y="72" width="1280" height="1" fill="#000000" opacity="0.08"/><rect x="0" y="76" width="1280" height="1" fill="#000000" opacity="0.08"/><rect x="0" y="80" width="1280" height="1" fill="#000000" opacity="0.08"/><rect x="0" y="84" width="1280" height="1" fill="#000000" opacity="0.08"/><rect x="0" y="88" width="1280" height="1" fill="#000000" opacity="0.08"/><rect x="0" y="92" width="1280" height="1" fill="#000000" opacity="0.08"/><rect x="0" y="96" width="1280" height="1" fill="#000000" opacity="0.08"/><rect x="0" y="100" width="1280" height="1" fill="#000000" opacity="0.08"/><rect x="0" y="104" width="1280" height="1" fill="#000000" opacity="0.08"/><rect x="0" y="108" width="1280" height="1" fill="#000000" opacity="0.08"/><rect x="0" y="112" width="1280" height="1" fill="#000000" opacity="0.08"/><rect x="0" y="116" width="1280" height="1" fill="#000000" opacity="0.08"/><rect x="0" y="120" width="1280" height="1" fill="#000000" opacity="0.08"/><rect x="0" y="124" width="1280" height="1" fill="#000000" opacity="0.08"/><rect x="0" y="128" width="1280" height="1" fill="#000000" opacity="0.08"/><rect x="0" y="132" width="1280" height="1" fill="#000000" opacity="0.08"/><rect x="0" y="136" width="1280" height="1" fill="#000000" opacity="0.08"/><rect x="0" y="140" width="1280" height="1" fill="#000000" opacity="0.08"/><rect x="0" y="144" width="1280" height="1" fill="#000000" opacity="0.08"/><rect x="0" y="148" width="1280" height="1" fill="#000000" opacity="0.08"/><rect x="0" y="152" width="1280" height="1" fill="#000000" opacity="0.08"/><rect x="0" y="156" width="1280" height="1" fill="#000000" opacity="0.08"/><rect x="0" y="160" width="1280" height="1" fill="#000000" opacity="0.08"/><rect x="0" y="164" width="1280" height="1" fill="#000000" opacity="0.08"/><rect x="0" y="168" width="1280" height="1" fill="#000000" opacity="0.08"/><rect x="0" y="172" width="1280" height="1" fill="#000000" opacity="0.08"/><rect x="0" y="176" width="1280" height="1" fill="#000000" opacity="0.08"/><rect x="0" y="180" width="1280" height="1" fill="#000000" opacity="0.08"/><rect x="0" y="184" width="1280" height="1" fill="#000000" opacity="0.08"/><rect x="0" y="188" width="1280" height="1" fill="#000000" opacity="0.08"/><rect x="0" y="192" width="1280" height="1" fill="#000000" opacity="0.08"/><rect x="0" y="196" width="1280" height="1" fill="#000000" opacity="0.08"/><rect x="0" y="200" width="1280" height="1" fill="#000000" opacity="0.08"/><rect x="0" y="204" width="1280" height="1" fill="#000000" opacity="0.08"/><rect x="0" y="208" width="1280" height="1" fill="#000000" opacity="0.08"/><rect x="0" y="212" width="1280" height="1" fill="#000000" opacity="0.08"/><rect x="0" y="216" width="1280" height="1" fill="#000000" opacity="0.08"/><rect x="0" y="220" width="1280" height="1" fill="#000000" opacity="0.08"/><rect x="0" y="224" width="1280" height="1" fill="#000000" opacity="0.08"/><rect x="0" y="228" width="1280" height="1" fill="#000000" opacity="0.08"/><rect x="0" y="232" width="1280" height="1" fill="#000000" opacity="0.08"/><rect x="0" y="236" width="1280" height="1" fill="#000000" opacity="0.08"/><rect x="0" y="240" width="1280" height="1" fill="#000000" opacity="0.08"/><rect x="0" y="244" width="1280" height="1" fill="#000000" opacity="0.08"/><rect x="0" y="248" width="1280" height="1" fill="#000000" opacity="0.08"/><rect x="0" y="252" width="1280" height="1" fill="#000000" opacity="0.08"/><rect x="0" y="256" width="1280" height="1" fill="#000000" opacity="0.08"/><rect x="0" y="260" width="1280" height="1" fill="#000000" opacity="0.08"/><rect x="0" y="264" width="1280" height="1" fill="#000000" opacity="0.08"/><rect x="0" y="268" width="1280" height="1" fill="#000000" opacity="0.08"/><rect x="0" y="272" width="1280" height="1" fill="#000000" opacity="0.08"/><rect x="0" y="276" width="1280" height="1" fill="#000000" opacity="0.08"/><rect x="0" y="280" width="1280" height="1" fill="#000000" opacity="0.08"/><rect x="0" y="284" width="1280" height="1" fill="#000000" opacity="0.08"/><rect x="0" y="288" width="1280" height="1" fill="#000000" opacity="0.08"/><rect x="0" y="292" width="1280" height="1" fill="#000000" opacity="0.08"/><rect x="0" y="296" width="1280" height="1" fill="#000000" opacity="0.08"/><rect x="0" y="300" width="1280" height="1" fill="#000000" opacity="0.08"/><rect x="0" y="304" width="1280" height="1" fill="#000000" opacity="0.08"/><rect x="0" y="308" width="1280" height="1" fill="#000000" opacity="0.08"/><rect x="0" y="312" width="1280" height="1" fill="#000000" opacity="0.08"/><rect x="0" y="316" width="1280" height="1" fill="#000000" opacity="0.08"/><rect x="0" y="320" width="1280" height="1" fill="#000000" opacity="0.08"/><rect x="0" y="324" width="1280" height="1" fill="#000000" opacity="0.08"/><rect x="0" y="328" width="1280" height="1" fill="#000000" opacity="0.08"/><rect x="0" y="332" width="1280" height="1" fill="#000000" opacity="0.08"/><rect x="0" y="336" width="1280" height="1" fill="#000000" opacity="0.08"/><rect x="0" y="340" width="1280" height="1" fill="#000000" opacity="0.08"/><rect x="0" y="344" width="1280" height="1" fill="#000000" opacity="0.08"/><rect x="0" y="348" width="1280" height="1" fill="#000000" opacity="0.08"/><rect x="0" y="352" width="1280" height="1" fill="#000000" opacity="0.08"/><rect x="0" y="356" width="1280" height="1" fill="#000000" opacity="0.08"/><rect x="0" y="360" width="1280" height="1" fill="#000000" opacity="0.08"/><rect x="0" y="364" width="1280" height="1" fill="#000000" opacity="0.08"/><rect x="0" y="368" width="1280" height="1" fill="#000000" opacity="0.08"/><rect x="0" y="372" width="1280" height="1" fill="#000000" opacity="0.08"/><rect x="0" y="376" width="1280" height="1" fill="#000000" opacity="0.08"/><rect x="0" y="380" width="1280" height="1" fill="#000000" opacity="0.08"/><rect x="0" y="384" width="1280" height="1" fill="#000000" opacity="0.08"/><rect x="0" y="388" width="1280" height="1" fill="#000000" opacity="0.08"/><rect x="0" y="392" width="1280" height="1" fill="#000000" opacity="0.08"/><rect x="0" y="396" width="1280" height="1" fill="#000000" opacity="0.08"/><rect x="0" y="400" width="1280" height="1" fill="#000000" opacity="0.08"/><rect x="0" y="404" width="1280" height="1" fill="#000000" opacity="0.08"/><rect x="0" y="408" width="1280" height="1" fill="#000000" opacity="0.08"/><rect x="0" y="412" width="1280" height="1" fill="#000000" opacity="0.08"/><rect x="0" y="416" width="1280" height="1" fill="#000000" opacity="0.08"/><rect x="0" y="420" width="1280" height="1" fill="#000000" opacity="0.08"/><rect x="0" y="424" width="1280" height="1" fill="#000000" opacity="0.08"/><rect x="0" y="428" width="1280" height="1" fill="#000000" opacity="0.08"/><rect x="0" y="432" width="1280" height="1" fill="#000000" opacity="0.08"/><rect x="0" y="436" width="1280" height="1" fill="#000000" opacity="0.08"/><rect x="0" y="440" width="1280" height="1" fill="#000000" opacity="0.08"/><rect x="0" y="444" width="1280" height="1" fill="#000000" opacity="0.08"/><rect x="0" y="448" width="1280" height="1" fill="#000000" opacity="0.08"/><rect x="0" y="452" width="1280" height="1" fill="#000000" opacity="0.08"/><rect x="0" y="456" width="1280" height="1" fill="#000000" opacity="0.08"/><rect x="0" y="460" width="1280" height="1" fill="#000000" opacity="0.08"/><rect x="0" y="464" width="1280" height="1" fill="#000000" opacity="0.08"/><rect x="0" y="468" width="1280" height="1" fill="#000000" opacity="0.08"/><rect x="0" y="472" width="1280" height="1" fill="#000000" opacity="0.08"/><rect x="0" y="476" width="1280" height="1" fill="#000000" opacity="0.08"/><rect x="0" y="480" width="1280" height="1" fill="#000000" opacity="0.08"/><rect x="0" y="484" width="1280" height="1" fill="#000000" opacity="0.08"/><rect x="0" y="488" width="1280" height="1" fill="#000000" opacity="0.08"/><rect x="0" y="492" width="1280" height="1" fill="#000000" opacity="0.08"/><rect x="0" y="496" width="1280" height="1" fill="#000000" opacity="0.08"/><rect x="0" y="500" width="1280" height="1" fill="#000000" opacity="0.08"/><rect x="0" y="504" width="1280" height="1" fill="#000000" opacity="0.08"/><rect x="0" y="508" width="1280" height="1" fill="#000000" opacity="0.08"/><rect x="0" y="512" width="1280" height="1" fill="#000000" opacity="0.08"/><rect x="0" y="516" width="1280" height="1" fill="#000000" opacity="0.08"/><rect x="0" y="520" width="1280" height="1" fill="#000000" opacity="0.08"/><rect x="0" y="524" width="1280" height="1" fill="#000000" opacity="0.08"/><rect x="0" y="528" width="1280" height="1" fill="#000000" opacity="0.08"/><rect x="0" y="532" width="1280" height="1" fill="#000000" opacity="0.08"/><rect x="0" y="536" width="1280" height="1" fill="#000000" opacity="0.08"/><rect x="0" y="540" width="1280" height="1" fill="#000000" opacity="0.08"/><rect x="0" y="544" width="1280" height="1" fill="#000000" opacity="0.08"/><rect x="0" y="548" width="1280" height="1" fill="#000000" opacity="0.08"/><rect x="0" y="552" width="1280" height="1" fill="#000000" opacity="0.08"/><rect x="0" y="556" width="1280" height="1" fill="#000000" opacity="0.08"/><rect x="0" y="560" width="1280" height="1" fill="#000000" opacity="0.08"/><rect x="0" y="564" width="1280" height="1" fill="#000000" opacity="0.08"/><rect x="0" y="568" width="1280" height="1" fill="#000000" opacity="0.08"/><rect x="0" y="572" width="1280" height="1" fill="#000000" opacity="0.08"/><rect x="0" y="576" width="1280" height="1" fill="#000000" opacity="0.08"/><rect x="0" y="580" width="1280" height="1" fill="#000000" opacity="0.08"/><rect x="0" y="584" width="1280" height="1" fill="#000000" opacity="0.08"/><rect x="0" y="588" width="1280" height="1" fill="#000000" opacity="0.08"/><rect x="0" y="592" width="1280" height="1" fill="#000000" opacity="0.08"/><rect x="0" y="596" width="1280" height="1" fill="#000000" opacity="0.08"/><rect x="0" y="600" width="1280" height="1" fill="#000000" opacity="0.08"/><rect x="0" y="604" width="1280" height="1" fill="#000000" opacity="0.08"/><rect x="0" y="608" width="1280" height="1" fill="#000000" opacity="0.08"/><rect x="0" y="612" width="1280" height="1" fill="#000000" opacity="0.08"/><rect x="0" y="616" width="1280" height="1" fill="#000000" opacity="0.08"/><rect x="0" y="620" width="1280" height="1" fill="#000000" opacity="0.08"/><rect x="0" y="624" width="1280" height="1" fill="#000000" opacity="0.08"/><rect x="0" y="628" width="1280" height="1" fill="#000000" opacity="0.08"/><rect x="0" y="632" width="1280" height="1" fill="#000000" opacity="0.08"/><rect x="0" y="636" width="1280" height="1" fill="#000000" opacity="0.08"/><rect x="0" y="640" width="1280" height="1" fill="#000000" opacity="0.08"/><rect x="0" y="644" width="1280" height="1" fill="#000000" opacity="0.08"/><rect x="0" y="648" width="1280" height="1" fill="#000000" opacity="0.08"/><rect x="0" y="652" width="1280" height="1" fill="#000000" opacity="0.08"/><rect x="0" y="656" width="1280" height="1" fill="#000000" opacity="0.08"/><rect x="0" y="660" width="1280" height="1" fill="#000000" opacity="0.08"/><rect x="0" y="664" width="1280" height="1" fill="#000000" opacity="0.08"/><rect x="0" y="668" width="1280" height="1" fill="#000000" opacity="0.08"/><rect x="0" y="672" width="1280" height="1" fill="#000000" opacity="0.08"/><rect x="0" y="676" width="1280" height="1" fill="#000000" opacity="0.08"/><rect x="0" y="680" width="1280" height="1" fill="#000000" opacity="0.08"/><rect x="0" y="684" width="1280" height="1" fill="#000000" opacity="0.08"/><rect x="0" y="688" width="1280" height="1" fill="#000000" opacity="0.08"/><rect x="0" y="692" width="1280" height="1" fill="#000000" opacity="0.08"/><rect x="0" y="696" width="1280" height="1" fill="#000000" opacity="0.08"/><rect x="0" y="700" width="1280" height="1" fill="#000000" opacity="0.08"/><rect x="0" y="704" width="1280" height="1" fill="#000000" opacity="0.08"/><rect x="0" y="708" width="1280" height="1" fill="#000000" opacity="0.08"/><rect x="0" y="712" width="1280" height="1" fill="#000000" opacity="0.08"/><rect x="0" y="716" width="1280" height="1" fill="#000000" opacity="0.08"/>
</svg>