<?xml version="1.0" encoding="UTF-8"?>
<svg xmlns="http://www.w3.org/2000/svg" width="1280" height="720" viewBox="0 0 1280 720" shape-rendering="crispEdges">
<rect x="0" y="0" width="1280" height="720" fill="none" opacity="0"/><rect x="0" y="0" width="1280" height="10" fill="#79afd2" opacity="0.14"/><rect x="0" y="710" width="1280" height="10" fill="#79afd2" opacity="0.14"/><rect x="0" y="0" width="10" height="720" fill="#79afd2" opacity="0.1"/><rect x="1270" y="0" width="10" height="720" fill="#79afd2" opacity="0.1"/><rect x="18" y="18" width="92" height="10" fill="#79afd2" opacity="0.5"/><rect x="18" y="18" width="10" height="72" fill="#79afd2" opacity="0.5"/><rect x="1170" y="18" width="92" height="10" fill="#79afd2" opacity="0.5"/><rect x="1252" y="18" width="10" height="72" fill="#79afd2" opacity="0.5"/><rect x="18" y="692" width="92" height="10" fill="#79afd2" opacity="0.5"/><rect x="18" y="630" width="10" height="72" fill="#79afd2" opacity="0.5"/><rect x="1170" y="692" width="92" height="10" fill="#79afd2" opacity="0.5"/><rect x="1252" y="630" width="10" height="72" fill="#79afd2" opacity="0.5"/><rect x="28" y="28" width="1224" height="664" fill="#172330" opacity="0.08"/><polygon points="160.5645890464961,192.56687940470707 918.1442007339512,253.17324833970343 914.635410953504,297.0331205952929 157.05579926604895,236.42675166029656" fill="#8ab7d3" opacity="0.14"/><polygon points="526.5722952655098,450.4703700577415 1165.4233963636082,488.8014361236274 1163.0277047344905,528.7296299422586 524.1766036363919,490.39856387637263" fill="#dedfd5" opacity="0.1"/><rect x="0" y="0" width="1280" height="96" fill="#0e1722" opacity="0.16"/><rect x="0" y="596" width="1280" height="124" fill="#0e1722" opacity="0.12"/><rect x="0" y="0" width="4" height="720" fill="#79afd2" opacity="0.035"/><rect x="16" y="0" width="4" height="720" fill="#79afd2" opacity="0.02"/><rect x="32" y="0" width="4" height="720" fill="#79afd2" opacity="0.035"/><rect x="48" y="0" width="4" height="720" fill="#79afd2" opacity="0.02"/><rect x="64" y="0" width="4" height="720" fill="#79afd2" opacity="0.035"/><rect x="80" y="0" width="4" height="720" fill="#79afd2" opacity="0.02"/><rect x="96" y="0" width="4" height="720" fill="#79afd2" opacity="0.035"/><rect x="112" y="0" width="4" height="720" fill="#79afd2" opacity="0.02"/><rect x="128" y="0" width="4" height="720" fill="#79afd2" opacity="0.035"/><rect x="144" y="0" width="4" height="720" fill="#79afd2" opacity="0.02"/><rect x="160" y="0" width="4" height="720" fill="#79afd2" opacity="0.035"/><rect x="176" y="0" width="4" height="720" fill="#79afd2" opacity="0.02"/><rect x="192" y="0" width="4" height="720" fill="#79afd2" opacity="0.035"/><rect x="208" y="0" width="4" height="720" fill="#79afd2" opacity="0.02"/><rect x="224" y="0" width="4" height="720" fill="#79afd2" opacity="0.035"/><rect x="240" y="0" width="4" height="720" fill="#79afd2" opacity="0.02"/><rect x="256" y="0" width="4" height="720" fill="#79afd2" opacity="0.035"/><rect x="272" y="0" width="4" height="720" fill="#79afd2" opacity="0.02"/><rect x="288" y="0" width="4" height="720" fill="#79afd2" opacity="0.035"/><rect x="304" y="0" width="4" height="720" fill="#79afd2" opacity="0.02"/><rect x="320" y="0" width="4" height="720" fill="#79afd2" opacity="0.035"/><rect x="336" y="0" width="4" height="720" fill="#79afd2" opacity="0.02"/><rect x="352" y="0" width="4" height="720" fill="#79afd2" opacity="0.035"/><rect x="368" y="0" width="4" height="720" fill="#79afd2" opacity="0.02"/><rect x="384" y="0" width="4" height="720" fill="#79afd2" opacity="0.035"/><rect x="400" y="0" width="4" height="720" fill="#79afd2" opacity="0.02"/><rect x="416" y="0" width="4" height="720" fill="#79afd2" opacity="0.035"/><rect x="432" y="0" width="4" height="720" fill="#79afd2" opacity="0.02"/><rect x="448" y="0" width="4" height="720" fill="#79afd2" opacity="0.035"/><rect x="464" y="0" width="4" height="720" fill="#79afd2" opacity="0.02"/><rect x="480" y="0" width="4" height="720" fill="#79afd2" opacity="0.035"/><rect x="496" y="0" width="4" height="720" fill="#79afd2" opacity="0.02"/><rect x="512" y="0" width="4" height="720" fill="#79afd2" opacity="0.035"/><rect x="528" y="0" width="4" height="720" fill="#79afd2" opacity="0.02"/><rect x="544" y="0" width="4" height="720" fill="#79afd2" opacity="0.035"/><rect x="560" y="0" width="4" height="720" fill="#79afd2" opacity="0.02"/><rect x="576" y="0" width="4" height="720" fill="#79afd2" opacity="0.035"/><rect x="592" y="0" width="4" height="720" fill="#79afd2" opacity="0.02"/><rect x="608" y="0" width="4" height="720" fill="#79afd2" opacity="0.035"/><rect x="624" y="0" width="4" height="720" fill="#79afd2" opacity="0.02"/><rect x="640" y="0" width="4" height="720" fill="#79afd2" opacity="0.035"/><rect x="656" y="0" width="4" height="720" fill="#79afd2" opacity="0.02"/><rect x="672" y="0" width="4" height="720" fill="#79afd2" opacity="0.035"/><rect x="688" y="0" width="4" height="720" fill="#79afd2" opacity="0.02"/><rect x="704" y="0" width="4" height="720" fill="#79afd2" opacity="0.035"/><rect x="720" y="0" width="4" height="720" fill="#79afd2" opacity="0.02"/><rect x="736" y="0" width="4" height="720" fill="#79afd2" opacity="0.035"/><rect x="752" y="0" width="4" height="720" fill="#79afd2" opacity="0.02"/><rect x="768" y="0" width="4" height="720" fill="#79afd2" opacity="0.035"/><rect x="784" y="0" width="4" height="720" fill="#79afd2" opacity="0.02"/><rect x="800" y="0" width="4" height="720" fill="#79afd2" opacity="0.035"/><rect x="816" y="0" width="4" height="720" fill="#79afd2" opacity="0.02"/><rect x="832" y="0" width="4" height="720" fill="#79afd2" opacity="0.035"/><rect x="848" y="0" width="4" height="720" fill="#79afd2" opacity="0.02"/><rect x="864" y="0" width="4" height="720" fill="#79afd2" opacity="0.035"/><rect x="880" y="0" width="4" height="720" fill="#79afd2" opacity="0.02"/><rect x="896" y="0" width="4" height="720" fill="#79afd2" opacity="0.035"/><rect x="912" y="0" width="4" height="720" fill="#79afd2" opacity="0.02"/><rect x="928" y="0" width="4" height="720" fill="#79afd2" opacity="0.035"/><rect x="944" y="0" width="4" height="720" fill="#79afd2" opacity="0.02"/><rect x="960" y="0" width="4" height="720" fill="#79afd2" opacity="0.035"/><rect x="976" y="0" width="4" height="720" fill="#79afd2" opacity="0.02"/><rect x="992" y="0" width="4" height="720" fill="#79afd2" opacity="0.035"/><rect x="1008" y="0" width="4" height="720" fill="#79afd2" opacity="0.02"/><rect x="1024" y="0" width="4" height="720" fill="#79afd2" opacity="0.035"/><rect x="1040" y="0" width="4" height="720" fill="#79afd2" opacity="0.02"/><rect x="1056" y="0" width="4" height="720" fill="#79afd2" opacity="0.035"/><rect x="1072" y="0" width="4" height="720" fill="#79afd2" opacity="0.02"/><rect x="1088" y="0" width="4" height="720" fill="#79afd2" opacity="0.035"/><rect x="1104" y="0" width="4" height="720" fill="#79afd2" opacity="0.02"/><rect x="1120" y="0" width="4" height="720" fill="#79afd2" opacity="0.035"/><rect x="1136" y="0" width="4" height="720" fill="#79afd2" opacity="0.02"/><rect x="1152" y="0" width="4" height="720" fill="#79afd2" opacity="0.035"/><rect x="1168" y="0" width="4" height="720" fill="#79afd2" opacity="0.02"/><rect x="1184" y="0" width="4" height="720" fill="#79afd2" opacity="0.035"/><rect x="1200" y="0" width="4" height="720" fill="#79afd2" opacity="0.02"/><rect x="1216" y="0" width="4" height="720" fill="#79afd2" opacity="0.035"/><rect x="1232" y="0" width="4" height="720" fill="#79afd2" opacity="0.02"/><rect x="1248" y="0" width="4" height="720" fill="#79afd2" opacity="0.035"/><rect x="1264" y="0" width="4" height="720" fill="#79afd2" opacity="0.02"/><rect x="909" y="600" width="9" height="9" fill="#8fb9d3" opacity="0.2796352"/><rect x="922" y="602" width="7" height="2" fill="#79afd2" opacity="0.2077312"/><rect x="899" y="613" width="27" height="2" fill="#dbded5" opacity="0.16758299999999998"/><rect x="76" y="93" width="12" height="12" fill="#8fb9d3" opacity="0.312982"/><rect x="92" y="95" width="10" height="2" fill="#79afd2" opacity="0.22362479999999998"/><rect x="66" y="109" width="30" height="2" fill="#dbded5" opacity="0.16583219999999999"/><rect x="115" y="501" width="6" height="6" fill="#8fb9d3" opacity="0.2542936"/><rect x="125" y="503" width="4" height="2" fill="#79afd2" opacity="0.1855568"/><rect x="105" y="511" width="24" height="2" fill="#dbded5" opacity="0.12389639999999999"/><rect x="1054" y="677" width="12" height="12" fill="#8fb9d3" opacity="0.2817496"/><rect x="1070" y="679" width="10" height="2" fill="#79afd2" opacity="0.1887144"/><rect x="1044" y="693" width="30" height="2" fill="#dbded5" opacity="0.1669566"/><rect x="813" y="348" width="13" height="13" fill="#8fb9d3" opacity="0.2936428"/><rect x="830" y="350" width="11" height="2" fill="#79afd2" opacity="0.2269736"/><rect x="803" y="365" width="31" height="2" fill="#dbded5" opacity="0.1475964"/><rect x="370" y="498" width="7" height="7" fill="#8fb9d3" opacity="0.3179932"/><rect x="381" y="500" width="5" height="2" fill="#79afd2" opacity="0.2008384"/><rect x="360" y="509" width="25" height="2" fill="#dbded5" opacity="0.163929"/><rect x="1162" y="295" width="10" height="10" fill="#8fb9d3" opacity="0.2309344"/><rect x="1176" y="297" width="8" height="2" fill="#79afd2" opacity="0.2409872"/><rect x="1152" y="309" width="28" height="2" fill="#dbded5" opacity="0.1671096"/><rect x="762" y="462" width="6" height="6" fill="#8fb9d3" opacity="0.3032128"/><rect x="772" y="464" width="4" height="2" fill="#79afd2" opacity="0.2506416"/><rect x="752" y="472" width="24" height="2" fill="#dbded5" opacity="0.15568859999999998"/><rect x="940" y="440" width="8" height="8" fill="#8fb9d3" opacity="0.2380432"/><rect x="952" y="442" width="6" height="2" fill="#79afd2" opacity="0.2169256"/><rect x="930" y="452" width="26" height="2" fill="#dbded5" opacity="0.1582812"/><rect x="644" y="220" width="6" height="6" fill="#8fb9d3" opacity="0.31982920000000004"/><rect x="654" y="222" width="4" height="2" fill="#79afd2" opacity="0.244996"/><rect x="634" y="230" width="24" height="2" fill="#dbded5" opacity="0.17407499999999998"/><rect x="330" y="404" width="8" height="8" fill="#8fb9d3" opacity="0.3246064"/><rect x="342" y="406" width="6" height="2" fill="#79afd2" opacity="0.2448848"/><rect x="320" y="416" width="26" height="2" fill="#dbded5" opacity="0.145185"/><rect x="1136" y="359" width="9" height="9" fill="#8fb9d3" opacity="0.2609104"/><rect x="1149" y="361" width="7" height="2" fill="#79afd2" opacity="0.1921224"/><rect x="1126" y="372" width="27" height="2" fill="#dbded5" opacity="0.1758078"/><rect x="873" y="474" width="13" height="13" fill="#8fb9d3" opacity="0.2325904"/><rect x="890" y="476" width="11" height="2" fill="#79afd2" opacity="0.2213872"/><rect x="863" y="491" width="31" height="2" fill="#dbded5" opacity="0.1326558"/><rect x="1051" y="271" width="14" height="14" fill="#8fb9d3" opacity="0.318676"/><rect x="1069" y="273" width="12" height="2" fill="#79afd2" opacity="0.2463152"/><rect x="1041" y="289" width="32" height="2" fill="#dbded5" opacity="0.1534698"/><rect x="723" y="645" width="12" height="12" fill="#8fb9d3" opacity="0.30264040000000003"/><rect x="739" y="647" width="10" height="2" fill="#79afd2" opacity="0.19798159999999998"/><rect x="713" y="661" width="30" height="2" fill="#dbded5" opacity="0.1586454"/><rect x="403" y="369" width="6" height="6" fill="#8fb9d3" opacity="0.333118"/><rect x="413" y="371" width="4" height="2" fill="#79afd2" opacity="0.184564"/><rect x="393" y="379" width="24" height="2" fill="#dbded5" opacity="0.1411116"/><rect x="931" y="411" width="7" height="7" fill="#8fb9d3" opacity="0.30329439999999996"/><rect x="942" y="413" width="5" height="2" fill="#79afd2" opacity="0.18127279999999998"/><rect x="921" y="422" width="25" height="2" fill="#dbded5" opacity="0.1404828"/><rect x="218" y="470" width="9" height="9" fill="#8fb9d3" opacity="0.283426"/><rect x="231" y="472" width="7" height="2" fill="#79afd2" opacity="0.2586656"/><rect x="208" y="483" width="27" height="2" fill="#dbded5" opacity="0.1588416"/><rect x="0" y="0" width="1280" height="1" fill="#000000" opacity="0.08"/><rect x="0" y="4" width="1280" height="1" fill="#000000" opacity="0.08"/><rect x="0" y="8" width="1280" height="1" fill="#000000" opacity="0.08"/><rect x="0" y="12" width="1280" height="1" fill="#000000" opacity="0.08"/><rect x="0" y="16" width="1280" height="1" fill="#000000" opacity="0.08"/><rect x="0" y="20" width="1280" height="1" fill="#000000" opacity="0.08"/><rect x="0" y="24" width="1280" height="1" fill="#000000" opacity="0.08"/><rect x="0" y="28" width="1280" height="1" fill="#000000" opacity="0.08"/><rect x="0" y="32" width="1280" height="1" fill="#000000" opacity="0.08"/><rect x="0" y="36" width="1280" height="1" fill="#000000" opacity="0.08"/><rect x="0" y="40" width="1280" height="1" fill="#000000" opacity="0.08"/><rect x="0" y="44" width="1280" height="1" fill="#000000" opacity="0.08"/><rect x="0" y="48" width="1280" height="1" fill="#000000" opacity="0.08"/><rect x="0" y="52" width="1280" height="1" fill="#000000" opacity="0.08"/><rect x="0" y="56" width="1280" height="1" fill="#000000" opacity="0.08"/><rect x="0" y="60" width="1280" height="1" fill="#000000" opacity="0.08"/><rect x="0" y="64" width="1280" height="1" fill="#000000" opacity="0.08"/><rect x="0" y="68" width="1280" height="1" fill="#000000" opacity="0.08"/><rect x="0" y="72" width="1280" height="1" fill="#000000" opacity="0.08"/><rect x="0" y="76" width="1280" height="1" fill="#000000" opacity="0.08"/><rect x="0" y="80" width="1280" height="1" fill="#000000" opacity="0.08"/><rect x="0" y="84" width="1280" height="1" fill="#000000" opacity="0.08"/><rect x="0" y="88" width="1280" height="1" fill="#000000" opacity="0.08"/><rect x="0" y="92" width="1280" height="1" fill="#000000" opacity="0.08"/><rect x="0" y="96" width="1280" height="1" fill="#000000" opacity="0.08"/><rect x="0" y="100" width="1280" height="1" fill="#000000" opacity="0.08"/><rect x="0" y="104" width="1280" height="1" fill="#000000" opacity="0.08"/><rect x="0" y="108" width="1280" height="1" fill="#000000" opacity="0.08"/><rect x="0" y="112" width="1280" height="1" fill="#000000" opacity="0.08"/><rect x="0" y="116" width="1280" height="1" fill="#000000" opacity="0.08"/><rect x="0" y="120" width="1280" height="1" fill="#000000" opacity="0.08"/><rect x="0" y="124" width="1280" height="1" fill="#000000" opacity="0.08"/><rect x="0" y="128" width="1280" height="1" fill="#000000" opacity="0.08"/><rect x="0" y="132" width="1280" height="1" fill="#000000" opacity="0.08"/><rect x="0" y="136" width="1280" height="1" fill="#000000" opacity="0.08"/><rect x="0" y="140" width="1280" height="1" fill="#000000" opacity="0.08"/><rect x="0" y="144" width="1280" height="1" fill="#000000" opacity="0.08"/><rect x="0" y="148" width="1280" height="1" fill="#000000" opacity="0.08"/><rect x="0" y="152" width="1280" height="1" fill="#000000" opacity="0.08"/><rect x="0" y="156" width="1280" height="1" fill="#000000" opacity="0.08"/><rect x="0" y="160" width="1280" height="1" fill="#000000" opacity="0.08"/><rect x="0" y="164" width="1280" height="1" fill="#000000" opacity="0.08"/><rect x="0" y="168" width="1280" height="1" fill="#000000" opacity="0.08"/><rect x="0" y="172" width="1280" height="1" fill="#000000" opacity="0.08"/><rect x="0" y="176" width="1280" height="1" fill="#000000" opacity="0.08"/><rect x="0" y="180" width="1280" height="1" fill="#000000" opacity="0.08"/><rect x="0" y="184" width="1280" height="1" fill="#000000" opacity="0.08"/><rect x="0" y="188" width="1280" height="1" fill="#000000" opacity="0.08"/><rect x="0" y="192" width="1280" height="1" fill="#000000" opacity="0.08"/><rect x="0" y="196" width="1280" height="1" fill="#000000" opacity="0.08"/><rect x="0" y="200" width="1280" height="1" fill="#000000" opacity="0.08"/><rect x="0" y="204" width="1280" height="1" fill="#000000" opacity="0.08"/><rect x="0" y="208" width="1280" height="1" fill="#000000" opacity="0.08"/><rect x="0" y="212" width="1280" height="1" fill="#000000" opacity="0.08"/><rect x="0" y="216" width="1280" height="1" fill="#000000" opacity="0.08"/><rect x="0" y="220" width="1280" height="1" fill="#000000" opacity="0.08"/><rect x="0" y="224" width="1280" height="1" fill="#000000" opacity="0.08"/><rect x="0" y="228" width="1280" height="1" fill="#000000" opacity="0.08"/><rect x="0" y="232" width="1280" height="1" fill="#000000" opacity="0.08"/><rect x="0" y="236" width="1280" height="1" fill="#000000" opacity="0.08"/><rect x="0" y="240" width="1280" height="1" fill="#000000" opacity="0.08"/><rect x="0" y="244" width="1280" height="1" fill="#000000" opacity="0.08"/><rect x="0" y="248" width="1280" height="1" fill="#000000" opacity="0.08"/><rect x="0" y="252" width="1280" height="1" fill="#000000" opacity="0.08"/><rect x="0" y="256" width="1280" height="1" fill="#000000" opacity="0.08"/><rect x="0" y="260" width="1280" height="1" fill="#000000" opacity="0.08"/><rect x="0" y="264" width="1280" height="1" fill="#000000" opacity="0.08"/><rect x="0" y="268" width="1280" height="1" fill="#000000" opacity="0.08"/><rect x="0" y="272" width="1280" height="1" fill="#000000" opacity="0.08"/><rect x="0" y="276" width="1280" height="1" fill="#000000" opacity="0.08"/><rect x="0" y="280" width="1280" height="1" fill="#000000" opacity="0.08"/><rect x="0" y="284" width="1280" height="1" fill="#000000" opacity="0.08"/><rect x="0" y="288" width="1280" height="1" fill="#000000" opacity="0.08"/><rect x="0" y="292" width="1280" height="1" fill="#000000" opacity="0.08"/><rect x="0" y="296" width="1280" height="1" fill="#000000" opacity="0.08"/><rect x="0" y="300" width="1280" height="1" fill="#000000" opacity="0.08"/><rect x="0" y="304" width="1280" height="1" fill="#000000" opacity="0.08"/><rect x="0" y="308" width="1280" height="1" fill="#000000" opacity="0.08"/><rect x="0" y="312" width="1280" height="1" fill="#000000" opacity="0.08"/><rect x="0" y="316" width="1280" height="1" fill="#000000" opacity="0.08"/><rect x="0" y="320" width="1280" height="1" fill="#000000" opacity="0.08"/><rect x="0" y="324" width="1280" height="1" fill="#000000" opacity="0.08"/><rect x="0" y="328" width="1280" height="1" fill="#000000" opacity="0.08"/><rect x="0" y="332" width="1280" height="1" fill="#000000" opacity="0.08"/><rect x="0" y="336" width="1280" height="1" fill="#000000" opacity="0.08"/><rect x="0" y="340" width="1280" height="1" fill="#000000" opacity="0.08"/><rect x="0" y="344" width="1280" height="1" fill="#000000" opacity="0.08"/><rect x="0" y="348" width="1280" height="1" fill="#000000" opacity="0.08"/><rect x="0" y="352" width="1280" height="1" fill="#000000" opacity="0.08"/><rect x="0" y="356" width="1280" height="1" fill="#000000" opacity="0.08"/><rect x="0" y="360" width="1280" height="1" fill="#000000" opacity="0.08"/><rect x="0" y="364" width="1280" height="1" fill="#000000" opacity="0.08"/><rect x="0" y="368" width="1280" height="1" fill="#000000" opacity="0.08"/><rect x="0" y="372" width="1280" height="1" fill="#000000" opacity="0.08"/><rect x="0" y="376" width="1280" height="1" fill="#000000" opacity="0.08"/><rect x="0" y="380" width="1280" height="1" fill="#000000" opacity="0.08"/><rect x="0" y="384" width="1280" height="1" fill="#000000" opacity="0.08"/><rect x="0" y="388" width="1280" height="1" fill="#000000" opacity="0.08"/><rect x="0" y="392" width="1280" height="1" fill="#000000" opacity="0.08"/><rect x="0" y="396" width="1280" height="1" fill="#000000" opacity="0.08"/><rect x="0" y="400" width="1280" height="1" fill="#000000" opacity="0.08"/><rect x="0" y="404" width="1280" height="1" fill="#000000" opacity="0.08"/><rect x="0" y="408" width="1280" height="1" fill="#000000" opacity="0.08"/><rect x="0" y="412" width="1280" height="1" fill="#000000" opacity="0.08"/><rect x="0" y="416" width="1280" height="1" fill="#000000" opacity="0.08"/><rect x="0" y="420" width="1280" height="1" fill="#000000" opacity="0.08"/><rect x="0" y="424" width="1280" height="1" fill="#000000" opacity="0.08"/><rect x="0" y="428" width="1280" height="1" fill="#000000" opacity="0.08"/><rect x="0" y="432" width="1280" height="1" fill="#000000" opacity="0.08"/><rect x="0" y="436" width="1280" height="1" fill="#000000" opacity="0.08"/><rect x="0" y="440" width="1280" height="1" fill="#000000" opacity="0.08"/><rect x="0" y="444" width="1280" height="1" fill="#000000" opacity="0.08"/><rect x="0" y="448" width="1280" height="1" fill="#000000" opacity="0.08"/><rect x="0" y="452" width="1280" height="1" fill="#000000" opacity="0.08"/><rect x="0" y="456" width="1280" height="1" fill="#000000" opacity="0.08"/><rect x="0" y="460" width="1280" height="1" fill="#000000" opacity="0.08"/><rect x="0" y="464" width="1280" height="1" fill="#000000" opacity="0.08"/><rect x="0" y="468" width="1280" height="1" fill="#000000" opacity="0.08"/><rect x="0" y="472" width="1280" height="1" fill="#000000" opacity="0.08"/><rect x="0" y="476" width="1280" height="1" fill="#000000" opacity="0.08"/><rect x="0" y="480" width="1280" height="1" fill="#000000" opacity="0.08"/><rect x="0" y="484" width="1280" height="1" fill="#000000" opacity="0.08"/><rect x="0" y="488" width="1280" height="1" fill="#000000" opacity="0.08"/><rect x="0" y="492" width="1280" height="1" fill="#000000" opacity="0.08"/><rect x="0" y="496" width="1280" height="1" fill="#000000" opacity="0.08"/><rect x="0" y="500" width="1280" height="1" fill="#000000" opacity="0.08"/><rect x="0" y="504" width="1280" height="1" fill="#000000" opacity="0.08"/><rect x="0" y="508" width="1280" height="1" fill="#000000" opacity="0.08"/><rect x="0" y="512" width="1280" height="1" fill="#000000" opacity="0.08"/><rect x="0" y="516" width="1280" height="1" fill="#000000" opacity="0.08"/><rect x="0" y="520" width="1280" height="1" fill="#000000" opacity="0.08"/><rect x="0" y="524" width="1280" height="1" fill="#000000" opacity="0.08"/><rect x="0" y="528" width="1280" height="1" fill="#000000" opacity="0.08"/><rect x="0" y="532" width="1280" height="1" fill="#000000" opacity="0.08"/><rect x="0" y="536" width="1280" height="1" fill="#000000" opacity="0.08"/><rect x="0" y="540" width="1280" height="1" fill="#000000" opacity="0.08"/><rect x="0" y="544" width="1280" height="1" fill="#000000" opacity="0.08"/><rect x="0" y="548" width="1280" height="1" fill="#000000" opacity="0.08"/><rect x="0" y="552" width="1280" height="1" fill="#000000" opacity="0.08"/><rect x="0" y="556" width="1280" height="1" fill="#000000" opacity="0.08"/><rect x="0" y="560" width="1280" height="1" fill="#000000" opacity="0.08"/><rect x="0" y="564" width="1280" height="1" fill="#000000" opacity="0.08"/><rect x="0" y="568" width="1280" height="1" fill="#000000" opacity="0.08"/><rect x="0" y="572" width="1280" height="1" fill="#000000" opacity="0.08"/><rect x="0" y="576" width="1280" height="1" fill="#000000" opacity="0.08"/><rect x="0" y="580" width="1280" height="1" fill="#000000" opacity="0.08"/><rect x="0" y="584" width="1280" height="1" fill="#000000" opacity="0.08"/><rect x="0" y="588" width="1280" height="1" fill="#000000" opacity="0.08"/><rect x="0" y="592" width="1280" height="1" fill="#000000" opacity="0.08"/><rect x="0" y="596" width="1280" height="1" fill="#000000" opacity="0.08"/><rect x="0" y="600" width="1280" height="1" fill="#000000" opacity="0.08"/><rect x="0" y="604" width="1280" height="1" fill="#000000" opacity="0.08"/><rect x="0" y="608" width="1280" height="1" fill="#000000" opacity="0.08"/><rect x="0" y="612" width="1280" height="1" fill="#000000" opacity="0.08"/><rect x="0" y="616" width="1280" height="1" fill="#000000" opacity="0.08"/><rect x="0" y="620" width="1280" height="1" fill="#000000" opacity="0.08"/><rect x="0" y="624" width="1280" height="1" fill="#000000" opacity="0.08"/><rect x="0" y="628" width="1280" height="1" fill="#000000" opacity="0.08"/><rect x="0" y="632" width="1280" height="1" fill="#000000" opacity="0.08"/><rect x="0" y="636" width="1280" height="1" fill="#000000" opacity="0.08"/><rect x="0" y="640" width="1280" height="1" fill="#000000" opacity="0.08"/><rect x="0" y="644" width="1280" height="1" fill="#000000" opacity="0.08"/><rect x="0" y="648" width="1280" height="1" fill="#000000" opacity="0.08"/><rect x="0" y="652" width="1280" height="1" fill="#000000" opacity="0.08"/><rect x="0" y="656" width="1280" height="1" fill="#000000" opacity="0.08"/><rect x="0" y="660" width="1280" height="1" fill="#000000" opacity="0.08"/><rect x="0" y="664" width="1280" height="1" fill="#000000" opacity="0.08"/><rect x="0" y="668" width="1280" height="1" fill="#000000" opacity="0.08"/><rect x="0" y="672" width="1280" height="1" fill="#000000" opacity="0.08"/><rect x="0" y="676" width="1280" height="1" fill="#000000" opacity="0.08"/><rect x="0" y="680" width="1280" height="1" fill="#000000" opacity="0.08"/><rect x="0" y="684" width="1280" height="1" fill="#000000" opacity="0.08"/><rect x="0" y="688" width="1280" height="1" fill="#000000" opacity="0.08"/><rect x="0" y="692" width="1280" height="1" fill="#000000" opacity="0.08"/><rect x="0" y="696" width="1280" height="1" fill="#000000" opacity="0.08"/><rect x="0" y="700" width="1280" height="1" fill="#000000" opacity="0.08"/><rect x="0" y="704" width="1280" height="1" fill="#000000" opacity="0.08"/><rect x="0" y="708" width="1280" height="1" fill="#000000" opacity="0.08"/><rect x="0" y="712" width="1280" height="1" fill="#000000" opacity="0.08"/><rect x="0" y="716" width="1280" height="1" fill="#000000" opacity="0.08"/>
</svg>