<?xml version="1.0" encoding="UTF-8"?>
<svg xmlns="http://www.w3.org/2000/svg" width="920" height="552" viewBox="0 0 920 552" shape-rendering="crispEdges">
<rect x="0" y="0" width="920" height="552" fill="none" opacity="0"/><rect x="0" y="0" width="920" height="10" fill="#79afd2" opacity="0.14"/><rect x="0" y="542" width="920" height="10" fill="#79afd2" opacity="0.14"/><rect x="0" y="0" width="10" height="552" fill="#79afd2" opacity="0.1"/><rect x="910" y="0" width="10" height="552" fill="#79afd2" opacity="0.1"/><rect x="18" y="18" width="92" height="10" fill="#79afd2" opacity="0.5"/><rect x="18" y="18" width="10" height="72" fill="#79afd2" opacity="0.5"/><rect x="810" y="18" width="92" height="10" fill="#79afd2" opacity="0.5"/><rect x="892" y="18" width="10" height="72" fill="#79afd2" opacity="0.5"/><rect x="18" y="524" width="92" height="10" fill="#79afd2" opacity="0.5"/><rect x="18" y="462" width="10" height="72" fill="#79afd2" opacity="0.5"/><rect x="810" y="524" width="92" height="10" fill="#79afd2" opacity="0.5"/><rect x="892" y="462" width="10" height="72" fill="#79afd2" opacity="0.5"/><rect x="28" y="28" width="864" height="496" fill="#172330" opacity="0.08"/><rect x="0" y="0" width="920" height="74" fill="#0e1722" opacity="0.16"/><rect x="0" y="456" width="920" height="96" fill="#0e1722" opacity="0.18"/><polygon points="200,246.95999999999998 720,246.95999999999998 720,282.96 200,282.96" fill="#8fb9d3" opacity="0.14"/><rect x="426" y="234" width="68" height="188" fill="#75a7c9" opacity="0.26"/><rect x="371" y="338" width="178" height="18" fill="#79afd2" opacity="0.26"/><rect x="344" y="358" width="232" height="10" fill="#dbded5" opacity="0.18"/><polygon points="460,156 486,182 460,208 434,182" fill="#79afd2" opacity="0.62"/><polygon points="460,169 473,182 460,195 447,182" fill="#f1e8d6" opacity="0.59"/><line x1="392" y1="194" x2="528" y2="194" stroke="#79afd2" stroke-width="6" opacity="0.26" stroke-linecap="square"/><line x1="438" y1="118" x2="438" y2="174" stroke="#8cb8d3" stroke-width="4" opacity="0.19" stroke-linecap="square"/><line x1="482" y1="118" x2="482" y2="174" stroke="#8cb8d3" stroke-width="4" opacity="0.19" stroke-linecap="square"/><line x1="316" y1="274" x2="604" y2="274" stroke="#8ab7d3" stroke-width="4" opacity="0.16" stroke-linecap="square"/><rect x="0" y="0" width="4" height="552" fill="#79afd2" opacity="0.035"/><rect x="14" y="0" width="4" height="552" fill="#79afd2" opacity="0.02"/><rect x="28" y="0" width="4" height="552" fill="#79afd2" opacity="0.035"/><rect x="42" y="0" width="4" height="552" fill="#79afd2" opacity="0.02"/><rect x="56" y="0" width="4" height="552" fill="#79afd2" opacity="0.035"/><rect x="70" y="0" width="4" height="552" fill="#79afd2" opacity="0.02"/><rect x="84" y="0" width="4" height="552" fill="#79afd2" opacity="0.035"/><rect x="98" y="0" width="4" height="552" fill="#79afd2" opacity="0.02"/><rect x="112" y="0" width="4" height="552" fill="#79afd2" opacity="0.035"/><rect x="126" y="0" width="4" height="552" fill="#79afd2" opacity="0.02"/><rect x="140" y="0" width="4" height="552" fill="#79afd2" opacity="0.035"/><rect x="154" y="0" width="4" height="552" fill="#79afd2" opacity="0.02"/><rect x="168" y="0" width="4" height="552" fill="#79afd2" opacity="0.035"/><rect x="182" y="0" width="4" height="552" fill="#79afd2" opacity="0.02"/><rect x="196" y="0" width="4" height="552" fill="#79afd2" opacity="0.035"/><rect x="210" y="0" width="4" height="552" fill="#79afd2" opacity="0.02"/><rect x="224" y="0" width="4" height="552" fill="#79afd2" opacity="0.035"/><rect x="238" y="0" width="4" height="552" fill="#79afd2" opacity="0.02"/><rect x="252" y="0" width="4" height="552" fill="#79afd2" opacity="0.035"/><rect x="266" y="0" width="4" height="552" fill="#79afd2" opacity="0.02"/><rect x="280" y="0" width="4" height="552" fill="#79afd2" opacity="0.035"/><rect x="294" y="0" width="4" height="552" fill="#79afd2" opacity="0.02"/><rect x="308" y="0" width="4" height="552" fill="#79afd2" opacity="0.035"/><rect x="322" y="0" width="4" height="552" fill="#79afd2" opacity="0.02"/><rect x="336" y="0" width="4" height="552" fill="#79afd2" opacity="0.035"/><rect x="350" y="0" width="4" height="552" fill="#79afd2" opacity="0.02"/><rect x="364" y="0" width="4" height="552" fill="#79afd2" opacity="0.035"/><rect x="378" y="0" width="4" height="552" fill="#79afd2" opacity="0.02"/><rect x="392" y="0" width="4" height="552" fill="#79afd2" opacity="0.035"/><rect x="406" y="0" width="4" height="552" fill="#79afd2" opacity="0.02"/><rect x="420" y="0" width="4" height="552" fill="#79afd2" opacity="0.035"/><rect x="434" y="0" width="4" height="552" fill="#79afd2" opacity="0.02"/><rect x="448" y="0" width="4" height="552" fill="#79afd2" opacity="0.035"/><rect x="462" y="0" width="4" height="552" fill="#79afd2" opacity="0.02"/><rect x="476" y="0" width="4" height="552" fill="#79afd2" opacity="0.035"/><rect x="490" y="0" width="4" height="552" fill="#79afd2" opacity="0.02"/><rect x="504" y="0" width="4" height="552" fill="#79afd2" opacity="0.035"/><rect x="518" y="0" width="4" height="552" fill="#79afd2" opacity="0.02"/><rect x="532" y="0" width="4" height="552" fill="#79afd2" opacity="0.035"/><rect x="546" y="0" width="4" height="552" fill="#79afd2" opacity="0.02"/><rect x="560" y="0" width="4" height="552" fill="#79afd2" opacity="0.035"/><rect x="574" y="0" width="4" height="552" fill="#79afd2" opacity="0.02"/><rect x="588" y="0" width="4" height="552" fill="#79afd2" opacity="0.035"/><rect x="602" y="0" width="4" height="552" fill="#79afd2" opacity="0.02"/><rect x="616" y="0" width="4" height="552" fill="#79afd2" opacity="0.035"/><rect x="630" y="0" width="4" height="552" fill="#79afd2" opacity="0.02"/><rect x="644" y="0" width="4" height="552" fill="#79afd2" opacity="0.035"/><rect x="658" y="0" width="4" height="552" fill="#79afd2" opacity="0.02"/><rect x="672" y="0" width="4" height="552" fill="#79afd2" opacity="0.035"/><rect x="686" y="0" width="4" height="552" fill="#79afd2" opacity="0.02"/><rect x="700" y="0" width="4" height="552" fill="#79afd2" opacity="0.035"/><rect x="714" y="0" width="4" height="552" fill="#79afd2" opacity="0.02"/><rect x="728" y="0" width="4" height="552" fill="#79afd2" opacity="0.035"/><rect x="742" y="0" width="4" height="552" fill="#79afd2" opacity="0.02"/><rect x="756" y="0" width="4" height="552" fill="#79afd2" opacity="0.035"/><rect x="770" y="0" width="4" height="552" fill="#79afd2" opacity="0.02"/><rect x="784" y="0" width="4" height="552" fill="#79afd2" opacity="0.035"/><rect x="798" y="0" width="4" height="552" fill="#79afd2" opacity="0.02"/><rect x="812" y="0" width="4" height="552" fill="#79afd2" opacity="0.035"/><rect x="826" y="0" width="4" height="552" fill="#79afd2" opacity="0.02"/><rect x="840" y="0" width="4" height="552" fill="#79afd2" opacity="0.035"/><rect x="854" y="0" width="4" height="552" fill="#79afd2" opacity="0.02"/><rect x="868" y="0" width="4" height="552" fill="#79afd2" opacity="0.035"/><rect x="882" y="0" width="4" height="552" fill="#79afd2" opacity="0.02"/><rect x="896" y="0" width="4" height="552" fill="#79afd2" opacity="0.035"/><rect x="910" y="0" width="4" height="552" fill="#79afd2" opacity="0.02"/><rect x="0" y="0" width="920" height="1" fill="#000000" opacity="0.08"/><rect x="0" y="4" width="920" height="1" fill="#000000" opacity="0.08"/><rect x="0" y="8" width="920" height="1" fill="#000000" opacity="0.08"/><rect x="0" y="12" width="920" height="1" fill="#000000" opacity="0.08"/><rect x="0" y="16" width="920" height="1" fill="#000000" opacity="0.08"/><rect x="0" y="20" width="920" height="1" fill="#000000" opacity="0.08"/><rect x="0" y="24" width="920" height="1" fill="#000000" opacity="0.08"/><rect x="0" y="28" width="920" height="1" fill="#000000" opacity="0.08"/><rect x="0" y="32" width="920" height="1" fill="#000000" opacity="0.08"/><rect x="0" y="36" width="920" height="1" fill="#000000" opacity="0.08"/><rect x="0" y="40" width="920" height="1" fill="#000000" opacity="0.08"/><rect x="0" y="44" width="920" height="1" fill="#000000" opacity="0.08"/><rect x="0" y="48" width="920" height="1" fill="#000000" opacity="0.08"/><rect x="0" y="52" width="920" height="1" fill="#000000" opacity="0.08"/><rect x="0" y="56" width="920" height="1" fill="#000000" opacity="0.08"/><rect x="0" y="60" width="920" height="1" fill="#000000" opacity="0.08"/><rect x="0" y="64" width="920" height="1" fill="#000000" opacity="0.08"/><rect x="0" y="68" width="920" height="1" fill="#000000" opacity="0.08"/><rect x="0" y="72" width="920" height="1" fill="#000000" opacity="0.08"/><rect x="0" y="76" width="920" height="1" fill="#000000" opacity="0.08"/><rect x="0" y="80" width="920" height="1" fill="#000000" opacity="0.08"/><rect x="0" y="84" width="920" height="1" fill="#000000" opacity="0.08"/><rect x="0" y="88" width="920" height="1" fill="#000000" opacity="0.08"/><rect x="0" y="92" width="920" height="1" fill="#000000" opacity="0.08"/><rect x="0" y="96" width="920" height="1" fill="#000000" opacity="0.08"/><rect x="0" y="100" width="920" height="1" fill="#000000" opacity="0.08"/><rect x="0" y="104" width="920" height="1" fill="#000000" opacity="0.08"/><rect x="0" y="108" width="920" height="1" fill="#000000" opacity="0.08"/><rect x="0" y="112" width="920" height="1" fill="#000000" opacity="0.08"/><rect x="0" y="116" width="920" height="1" fill="#000000" opacity="0.08"/><rect x="0" y="120" width="920" height="1" fill="#000000" opacity="0.08"/><rect x="0" y="124" width="920" height="1" fill="#000000" opacity="0.08"/><rect x="0" y="128" width="920" height="1" fill="#000000" opacity="0.08"/><rect x="0" y="132" width="920" height="1" fill="#000000" opacity="0.08"/><rect x="0" y="136" width="920" height="1" fill="#000000" opacity="0.08"/><rect x="0" y="140" width="920" height="1" fill="#000000" opacity="0.08"/><rect x="0" y="144" width="920" height="1" fill="#000000" opacity="0.08"/><rect x="0" y="148" width="920" height="1" fill="#000000" opacity="0.08"/><rect x="0" y="152" width="920" height="1" fill="#000000" opacity="0.08"/><rect x="0" y="156" width="920" height="1" fill="#000000" opacity="0.08"/><rect x="0" y="160" width="920" height="1" fill="#000000" opacity="0.08"/><rect x="0" y="164" width="920" height="1" fill="#000000" opacity="0.08"/><rect x="0" y="168" width="920" height="1" fill="#000000" opacity="0.08"/><rect x="0" y="172" width="920" height="1" fill="#000000" opacity="0.08"/><rect x="0" y="176" width="920" height="1" fill="#000000" opacity="0.08"/><rect x="0" y="180" width="920" height="1" fill="#000000" opacity="0.08"/><rect x="0" y="184" width="920" height="1" fill="#000000" opacity="0.08"/><rect x="0" y="188" width="920" height="1" fill="#000000" opacity="0.08"/><rect x="0" y="192" width="920" height="1" fill="#000000" opacity="0.08"/><rect x="0" y="196" width="920" height="1" fill="#000000" opacity="0.08"/><rect x="0" y="200" width="920" height="1" fill="#000000" opacity="0.08"/><rect x="0" y="204" width="920" height="1" fill="#000000" opacity="0.08"/><rect x="0" y="208" width="920" height="1" fill="#000000" opacity="0.08"/><rect x="0" y="212" width="920" height="1" fill="#000000" opacity="0.08"/><rect x="0" y="216" width="920" height="1" fill="#000000" opacity="0.08"/><rect x="0" y="220" width="920" height="1" fill="#000000" opacity="0.08"/><rect x="0" y="224" width="920" height="1" fill="#000000" opacity="0.08"/><rect x="0" y="228" width="920" height="1" fill="#000000" opacity="0.08"/><rect x="0" y="232" width="920" height="1" fill="#000000" opacity="0.08"/><rect x="0" y="236" width="920" height="1" fill="#000000" opacity="0.08"/><rect x="0" y="240" width="920" height="1" fill="#000000" opacity="0.08"/><rect x="0" y="244" width="920" height="1" fill="#000000" opacity="0.08"/><rect x="0" y="248" width="920" height="1" fill="#000000" opacity="0.08"/><rect x="0" y="252" width="920" height="1" fill="#000000" opacity="0.08"/><rect x="0" y="256" width="920" height="1" fill="#000000" opacity="0.08"/><rect x="0" y="260" width="920" height="1" fill="#000000" opacity="0.08"/><rect x="0" y="264" width="920" height="1" fill="#000000" opacity="0.08"/><rect x="0" y="268" width="920" height="1" fill="#000000" opacity="0.08"/><rect x="0" y="272" width="920" height="1" fill="#000000" opacity="0.08"/><rect x="0" y="276" width="920" height="1" fill="#000000" opacity="0.08"/><rect x="0" y="280" width="920" height="1" fill="#000000" opacity="0.08"/><rect x="0" y="284" width="920" height="1" fill="#000000" opacity="0.08"/><rect x="0" y="288" width="920" height="1" fill="#000000" opacity="0.08"/><rect x="0" y="292" width="920" height="1" fill="#000000" opacity="0.08"/><rect x="0" y="296" width="920" height="1" fill="#000000" opacity="0.08"/><rect x="0" y="300" width="920" height="1" fill="#000000" opacity="0.08"/><rect x="0" y="304" width="920" height="1" fill="#000000" opacity="0.08"/><rect x="0" y="308" width="920" height="1" fill="#000000" opacity="0.08"/><rect x="0" y="312" width="920" height="1" fill="#000000" opacity="0.08"/><rect x="0" y="316" width="920" height="1" fill="#000000" opacity="0.08"/><rect x="0" y="320" width="920" height="1" fill="#000000" opacity="0.08"/><rect x="0" y="324" width="920" height="1" fill="#000000" opacity="0.08"/><rect x="0" y="328" width="920" height="1" fill="#000000" opacity="0.08"/><rect x="0" y="332" width="920" height="1" fill="#000000" opacity="0.08"/><rect x="0" y="336" width="920" height="1" fill="#000000" opacity="0.08"/><rect x="0" y="340" width="920" height="1" fill="#000000" opacity="0.08"/><rect x="0" y="344" width="920" height="1" fill="#000000" opacity="0.08"/><rect x="0" y="348" width="920" height="1" fill="#000000" opacity="0.08"/><rect x="0" y="352" width="920" height="1" fill="#000000" opacity="0.08"/><rect x="0" y="356" width="920" height="1" fill="#000000" opacity="0.08"/><rect x="0" y="360" width="920" height="1" fill="#000000" opacity="0.08"/><rect x="0" y="364" width="920" height="1" fill="#000000" opacity="0.08"/><rect x="0" y="368" width="920" height="1" fill="#000000" opacity="0.08"/><rect x="0" y="372" width="920" height="1" fill="#000000" opacity="0.08"/><rect x="0" y="376" width="920" height="1" fill="#000000" opacity="0.08"/><rect x="0" y="380" width="920" height="1" fill="#000000" opacity="0.08"/><rect x="0" y="384" width="920" height="1" fill="#000000" opacity="0.08"/><rect x="0" y="388" width="920" height="1" fill="#000000" opacity="0.08"/><rect x="0" y="392" width="920" height="1" fill="#000000" opacity="0.08"/><rect x="0" y="396" width="920" height="1" fill="#000000" opacity="0.08"/><rect x="0" y="400" width="920" height="1" fill="#000000" opacity="0.08"/><rect x="0" y="404" width="920" height="1" fill="#000000" opacity="0.08"/><rect x="0" y="408" width="920" height="1" fill="#000000" opacity="0.08"/><rect x="0" y="412" width="920" height="1" fill="#000000" opacity="0.08"/><rect x="0" y="416" width="920" height="1" fill="#000000" opacity="0.08"/><rect x="0" y="420" width="920" height="1" fill="#000000" opacity="0.08"/><rect x="0" y="424" width="920" height="1" fill="#000000" opacity="0.08"/><rect x="0" y="428" width="920" height="1" fill="#000000" opacity="0.08"/><rect x="0" y="432" width="920" height="1" fill="#000000" opacity="0.08"/><rect x="0" y="436" width="920" height="1" fill="#000000" opacity="0.08"/><rect x="0" y="440" width="920" height="1" fill="#000000" opacity="0.08"/><rect x="0" y="444" width="920" height="1" fill="#000000" opacity="0.08"/><rect x="0" y="448" width="920" height="1" fill="#000000" opacity="0.08"/><rect x="0" y="452" width="920" height="1" fill="#000000" opacity="0.08"/><rect x="0" y="456" width="920" height="1" fill="#000000" opacity="0.08"/><rect x="0" y="460" width="920" height="1" fill="#000000" opacity="0.08"/><rect x="0" y="464" width="920" height="1" fill="#000000" opacity="0.08"/><rect x="0" y="468" width="920" height="1" fill="#000000" opacity="0.08"/><rect x="0" y="472" width="920" height="1" fill="#000000" opacity="0.08"/><rect x="0" y="476" width="920" height="1" fill="#000000" opacity="0.08"/><rect x="0" y="480" width="920" height="1" fill="#000000" opacity="0.08"/><rect x="0" y="484" width="920" height="1" fill="#000000" opacity="0.08"/><rect x="0" y="488" width="920" height="1" fill="#000000" opacity="0.08"/><rect x="0" y="492" width="920" height="1" fill="#000000" opacity="0.08"/><rect x="0" y="496" width="920" height="1" fill="#000000" opacity="0.08"/><rect x="0" y="500" width="920" height="1" fill="#000000" opacity="0.08"/><rect x="0" y="504" width="920" height="1" fill="#000000" opacity="0.08"/><rect x="0" y="508" width="920" height="1" fill="#000000" opacity="0.08"/><rect x="0" y="512" width="920" height="1" fill="#000000" opacity="0.08"/><rect x="0" y="516" width="920" height="1" fill="#000000" opacity="0.08"/><rect x="0" y="520" width="920" height="1" fill="#000000" opacity="0.08"/><rect x="0" y="524" width="920" height="1" fill="#000000" opacity="0.08"/><rect x="0" y="528" width="920" height="1" fill="#000000" opacity="0.08"/><rect x="0" y="532" width="920" height="1" fill="#000000" opacity="0.08"/><rect x="0" y="536" width="920" height="1" fill="#000000" opacity="0.08"/><rect x="0" y="540" width="920" height="1" fill="#000000" opacity="0.08"/><rect x="0" y="544" width="920" height="1" fill="#000000" opacity="0.08"/><rect x="0" y="548" width="920" height="1" fill="#000000" opacity="0.08"/>
</svg>