<?xml version="1.0" encoding="UTF-8"?>
<svg xmlns="http://www.w3.org/2000/svg" width="384" height="128" viewBox="0 0 384 128" shape-rendering="crispEdges">
<rect x="0" y="0" width="384" height="128" fill="none" opacity="0"/><polygon points="17.243215450251398,30.52222203464488 200.91290701595466,41.54240352858709 198.7567845497486,77.47777796535512 15.087092984045315,66.45759647141291" fill="#c2928b" opacity="0.28"/><polygon points="189.7029306040575,57.35872631458699 357.1678973981265,70.75592365811252 354.2970693959425,106.64127368541301 186.83210260187346,93.24407634188748" fill="#c2928b" opacity="0.24"/><polygon points="40,44 58,54 40,64 48,54 " fill="#c9a4a1" opacity="0.72"/><polygon points="106,46 125,56 106,66 114,56 " fill="#c9a4a1" opacity="0.72"/><polygon points="172,50 190,60 172,70 180,60 " fill="#c9a4a1" opacity="0.72"/><polygon points="238,70 257,80 238,90 246,80 " fill="#c9a4a1" opacity="0.72"/><polygon points="302,74 320,84 302,94 310,84 " fill="#c9a4a1" opacity="0.72"/><rect x="0" y="0" width="384" height="1" fill="#000000" opacity="0.08"/><rect x="0" y="4" width="384" height="1" fill="#000000" opacity="0.08"/><rect x="0" y="8" width="384" height="1" fill="#000000" opacity="0.08"/><rect x="0" y="12" width="384" height="1" fill="#000000" opacity="0.08"/><rect x="0" y="16" width="384" height="1" fill="#000000" opacity="0.08"/><rect x="0" y="20" width="384" height="1" fill="#000000" opacity="0.08"/><rect x="0" y="24" width="384" height="1" fill="#000000" opacity="0.08"/><rect x="0" y="28" width="384" height="1" fill="#000000" opacity="0.08"/><rect x="0" y="32" width="384" height="1" fill="#000000" opacity="0.08"/><rect x="0" y="36" width="384" height="1" fill="#000000" opacity="0.08"/><rect x="0" y="40" width="384" height="1" fill="#000000" opacity="0.08"/><rect x="0" y="44" width="384" height="1" fill="#000000" opacity="0.08"/><rect x="0" y="48" width="384" height="1" fill="#000000" opacity="0.08"/><rect x="0" y="52" width="384" height="1" fill="#000000" opacity="0.08"/><rect x="0" y="56" width="384" height="1" fill="#000000" opacity="0.08"/><rect x="0" y="60" width="384" height="1" fill="#000000" opacity="0.08"/><rect x="0" y="64" width="384" height="1" fill="#000000" opacity="0.08"/><rect x="0" y="68" width="384" height="1" fill="#000000" opacity="0.08"/><rect x="0" y="72" width="384" height="1" fill="#000000" opacity="0.08"/><rect x="0" y="76" width="384" height="1" fill="#000000" opacity="0.08"/><rect x="0" y="80" width="384" height="1" fill="#000000" opacity="0.08"/><rect x="0" y="84" width="384" height="1" fill="#000000" opacity="0.08"/><rect x="0" y="88" width="384" height="1" fill="#000000" opacity="0.08"/><rect x="0" y="92" width="384" height="1" fill="#000000" opacity="0.08"/><rect x="0" y="96" width="384" height="1" fill="#000000" opacity="0.08"/><rect x="0" y="100" width="384" height="1" fill="#000000" opacity="0.08"/><rect x="0" y="104" width="384" height="1" fill="#000000" opacity="0.08"/><rect x="0" y="108" width="384" height="1" fill="#000000" opacity="0.08"/><rect x="0" y="112" width="384" height="1" fill="#000000" opacity="0.08"/><rect x="0" y="116" width="384" height="1" fill="#000000" opacity="0.08"/><rect x="0" y="120" width="384" height="1" fill="#000000" opacity="0.08"/><rect x="0" y="124" width="384" height="1" fill="#000000" opacity="0.08"/>
</svg>