<?xml version="1.0" encoding="UTF-8"?>
<svg xmlns="http://www.w3.org/2000/svg" width="160" height="224" viewBox="0 0 160 224" shape-rendering="crispEdges">
<rect x="0" y="0" width="160" height="224" fill="#13202e"/><rect x="10" y="10" width="140" height="204" fill="#ded9cd"/><rect x="16" y="16" width="128" height="28" fill="#79afd2"/><rect x="20" y="54" width="120" height="12" fill="#22364a" opacity="0.85"/><rect x="20" y="72" width="104" height="6" fill="#475663" opacity="0.82"/><rect x="20" y="88" width="120" height="6" fill="#475663" opacity="0.82"/><rect x="20" y="104" width="112" height="6" fill="#475663" opacity="0.82"/><rect x="20" y="132" width="120" height="46" fill="#e7e3d6"/><rect x="30" y="142" width="18" height="18" fill="#79afd2" opacity="0.88"/><rect x="58" y="146" width="70" height="8" fill="#22364a" opacity="0.72"/><rect x="58" y="160" width="60" height="6" fill="#22364a" opacity="0.5"/><rect x="20" y="188" width="120" height="18" fill="#13202e" opacity="0.84"/><polygon points="130,20 140,30 130,40 120,30" fill="#8fb9d3"/><polygon points="130,24 136,30 130,36 124,30" fill="#79afd2"/><rect x="28" y="132" width="104" height="2" fill="#505d69" opacity="0.42"/><rect x="28" y="148" width="104" height="2" fill="#505d69" opacity="0.42"/><rect x="28" y="164" width="104" height="2" fill="#505d69" opacity="0.42"/><rect x="0" y="0" width="160" height="1" fill="#000000" opacity="0.08"/><rect x="0" y="4" width="160" height="1" fill="#000000" opacity="0.08"/><rect x="0" y="8" width="160" height="1" fill="#000000" opacity="0.08"/><rect x="0" y="12" width="160" height="1" fill="#000000" opacity="0.08"/><rect x="0" y="16" width="160" height="1" fill="#000000" opacity="0.08"/><rect x="0" y="20" width="160" height="1" fill="#000000" opacity="0.08"/><rect x="0" y="24" width="160" height="1" fill="#000000" opacity="0.08"/><rect x="0" y="28" width="160" height="1" fill="#000000" opacity="0.08"/><rect x="0" y="32" width="160" height="1" fill="#000000" opacity="0.08"/><rect x="0" y="36" width="160" height="1" fill="#000000" opacity="0.08"/><rect x="0" y="40" width="160" height="1" fill="#000000" opacity="0.08"/><rect x="0" y="44" width="160" height="1" fill="#000000" opacity="0.08"/><rect x="0" y="48" width="160" height="1" fill="#000000" opacity="0.08"/><rect x="0" y="52" width="160" height="1" fill="#000000" opacity="0.08"/><rect x="0" y="56" width="160" height="1" fill="#000000" opacity="0.08"/><rect x="0" y="60" width="160" height="1" fill="#000000" opacity="0.08"/><rect x="0" y="64" width="160" height="1" fill="#000000" opacity="0.08"/><rect x="0" y="68" width="160" height="1" fill="#000000" opacity="0.08"/><rect x="0" y="72" width="160" height="1" fill="#000000" opacity="0.08"/><rect x="0" y="76" width="160" height="1" fill="#000000" opacity="0.08"/><rect x="0" y="80" width="160" height="1" fill="#000000" opacity="0.08"/><rect x="0" y="84" width="160" height="1" fill="#000000" opacity="0.08"/><rect x="0" y="88" width="160" height="1" fill="#000000" opacity="0.08"/><rect x="0" y="92" width="160" height="1" fill="#000000" opacity="0.08"/><rect x="0" y="96" width="160" height="1" fill="#000000" opacity="0.08"/><rect x="0" y="100" width="160" height="1" fill="#000000" opacity="0.08"/><rect x="0" y="104" width="160" height="1" fill="#000000" opacity="0.08"/><rect x="0" y="108" width="160" height="1" fill="#000000" opacity="0.08"/><rect x="0" y="112" width="160" height="1" fill="#000000" opacity="0.08"/><rect x="0" y="116" width="160" height="1" fill="#000000" opacity="0.08"/><rect x="0" y="120" width="160" height="1" fill="#000000" opacity="0.08"/><rect x="0" y="124" width="160" height="1" fill="#000000" opacity="0.08"/><rect x="0" y="128" width="160" height="1" fill="#000000" opacity="0.08"/><rect x="0" y="132" width="160" height="1" fill="#000000" opacity="0.08"/><rect x="0" y="136" width="160" height="1" fill="#000000" opacity="0.08"/><rect x="0" y="140" width="160" height="1" fill="#000000" opacity="0.08"/><rect x="0" y="144" width="160" height="1" fill="#000000" opacity="0.08"/><rect x="0" y="148" width="160" height="1" fill="#000000" opacity="0.08"/><rect x="0" y="152" width="160" height="1" fill="#000000" opacity="0.08"/><rect x="0" y="156" width="160" height="1" fill="#000000" opacity="0.08"/><rect x="0" y="160" width="160" height="1" fill="#000000" opacity="0.08"/><rect x="0" y="164" width="160" height="1" fill="#000000" opacity="0.08"/><rect x="0" y="168" width="160" height="1" fill="#000000" opacity="0.08"/><rect x="0" y="172" width="160" height="1" fill="#000000" opacity="0.08"/><rect x="0" y="176" width="160" height="1" fill="#000000" opacity="0.08"/><rect x="0" y="180" width="160" height="1" fill="#000000" opacity="0.08"/><rect x="0" y="184" width="160" height="1" fill="#000000" opacity="0.08"/><rect x="0" y="188" width="160" height="1" fill="#000000" opacity="0.08"/><rect x="0" y="192" width="160" height="1" fill="#000000" opacity="0.08"/><rect x="0" y="196" width="160" height="1" fill="#000000" opacity="0.08"/><rect x="0" y="200" width="160" height="1" fill="#000000" opacity="0.08"/><rect x="0" y="204" width="160" height="1" fill="#000000" opacity="0.08"/><rect x="0" y="208" width="160" height="1" fill="#000000" opacity="0.08"/><rect x="0" y="212" width="160" height="1" fill="#000000" opacity="0.08"/><rect x="0" y="216" width="160" height="1" fill="#000000" opacity="0.08"/><rect x="0" y="220" width="160" height="1" fill="#000000" opacity="0.08"/>
</svg>