<?xml version="1.0" encoding="UTF-8"?>
<svg xmlns="http://www.w3.org/2000/svg" width="384" height="224" viewBox="0 0 384 224" shape-rendering="crispEdges">
<rect x="0" y="0" width="384" height="224" fill="#0e1722"/><rect x="0" y="0" width="384" height="74" fill="#182436"/><rect x="18" y="28" width="348" height="46" fill="#13202e"/><rect x="28" y="38" width="328" height="26" fill="#22364a"/><rect x="24" y="96" width="336" height="94" fill="#22364a"/><rect x="42" y="110" width="300" height="68" fill="#13202e"/><rect x="66" y="144" width="252" height="38" fill="#4f6c88"/><polygon points="75.79369482349063,69.99784925912981 310.1126287064042,98.11612132507945 308.2063051765094,114.00215074087019 73.88737129359575,85.88387867492055" fill="#79afd2" opacity="0.18"/><polygon points="75.79369482349063,69.99784925912981 310.1126287064042,98.11612132507945 308.2063051765094,114.00215074087019 73.88737129359575,85.88387867492055" fill="none" stroke="#79afd2" stroke-width="2"/><line x1="76" y1="102" x2="76" y2="178" stroke="#8cb8d3" stroke-width="2" opacity="0.38" stroke-linecap="square"/><line x1="110" y1="102" x2="110" y2="178" stroke="#8cb8d3" stroke-width="2" opacity="0.38" stroke-linecap="square"/><line x1="144" y1="102" x2="144" y2="178" stroke="#8cb8d3" stroke-width="2" opacity="0.38" stroke-linecap="square"/><line x1="178" y1="102" x2="178" y2="178" stroke="#8cb8d3" stroke-width="2" opacity="0.38" stroke-linecap="square"/><line x1="212" y1="102" x2="212" y2="178" stroke="#8cb8d3" stroke-width="2" opacity="0.38" stroke-linecap="square"/><line x1="246" y1="102" x2="246" y2="178" stroke="#8cb8d3" stroke-width="2" opacity="0.38" stroke-linecap="square"/><line x1="280" y1="102" x2="280" y2="178" stroke="#8cb8d3" stroke-width="2" opacity="0.38" stroke-linecap="square"/><polygon points="82,140 94,145 82,150 70,145" fill="#f1e8d6" opacity="0.82"/><polygon points="131,138 143,143 131,148 119,143" fill="#f1e8d6" opacity="0.82"/><polygon points="179,135 191,140 179,145 167,140" fill="#f1e8d6" opacity="0.82"/><polygon points="227,138 239,143 227,148 215,143" fill="#f1e8d6" opacity="0.82"/><polygon points="277,130 289,135 277,140 265,135" fill="#f1e8d6" opacity="0.82"/><rect x="0" y="0" width="384" height="1" fill="#000000" opacity="0.08"/><rect x="0" y="4" width="384" height="1" fill="#000000" opacity="0.08"/><rect x="0" y="8" width="384" height="1" fill="#000000" opacity="0.08"/><rect x="0" y="12" width="384" height="1" fill="#000000" opacity="0.08"/><rect x="0" y="16" width="384" height="1" fill="#000000" opacity="0.08"/><rect x="0" y="20" width="384" height="1" fill="#000000" opacity="0.08"/><rect x="0" y="24" width="384" height="1" fill="#000000" opacity="0.08"/><rect x="0" y="28" width="384" height="1" fill="#000000" opacity="0.08"/><rect x="0" y="32" width="384" height="1" fill="#000000" opacity="0.08"/><rect x="0" y="36" width="384" height="1" fill="#000000" opacity="0.08"/><rect x="0" y="40" width="384" height="1" fill="#000000" opacity="0.08"/><rect x="0" y="44" width="384" height="1" fill="#000000" opacity="0.08"/><rect x="0" y="48" width="384" height="1" fill="#000000" opacity="0.08"/><rect x="0" y="52" width="384" height="1" fill="#000000" opacity="0.08"/><rect x="0" y="56" width="384" height="1" fill="#000000" opacity="0.08"/><rect x="0" y="60" width="384" height="1" fill="#000000" opacity="0.08"/><rect x="0" y="64" width="384" height="1" fill="#000000" opacity="0.08"/><rect x="0" y="68" width="384" height="1" fill="#000000" opacity="0.08"/><rect x="0" y="72" width="384" height="1" fill="#000000" opacity="0.08"/><rect x="0" y="76" width="384" height="1" fill="#000000" opacity="0.08"/><rect x="0" y="80" width="384" height="1" fill="#000000" opacity="0.08"/><rect x="0" y="84" width="384" height="1" fill="#000000" opacity="0.08"/><rect x="0" y="88" width="384" height="1" fill="#000000" opacity="0.08"/><rect x="0" y="92" width="384" height="1" fill="#000000" opacity="0.08"/><rect x="0" y="96" width="384" height="1" fill="#000000" opacity="0.08"/><rect x="0" y="100" width="384" height="1" fill="#000000" opacity="0.08"/><rect x="0" y="104" width="384" height="1" fill="#000000" opacity="0.08"/><rect x="0" y="108" width="384" height="1" fill="#000000" opacity="0.08"/><rect x="0" y="112" width="384" height="1" fill="#000000" opacity="0.08"/><rect x="0" y="116" width="384" height="1" fill="#000000" opacity="0.08"/><rect x="0" y="120" width="384" height="1" fill="#000000" opacity="0.08"/><rect x="0" y="124" width="384" height="1" fill="#000000" opacity="0.08"/><rect x="0" y="128" width="384" height="1" fill="#000000" opacity="0.08"/><rect x="0" y="132" width="384" height="1" fill="#000000" opacity="0.08"/><rect x="0" y="136" width="384" height="1" fill="#000000" opacity="0.08"/><rect x="0" y="140" width="384" height="1" fill="#000000" opacity="0.08"/><rect x="0" y="144" width="384" height="1" fill="#000000" opacity="0.08"/><rect x="0" y="148" width="384" height="1" fill="#000000" opacity="0.08"/><rect x="0" y="152" width="384" height="1" fill="#000000" opacity="0.08"/><rect x="0" y="156" width="384" height="1" fill="#000000" opacity="0.08"/><rect x="0" y="160" width="384" height="1" fill="#000000" opacity="0.08"/><rect x="0" y="164" width="384" height="1" fill="#000000" opacity="0.08"/><rect x="0" y="168" width="384" height="1" fill="#000000" opacity="0.08"/><rect x="0" y="172" width="384" height="1" fill="#000000" opacity="0.08"/><rect x="0" y="176" width="384" height="1" fill="#000000" opacity="0.08"/><rect x="0" y="180" width="384" height="1" fill="#000000" opacity="0.08"/><rect x="0" y="184" width="384" height="1" fill="#000000" opacity="0.08"/><rect x="0" y="188" width="384" height="1" fill="#000000" opacity="0.08"/><rect x="0" y="192" width="384" height="1" fill="#000000" opacity="0.08"/><rect x="0" y="196" width="384" height="1" fill="#000000" opacity="0.08"/><rect x="0" y="200" width="384" height="1" fill="#000000" opacity="0.08"/><rect x="0" y="204" width="384" height="1" fill="#000000" opacity="0.08"/><rect x="0" y="208" width="384" height="1" fill="#000000" opacity="0.08"/><rect x="0" y="212" width="384" height="1" fill="#000000" opacity="0.08"/><rect x="0" y="216" width="384" height="1" fill="#000000" opacity="0.08"/><rect x="0" y="220" width="384" height="1" fill="#000000" opacity="0.08"/>
</svg>