<?xml version="1.0" encoding="UTF-8"?>
<svg xmlns="http://www.w3.org/2000/svg" width="160" height="160" viewBox="0 0 160 160" shape-rendering="crispEdges">
<rect x="0" y="0" width="160" height="160" fill="none" opacity="0"/><polygon points="80,114 120,130 80,146 40,130" fill="#111b28" opacity="0.34"/><polygon points="80,110 108,120 80,130 52,120" fill="#6694b2" opacity="0.14"/><rect x="38" y="42" width="84" height="92" fill="#22364a" opacity="0.98"/><rect x="50" y="56" width="60" height="52" fill="#334455" opacity="0.94"/><rect x="62" y="76" width="36" height="14" fill="#79afd2" opacity="0.76"/><rect x="68" y="104" width="24" height="10" fill="#dbded5" opacity="0.44"/><rect x="22" y="130" width="116" height="20" fill="#203346" opacity="0.94"/><rect x="38" y="42" width="84" height="92" fill="none"/><rect x="0" y="0" width="160" height="1" fill="#000000" opacity="0.08"/><rect x="0" y="4" width="160" height="1" fill="#000000" opacity="0.08"/><rect x="0" y="8" width="160" height="1" fill="#000000" opacity="0.08"/><rect x="0" y="12" width="160" height="1" fill="#000000" opacity="0.08"/><rect x="0" y="16" width="160" height="1" fill="#000000" opacity="0.08"/><rect x="0" y="20" width="160" height="1" fill="#000000" opacity="0.08"/><rect x="0" y="24" width="160" height="1" fill="#000000" opacity="0.08"/><rect x="0" y="28" width="160" height="1" fill="#000000" opacity="0.08"/><rect x="0" y="32" width="160" height="1" fill="#000000" opacity="0.08"/><rect x="0" y="36" width="160" height="1" fill="#000000" opacity="0.08"/><rect x="0" y="40" width="160" height="1" fill="#000000" opacity="0.08"/><rect x="0" y="44" width="160" height="1" fill="#000000" opacity="0.08"/><rect x="0" y="48" width="160" height="1" fill="#000000" opacity="0.08"/><rect x="0" y="52" width="160" height="1" fill="#000000" opacity="0.08"/><rect x="0" y="56" width="160" height="1" fill="#000000" opacity="0.08"/><rect x="0" y="60" width="160" height="1" fill="#000000" opacity="0.08"/><rect x="0" y="64" width="160" height="1" fill="#000000" opacity="0.08"/><rect x="0" y="68" width="160" height="1" fill="#000000" opacity="0.08"/><rect x="0" y="72" width="160" height="1" fill="#000000" opacity="0.08"/><rect x="0" y="76" width="160" height="1" fill="#000000" opacity="0.08"/><rect x="0" y="80" width="160" height="1" fill="#000000" opacity="0.08"/><rect x="0" y="84" width="160" height="1" fill="#000000" opacity="0.08"/><rect x="0" y="88" width="160" height="1" fill="#000000" opacity="0.08"/><rect x="0" y="92" width="160" height="1" fill="#000000" opacity="0.08"/><rect x="0" y="96" width="160" height="1" fill="#000000" opacity="0.08"/><rect x="0" y="100" width="160" height="1" fill="#000000" opacity="0.08"/><rect x="0" y="104" width="160" height="1" fill="#000000" opacity="0.08"/><rect x="0" y="108" width="160" height="1" fill="#000000" opacity="0.08"/><rect x="0" y="112" width="160" height="1" fill="#000000" opacity="0.08"/><rect x="0" y="116" width="160" height="1" fill="#000000" opacity="0.08"/><rect x="0" y="120" width="160" height="1" fill="#000000" opacity="0.08"/><rect x="0" y="124" width="160" height="1" fill="#000000" opacity="0.08"/><rect x="0" y="128" width="160" height="1" fill="#000000" opacity="0.08"/><rect x="0" y="132" width="160" height="1" fill="#000000" opacity="0.08"/><rect x="0" y="136" width="160" height="1" fill="#000000" opacity="0.08"/><rect x="0" y="140" width="160" height="1" fill="#000000" opacity="0.08"/><rect x="0" y="144" width="160" height="1" fill="#000000" opacity="0.08"/><rect x="0" y="148" width="160" height="1" fill="#000000" opacity="0.08"/><rect x="0" y="152" width="160" height="1" fill="#000000" opacity="0.08"/><rect x="0" y="156" width="160" height="1" fill="#000000" opacity="0.08"/>
</svg>