<?xml version="1.0" encoding="UTF-8"?>
<svg xmlns="http://www.w3.org/2000/svg" width="920" height="552" viewBox="0 0 920 552" shape-rendering="crispEdges">
<rect x="0" y="0" width="920" height="552" fill="none" opacity="0"/><rect x="0" y="0" width="920" height="10" fill="#dc9162" opacity="0.14"/><rect x="0" y="542" width="920" height="10" fill="#dc9162" opacity="0.14"/><rect x="0" y="0" width="10" height="552" fill="#dc9162" opacity="0.1"/><rect x="910" y="0" width="10" height="552" fill="#dc9162" opacity="0.1"/><rect x="18" y="18" width="92" height="10" fill="#dc9162" opacity="0.5"/><rect x="18" y="18" width="10" height="72" fill="#dc9162" opacity="0.5"/><rect x="810" y="18" width="92" height="10" fill="#dc9162" opacity="0.5"/><rect x="892" y="18" width="10" height="72" fill="#dc9162" opacity="0.5"/><rect x="18" y="524" width="92" height="10" fill="#dc9162" opacity="0.5"/><rect x="18" y="462" width="10" height="72" fill="#dc9162" opacity="0.5"/><rect x="810" y="524" width="92" height="10" fill="#dc9162" opacity="0.5"/><rect x="892" y="462" width="10" height="72" fill="#dc9162" opacity="0.5"/><rect x="28" y="28" width="864" height="496" fill="#271c16" opacity="0.08"/><rect x="0" y="0" width="920" height="64" fill="#17120f" opacity="0.18"/><rect x="0" y="466" width="920" height="86" fill="#17120f" opacity="0.2"/><polygon points="15.200000000000045,287 831.2,287 831.2,331 15.200000000000045,331" fill="#df9e73" opacity="0.18"/><rect x="166" y="235" width="84" height="148" fill="#d4885e" opacity="0.22"/><rect x="176" y="249" width="64" height="18" fill="#dc9162" opacity="0.29500000000000004"/><rect x="176" y="285" width="64" height="12" fill="#ecd4bd" opacity="0.26"/><rect x="284" y="213" width="428" height="18" fill="#df9e73" opacity="0.14"/><rect x="284" y="263" width="428" height="14" fill="#dc9162" opacity="0.24"/><rect x="284" y="311" width="428" height="10" fill="#ecd4bd" opacity="0.22"/><rect x="589" y="197" width="50" height="162" fill="#dc9162" opacity="0.315"/><rect x="606" y="183" width="16" height="188" fill="#ecd3bb" opacity="0.375"/><line x1="250" y1="291" x2="774" y2="291" stroke="#dc9162" stroke-width="4" opacity="0.22" stroke-linecap="square"/><line x1="250" y1="337" x2="774" y2="337" stroke="#dc9162" stroke-width="3" opacity="0.16" stroke-linecap="square"/><line x1="250" y1="373" x2="774" y2="373" stroke="#ecd6bf" stroke-width="3" opacity="0.14" stroke-linecap="square"/><line x1="562" y1="323" x2="666" y2="323" stroke="#dc9162" stroke-width="5" opacity="0.26" stroke-linecap="square"/><rect x="555" y="428" width="7" height="7" fill="#df9f75" opacity="0.2334244"/><rect x="566" y="430" width="5" height="2" fill="#dc9162" opacity="0.22849999999999998"/><rect x="545" y="439" width="25" height="2" fill="#ecd3bb" opacity="0.1477752"/><rect x="433" y="425" width="6" height="6" fill="#df9f75" opacity="0.2595976"/><rect x="443" y="427" width="4" height="2" fill="#dc9162" opacity="0.2382288"/><rect x="423" y="435" width="24" height="2" fill="#ecd3bb" opacity="0.1533744"/><rect x="143" y="208" width="13" height="13" fill="#df9f75" opacity="0.2439124"/><rect x="160" y="210" width="11" height="2" fill="#dc9162" opacity="0.19300879999999998"/><rect x="133" y="225" width="31" height="2" fill="#ecd3bb" opacity="0.1634022"/><rect x="425" y="464" width="7" height="7" fill="#df9f75" opacity="0.2326144"/><rect x="436" y="466" width="5" height="2" fill="#dc9162" opacity="0.222168"/><rect x="415" y="475" width="25" height="2" fill="#ecd3bb" opacity="0.1366452"/><rect x="275" y="509" width="8" height="8" fill="#df9f75" opacity="0.3372784"/><rect x="287" y="511" width="6" height="2" fill="#dc9162" opacity="0.2216696"/><rect x="265" y="521" width="26" height="2" fill="#ecd3bb" opacity="0.13099439999999998"/><rect x="810" y="182" width="6" height="6" fill="#df9f75" opacity="0.2671516"/><rect x="820" y="184" width="4" height="2" fill="#dc9162" opacity="0.2145104"/><rect x="800" y="192" width="24" height="2" fill="#ecd3bb" opacity="0.17325839999999998"/><rect x="763" y="109" width="11" height="11" fill="#df9f75" opacity="0.2304208"/><rect x="778" y="111" width="9" height="2" fill="#dc9162" opacity="0.1908952"/><rect x="753" y="124" width="29" height="2" fill="#ecd3bb" opacity="0.1263888"/><rect x="624" y="334" width="8" height="8" fill="#df9f75" opacity="0.2821096"/><rect x="636" y="336" width="6" height="2" fill="#dc9162" opacity="0.2064064"/><rect x="614" y="346" width="26" height="2" fill="#ecd3bb" opacity="0.14322"/><rect x="704" y="324" width="10" height="10" fill="#df9f75" opacity="0.273868"/><rect x="718" y="326" width="8" height="2" fill="#dc9162" opacity="0.2488608"/><rect x="694" y="338" width="28" height="2" fill="#ecd3bb" opacity="0.1309854"/><rect x="130" y="255" width="7" height="7" fill="#df9f75" opacity="0.2652496"/><rect x="141" y="257" width="5" height="2" fill="#dc9162" opacity="0.187856"/><rect x="120" y="266" width="25" height="2" fill="#ecd3bb" opacity="0.1282212"/><rect x="0" y="0" width="920" height="1" fill="#000000" opacity="0.08"/><rect x="0" y="4" width="920" height="1" fill="#000000" opacity="0.08"/><rect x="0" y="8" width="920" height="1" fill="#000000" opacity="0.08"/><rect x="0" y="12" width="920" height="1" fill="#000000" opacity="0.08"/><rect x="0" y="16" width="920" height="1" fill="#000000" opacity="0.08"/><rect x="0" y="20" width="920" height="1" fill="#000000" opacity="0.08"/><rect x="0" y="24" width="920" height="1" fill="#000000" opacity="0.08"/><rect x="0" y="28" width="920" height="1" fill="#000000" opacity="0.08"/><rect x="0" y="32" width="920" height="1" fill="#000000" opacity="0.08"/><rect x="0" y="36" width="920" height="1" fill="#000000" opacity="0.08"/><rect x="0" y="40" width="920" height="1" fill="#000000" opacity="0.08"/><rect x="0" y="44" width="920" height="1" fill="#000000" opacity="0.08"/><rect x="0" y="48" width="920" height="1" fill="#000000" opacity="0.08"/><rect x="0" y="52" width="920" height="1" fill="#000000" opacity="0.08"/><rect x="0" y="56" width="920" height="1" fill="#000000" opacity="0.08"/><rect x="0" y="60" width="920" height="1" fill="#000000" opacity="0.08"/><rect x="0" y="64" width="920" height="1" fill="#000000" opacity="0.08"/><rect x="0" y="68" width="920" height="1" fill="#000000" opacity="0.08"/><rect x="0" y="72" width="920" height="1" fill="#000000" opacity="0.08"/><rect x="0" y="76" width="920" height="1" fill="#000000" opacity="0.08"/><rect x="0" y="80" width="920" height="1" fill="#000000" opacity="0.08"/><rect x="0" y="84" width="920" height="1" fill="#000000" opacity="0.08"/><rect x="0" y="88" width="920" height="1" fill="#000000" opacity="0.08"/><rect x="0" y="92" width="920" height="1" fill="#000000" opacity="0.08"/><rect x="0" y="96" width="920" height="1" fill="#000000" opacity="0.08"/><rect x="0" y="100" width="920" height="1" fill="#000000" opacity="0.08"/><rect x="0" y="104" width="920" height="1" fill="#000000" opacity="0.08"/><rect x="0" y="108" width="920" height="1" fill="#000000" opacity="0.08"/><rect x="0" y="112" width="920" height="1" fill="#000000" opacity="0.08"/><rect x="0" y="116" width="920" height="1" fill="#000000" opacity="0.08"/><rect x="0" y="120" width="920" height="1" fill="#000000" opacity="0.08"/><rect x="0" y="124" width="920" height="1" fill="#000000" opacity="0.08"/><rect x="0" y="128" width="920" height="1" fill="#000000" opacity="0.08"/><rect x="0" y="132" width="920" height="1" fill="#000000" opacity="0.08"/><rect x="0" y="136" width="920" height="1" fill="#000000" opacity="0.08"/><rect x="0" y="140" width="920" height="1" fill="#000000" opacity="0.08"/><rect x="0" y="144" width="920" height="1" fill="#000000" opacity="0.08"/><rect x="0" y="148" width="920" height="1" fill="#000000" opacity="0.08"/><rect x="0" y="152" width="920" height="1" fill="#000000" opacity="0.08"/><rect x="0" y="156" width="920" height="1" fill="#000000" opacity="0.08"/><rect x="0" y="160" width="920" height="1" fill="#000000" opacity="0.08"/><rect x="0" y="164" width="920" height="1" fill="#000000" opacity="0.08"/><rect x="0" y="168" width="920" height="1" fill="#000000" opacity="0.08"/><rect x="0" y="172" width="920" height="1" fill="#000000" opacity="0.08"/><rect x="0" y="176" width="920" height="1" fill="#000000" opacity="0.08"/><rect x="0" y="180" width="920" height="1" fill="#000000" opacity="0.08"/><rect x="0" y="184" width="920" height="1" fill="#000000" opacity="0.08"/><rect x="0" y="188" width="920" height="1" fill="#000000" opacity="0.08"/><rect x="0" y="192" width="920" height="1" fill="#000000" opacity="0.08"/><rect x="0" y="196" width="920" height="1" fill="#000000" opacity="0.08"/><rect x="0" y="200" width="920" height="1" fill="#000000" opacity="0.08"/><rect x="0" y="204" width="920" height="1" fill="#000000" opacity="0.08"/><rect x="0" y="208" width="920" height="1" fill="#000000" opacity="0.08"/><rect x="0" y="212" width="920" height="1" fill="#000000" opacity="0.08"/><rect x="0" y="216" width="920" height="1" fill="#000000" opacity="0.08"/><rect x="0" y="220" width="920" height="1" fill="#000000" opacity="0.08"/><rect x="0" y="224" width="920" height="1" fill="#000000" opacity="0.08"/><rect x="0" y="228" width="920" height="1" fill="#000000" opacity="0.08"/><rect x="0" y="232" width="920" height="1" fill="#000000" opacity="0.08"/><rect x="0" y="236" width="920" height="1" fill="#000000" opacity="0.08"/><rect x="0" y="240" width="920" height="1" fill="#000000" opacity="0.08"/><rect x="0" y="244" width="920" height="1" fill="#000000" opacity="0.08"/><rect x="0" y="248" width="920" height="1" fill="#000000" opacity="0.08"/><rect x="0" y="252" width="920" height="1" fill="#000000" opacity="0.08"/><rect x="0" y="256" width="920" height="1" fill="#000000" opacity="0.08"/><rect x="0" y="260" width="920" height="1" fill="#000000" opacity="0.08"/><rect x="0" y="264" width="920" height="1" fill="#000000" opacity="0.08"/><rect x="0" y="268" width="920" height="1" fill="#000000" opacity="0.08"/><rect x="0" y="272" width="920" height="1" fill="#000000" opacity="0.08"/><rect x="0" y="276" width="920" height="1" fill="#000000" opacity="0.08"/><rect x="0" y="280" width="920" height="1" fill="#000000" opacity="0.08"/><rect x="0" y="284" width="920" height="1" fill="#000000" opacity="0.08"/><rect x="0" y="288" width="920" height="1" fill="#000000" opacity="0.08"/><rect x="0" y="292" width="920" height="1" fill="#000000" opacity="0.08"/><rect x="0" y="296" width="920" height="1" fill="#000000" opacity="0.08"/><rect x="0" y="300" width="920" height="1" fill="#000000" opacity="0.08"/><rect x="0" y="304" width="920" height="1" fill="#000000" opacity="0.08"/><rect x="0" y="308" width="920" height="1" fill="#000000" opacity="0.08"/><rect x="0" y="312" width="920" height="1" fill="#000000" opacity="0.08"/><rect x="0" y="316" width="920" height="1" fill="#000000" opacity="0.08"/><rect x="0" y="320" width="920" height="1" fill="#000000" opacity="0.08"/><rect x="0" y="324" width="920" height="1" fill="#000000" opacity="0.08"/><rect x="0" y="328" width="920" height="1" fill="#000000" opacity="0.08"/><rect x="0" y="332" width="920" height="1" fill="#000000" opacity="0.08"/><rect x="0" y="336" width="920" height="1" fill="#000000" opacity="0.08"/><rect x="0" y="340" width="920" height="1" fill="#000000" opacity="0.08"/><rect x="0" y="344" width="920" height="1" fill="#000000" opacity="0.08"/><rect x="0" y="348" width="920" height="1" fill="#000000" opacity="0.08"/><rect x="0" y="352" width="920" height="1" fill="#000000" opacity="0.08"/><rect x="0" y="356" width="920" height="1" fill="#000000" opacity="0.08"/><rect x="0" y="360" width="920" height="1" fill="#000000" opacity="0.08"/><rect x="0" y="364" width="920" height="1" fill="#000000" opacity="0.08"/><rect x="0" y="368" width="920" height="1" fill="#000000" opacity="0.08"/><rect x="0" y="372" width="920" height="1" fill="#000000" opacity="0.08"/><rect x="0" y="376" width="920" height="1" fill="#000000" opacity="0.08"/><rect x="0" y="380" width="920" height="1" fill="#000000" opacity="0.08"/><rect x="0" y="384" width="920" height="1" fill="#000000" opacity="0.08"/><rect x="0" y="388" width="920" height="1" fill="#000000" opacity="0.08"/><rect x="0" y="392" width="920" height="1" fill="#000000" opacity="0.08"/><rect x="0" y="396" width="920" height="1" fill="#000000" opacity="0.08"/><rect x="0" y="400" width="920" height="1" fill="#000000" opacity="0.08"/><rect x="0" y="404" width="920" height="1" fill="#000000" opacity="0.08"/><rect x="0" y="408" width="920" height="1" fill="#000000" opacity="0.08"/><rect x="0" y="412" width="920" height="1" fill="#000000" opacity="0.08"/><rect x="0" y="416" width="920" height="1" fill="#000000" opacity="0.08"/><rect x="0" y="420" width="920" height="1" fill="#000000" opacity="0.08"/><rect x="0" y="424" width="920" height="1" fill="#000000" opacity="0.08"/><rect x="0" y="428" width="920" height="1" fill="#000000" opacity="0.08"/><rect x="0" y="432" width="920" height="1" fill="#000000" opacity="0.08"/><rect x="0" y="436" width="920" height="1" fill="#000000" opacity="0.08"/><rect x="0" y="440" width="920" height="1" fill="#000000" opacity="0.08"/><rect x="0" y="444" width="920" height="1" fill="#000000" opacity="0.08"/><rect x="0" y="448" width="920" height="1" fill="#000000" opacity="0.08"/><rect x="0" y="452" width="920" height="1" fill="#000000" opacity="0.08"/><rect x="0" y="456" width="920" height="1" fill="#000000" opacity="0.08"/><rect x="0" y="460" width="920" height="1" fill="#000000" opacity="0.08"/><rect x="0" y="464" width="920" height="1" fill="#000000" opacity="0.08"/><rect x="0" y="468" width="920" height="1" fill="#000000" opacity="0.08"/><rect x="0" y="472" width="920" height="1" fill="#000000" opacity="0.08"/><rect x="0" y="476" width="920" height="1" fill="#000000" opacity="0.08"/><rect x="0" y="480" width="920" height="1" fill="#000000" opacity="0.08"/><rect x="0" y="484" width="920" height="1" fill="#000000" opacity="0.08"/><rect x="0" y="488" width="920" height="1" fill="#000000" opacity="0.08"/><rect x="0" y="492" width="920" height="1" fill="#000000" opacity="0.08"/><rect x="0" y="496" width="920" height="1" fill="#000000" opacity="0.08"/><rect x="0" y="500" width="920" height="1" fill="#000000" opacity="0.08"/><rect x="0" y="504" width="920" height="1" fill="#000000" opacity="0.08"/><rect x="0" y="508" width="920" height="1" fill="#000000" opacity="0.08"/><rect x="0" y="512" width="920" height="1" fill="#000000" opacity="0.08"/><rect x="0" y="516" width="920" height="1" fill="#000000" opacity="0.08"/><rect x="0" y="520" width="920" height="1" fill="#000000" opacity="0.08"/><rect x="0" y="524" width="920" height="1" fill="#000000" opacity="0.08"/><rect x="0" y="528" width="920" height="1" fill="#000000" opacity="0.08"/><rect x="0" y="532" width="920" height="1" fill="#000000" opacity="0.08"/><rect x="0" y="536" width="920" height="1" fill="#000000" opacity="0.08"/><rect x="0" y="540" width="920" height="1" fill="#000000" opacity="0.08"/><rect x="0" y="544" width="920" height="1" fill="#000000" opacity="0.08"/><rect x="0" y="548" width="920" height="1" fill="#000000" opacity="0.08"/>
</svg>