<?xml version="1.0" encoding="UTF-8"?>
<svg xmlns="http://www.w3.org/2000/svg" width="920" height="552" viewBox="0 0 920 552" shape-rendering="crispEdges">
<rect x="0" y="0" width="920" height="552" fill="none" opacity="0"/><rect x="0" y="0" width="920" height="10" fill="#cf6d63" opacity="0.14"/><rect x="0" y="542" width="920" height="10" fill="#cf6d63" opacity="0.14"/><rect x="0" y="0" width="10" height="552" fill="#cf6d63" opacity="0.1"/><rect x="910" y="0" width="10" height="552" fill="#cf6d63" opacity="0.1"/><rect x="18" y="18" width="92" height="10" fill="#cf6d63" opacity="0.5"/><rect x="18" y="18" width="10" height="72" fill="#cf6d63" opacity="0.5"/><rect x="810" y="18" width="92" height="10" fill="#cf6d63" opacity="0.5"/><rect x="892" y="18" width="10" height="72" fill="#cf6d63" opacity="0.5"/><rect x="18" y="524" width="92" height="10" fill="#cf6d63" opacity="0.5"/><rect x="18" y="462" width="10" height="72" fill="#cf6d63" opacity="0.5"/><rect x="810" y="524" width="92" height="10" fill="#cf6d63" opacity="0.5"/><rect x="892" y="462" width="10" height="72" fill="#cf6d63" opacity="0.5"/><rect x="28" y="28" width="864" height="496" fill="#261916" opacity="0.08"/><rect x="0" y="0" width="920" height="64" fill="#17120f" opacity="0.18"/><rect x="0" y="466" width="920" height="86" fill="#17120f" opacity="0.2"/><polygon points="15.200000000000045,287 831.2,287 831.2,331 15.200000000000045,331" fill="#d48074" opacity="0.18"/><rect x="166" y="235" width="84" height="148" fill="#c96a5f" opacity="0.22"/><rect x="176" y="249" width="64" height="18" fill="#cf6d63" opacity="0.33999999999999997"/><rect x="176" y="285" width="64" height="12" fill="#eacebd" opacity="0.30000000000000004"/><rect x="284" y="213" width="428" height="18" fill="#d48074" opacity="0.14"/><rect x="284" y="263" width="428" height="14" fill="#cf6d63" opacity="0.28"/><rect x="284" y="311" width="428" height="10" fill="#eacebd" opacity="0.22"/><rect x="707" y="197" width="54" height="162" fill="#cf6d63" opacity="0.36"/><rect x="726" y="183" width="16" height="188" fill="#e9ccbb" opacity="0.42"/><line x1="250" y1="291" x2="774" y2="291" stroke="#cf6d63" stroke-width="4" opacity="0.22" stroke-linecap="square"/><line x1="250" y1="337" x2="774" y2="337" stroke="#cf6d63" stroke-width="3" opacity="0.16" stroke-linecap="square"/><line x1="250" y1="373" x2="774" y2="373" stroke="#ebd1bf" stroke-width="3" opacity="0.14" stroke-linecap="square"/><line x1="682" y1="323" x2="786" y2="323" stroke="#cf6d63" stroke-width="5" opacity="0.30000000000000004" stroke-linecap="square"/><rect x="178" y="118" width="6" height="6" fill="#d58276" opacity="0.3384592"/><rect x="188" y="120" width="4" height="2" fill="#cf6d63" opacity="0.2233312"/><rect x="168" y="128" width="24" height="2" fill="#e9ccbb" opacity="0.1430064"/><rect x="856" y="436" width="10" height="10" fill="#d58276" opacity="0.2808028"/><rect x="870" y="438" width="8" height="2" fill="#cf6d63" opacity="0.1980664"/><rect x="846" y="450" width="28" height="2" fill="#e9ccbb" opacity="0.1699752"/><rect x="417" y="397" width="7" height="7" fill="#d58276" opacity="0.2243884"/><rect x="428" y="399" width="5" height="2" fill="#cf6d63" opacity="0.1856392"/><rect x="407" y="408" width="25" height="2" fill="#e9ccbb" opacity="0.17534639999999999"/><rect x="774" y="265" width="6" height="6" fill="#d58276" opacity="0.3360496"/><rect x="784" y="267" width="4" height="2" fill="#cf6d63" opacity="0.1831336"/><rect x="764" y="275" width="24" height="2" fill="#e9ccbb" opacity="0.1359666"/><rect x="119" y="136" width="8" height="8" fill="#d58276" opacity="0.2322796"/><rect x="131" y="138" width="6" height="2" fill="#cf6d63" opacity="0.22848639999999998"/><rect x="109" y="148" width="26" height="2" fill="#e9ccbb" opacity="0.1719528"/><rect x="808" y="70" width="6" height="6" fill="#d58276" opacity="0.2342368"/><rect x="818" y="72" width="4" height="2" fill="#cf6d63" opacity="0.18000159999999998"/><rect x="798" y="80" width="24" height="2" fill="#e9ccbb" opacity="0.12409919999999999"/><rect x="384" y="265" width="14" height="14" fill="#d58276" opacity="0.28561"/><rect x="402" y="267" width="12" height="2" fill="#cf6d63" opacity="0.1870296"/><rect x="374" y="283" width="32" height="2" fill="#e9ccbb" opacity="0.1534314"/><rect x="414" y="496" width="10" height="10" fill="#d58276" opacity="0.32455"/><rect x="428" y="498" width="8" height="2" fill="#cf6d63" opacity="0.2579952"/><rect x="404" y="510" width="28" height="2" fill="#e9ccbb" opacity="0.1567998"/><rect x="723" y="373" width="14" height="14" fill="#d58276" opacity="0.2439304"/><rect x="741" y="375" width="12" height="2" fill="#cf6d63" opacity="0.1941416"/><rect x="713" y="391" width="32" height="2" fill="#e9ccbb" opacity="0.1493832"/><rect x="376" y="218" width="10" height="10" fill="#d58276" opacity="0.302902"/><rect x="390" y="220" width="8" height="2" fill="#cf6d63" opacity="0.223984"/><rect x="366" y="232" width="28" height="2" fill="#e9ccbb" opacity="0.12914219999999998"/><rect x="0" y="0" width="920" height="1" fill="#000000" opacity="0.08"/><rect x="0" y="4" width="920" height="1" fill="#000000" opacity="0.08"/><rect x="0" y="8" width="920" height="1" fill="#000000" opacity="0.08"/><rect x="0" y="12" width="920" height="1" fill="#000000" opacity="0.08"/><rect x="0" y="16" width="920" height="1" fill="#000000" opacity="0.08"/><rect x="0" y="20" width="920" height="1" fill="#000000" opacity="0.08"/><rect x="0" y="24" width="920" height="1" fill="#000000" opacity="0.08"/><rect x="0" y="28" width="920" height="1" fill="#000000" opacity="0.08"/><rect x="0" y="32" width="920" height="1" fill="#000000" opacity="0.08"/><rect x="0" y="36" width="920" height="1" fill="#000000" opacity="0.08"/><rect x="0" y="40" width="920" height="1" fill="#000000" opacity="0.08"/><rect x="0" y="44" width="920" height="1" fill="#000000" opacity="0.08"/><rect x="0" y="48" width="920" height="1" fill="#000000" opacity="0.08"/><rect x="0" y="52" width="920" height="1" fill="#000000" opacity="0.08"/><rect x="0" y="56" width="920" height="1" fill="#000000" opacity="0.08"/><rect x="0" y="60" width="920" height="1" fill="#000000" opacity="0.08"/><rect x="0" y="64" width="920" height="1" fill="#000000" opacity="0.08"/><rect x="0" y="68" width="920" height="1" fill="#000000" opacity="0.08"/><rect x="0" y="72" width="920" height="1" fill="#000000" opacity="0.08"/><rect x="0" y="76" width="920" height="1" fill="#000000" opacity="0.08"/><rect x="0" y="80" width="920" height="1" fill="#000000" opacity="0.08"/><rect x="0" y="84" width="920" height="1" fill="#000000" opacity="0.08"/><rect x="0" y="88" width="920" height="1" fill="#000000" opacity="0.08"/><rect x="0" y="92" width="920" height="1" fill="#000000" opacity="0.08"/><rect x="0" y="96" width="920" height="1" fill="#000000" opacity="0.08"/><rect x="0" y="100" width="920" height="1" fill="#000000" opacity="0.08"/><rect x="0" y="104" width="920" height="1" fill="#000000" opacity="0.08"/><rect x="0" y="108" width="920" height="1" fill="#000000" opacity="0.08"/><rect x="0" y="112" width="920" height="1" fill="#000000" opacity="0.08"/><rect x="0" y="116" width="920" height="1" fill="#000000" opacity="0.08"/><rect x="0" y="120" width="920" height="1" fill="#000000" opacity="0.08"/><rect x="0" y="124" width="920" height="1" fill="#000000" opacity="0.08"/><rect x="0" y="128" width="920" height="1" fill="#000000" opacity="0.08"/><rect x="0" y="132" width="920" height="1" fill="#000000" opacity="0.08"/><rect x="0" y="136" width="920" height="1" fill="#000000" opacity="0.08"/><rect x="0" y="140" width="920" height="1" fill="#000000" opacity="0.08"/><rect x="0" y="144" width="920" height="1" fill="#000000" opacity="0.08"/><rect x="0" y="148" width="920" height="1" fill="#000000" opacity="0.08"/><rect x="0" y="152" width="920" height="1" fill="#000000" opacity="0.08"/><rect x="0" y="156" width="920" height="1" fill="#000000" opacity="0.08"/><rect x="0" y="160" width="920" height="1" fill="#000000" opacity="0.08"/><rect x="0" y="164" width="920" height="1" fill="#000000" opacity="0.08"/><rect x="0" y="168" width="920" height="1" fill="#000000" opacity="0.08"/><rect x="0" y="172" width="920" height="1" fill="#000000" opacity="0.08"/><rect x="0" y="176" width="920" height="1" fill="#000000" opacity="0.08"/><rect x="0" y="180" width="920" height="1" fill="#000000" opacity="0.08"/><rect x="0" y="184" width="920" height="1" fill="#000000" opacity="0.08"/><rect x="0" y="188" width="920" height="1" fill="#000000" opacity="0.08"/><rect x="0" y="192" width="920" height="1" fill="#000000" opacity="0.08"/><rect x="0" y="196" width="920" height="1" fill="#000000" opacity="0.08"/><rect x="0" y="200" width="920" height="1" fill="#000000" opacity="0.08"/><rect x="0" y="204" width="920" height="1" fill="#000000" opacity="0.08"/><rect x="0" y="208" width="920" height="1" fill="#000000" opacity="0.08"/><rect x="0" y="212" width="920" height="1" fill="#000000" opacity="0.08"/><rect x="0" y="216" width="920" height="1" fill="#000000" opacity="0.08"/><rect x="0" y="220" width="920" height="1" fill="#000000" opacity="0.08"/><rect x="0" y="224" width="920" height="1" fill="#000000" opacity="0.08"/><rect x="0" y="228" width="920" height="1" fill="#000000" opacity="0.08"/><rect x="0" y="232" width="920" height="1" fill="#000000" opacity="0.08"/><rect x="0" y="236" width="920" height="1" fill="#000000" opacity="0.08"/><rect x="0" y="240" width="920" height="1" fill="#000000" opacity="0.08"/><rect x="0" y="244" width="920" height="1" fill="#000000" opacity="0.08"/><rect x="0" y="248" width="920" height="1" fill="#000000" opacity="0.08"/><rect x="0" y="252" width="920" height="1" fill="#000000" opacity="0.08"/><rect x="0" y="256" width="920" height="1" fill="#000000" opacity="0.08"/><rect x="0" y="260" width="920" height="1" fill="#000000" opacity="0.08"/><rect x="0" y="264" width="920" height="1" fill="#000000" opacity="0.08"/><rect x="0" y="268" width="920" height="1" fill="#000000" opacity="0.08"/><rect x="0" y="272" width="920" height="1" fill="#000000" opacity="0.08"/><rect x="0" y="276" width="920" height="1" fill="#000000" opacity="0.08"/><rect x="0" y="280" width="920" height="1" fill="#000000" opacity="0.08"/><rect x="0" y="284" width="920" height="1" fill="#000000" opacity="0.08"/><rect x="0" y="288" width="920" height="1" fill="#000000" opacity="0.08"/><rect x="0" y="292" width="920" height="1" fill="#000000" opacity="0.08"/><rect x="0" y="296" width="920" height="1" fill="#000000" opacity="0.08"/><rect x="0" y="300" width="920" height="1" fill="#000000" opacity="0.08"/><rect x="0" y="304" width="920" height="1" fill="#000000" opacity="0.08"/><rect x="0" y="308" width="920" height="1" fill="#000000" opacity="0.08"/><rect x="0" y="312" width="920" height="1" fill="#000000" opacity="0.08"/><rect x="0" y="316" width="920" height="1" fill="#000000" opacity="0.08"/><rect x="0" y="320" width="920" height="1" fill="#000000" opacity="0.08"/><rect x="0" y="324" width="920" height="1" fill="#000000" opacity="0.08"/><rect x="0" y="328" width="920" height="1" fill="#000000" opacity="0.08"/><rect x="0" y="332" width="920" height="1" fill="#000000" opacity="0.08"/><rect x="0" y="336" width="920" height="1" fill="#000000" opacity="0.08"/><rect x="0" y="340" width="920" height="1" fill="#000000" opacity="0.08"/><rect x="0" y="344" width="920" height="1" fill="#000000" opacity="0.08"/><rect x="0" y="348" width="920" height="1" fill="#000000" opacity="0.08"/><rect x="0" y="352" width="920" height="1" fill="#000000" opacity="0.08"/><rect x="0" y="356" width="920" height="1" fill="#000000" opacity="0.08"/><rect x="0" y="360" width="920" height="1" fill="#000000" opacity="0.08"/><rect x="0" y="364" width="920" height="1" fill="#000000" opacity="0.08"/><rect x="0" y="368" width="920" height="1" fill="#000000" opacity="0.08"/><rect x="0" y="372" width="920" height="1" fill="#000000" opacity="0.08"/><rect x="0" y="376" width="920" height="1" fill="#000000" opacity="0.08"/><rect x="0" y="380" width="920" height="1" fill="#000000" opacity="0.08"/><rect x="0" y="384" width="920" height="1" fill="#000000" opacity="0.08"/><rect x="0" y="388" width="920" height="1" fill="#000000" opacity="0.08"/><rect x="0" y="392" width="920" height="1" fill="#000000" opacity="0.08"/><rect x="0" y="396" width="920" height="1" fill="#000000" opacity="0.08"/><rect x="0" y="400" width="920" height="1" fill="#000000" opacity="0.08"/><rect x="0" y="404" width="920" height="1" fill="#000000" opacity="0.08"/><rect x="0" y="408" width="920" height="1" fill="#000000" opacity="0.08"/><rect x="0" y="412" width="920" height="1" fill="#000000" opacity="0.08"/><rect x="0" y="416" width="920" height="1" fill="#000000" opacity="0.08"/><rect x="0" y="420" width="920" height="1" fill="#000000" opacity="0.08"/><rect x="0" y="424" width="920" height="1" fill="#000000" opacity="0.08"/><rect x="0" y="428" width="920" height="1" fill="#000000" opacity="0.08"/><rect x="0" y="432" width="920" height="1" fill="#000000" opacity="0.08"/><rect x="0" y="436" width="920" height="1" fill="#000000" opacity="0.08"/><rect x="0" y="440" width="920" height="1" fill="#000000" opacity="0.08"/><rect x="0" y="444" width="920" height="1" fill="#000000" opacity="0.08"/><rect x="0" y="448" width="920" height="1" fill="#000000" opacity="0.08"/><rect x="0" y="452" width="920" height="1" fill="#000000" opacity="0.08"/><rect x="0" y="456" width="920" height="1" fill="#000000" opacity="0.08"/><rect x="0" y="460" width="920" height="1" fill="#000000" opacity="0.08"/><rect x="0" y="464" width="920" height="1" fill="#000000" opacity="0.08"/><rect x="0" y="468" width="920" height="1" fill="#000000" opacity="0.08"/><rect x="0" y="472" width="920" height="1" fill="#000000" opacity="0.08"/><rect x="0" y="476" width="920" height="1" fill="#000000" opacity="0.08"/><rect x="0" y="480" width="920" height="1" fill="#000000" opacity="0.08"/><rect x="0" y="484" width="920" height="1" fill="#000000" opacity="0.08"/><rect x="0" y="488" width="920" height="1" fill="#000000" opacity="0.08"/><rect x="0" y="492" width="920" height="1" fill="#000000" opacity="0.08"/><rect x="0" y="496" width="920" height="1" fill="#000000" opacity="0.08"/><rect x="0" y="500" width="920" height="1" fill="#000000" opacity="0.08"/><rect x="0" y="504" width="920" height="1" fill="#000000" opacity="0.08"/><rect x="0" y="508" width="920" height="1" fill="#000000" opacity="0.08"/><rect x="0" y="512" width="920" height="1" fill="#000000" opacity="0.08"/><rect x="0" y="516" width="920" height="1" fill="#000000" opacity="0.08"/><rect x="0" y="520" width="920" height="1" fill="#000000" opacity="0.08"/><rect x="0" y="524" width="920" height="1" fill="#000000" opacity="0.08"/><rect x="0" y="528" width="920" height="1" fill="#000000" opacity="0.08"/><rect x="0" y="532" width="920" height="1" fill="#000000" opacity="0.08"/><rect x="0" y="536" width="920" height="1" fill="#000000" opacity="0.08"/><rect x="0" y="540" width="920" height="1" fill="#000000" opacity="0.08"/><rect x="0" y="544" width="920" height="1" fill="#000000" opacity="0.08"/><rect x="0" y="548" width="920" height="1" fill="#000000" opacity="0.08"/>
</svg>