<?xml version="1.0" encoding="UTF-8"?>
<svg xmlns="http://www.w3.org/2000/svg" width="920" height="552" viewBox="0 0 920 552" shape-rendering="crispEdges">
<rect x="0" y="0" width="920" height="552" fill="none" opacity="0"/><rect x="0" y="0" width="920" height="10" fill="#d0a77d" opacity="0.14"/><rect x="0" y="542" width="920" height="10" fill="#d0a77d" opacity="0.14"/><rect x="0" y="0" width="10" height="552" fill="#d0a77d" opacity="0.1"/><rect x="910" y="0" width="10" height="552" fill="#d0a77d" opacity="0.1"/><rect x="18" y="18" width="92" height="10" fill="#d0a77d" opacity="0.5"/><rect x="18" y="18" width="10" height="72" fill="#d0a77d" opacity="0.5"/><rect x="810" y="18" width="92" height="10" fill="#d0a77d" opacity="0.5"/><rect x="892" y="18" width="10" height="72" fill="#d0a77d" opacity="0.5"/><rect x="18" y="524" width="92" height="10" fill="#d0a77d" opacity="0.5"/><rect x="18" y="462" width="10" height="72" fill="#d0a77d" opacity="0.5"/><rect x="810" y="524" width="92" height="10" fill="#d0a77d" opacity="0.5"/><rect x="892" y="462" width="10" height="72" fill="#d0a77d" opacity="0.5"/><rect x="28" y="28" width="864" height="496" fill="#261e18" opacity="0.08"/><rect x="0" y="0" width="920" height="64" fill="#17120f" opacity="0.18"/><rect x="0" y="466" width="920" height="86" fill="#17120f" opacity="0.2"/><polygon points="15.200000000000045,287 831.2,287 831.2,331 15.200000000000045,331" fill="#d5b08a" opacity="0.18"/><rect x="166" y="235" width="84" height="148" fill="#ca9a74" opacity="0.22"/><rect x="176" y="249" width="64" height="18" fill="#d0a77d" opacity="0.20500000000000002"/><rect x="176" y="285" width="64" height="12" fill="#ead8c1" opacity="0.18000000000000002"/><rect x="284" y="213" width="428" height="18" fill="#d5b08a" opacity="0.14"/><rect x="284" y="263" width="428" height="14" fill="#d0a77d" opacity="0.16"/><rect x="284" y="311" width="428" height="10" fill="#ead8c1" opacity="0.22"/><rect x="352" y="197" width="41" height="162" fill="#d0a77d" opacity="0.22499999999999998"/><rect x="365" y="183" width="16" height="188" fill="#e9d7bf" opacity="0.285"/><line x1="250" y1="291" x2="774" y2="291" stroke="#d0a77d" stroke-width="4" opacity="0.22" stroke-linecap="square"/><line x1="250" y1="337" x2="774" y2="337" stroke="#d0a77d" stroke-width="3" opacity="0.16" stroke-linecap="square"/><line x1="250" y1="373" x2="774" y2="373" stroke="#ebd9c3" stroke-width="3" opacity="0.14" stroke-linecap="square"/><line x1="321" y1="323" x2="425" y2="323" stroke="#d0a77d" stroke-width="5" opacity="0.18000000000000002" stroke-linecap="square"/><rect x="771" y="511" width="13" height="13" fill="#d6b18c" opacity="0.3381844"/><rect x="788" y="513" width="11" height="2" fill="#d0a77d" opacity="0.20984239999999998"/><rect x="761" y="528" width="31" height="2" fill="#e9d7bf" opacity="0.1563978"/><rect x="126" y="158" width="7" height="7" fill="#d6b18c" opacity="0.224224"/><rect x="137" y="160" width="5" height="2" fill="#d0a77d" opacity="0.201144"/><rect x="116" y="169" width="25" height="2" fill="#e9d7bf" opacity="0.1516806"/><rect x="666" y="277" width="10" height="10" fill="#d6b18c" opacity="0.3261436"/><rect x="680" y="279" width="8" height="2" fill="#d0a77d" opacity="0.2057048"/><rect x="656" y="291" width="28" height="2" fill="#e9d7bf" opacity="0.15039539999999998"/><rect x="405" y="504" width="7" height="7" fill="#d6b18c" opacity="0.237166"/><rect x="416" y="506" width="5" height="2" fill="#d0a77d" opacity="0.2378064"/><rect x="395" y="515" width="25" height="2" fill="#e9d7bf" opacity="0.15583919999999998"/><rect x="231" y="265" width="9" height="9" fill="#d6b18c" opacity="0.3155032"/><rect x="244" y="267" width="7" height="2" fill="#d0a77d" opacity="0.18484"/><rect x="221" y="278" width="27" height="2" fill="#e9d7bf" opacity="0.1787508"/><rect x="495" y="245" width="8" height="8" fill="#d6b18c" opacity="0.2467792"/><rect x="507" y="247" width="6" height="2" fill="#d0a77d" opacity="0.1983656"/><rect x="485" y="257" width="26" height="2" fill="#e9d7bf" opacity="0.1288692"/><rect x="663" y="238" width="7" height="7" fill="#d6b18c" opacity="0.3305392"/><rect x="674" y="240" width="5" height="2" fill="#d0a77d" opacity="0.229372"/><rect x="653" y="249" width="25" height="2" fill="#e9d7bf" opacity="0.1598124"/><rect x="681" y="283" width="11" height="11" fill="#d6b18c" opacity="0.3099448"/><rect x="696" y="285" width="9" height="2" fill="#d0a77d" opacity="0.18051119999999998"/><rect x="671" y="298" width="29" height="2" fill="#e9d7bf" opacity="0.15131039999999998"/><rect x="430" y="72" width="9" height="9" fill="#d6b18c" opacity="0.2636728"/><rect x="443" y="74" width="7" height="2" fill="#d0a77d" opacity="0.2205096"/><rect x="420" y="85" width="27" height="2" fill="#e9d7bf" opacity="0.1271466"/><rect x="231" y="95" width="14" height="14" fill="#d6b18c" opacity="0.3330964"/><rect x="249" y="97" width="12" height="2" fill="#d0a77d" opacity="0.25274399999999997"/><rect x="221" y="113" width="32" height="2" fill="#e9d7bf" opacity="0.1307766"/><rect x="0" y="0" width="920" height="1" fill="#000000" opacity="0.08"/><rect x="0" y="4" width="920" height="1" fill="#000000" opacity="0.08"/><rect x="0" y="8" width="920" height="1" fill="#000000" opacity="0.08"/><rect x="0" y="12" width="920" height="1" fill="#000000" opacity="0.08"/><rect x="0" y="16" width="920" height="1" fill="#000000" opacity="0.08"/><rect x="0" y="20" width="920" height="1" fill="#000000" opacity="0.08"/><rect x="0" y="24" width="920" height="1" fill="#000000" opacity="0.08"/><rect x="0" y="28" width="920" height="1" fill="#000000" opacity="0.08"/><rect x="0" y="32" width="920" height="1" fill="#000000" opacity="0.08"/><rect x="0" y="36" width="920" height="1" fill="#000000" opacity="0.08"/><rect x="0" y="40" width="920" height="1" fill="#000000" opacity="0.08"/><rect x="0" y="44" width="920" height="1" fill="#000000" opacity="0.08"/><rect x="0" y="48" width="920" height="1" fill="#000000" opacity="0.08"/><rect x="0" y="52" width="920" height="1" fill="#000000" opacity="0.08"/><rect x="0" y="56" width="920" height="1" fill="#000000" opacity="0.08"/><rect x="0" y="60" width="920" height="1" fill="#000000" opacity="0.08"/><rect x="0" y="64" width="920" height="1" fill="#000000" opacity="0.08"/><rect x="0" y="68" width="920" height="1" fill="#000000" opacity="0.08"/><rect x="0" y="72" width="920" height="1" fill="#000000" opacity="0.08"/><rect x="0" y="76" width="920" height="1" fill="#000000" opacity="0.08"/><rect x="0" y="80" width="920" height="1" fill="#000000" opacity="0.08"/><rect x="0" y="84" width="920" height="1" fill="#000000" opacity="0.08"/><rect x="0" y="88" width="920" height="1" fill="#000000" opacity="0.08"/><rect x="0" y="92" width="920" height="1" fill="#000000" opacity="0.08"/><rect x="0" y="96" width="920" height="1" fill="#000000" opacity="0.08"/><rect x="0" y="100" width="920" height="1" fill="#000000" opacity="0.08"/><rect x="0" y="104" width="920" height="1" fill="#000000" opacity="0.08"/><rect x="0" y="108" width="920" height="1" fill="#000000" opacity="0.08"/><rect x="0" y="112" width="920" height="1" fill="#000000" opacity="0.08"/><rect x="0" y="116" width="920" height="1" fill="#000000" opacity="0.08"/><rect x="0" y="120" width="920" height="1" fill="#000000" opacity="0.08"/><rect x="0" y="124" width="920" height="1" fill="#000000" opacity="0.08"/><rect x="0" y="128" width="920" height="1" fill="#000000" opacity="0.08"/><rect x="0" y="132" width="920" height="1" fill="#000000" opacity="0.08"/><rect x="0" y="136" width="920" height="1" fill="#000000" opacity="0.08"/><rect x="0" y="140" width="920" height="1" fill="#000000" opacity="0.08"/><rect x="0" y="144" width="920" height="1" fill="#000000" opacity="0.08"/><rect x="0" y="148" width="920" height="1" fill="#000000" opacity="0.08"/><rect x="0" y="152" width="920" height="1" fill="#000000" opacity="0.08"/><rect x="0" y="156" width="920" height="1" fill="#000000" opacity="0.08"/><rect x="0" y="160" width="920" height="1" fill="#000000" opacity="0.08"/><rect x="0" y="164" width="920" height="1" fill="#000000" opacity="0.08"/><rect x="0" y="168" width="920" height="1" fill="#000000" opacity="0.08"/><rect x="0" y="172" width="920" height="1" fill="#000000" opacity="0.08"/><rect x="0" y="176" width="920" height="1" fill="#000000" opacity="0.08"/><rect x="0" y="180" width="920" height="1" fill="#000000" opacity="0.08"/><rect x="0" y="184" width="920" height="1" fill="#000000" opacity="0.08"/><rect x="0" y="188" width="920" height="1" fill="#000000" opacity="0.08"/><rect x="0" y="192" width="920" height="1" fill="#000000" opacity="0.08"/><rect x="0" y="196" width="920" height="1" fill="#000000" opacity="0.08"/><rect x="0" y="200" width="920" height="1" fill="#000000" opacity="0.08"/><rect x="0" y="204" width="920" height="1" fill="#000000" opacity="0.08"/><rect x="0" y="208" width="920" height="1" fill="#000000" opacity="0.08"/><rect x="0" y="212" width="920" height="1" fill="#000000" opacity="0.08"/><rect x="0" y="216" width="920" height="1" fill="#000000" opacity="0.08"/><rect x="0" y="220" width="920" height="1" fill="#000000" opacity="0.08"/><rect x="0" y="224" width="920" height="1" fill="#000000" opacity="0.08"/><rect x="0" y="228" width="920" height="1" fill="#000000" opacity="0.08"/><rect x="0" y="232" width="920" height="1" fill="#000000" opacity="0.08"/><rect x="0" y="236" width="920" height="1" fill="#000000" opacity="0.08"/><rect x="0" y="240" width="920" height="1" fill="#000000" opacity="0.08"/><rect x="0" y="244" width="920" height="1" fill="#000000" opacity="0.08"/><rect x="0" y="248" width="920" height="1" fill="#000000" opacity="0.08"/><rect x="0" y="252" width="920" height="1" fill="#000000" opacity="0.08"/><rect x="0" y="256" width="920" height="1" fill="#000000" opacity="0.08"/><rect x="0" y="260" width="920" height="1" fill="#000000" opacity="0.08"/><rect x="0" y="264" width="920" height="1" fill="#000000" opacity="0.08"/><rect x="0" y="268" width="920" height="1" fill="#000000" opacity="0.08"/><rect x="0" y="272" width="920" height="1" fill="#000000" opacity="0.08"/><rect x="0" y="276" width="920" height="1" fill="#000000" opacity="0.08"/><rect x="0" y="280" width="920" height="1" fill="#000000" opacity="0.08"/><rect x="0" y="284" width="920" height="1" fill="#000000" opacity="0.08"/><rect x="0" y="288" width="920" height="1" fill="#000000" opacity="0.08"/><rect x="0" y="292" width="920" height="1" fill="#000000" opacity="0.08"/><rect x="0" y="296" width="920" height="1" fill="#000000" opacity="0.08"/><rect x="0" y="300" width="920" height="1" fill="#000000" opacity="0.08"/><rect x="0" y="304" width="920" height="1" fill="#000000" opacity="0.08"/><rect x="0" y="308" width="920" height="1" fill="#000000" opacity="0.08"/><rect x="0" y="312" width="920" height="1" fill="#000000" opacity="0.08"/><rect x="0" y="316" width="920" height="1" fill="#000000" opacity="0.08"/><rect x="0" y="320" width="920" height="1" fill="#000000" opacity="0.08"/><rect x="0" y="324" width="920" height="1" fill="#000000" opacity="0.08"/><rect x="0" y="328" width="920" height="1" fill="#000000" opacity="0.08"/><rect x="0" y="332" width="920" height="1" fill="#000000" opacity="0.08"/><rect x="0" y="336" width="920" height="1" fill="#000000" opacity="0.08"/><rect x="0" y="340" width="920" height="1" fill="#000000" opacity="0.08"/><rect x="0" y="344" width="920" height="1" fill="#000000" opacity="0.08"/><rect x="0" y="348" width="920" height="1" fill="#000000" opacity="0.08"/><rect x="0" y="352" width="920" height="1" fill="#000000" opacity="0.08"/><rect x="0" y="356" width="920" height="1" fill="#000000" opacity="0.08"/><rect x="0" y="360" width="920" height="1" fill="#000000" opacity="0.08"/><rect x="0" y="364" width="920" height="1" fill="#000000" opacity="0.08"/><rect x="0" y="368" width="920" height="1" fill="#000000" opacity="0.08"/><rect x="0" y="372" width="920" height="1" fill="#000000" opacity="0.08"/><rect x="0" y="376" width="920" height="1" fill="#000000" opacity="0.08"/><rect x="0" y="380" width="920" height="1" fill="#000000" opacity="0.08"/><rect x="0" y="384" width="920" height="1" fill="#000000" opacity="0.08"/><rect x="0" y="388" width="920" height="1" fill="#000000" opacity="0.08"/><rect x="0" y="392" width="920" height="1" fill="#000000" opacity="0.08"/><rect x="0" y="396" width="920" height="1" fill="#000000" opacity="0.08"/><rect x="0" y="400" width="920" height="1" fill="#000000" opacity="0.08"/><rect x="0" y="404" width="920" height="1" fill="#000000" opacity="0.08"/><rect x="0" y="408" width="920" height="1" fill="#000000" opacity="0.08"/><rect x="0" y="412" width="920" height="1" fill="#000000" opacity="0.08"/><rect x="0" y="416" width="920" height="1" fill="#000000" opacity="0.08"/><rect x="0" y="420" width="920" height="1" fill="#000000" opacity="0.08"/><rect x="0" y="424" width="920" height="1" fill="#000000" opacity="0.08"/><rect x="0" y="428" width="920" height="1" fill="#000000" opacity="0.08"/><rect x="0" y="432" width="920" height="1" fill="#000000" opacity="0.08"/><rect x="0" y="436" width="920" height="1" fill="#000000" opacity="0.08"/><rect x="0" y="440" width="920" height="1" fill="#000000" opacity="0.08"/><rect x="0" y="444" width="920" height="1" fill="#000000" opacity="0.08"/><rect x="0" y="448" width="920" height="1" fill="#000000" opacity="0.08"/><rect x="0" y="452" width="920" height="1" fill="#000000" opacity="0.08"/><rect x="0" y="456" width="920" height="1" fill="#000000" opacity="0.08"/><rect x="0" y="460" width="920" height="1" fill="#000000" opacity="0.08"/><rect x="0" y="464" width="920" height="1" fill="#000000" opacity="0.08"/><rect x="0" y="468" width="920" height="1" fill="#000000" opacity="0.08"/><rect x="0" y="472" width="920" height="1" fill="#000000" opacity="0.08"/><rect x="0" y="476" width="920" height="1" fill="#000000" opacity="0.08"/><rect x="0" y="480" width="920" height="1" fill="#000000" opacity="0.08"/><rect x="0" y="484" width="920" height="1" fill="#000000" opacity="0.08"/><rect x="0" y="488" width="920" height="1" fill="#000000" opacity="0.08"/><rect x="0" y="492" width="920" height="1" fill="#000000" opacity="0.08"/><rect x="0" y="496" width="920" height="1" fill="#000000" opacity="0.08"/><rect x="0" y="500" width="920" height="1" fill="#000000" opacity="0.08"/><rect x="0" y="504" width="920" height="1" fill="#000000" opacity="0.08"/><rect x="0" y="508" width="920" height="1" fill="#000000" opacity="0.08"/><rect x="0" y="512" width="920" height="1" fill="#000000" opacity="0.08"/><rect x="0" y="516" width="920" height="1" fill="#000000" opacity="0.08"/><rect x="0" y="520" width="920" height="1" fill="#000000" opacity="0.08"/><rect x="0" y="524" width="920" height="1" fill="#000000" opacity="0.08"/><rect x="0" y="528" width="920" height="1" fill="#000000" opacity="0.08"/><rect x="0" y="532" width="920" height="1" fill="#000000" opacity="0.08"/><rect x="0" y="536" width="920" height="1" fill="#000000" opacity="0.08"/><rect x="0" y="540" width="920" height="1" fill="#000000" opacity="0.08"/><rect x="0" y="544" width="920" height="1" fill="#000000" opacity="0.08"/><rect x="0" y="548" width="920" height="1" fill="#000000" opacity="0.08"/>
</svg>