<?xml version="1.0" encoding="UTF-8"?>
<svg xmlns="http://www.w3.org/2000/svg" width="920" height="552" viewBox="0 0 920 552" shape-rendering="crispEdges">
<rect x="0" y="0" width="920" height="552" fill="none" opacity="0"/><rect x="0" y="0" width="920" height="10" fill="#b2a79e" opacity="0.14"/><rect x="0" y="542" width="920" height="10" fill="#b2a79e" opacity="0.14"/><rect x="0" y="0" width="10" height="552" fill="#b2a79e" opacity="0.1"/><rect x="910" y="0" width="10" height="552" fill="#b2a79e" opacity="0.1"/><rect x="18" y="18" width="92" height="10" fill="#b2a79e" opacity="0.5"/><rect x="18" y="18" width="10" height="72" fill="#b2a79e" opacity="0.5"/><rect x="810" y="18" width="92" height="10" fill="#b2a79e" opacity="0.5"/><rect x="892" y="18" width="10" height="72" fill="#b2a79e" opacity="0.5"/><rect x="18" y="524" width="92" height="10" fill="#b2a79e" opacity="0.5"/><rect x="18" y="462" width="10" height="72" fill="#b2a79e" opacity="0.5"/><rect x="810" y="524" width="92" height="10" fill="#b2a79e" opacity="0.5"/><rect x="892" y="462" width="10" height="72" fill="#b2a79e" opacity="0.5"/><rect x="28" y="28" width="864" height="496" fill="#231e1a" opacity="0.08"/><rect x="0" y="0" width="920" height="64" fill="#17120f" opacity="0.18"/><rect x="0" y="466" width="920" height="86" fill="#17120f" opacity="0.2"/><polygon points="15.200000000000045,287 831.2,287 831.2,331 15.200000000000045,331" fill="#bcb0a6" opacity="0.18"/><rect x="166" y="235" width="84" height="148" fill="#b19a8f" opacity="0.22"/><rect x="176" y="249" width="64" height="18" fill="#b2a79e" opacity="0.33999999999999997"/><rect x="176" y="285" width="64" height="12" fill="#e5d8c6" opacity="0.30000000000000004"/><rect x="284" y="213" width="428" height="18" fill="#bcb0a6" opacity="0.14"/><rect x="284" y="263" width="428" height="14" fill="#b2a79e" opacity="0.28"/><rect x="284" y="311" width="428" height="10" fill="#e5d8c6" opacity="0.22"/><rect x="707" y="197" width="54" height="162" fill="#b2a79e" opacity="0.36"/><rect x="726" y="183" width="16" height="188" fill="#e4d7c5" opacity="0.42"/><line x1="250" y1="291" x2="774" y2="291" stroke="#b2a79e" stroke-width="4" opacity="0.22" stroke-linecap="square"/><line x1="250" y1="337" x2="774" y2="337" stroke="#b2a79e" stroke-width="3" opacity="0.16" stroke-linecap="square"/><line x1="250" y1="373" x2="774" y2="373" stroke="#e6d9c7" stroke-width="3" opacity="0.14" stroke-linecap="square"/><line x1="682" y1="323" x2="786" y2="323" stroke="#b2a79e" stroke-width="5" opacity="0.30000000000000004" stroke-linecap="square"/><rect x="459" y="301" width="11" height="11" fill="#bdb1a7" opacity="0.32851359999999996"/><rect x="474" y="303" width="9" height="2" fill="#b2a79e" opacity="0.25480400000000003"/><rect x="449" y="316" width="29" height="2" fill="#e4d7c5" opacity="0.13014599999999998"/><rect x="315" y="268" width="11" height="11" fill="#bdb1a7" opacity="0.2638708"/><rect x="330" y="270" width="9" height="2" fill="#b2a79e" opacity="0.24932159999999998"/><rect x="305" y="283" width="29" height="2" fill="#e4d7c5" opacity="0.1257882"/><rect x="577" y="459" width="12" height="12" fill="#bdb1a7" opacity="0.2775304"/><rect x="593" y="461" width="10" height="2" fill="#b2a79e" opacity="0.2518808"/><rect x="567" y="475" width="30" height="2" fill="#e4d7c5" opacity="0.1560198"/><rect x="845" y="56" width="10" height="10" fill="#bdb1a7" opacity="0.25314760000000003"/><rect x="859" y="58" width="8" height="2" fill="#b2a79e" opacity="0.234788"/><rect x="835" y="70" width="28" height="2" fill="#e4d7c5" opacity="0.170208"/><rect x="66" y="450" width="10" height="10" fill="#bdb1a7" opacity="0.2591608"/><rect x="80" y="452" width="8" height="2" fill="#b2a79e" opacity="0.2143824"/><rect x="56" y="464" width="28" height="2" fill="#e4d7c5" opacity="0.1254882"/><rect x="821" y="87" width="12" height="12" fill="#bdb1a7" opacity="0.31929640000000004"/><rect x="837" y="89" width="10" height="2" fill="#b2a79e" opacity="0.236624"/><rect x="811" y="103" width="30" height="2" fill="#e4d7c5" opacity="0.158175"/><rect x="693" y="190" width="14" height="14" fill="#bdb1a7" opacity="0.2758264"/><rect x="711" y="192" width="12" height="2" fill="#b2a79e" opacity="0.20952479999999998"/><rect x="683" y="208" width="32" height="2" fill="#e4d7c5" opacity="0.145623"/><rect x="648" y="334" width="12" height="12" fill="#bdb1a7" opacity="0.2828524"/><rect x="664" y="336" width="10" height="2" fill="#b2a79e" opacity="0.21073039999999998"/><rect x="638" y="350" width="30" height="2" fill="#e4d7c5" opacity="0.12985739999999998"/><rect x="205" y="217" width="7" height="7" fill="#bdb1a7" opacity="0.2220112"/><rect x="216" y="219" width="5" height="2" fill="#b2a79e" opacity="0.2475096"/><rect x="195" y="228" width="25" height="2" fill="#e4d7c5" opacity="0.1311294"/><rect x="774" y="226" width="10" height="10" fill="#bdb1a7" opacity="0.2240416"/><rect x="788" y="228" width="8" height="2" fill="#b2a79e" opacity="0.22341519999999998"/><rect x="764" y="240" width="28" height="2" fill="#e4d7c5" opacity="0.1435758"/><rect x="0" y="0" width="920" height="1" fill="#000000" opacity="0.08"/><rect x="0" y="4" width="920" height="1" fill="#000000" opacity="0.08"/><rect x="0" y="8" width="920" height="1" fill="#000000" opacity="0.08"/><rect x="0" y="12" width="920" height="1" fill="#000000" opacity="0.08"/><rect x="0" y="16" width="920" height="1" fill="#000000" opacity="0.08"/><rect x="0" y="20" width="920" height="1" fill="#000000" opacity="0.08"/><rect x="0" y="24" width="920" height="1" fill="#000000" opacity="0.08"/><rect x="0" y="28" width="920" height="1" fill="#000000" opacity="0.08"/><rect x="0" y="32" width="920" height="1" fill="#000000" opacity="0.08"/><rect x="0" y="36" width="920" height="1" fill="#000000" opacity="0.08"/><rect x="0" y="40" width="920" height="1" fill="#000000" opacity="0.08"/><rect x="0" y="44" width="920" height="1" fill="#000000" opacity="0.08"/><rect x="0" y="48" width="920" height="1" fill="#000000" opacity="0.08"/><rect x="0" y="52" width="920" height="1" fill="#000000" opacity="0.08"/><rect x="0" y="56" width="920" height="1" fill="#000000" opacity="0.08"/><rect x="0" y="60" width="920" height="1" fill="#000000" opacity="0.08"/><rect x="0" y="64" width="920" height="1" fill="#000000" opacity="0.08"/><rect x="0" y="68" width="920" height="1" fill="#000000" opacity="0.08"/><rect x="0" y="72" width="920" height="1" fill="#000000" opacity="0.08"/><rect x="0" y="76" width="920" height="1" fill="#000000" opacity="0.08"/><rect x="0" y="80" width="920" height="1" fill="#000000" opacity="0.08"/><rect x="0" y="84" width="920" height="1" fill="#000000" opacity="0.08"/><rect x="0" y="88" width="920" height="1" fill="#000000" opacity="0.08"/><rect x="0" y="92" width="920" height="1" fill="#000000" opacity="0.08"/><rect x="0" y="96" width="920" height="1" fill="#000000" opacity="0.08"/><rect x="0" y="100" width="920" height="1" fill="#000000" opacity="0.08"/><rect x="0" y="104" width="920" height="1" fill="#000000" opacity="0.08"/><rect x="0" y="108" width="920" height="1" fill="#000000" opacity="0.08"/><rect x="0" y="112" width="920" height="1" fill="#000000" opacity="0.08"/><rect x="0" y="116" width="920" height="1" fill="#000000" opacity="0.08"/><rect x="0" y="120" width="920" height="1" fill="#000000" opacity="0.08"/><rect x="0" y="124" width="920" height="1" fill="#000000" opacity="0.08"/><rect x="0" y="128" width="920" height="1" fill="#000000" opacity="0.08"/><rect x="0" y="132" width="920" height="1" fill="#000000" opacity="0.08"/><rect x="0" y="136" width="920" height="1" fill="#000000" opacity="0.08"/><rect x="0" y="140" width="920" height="1" fill="#000000" opacity="0.08"/><rect x="0" y="144" width="920" height="1" fill="#000000" opacity="0.08"/><rect x="0" y="148" width="920" height="1" fill="#000000" opacity="0.08"/><rect x="0" y="152" width="920" height="1" fill="#000000" opacity="0.08"/><rect x="0" y="156" width="920" height="1" fill="#000000" opacity="0.08"/><rect x="0" y="160" width="920" height="1" fill="#000000" opacity="0.08"/><rect x="0" y="164" width="920" height="1" fill="#000000" opacity="0.08"/><rect x="0" y="168" width="920" height="1" fill="#000000" opacity="0.08"/><rect x="0" y="172" width="920" height="1" fill="#000000" opacity="0.08"/><rect x="0" y="176" width="920" height="1" fill="#000000" opacity="0.08"/><rect x="0" y="180" width="920" height="1" fill="#000000" opacity="0.08"/><rect x="0" y="184" width="920" height="1" fill="#000000" opacity="0.08"/><rect x="0" y="188" width="920" height="1" fill="#000000" opacity="0.08"/><rect x="0" y="192" width="920" height="1" fill="#000000" opacity="0.08"/><rect x="0" y="196" width="920" height="1" fill="#000000" opacity="0.08"/><rect x="0" y="200" width="920" height="1" fill="#000000" opacity="0.08"/><rect x="0" y="204" width="920" height="1" fill="#000000" opacity="0.08"/><rect x="0" y="208" width="920" height="1" fill="#000000" opacity="0.08"/><rect x="0" y="212" width="920" height="1" fill="#000000" opacity="0.08"/><rect x="0" y="216" width="920" height="1" fill="#000000" opacity="0.08"/><rect x="0" y="220" width="920" height="1" fill="#000000" opacity="0.08"/><rect x="0" y="224" width="920" height="1" fill="#000000" opacity="0.08"/><rect x="0" y="228" width="920" height="1" fill="#000000" opacity="0.08"/><rect x="0" y="232" width="920" height="1" fill="#000000" opacity="0.08"/><rect x="0" y="236" width="920" height="1" fill="#000000" opacity="0.08"/><rect x="0" y="240" width="920" height="1" fill="#000000" opacity="0.08"/><rect x="0" y="244" width="920" height="1" fill="#000000" opacity="0.08"/><rect x="0" y="248" width="920" height="1" fill="#000000" opacity="0.08"/><rect x="0" y="252" width="920" height="1" fill="#000000" opacity="0.08"/><rect x="0" y="256" width="920" height="1" fill="#000000" opacity="0.08"/><rect x="0" y="260" width="920" height="1" fill="#000000" opacity="0.08"/><rect x="0" y="264" width="920" height="1" fill="#000000" opacity="0.08"/><rect x="0" y="268" width="920" height="1" fill="#000000" opacity="0.08"/><rect x="0" y="272" width="920" height="1" fill="#000000" opacity="0.08"/><rect x="0" y="276" width="920" height="1" fill="#000000" opacity="0.08"/><rect x="0" y="280" width="920" height="1" fill="#000000" opacity="0.08"/><rect x="0" y="284" width="920" height="1" fill="#000000" opacity="0.08"/><rect x="0" y="288" width="920" height="1" fill="#000000" opacity="0.08"/><rect x="0" y="292" width="920" height="1" fill="#000000" opacity="0.08"/><rect x="0" y="296" width="920" height="1" fill="#000000" opacity="0.08"/><rect x="0" y="300" width="920" height="1" fill="#000000" opacity="0.08"/><rect x="0" y="304" width="920" height="1" fill="#000000" opacity="0.08"/><rect x="0" y="308" width="920" height="1" fill="#000000" opacity="0.08"/><rect x="0" y="312" width="920" height="1" fill="#000000" opacity="0.08"/><rect x="0" y="316" width="920" height="1" fill="#000000" opacity="0.08"/><rect x="0" y="320" width="920" height="1" fill="#000000" opacity="0.08"/><rect x="0" y="324" width="920" height="1" fill="#000000" opacity="0.08"/><rect x="0" y="328" width="920" height="1" fill="#000000" opacity="0.08"/><rect x="0" y="332" width="920" height="1" fill="#000000" opacity="0.08"/><rect x="0" y="336" width="920" height="1" fill="#000000" opacity="0.08"/><rect x="0" y="340" width="920" height="1" fill="#000000" opacity="0.08"/><rect x="0" y="344" width="920" height="1" fill="#000000" opacity="0.08"/><rect x="0" y="348" width="920" height="1" fill="#000000" opacity="0.08"/><rect x="0" y="352" width="920" height="1" fill="#000000" opacity="0.08"/><rect x="0" y="356" width="920" height="1" fill="#000000" opacity="0.08"/><rect x="0" y="360" width="920" height="1" fill="#000000" opacity="0.08"/><rect x="0" y="364" width="920" height="1" fill="#000000" opacity="0.08"/><rect x="0" y="368" width="920" height="1" fill="#000000" opacity="0.08"/><rect x="0" y="372" width="920" height="1" fill="#000000" opacity="0.08"/><rect x="0" y="376" width="920" height="1" fill="#000000" opacity="0.08"/><rect x="0" y="380" width="920" height="1" fill="#000000" opacity="0.08"/><rect x="0" y="384" width="920" height="1" fill="#000000" opacity="0.08"/><rect x="0" y="388" width="920" height="1" fill="#000000" opacity="0.08"/><rect x="0" y="392" width="920" height="1" fill="#000000" opacity="0.08"/><rect x="0" y="396" width="920" height="1" fill="#000000" opacity="0.08"/><rect x="0" y="400" width="920" height="1" fill="#000000" opacity="0.08"/><rect x="0" y="404" width="920" height="1" fill="#000000" opacity="0.08"/><rect x="0" y="408" width="920" height="1" fill="#000000" opacity="0.08"/><rect x="0" y="412" width="920" height="1" fill="#000000" opacity="0.08"/><rect x="0" y="416" width="920" height="1" fill="#000000" opacity="0.08"/><rect x="0" y="420" width="920" height="1" fill="#000000" opacity="0.08"/><rect x="0" y="424" width="920" height="1" fill="#000000" opacity="0.08"/><rect x="0" y="428" width="920" height="1" fill="#000000" opacity="0.08"/><rect x="0" y="432" width="920" height="1" fill="#000000" opacity="0.08"/><rect x="0" y="436" width="920" height="1" fill="#000000" opacity="0.08"/><rect x="0" y="440" width="920" height="1" fill="#000000" opacity="0.08"/><rect x="0" y="444" width="920" height="1" fill="#000000" opacity="0.08"/><rect x="0" y="448" width="920" height="1" fill="#000000" opacity="0.08"/><rect x="0" y="452" width="920" height="1" fill="#000000" opacity="0.08"/><rect x="0" y="456" width="920" height="1" fill="#000000" opacity="0.08"/><rect x="0" y="460" width="920" height="1" fill="#000000" opacity="0.08"/><rect x="0" y="464" width="920" height="1" fill="#000000" opacity="0.08"/><rect x="0" y="468" width="920" height="1" fill="#000000" opacity="0.08"/><rect x="0" y="472" width="920" height="1" fill="#000000" opacity="0.08"/><rect x="0" y="476" width="920" height="1" fill="#000000" opacity="0.08"/><rect x="0" y="480" width="920" height="1" fill="#000000" opacity="0.08"/><rect x="0" y="484" width="920" height="1" fill="#000000" opacity="0.08"/><rect x="0" y="488" width="920" height="1" fill="#000000" opacity="0.08"/><rect x="0" y="492" width="920" height="1" fill="#000000" opacity="0.08"/><rect x="0" y="496" width="920" height="1" fill="#000000" opacity="0.08"/><rect x="0" y="500" width="920" height="1" fill="#000000" opacity="0.08"/><rect x="0" y="504" width="920" height="1" fill="#000000" opacity="0.08"/><rect x="0" y="508" width="920" height="1" fill="#000000" opacity="0.08"/><rect x="0" y="512" width="920" height="1" fill="#000000" opacity="0.08"/><rect x="0" y="516" width="920" height="1" fill="#000000" opacity="0.08"/><rect x="0" y="520" width="920" height="1" fill="#000000" opacity="0.08"/><rect x="0" y="524" width="920" height="1" fill="#000000" opacity="0.08"/><rect x="0" y="528" width="920" height="1" fill="#000000" opacity="0.08"/><rect x="0" y="532" width="920" height="1" fill="#000000" opacity="0.08"/><rect x="0" y="536" width="920" height="1" fill="#000000" opacity="0.08"/><rect x="0" y="540" width="920" height="1" fill="#000000" opacity="0.08"/><rect x="0" y="544" width="920" height="1" fill="#000000" opacity="0.08"/><rect x="0" y="548" width="920" height="1" fill="#000000" opacity="0.08"/>
</svg>