<?xml version="1.0" encoding="UTF-8"?>
<svg xmlns="http://www.w3.org/2000/svg" width="984" height="540" viewBox="0 0 984 540" shape-rendering="crispEdges">
<rect x="0" y="0" width="984" height="540" fill="none" opacity="0"/><rect x="0" y="0" width="984" height="10" fill="#d0a77d" opacity="0.14"/><rect x="0" y="530" width="984" height="10" fill="#d0a77d" opacity="0.14"/><rect x="0" y="0" width="10" height="540" fill="#d0a77d" opacity="0.1"/><rect x="974" y="0" width="10" height="540" fill="#d0a77d" opacity="0.1"/><rect x="18" y="18" width="92" height="10" fill="#d0a77d" opacity="0.5"/><rect x="18" y="18" width="10" height="72" fill="#d0a77d" opacity="0.5"/><rect x="874" y="18" width="92" height="10" fill="#d0a77d" opacity="0.5"/><rect x="956" y="18" width="10" height="72" fill="#d0a77d" opacity="0.5"/><rect x="18" y="512" width="92" height="10" fill="#d0a77d" opacity="0.5"/><rect x="18" y="450" width="10" height="72" fill="#d0a77d" opacity="0.5"/><rect x="874" y="512" width="92" height="10" fill="#d0a77d" opacity="0.5"/><rect x="956" y="450" width="10" height="72" fill="#d0a77d" opacity="0.5"/><rect x="28" y="28" width="928" height="484" fill="#261e18" opacity="0.08"/><polygon points="180,246 804,246 804,294 180,294" fill="#d6b38d" opacity="0.22"/><polygon points="169.6650258271014,311.07558877981387 454.70237566249915,231.2651308259025 460.0949741728986,250.52441122018612 175.0576243375008,330.33486917409755" fill="#d4ae87" opacity="0.2"/><polygon points="529.2976243375009,209.66513082590248 814.3349741728986,289.47558877981385 808.9423756624991,308.7348691740975 523.9050258271014,228.9244112201861" fill="#d4ae87" opacity="0.2"/><rect x="0" y="0" width="984" height="68" fill="#17120f" opacity="0.2"/><rect x="0" y="472" width="984" height="68" fill="#17120f" opacity="0.2"/><rect x="0" y="0" width="4" height="540" fill="#d0a77d" opacity="0.035"/><rect x="10" y="0" width="4" height="540" fill="#d0a77d" opacity="0.02"/><rect x="20" y="0" width="4" height="540" fill="#d0a77d" opacity="0.035"/><rect x="30" y="0" width="4" height="540" fill="#d0a77d" opacity="0.02"/><rect x="40" y="0" width="4" height="540" fill="#d0a77d" opacity="0.035"/><rect x="50" y="0" width="4" height="540" fill="#d0a77d" opacity="0.02"/><rect x="60" y="0" width="4" height="540" fill="#d0a77d" opacity="0.035"/><rect x="70" y="0" width="4" height="540" fill="#d0a77d" opacity="0.02"/><rect x="80" y="0" width="4" height="540" fill="#d0a77d" opacity="0.035"/><rect x="90" y="0" width="4" height="540" fill="#d0a77d" opacity="0.02"/><rect x="100" y="0" width="4" height="540" fill="#d0a77d" opacity="0.035"/><rect x="110" y="0" width="4" height="540" fill="#d0a77d" opacity="0.02"/><rect x="120" y="0" width="4" height="540" fill="#d0a77d" opacity="0.035"/><rect x="130" y="0" width="4" height="540" fill="#d0a77d" opacity="0.02"/><rect x="140" y="0" width="4" height="540" fill="#d0a77d" opacity="0.035"/><rect x="150" y="0" width="4" height="540" fill="#d0a77d" opacity="0.02"/><rect x="160" y="0" width="4" height="540" fill="#d0a77d" opacity="0.035"/><rect x="170" y="0" width="4" height="540" fill="#d0a77d" opacity="0.02"/><rect x="180" y="0" width="4" height="540" fill="#d0a77d" opacity="0.035"/><rect x="190" y="0" width="4" height="540" fill="#d0a77d" opacity="0.02"/><rect x="200" y="0" width="4" height="540" fill="#d0a77d" opacity="0.035"/><rect x="210" y="0" width="4" height="540" fill="#d0a77d" opacity="0.02"/><rect x="220" y="0" width="4" height="540" fill="#d0a77d" opacity="0.035"/><rect x="230" y="0" width="4" height="540" fill="#d0a77d" opacity="0.02"/><rect x="240" y="0" width="4" height="540" fill="#d0a77d" opacity="0.035"/><rect x="250" y="0" width="4" height="540" fill="#d0a77d" opacity="0.02"/><rect x="260" y="0" width="4" height="540" fill="#d0a77d" opacity="0.035"/><rect x="270" y="0" width="4" height="540" fill="#d0a77d" opacity="0.02"/><rect x="280" y="0" width="4" height="540" fill="#d0a77d" opacity="0.035"/><rect x="290" y="0" width="4" height="540" fill="#d0a77d" opacity="0.02"/><rect x="300" y="0" width="4" height="540" fill="#d0a77d" opacity="0.035"/><rect x="310" y="0" width="4" height="540" fill="#d0a77d" opacity="0.02"/><rect x="320" y="0" width="4" height="540" fill="#d0a77d" opacity="0.035"/><rect x="330" y="0" width="4" height="540" fill="#d0a77d" opacity="0.02"/><rect x="340" y="0" width="4" height="540" fill="#d0a77d" opacity="0.035"/><rect x="350" y="0" width="4" height="540" fill="#d0a77d" opacity="0.02"/><rect x="360" y="0" width="4" height="540" fill="#d0a77d" opacity="0.035"/><rect x="370" y="0" width="4" height="540" fill="#d0a77d" opacity="0.02"/><rect x="380" y="0" width="4" height="540" fill="#d0a77d" opacity="0.035"/><rect x="390" y="0" width="4" height="540" fill="#d0a77d" opacity="0.02"/><rect x="400" y="0" width="4" height="540" fill="#d0a77d" opacity="0.035"/><rect x="410" y="0" width="4" height="540" fill="#d0a77d" opacity="0.02"/><rect x="420" y="0" width="4" height="540" fill="#d0a77d" opacity="0.035"/><rect x="430" y="0" width="4" height="540" fill="#d0a77d" opacity="0.02"/><rect x="440" y="0" width="4" height="540" fill="#d0a77d" opacity="0.035"/><rect x="450" y="0" width="4" height="540" fill="#d0a77d" opacity="0.02"/><rect x="460" y="0" width="4" height="540" fill="#d0a77d" opacity="0.035"/><rect x="470" y="0" width="4" height="540" fill="#d0a77d" opacity="0.02"/><rect x="480" y="0" width="4" height="540" fill="#d0a77d" opacity="0.035"/><rect x="490" y="0" width="4" height="540" fill="#d0a77d" opacity="0.02"/><rect x="500" y="0" width="4" height="540" fill="#d0a77d" opacity="0.035"/><rect x="510" y="0" width="4" height="540" fill="#d0a77d" opacity="0.02"/><rect x="520" y="0" width="4" height="540" fill="#d0a77d" opacity="0.035"/><rect x="530" y="0" width="4" height="540" fill="#d0a77d" opacity="0.02"/><rect x="540" y="0" width="4" height="540" fill="#d0a77d" opacity="0.035"/><rect x="550" y="0" width="4" height="540" fill="#d0a77d" opacity="0.02"/><rect x="560" y="0" width="4" height="540" fill="#d0a77d" opacity="0.035"/><rect x="570" y="0" width="4" height="540" fill="#d0a77d" opacity="0.02"/><rect x="580" y="0" width="4" height="540" fill="#d0a77d" opacity="0.035"/><rect x="590" y="0" width="4" height="540" fill="#d0a77d" opacity="0.02"/><rect x="600" y="0" width="4" height="540" fill="#d0a77d" opacity="0.035"/><rect x="610" y="0" width="4" height="540" fill="#d0a77d" opacity="0.02"/><rect x="620" y="0" width="4" height="540" fill="#d0a77d" opacity="0.035"/><rect x="630" y="0" width="4" height="540" fill="#d0a77d" opacity="0.02"/><rect x="640" y="0" width="4" height="540" fill="#d0a77d" opacity="0.035"/><rect x="650" y="0" width="4" height="540" fill="#d0a77d" opacity="0.02"/><rect x="660" y="0" width="4" height="540" fill="#d0a77d" opacity="0.035"/><rect x="670" y="0" width="4" height="540" fill="#d0a77d" opacity="0.02"/><rect x="680" y="0" width="4" height="540" fill="#d0a77d" opacity="0.035"/><rect x="690" y="0" width="4" height="540" fill="#d0a77d" opacity="0.02"/><rect x="700" y="0" width="4" height="540" fill="#d0a77d" opacity="0.035"/><rect x="710" y="0" width="4" height="540" fill="#d0a77d" opacity="0.02"/><rect x="720" y="0" width="4" height="540" fill="#d0a77d" opacity="0.035"/><rect x="730" y="0" width="4" height="540" fill="#d0a77d" opacity="0.02"/><rect x="740" y="0" width="4" height="540" fill="#d0a77d" opacity="0.035"/><rect x="750" y="0" width="4" height="540" fill="#d0a77d" opacity="0.02"/><rect x="760" y="0" width="4" height="540" fill="#d0a77d" opacity="0.035"/><rect x="770" y="0" width="4" height="540" fill="#d0a77d" opacity="0.02"/><rect x="780" y="0" width="4" height="540" fill="#d0a77d" opacity="0.035"/><rect x="790" y="0" width="4" height="540" fill="#d0a77d" opacity="0.02"/><rect x="800" y="0" width="4" height="540" fill="#d0a77d" opacity="0.035"/><rect x="810" y="0" width="4" height="540" fill="#d0a77d" opacity="0.02"/><rect x="820" y="0" width="4" height="540" fill="#d0a77d" opacity="0.035"/><rect x="830" y="0" width="4" height="540" fill="#d0a77d" opacity="0.02"/><rect x="840" y="0" width="4" height="540" fill="#d0a77d" opacity="0.035"/><rect x="850" y="0" width="4" height="540" fill="#d0a77d" opacity="0.02"/><rect x="860" y="0" width="4" height="540" fill="#d0a77d" opacity="0.035"/><rect x="870" y="0" width="4" height="540" fill="#d0a77d" opacity="0.02"/><rect x="880" y="0" width="4" height="540" fill="#d0a77d" opacity="0.035"/><rect x="890" y="0" width="4" height="540" fill="#d0a77d" opacity="0.02"/><rect x="900" y="0" width="4" height="540" fill="#d0a77d" opacity="0.035"/><rect x="910" y="0" width="4" height="540" fill="#d0a77d" opacity="0.02"/><rect x="920" y="0" width="4" height="540" fill="#d0a77d" opacity="0.035"/><rect x="930" y="0" width="4" height="540" fill="#d0a77d" opacity="0.02"/><rect x="940" y="0" width="4" height="540" fill="#d0a77d" opacity="0.035"/><rect x="950" y="0" width="4" height="540" fill="#d0a77d" opacity="0.02"/><rect x="960" y="0" width="4" height="540" fill="#d0a77d" opacity="0.035"/><rect x="970" y="0" width="4" height="540" fill="#d0a77d" opacity="0.02"/><rect x="980" y="0" width="4" height="540" fill="#d0a77d" opacity="0.035"/><rect x="410" y="422" width="9" height="9" fill="#d6b18c" opacity="0.2915296"/><rect x="423" y="424" width="7" height="2" fill="#d0a77d" opacity="0.2354952"/><rect x="400" y="435" width="27" height="2" fill="#e9d7bf" opacity="0.15140699999999999"/><rect x="369" y="305" width="14" height="14" fill="#d6b18c" opacity="0.3287536"/><rect x="387" y="307" width="12" height="2" fill="#d0a77d" opacity="0.18538559999999998"/><rect x="359" y="323" width="32" height="2" fill="#e9d7bf" opacity="0.16095179999999998"/><rect x="849" y="244" width="6" height="6" fill="#d6b18c" opacity="0.3245428"/><rect x="859" y="246" width="4" height="2" fill="#d0a77d" opacity="0.2352496"/><rect x="839" y="254" width="24" height="2" fill="#e9d7bf" opacity="0.1253136"/><rect x="787" y="148" width="11" height="11" fill="#d6b18c" opacity="0.2976316"/><rect x="802" y="150" width="9" height="2" fill="#d0a77d" opacity="0.184672"/><rect x="777" y="163" width="29" height="2" fill="#e9d7bf" opacity="0.15309299999999998"/><rect x="927" y="187" width="6" height="6" fill="#d6b18c" opacity="0.301678"/><rect x="937" y="189" width="4" height="2" fill="#d0a77d" opacity="0.2488144"/><rect x="917" y="197" width="24" height="2" fill="#e9d7bf" opacity="0.12310019999999999"/><rect x="477" y="411" width="11" height="11" fill="#d6b18c" opacity="0.3027928"/><rect x="492" y="413" width="9" height="2" fill="#d0a77d" opacity="0.2398072"/><rect x="467" y="426" width="29" height="2" fill="#e9d7bf" opacity="0.148056"/><rect x="776" y="478" width="13" height="13" fill="#d6b18c" opacity="0.2339644"/><rect x="793" y="480" width="11" height="2" fill="#d0a77d" opacity="0.2341304"/><rect x="766" y="495" width="31" height="2" fill="#e9d7bf" opacity="0.1619478"/><rect x="260" y="429" width="8" height="8" fill="#d6b18c" opacity="0.307726"/><rect x="272" y="431" width="6" height="2" fill="#d0a77d" opacity="0.2292032"/><rect x="250" y="441" width="26" height="2" fill="#e9d7bf" opacity="0.1200702"/><rect x="95" y="65" width="8" height="8" fill="#d6b18c" opacity="0.3119524"/><rect x="107" y="67" width="6" height="2" fill="#d0a77d" opacity="0.185172"/><rect x="85" y="77" width="26" height="2" fill="#e9d7bf" opacity="0.1790562"/><rect x="887" y="324" width="6" height="6" fill="#d6b18c" opacity="0.2593588"/><rect x="897" y="326" width="4" height="2" fill="#d0a77d" opacity="0.2055784"/><rect x="877" y="334" width="24" height="2" fill="#e9d7bf" opacity="0.1237032"/><rect x="774" y="349" width="11" height="11" fill="#d6b18c" opacity="0.28498840000000003"/><rect x="789" y="351" width="9" height="2" fill="#d0a77d" opacity="0.18268879999999998"/><rect x="764" y="364" width="29" height="2" fill="#e9d7bf" opacity="0.17026619999999998"/><rect x="187" y="251" width="9" height="9" fill="#d6b18c" opacity="0.30183519999999997"/><rect x="200" y="253" width="7" height="2" fill="#d0a77d" opacity="0.2520224"/><rect x="177" y="264" width="27" height="2" fill="#e9d7bf" opacity="0.15507479999999998"/><rect x="528" y="240" width="13" height="13" fill="#d6b18c" opacity="0.2285656"/><rect x="545" y="242" width="11" height="2" fill="#d0a77d" opacity="0.23994159999999998"/><rect x="518" y="257" width="31" height="2" fill="#e9d7bf" opacity="0.1417032"/><rect x="737" y="472" width="13" height="13" fill="#d6b18c" opacity="0.2916028"/><rect x="754" y="474" width="11" height="2" fill="#d0a77d" opacity="0.2246984"/><rect x="727" y="489" width="31" height="2" fill="#e9d7bf" opacity="0.162267"/><rect x="597" y="301" width="14" height="14" fill="#d6b18c" opacity="0.28225"/><rect x="615" y="303" width="12" height="2" fill="#d0a77d" opacity="0.2084912"/><rect x="587" y="319" width="32" height="2" fill="#e9d7bf" opacity="0.128307"/><rect x="578" y="101" width="7" height="7" fill="#d6b18c" opacity="0.2574664"/><rect x="589" y="103" width="5" height="2" fill="#d0a77d" opacity="0.2063872"/><rect x="568" y="112" width="25" height="2" fill="#e9d7bf" opacity="0.1301172"/><rect x="0" y="0" width="984" height="1" fill="#000000" opacity="0.08"/><rect x="0" y="4" width="984" height="1" fill="#000000" opacity="0.08"/><rect x="0" y="8" width="984" height="1" fill="#000000" opacity="0.08"/><rect x="0" y="12" width="984" height="1" fill="#000000" opacity="0.08"/><rect x="0" y="16" width="984" height="1" fill="#000000" opacity="0.08"/><rect x="0" y="20" width="984" height="1" fill="#000000" opacity="0.08"/><rect x="0" y="24" width="984" height="1" fill="#000000" opacity="0.08"/><rect x="0" y="28" width="984" height="1" fill="#000000" opacity="0.08"/><rect x="0" y="32" width="984" height="1" fill="#000000" opacity="0.08"/><rect x="0" y="36" width="984" height="1" fill="#000000" opacity="0.08"/><rect x="0" y="40" width="984" height="1" fill="#000000" opacity="0.08"/><rect x="0" y="44" width="984" height="1" fill="#000000" opacity="0.08"/><rect x="0" y="48" width="984" height="1" fill="#000000" opacity="0.08"/><rect x="0" y="52" width="984" height="1" fill="#000000" opacity="0.08"/><rect x="0" y="56" width="984" height="1" fill="#000000" opacity="0.08"/><rect x="0" y="60" width="984" height="1" fill="#000000" opacity="0.08"/><rect x="0" y="64" width="984" height="1" fill="#000000" opacity="0.08"/><rect x="0" y="68" width="984" height="1" fill="#000000" opacity="0.08"/><rect x="0" y="72" width="984" height="1" fill="#000000" opacity="0.08"/><rect x="0" y="76" width="984" height="1" fill="#000000" opacity="0.08"/><rect x="0" y="80" width="984" height="1" fill="#000000" opacity="0.08"/><rect x="0" y="84" width="984" height="1" fill="#000000" opacity="0.08"/><rect x="0" y="88" width="984" height="1" fill="#000000" opacity="0.08"/><rect x="0" y="92" width="984" height="1" fill="#000000" opacity="0.08"/><rect x="0" y="96" width="984" height="1" fill="#000000" opacity="0.08"/><rect x="0" y="100" width="984" height="1" fill="#000000" opacity="0.08"/><rect x="0" y="104" width="984" height="1" fill="#000000" opacity="0.08"/><rect x="0" y="108" width="984" height="1" fill="#000000" opacity="0.08"/><rect x="0" y="112" width="984" height="1" fill="#000000" opacity="0.08"/><rect x="0" y="116" width="984" height="1" fill="#000000" opacity="0.08"/><rect x="0" y="120" width="984" height="1" fill="#000000" opacity="0.08"/><rect x="0" y="124" width="984" height="1" fill="#000000" opacity="0.08"/><rect x="0" y="128" width="984" height="1" fill="#000000" opacity="0.08"/><rect x="0" y="132" width="984" height="1" fill="#000000" opacity="0.08"/><rect x="0" y="136" width="984" height="1" fill="#000000" opacity="0.08"/><rect x="0" y="140" width="984" height="1" fill="#000000" opacity="0.08"/><rect x="0" y="144" width="984" height="1" fill="#000000" opacity="0.08"/><rect x="0" y="148" width="984" height="1" fill="#000000" opacity="0.08"/><rect x="0" y="152" width="984" height="1" fill="#000000" opacity="0.08"/><rect x="0" y="156" width="984" height="1" fill="#000000" opacity="0.08"/><rect x="0" y="160" width="984" height="1" fill="#000000" opacity="0.08"/><rect x="0" y="164" width="984" height="1" fill="#000000" opacity="0.08"/><rect x="0" y="168" width="984" height="1" fill="#000000" opacity="0.08"/><rect x="0" y="172" width="984" height="1" fill="#000000" opacity="0.08"/><rect x="0" y="176" width="984" height="1" fill="#000000" opacity="0.08"/><rect x="0" y="180" width="984" height="1" fill="#000000" opacity="0.08"/><rect x="0" y="184" width="984" height="1" fill="#000000" opacity="0.08"/><rect x="0" y="188" width="984" height="1" fill="#000000" opacity="0.08"/><rect x="0" y="192" width="984" height="1" fill="#000000" opacity="0.08"/><rect x="0" y="196" width="984" height="1" fill="#000000" opacity="0.08"/><rect x="0" y="200" width="984" height="1" fill="#000000" opacity="0.08"/><rect x="0" y="204" width="984" height="1" fill="#000000" opacity="0.08"/><rect x="0" y="208" width="984" height="1" fill="#000000" opacity="0.08"/><rect x="0" y="212" width="984" height="1" fill="#000000" opacity="0.08"/><rect x="0" y="216" width="984" height="1" fill="#000000" opacity="0.08"/><rect x="0" y="220" width="984" height="1" fill="#000000" opacity="0.08"/><rect x="0" y="224" width="984" height="1" fill="#000000" opacity="0.08"/><rect x="0" y="228" width="984" height="1" fill="#000000" opacity="0.08"/><rect x="0" y="232" width="984" height="1" fill="#000000" opacity="0.08"/><rect x="0" y="236" width="984" height="1" fill="#000000" opacity="0.08"/><rect x="0" y="240" width="984" height="1" fill="#000000" opacity="0.08"/><rect x="0" y="244" width="984" height="1" fill="#000000" opacity="0.08"/><rect x="0" y="248" width="984" height="1" fill="#000000" opacity="0.08"/><rect x="0" y="252" width="984" height="1" fill="#000000" opacity="0.08"/><rect x="0" y="256" width="984" height="1" fill="#000000" opacity="0.08"/><rect x="0" y="260" width="984" height="1" fill="#000000" opacity="0.08"/><rect x="0" y="264" width="984" height="1" fill="#000000" opacity="0.08"/><rect x="0" y="268" width="984" height="1" fill="#000000" opacity="0.08"/><rect x="0" y="272" width="984" height="1" fill="#000000" opacity="0.08"/><rect x="0" y="276" width="984" height="1" fill="#000000" opacity="0.08"/><rect x="0" y="280" width="984" height="1" fill="#000000" opacity="0.08"/><rect x="0" y="284" width="984" height="1" fill="#000000" opacity="0.08"/><rect x="0" y="288" width="984" height="1" fill="#000000" opacity="0.08"/><rect x="0" y="292" width="984" height="1" fill="#000000" opacity="0.08"/><rect x="0" y="296" width="984" height="1" fill="#000000" opacity="0.08"/><rect x="0" y="300" width="984" height="1" fill="#000000" opacity="0.08"/><rect x="0" y="304" width="984" height="1" fill="#000000" opacity="0.08"/><rect x="0" y="308" width="984" height="1" fill="#000000" opacity="0.08"/><rect x="0" y="312" width="984" height="1" fill="#000000" opacity="0.08"/><rect x="0" y="316" width="984" height="1" fill="#000000" opacity="0.08"/><rect x="0" y="320" width="984" height="1" fill="#000000" opacity="0.08"/><rect x="0" y="324" width="984" height="1" fill="#000000" opacity="0.08"/><rect x="0" y="328" width="984" height="1" fill="#000000" opacity="0.08"/><rect x="0" y="332" width="984" height="1" fill="#000000" opacity="0.08"/><rect x="0" y="336" width="984" height="1" fill="#000000" opacity="0.08"/><rect x="0" y="340" width="984" height="1" fill="#000000" opacity="0.08"/><rect x="0" y="344" width="984" height="1" fill="#000000" opacity="0.08"/><rect x="0" y="348" width="984" height="1" fill="#000000" opacity="0.08"/><rect x="0" y="352" width="984" height="1" fill="#000000" opacity="0.08"/><rect x="0" y="356" width="984" height="1" fill="#000000" opacity="0.08"/><rect x="0" y="360" width="984" height="1" fill="#000000" opacity="0.08"/><rect x="0" y="364" width="984" height="1" fill="#000000" opacity="0.08"/><rect x="0" y="368" width="984" height="1" fill="#000000" opacity="0.08"/><rect x="0" y="372" width="984" height="1" fill="#000000" opacity="0.08"/><rect x="0" y="376" width="984" height="1" fill="#000000" opacity="0.08"/><rect x="0" y="380" width="984" height="1" fill="#000000" opacity="0.08"/><rect x="0" y="384" width="984" height="1" fill="#000000" opacity="0.08"/><rect x="0" y="388" width="984" height="1" fill="#000000" opacity="0.08"/><rect x="0" y="392" width="984" height="1" fill="#000000" opacity="0.08"/><rect x="0" y="396" width="984" height="1" fill="#000000" opacity="0.08"/><rect x="0" y="400" width="984" height="1" fill="#000000" opacity="0.08"/><rect x="0" y="404" width="984" height="1" fill="#000000" opacity="0.08"/><rect x="0" y="408" width="984" height="1" fill="#000000" opacity="0.08"/><rect x="0" y="412" width="984" height="1" fill="#000000" opacity="0.08"/><rect x="0" y="416" width="984" height="1" fill="#000000" opacity="0.08"/><rect x="0" y="420" width="984" height="1" fill="#000000" opacity="0.08"/><rect x="0" y="424" width="984" height="1" fill="#000000" opacity="0.08"/><rect x="0" y="428" width="984" height="1" fill="#000000" opacity="0.08"/><rect x="0" y="432" width="984" height="1" fill="#000000" opacity="0.08"/><rect x="0" y="436" width="984" height="1" fill="#000000" opacity="0.08"/><rect x="0" y="440" width="984" height="1" fill="#000000" opacity="0.08"/><rect x="0" y="444" width="984" height="1" fill="#000000" opacity="0.08"/><rect x="0" y="448" width="984" height="1" fill="#000000" opacity="0.08"/><rect x="0" y="452" width="984" height="1" fill="#000000" opacity="0.08"/><rect x="0" y="456" width="984" height="1" fill="#000000" opacity="0.08"/><rect x="0" y="460" width="984" height="1" fill="#000000" opacity="0.08"/><rect x="0" y="464" width="984" height="1" fill="#000000" opacity="0.08"/><rect x="0" y="468" width="984" height="1" fill="#000000" opacity="0.08"/><rect x="0" y="472" width="984" height="1" fill="#000000" opacity="0.08"/><rect x="0" y="476" width="984" height="1" fill="#000000" opacity="0.08"/><rect x="0" y="480" width="984" height="1" fill="#000000" opacity="0.08"/><rect x="0" y="484" width="984" height="1" fill="#000000" opacity="0.08"/><rect x="0" y="488" width="984" height="1" fill="#000000" opacity="0.08"/><rect x="0" y="492" width="984" height="1" fill="#000000" opacity="0.08"/><rect x="0" y="496" width="984" height="1" fill="#000000" opacity="0.08"/><rect x="0" y="500" width="984" height="1" fill="#000000" opacity="0.08"/><rect x="0" y="504" width="984" height="1" fill="#000000" opacity="0.08"/><rect x="0" y="508" width="984" height="1" fill="#000000" opacity="0.08"/><rect x="0" y="512" width="984" height="1" fill="#000000" opacity="0.08"/><rect x="0" y="516" width="984" height="1" fill="#000000" opacity="0.08"/><rect x="0" y="520" width="984" height="1" fill="#000000" opacity="0.08"/><rect x="0" y="524" width="984" height="1" fill="#000000" opacity="0.08"/><rect x="0" y="528" width="984" height="1" fill="#000000" opacity="0.08"/><rect x="0" y="532" width="984" height="1" fill="#000000" opacity="0.08"/><rect x="0" y="536" width="984" height="1" fill="#000000" opacity="0.08"/>
</svg>