<?xml version="1.0" encoding="UTF-8"?>
<svg xmlns="http://www.w3.org/2000/svg" width="984" height="540" viewBox="0 0 984 540" shape-rendering="crispEdges">
<rect x="0" y="0" width="984" height="540" fill="none" opacity="0"/><rect x="0" y="0" width="984" height="10" fill="#dc9162" opacity="0.14"/><rect x="0" y="530" width="984" height="10" fill="#dc9162" opacity="0.14"/><rect x="0" y="0" width="10" height="540" fill="#dc9162" opacity="0.1"/><rect x="974" y="0" width="10" height="540" fill="#dc9162" opacity="0.1"/><rect x="18" y="18" width="92" height="10" fill="#dc9162" opacity="0.5"/><rect x="18" y="18" width="10" height="72" fill="#dc9162" opacity="0.5"/><rect x="874" y="18" width="92" height="10" fill="#dc9162" opacity="0.5"/><rect x="956" y="18" width="10" height="72" fill="#dc9162" opacity="0.5"/><rect x="18" y="512" width="92" height="10" fill="#dc9162" opacity="0.5"/><rect x="18" y="450" width="10" height="72" fill="#dc9162" opacity="0.5"/><rect x="874" y="512" width="92" height="10" fill="#dc9162" opacity="0.5"/><rect x="956" y="450" width="10" height="72" fill="#dc9162" opacity="0.5"/><rect x="28" y="28" width="928" height="484" fill="#271c16" opacity="0.08"/><polygon points="180,246 804,246 804,294 180,294" fill="#e0a178" opacity="0.22"/><polygon points="169.6650258271014,311.07558877981387 454.70237566249915,231.2651308259025 460.0949741728986,250.52441122018612 175.0576243375008,330.33486917409755" fill="#de9b6f" opacity="0.2"/><polygon points="529.2976243375009,209.66513082590248 814.3349741728986,289.47558877981385 808.9423756624991,308.7348691740975 523.9050258271014,228.9244112201861" fill="#de9b6f" opacity="0.2"/><rect x="0" y="0" width="984" height="68" fill="#17120f" opacity="0.2"/><rect x="0" y="472" width="984" height="68" fill="#17120f" opacity="0.2"/><rect x="0" y="0" width="4" height="540" fill="#dc9162" opacity="0.035"/><rect x="10" y="0" width="4" height="540" fill="#dc9162" opacity="0.02"/><rect x="20" y="0" width="4" height="540" fill="#dc9162" opacity="0.035"/><rect x="30" y="0" width="4" height="540" fill="#dc9162" opacity="0.02"/><rect x="40" y="0" width="4" height="540" fill="#dc9162" opacity="0.035"/><rect x="50" y="0" width="4" height="540" fill="#dc9162" opacity="0.02"/><rect x="60" y="0" width="4" height="540" fill="#dc9162" opacity="0.035"/><rect x="70" y="0" width="4" height="540" fill="#dc9162" opacity="0.02"/><rect x="80" y="0" width="4" height="540" fill="#dc9162" opacity="0.035"/><rect x="90" y="0" width="4" height="540" fill="#dc9162" opacity="0.02"/><rect x="100" y="0" width="4" height="540" fill="#dc9162" opacity="0.035"/><rect x="110" y="0" width="4" height="540" fill="#dc9162" opacity="0.02"/><rect x="120" y="0" width="4" height="540" fill="#dc9162" opacity="0.035"/><rect x="130" y="0" width="4" height="540" fill="#dc9162" opacity="0.02"/><rect x="140" y="0" width="4" height="540" fill="#dc9162" opacity="0.035"/><rect x="150" y="0" width="4" height="540" fill="#dc9162" opacity="0.02"/><rect x="160" y="0" width="4" height="540" fill="#dc9162" opacity="0.035"/><rect x="170" y="0" width="4" height="540" fill="#dc9162" opacity="0.02"/><rect x="180" y="0" width="4" height="540" fill="#dc9162" opacity="0.035"/><rect x="190" y="0" width="4" height="540" fill="#dc9162" opacity="0.02"/><rect x="200" y="0" width="4" height="540" fill="#dc9162" opacity="0.035"/><rect x="210" y="0" width="4" height="540" fill="#dc9162" opacity="0.02"/><rect x="220" y="0" width="4" height="540" fill="#dc9162" opacity="0.035"/><rect x="230" y="0" width="4" height="540" fill="#dc9162" opacity="0.02"/><rect x="240" y="0" width="4" height="540" fill="#dc9162" opacity="0.035"/><rect x="250" y="0" width="4" height="540" fill="#dc9162" opacity="0.02"/><rect x="260" y="0" width="4" height="540" fill="#dc9162" opacity="0.035"/><rect x="270" y="0" width="4" height="540" fill="#dc9162" opacity="0.02"/><rect x="280" y="0" width="4" height="540" fill="#dc9162" opacity="0.035"/><rect x="290" y="0" width="4" height="540" fill="#dc9162" opacity="0.02"/><rect x="300" y="0" width="4" height="540" fill="#dc9162" opacity="0.035"/><rect x="310" y="0" width="4" height="540" fill="#dc9162" opacity="0.02"/><rect x="320" y="0" width="4" height="540" fill="#dc9162" opacity="0.035"/><rect x="330" y="0" width="4" height="540" fill="#dc9162" opacity="0.02"/><rect x="340" y="0" width="4" height="540" fill="#dc9162" opacity="0.035"/><rect x="350" y="0" width="4" height="540" fill="#dc9162" opacity="0.02"/><rect x="360" y="0" width="4" height="540" fill="#dc9162" opacity="0.035"/><rect x="370" y="0" width="4" height="540" fill="#dc9162" opacity="0.02"/><rect x="380" y="0" width="4" height="540" fill="#dc9162" opacity="0.035"/><rect x="390" y="0" width="4" height="540" fill="#dc9162" opacity="0.02"/><rect x="400" y="0" width="4" height="540" fill="#dc9162" opacity="0.035"/><rect x="410" y="0" width="4" height="540" fill="#dc9162" opacity="0.02"/><rect x="420" y="0" width="4" height="540" fill="#dc9162" opacity="0.035"/><rect x="430" y="0" width="4" height="540" fill="#dc9162" opacity="0.02"/><rect x="440" y="0" width="4" height="540" fill="#dc9162" opacity="0.035"/><rect x="450" y="0" width="4" height="540" fill="#dc9162" opacity="0.02"/><rect x="460" y="0" width="4" height="540" fill="#dc9162" opacity="0.035"/><rect x="470" y="0" width="4" height="540" fill="#dc9162" opacity="0.02"/><rect x="480" y="0" width="4" height="540" fill="#dc9162" opacity="0.035"/><rect x="490" y="0" width="4" height="540" fill="#dc9162" opacity="0.02"/><rect x="500" y="0" width="4" height="540" fill="#dc9162" opacity="0.035"/><rect x="510" y="0" width="4" height="540" fill="#dc9162" opacity="0.02"/><rect x="520" y="0" width="4" height="540" fill="#dc9162" opacity="0.035"/><rect x="530" y="0" width="4" height="540" fill="#dc9162" opacity="0.02"/><rect x="540" y="0" width="4" height="540" fill="#dc9162" opacity="0.035"/><rect x="550" y="0" width="4" height="540" fill="#dc9162" opacity="0.02"/><rect x="560" y="0" width="4" height="540" fill="#dc9162" opacity="0.035"/><rect x="570" y="0" width="4" height="540" fill="#dc9162" opacity="0.02"/><rect x="580" y="0" width="4" height="540" fill="#dc9162" opacity="0.035"/><rect x="590" y="0" width="4" height="540" fill="#dc9162" opacity="0.02"/><rect x="600" y="0" width="4" height="540" fill="#dc9162" opacity="0.035"/><rect x="610" y="0" width="4" height="540" fill="#dc9162" opacity="0.02"/><rect x="620" y="0" width="4" height="540" fill="#dc9162" opacity="0.035"/><rect x="630" y="0" width="4" height="540" fill="#dc9162" opacity="0.02"/><rect x="640" y="0" width="4" height="540" fill="#dc9162" opacity="0.035"/><rect x="650" y="0" width="4" height="540" fill="#dc9162" opacity="0.02"/><rect x="660" y="0" width="4" height="540" fill="#dc9162" opacity="0.035"/><rect x="670" y="0" width="4" height="540" fill="#dc9162" opacity="0.02"/><rect x="680" y="0" width="4" height="540" fill="#dc9162" opacity="0.035"/><rect x="690" y="0" width="4" height="540" fill="#dc9162" opacity="0.02"/><rect x="700" y="0" width="4" height="540" fill="#dc9162" opacity="0.035"/><rect x="710" y="0" width="4" height="540" fill="#dc9162" opacity="0.02"/><rect x="720" y="0" width="4" height="540" fill="#dc9162" opacity="0.035"/><rect x="730" y="0" width="4" height="540" fill="#dc9162" opacity="0.02"/><rect x="740" y="0" width="4" height="540" fill="#dc9162" opacity="0.035"/><rect x="750" y="0" width="4" height="540" fill="#dc9162" opacity="0.02"/><rect x="760" y="0" width="4" height="540" fill="#dc9162" opacity="0.035"/><rect x="770" y="0" width="4" height="540" fill="#dc9162" opacity="0.02"/><rect x="780" y="0" width="4" height="540" fill="#dc9162" opacity="0.035"/><rect x="790" y="0" width="4" height="540" fill="#dc9162" opacity="0.02"/><rect x="800" y="0" width="4" height="540" fill="#dc9162" opacity="0.035"/><rect x="810" y="0" width="4" height="540" fill="#dc9162" opacity="0.02"/><rect x="820" y="0" width="4" height="540" fill="#dc9162" opacity="0.035"/><rect x="830" y="0" width="4" height="540" fill="#dc9162" opacity="0.02"/><rect x="840" y="0" width="4" height="540" fill="#dc9162" opacity="0.035"/><rect x="850" y="0" width="4" height="540" fill="#dc9162" opacity="0.02"/><rect x="860" y="0" width="4" height="540" fill="#dc9162" opacity="0.035"/><rect x="870" y="0" width="4" height="540" fill="#dc9162" opacity="0.02"/><rect x="880" y="0" width="4" height="540" fill="#dc9162" opacity="0.035"/><rect x="890" y="0" width="4" height="540" fill="#dc9162" opacity="0.02"/><rect x="900" y="0" width="4" height="540" fill="#dc9162" opacity="0.035"/><rect x="910" y="0" width="4" height="540" fill="#dc9162" opacity="0.02"/><rect x="920" y="0" width="4" height="540" fill="#dc9162" opacity="0.035"/><rect x="930" y="0" width="4" height="540" fill="#dc9162" opacity="0.02"/><rect x="940" y="0" width="4" height="540" fill="#dc9162" opacity="0.035"/><rect x="950" y="0" width="4" height="540" fill="#dc9162" opacity="0.02"/><rect x="960" y="0" width="4" height="540" fill="#dc9162" opacity="0.035"/><rect x="970" y="0" width="4" height="540" fill="#dc9162" opacity="0.02"/><rect x="980" y="0" width="4" height="540" fill="#dc9162" opacity="0.035"/><rect x="685" y="496" width="10" height="10" fill="#df9f75" opacity="0.3215728"/><rect x="699" y="498" width="8" height="2" fill="#dc9162" opacity="0.2355808"/><rect x="675" y="510" width="28" height="2" fill="#ecd3bb" opacity="0.1709976"/><rect x="123" y="469" width="11" height="11" fill="#df9f75" opacity="0.222232"/><rect x="138" y="471" width="9" height="2" fill="#dc9162" opacity="0.2048496"/><rect x="113" y="484" width="29" height="2" fill="#ecd3bb" opacity="0.1297566"/><rect x="233" y="275" width="13" height="13" fill="#df9f75" opacity="0.245512"/><rect x="250" y="277" width="11" height="2" fill="#dc9162" opacity="0.2596096"/><rect x="223" y="292" width="31" height="2" fill="#ecd3bb" opacity="0.1754928"/><rect x="501" y="376" width="6" height="6" fill="#df9f75" opacity="0.2257312"/><rect x="511" y="378" width="4" height="2" fill="#dc9162" opacity="0.2402224"/><rect x="491" y="386" width="24" height="2" fill="#ecd3bb" opacity="0.17931"/><rect x="770" y="379" width="8" height="8" fill="#df9f75" opacity="0.3095836"/><rect x="782" y="381" width="6" height="2" fill="#dc9162" opacity="0.2149472"/><rect x="760" y="391" width="26" height="2" fill="#ecd3bb" opacity="0.1443726"/><rect x="271" y="109" width="8" height="8" fill="#df9f75" opacity="0.2725864"/><rect x="283" y="111" width="6" height="2" fill="#dc9162" opacity="0.18961119999999998"/><rect x="261" y="121" width="26" height="2" fill="#ecd3bb" opacity="0.1767066"/><rect x="89" y="356" width="11" height="11" fill="#df9f75" opacity="0.2882716"/><rect x="104" y="358" width="9" height="2" fill="#dc9162" opacity="0.254512"/><rect x="79" y="371" width="29" height="2" fill="#ecd3bb" opacity="0.156339"/><rect x="449" y="57" width="6" height="6" fill="#df9f75" opacity="0.24987399999999999"/><rect x="459" y="59" width="4" height="2" fill="#dc9162" opacity="0.24779600000000002"/><rect x="439" y="67" width="24" height="2" fill="#ecd3bb" opacity="0.1443474"/><rect x="540" y="185" width="8" height="8" fill="#df9f75" opacity="0.2514664"/><rect x="552" y="187" width="6" height="2" fill="#dc9162" opacity="0.1801168"/><rect x="530" y="197" width="26" height="2" fill="#ecd3bb" opacity="0.15830519999999998"/><rect x="867" y="393" width="6" height="6" fill="#df9f75" opacity="0.3189784"/><rect x="877" y="395" width="4" height="2" fill="#dc9162" opacity="0.2297696"/><rect x="857" y="403" width="24" height="2" fill="#ecd3bb" opacity="0.1614612"/><rect x="693" y="247" width="13" height="13" fill="#df9f75" opacity="0.2685292"/><rect x="710" y="249" width="11" height="2" fill="#dc9162" opacity="0.1839264"/><rect x="683" y="264" width="31" height="2" fill="#ecd3bb" opacity="0.146592"/><rect x="301" y="381" width="8" height="8" fill="#df9f75" opacity="0.2808976"/><rect x="313" y="383" width="6" height="2" fill="#dc9162" opacity="0.18276399999999998"/><rect x="291" y="393" width="26" height="2" fill="#ecd3bb" opacity="0.1335516"/><rect x="823" y="334" width="14" height="14" fill="#df9f75" opacity="0.2491684"/><rect x="841" y="336" width="12" height="2" fill="#dc9162" opacity="0.196064"/><rect x="813" y="352" width="32" height="2" fill="#ecd3bb" opacity="0.1481052"/><rect x="343" y="376" width="7" height="7" fill="#df9f75" opacity="0.2359228"/><rect x="354" y="378" width="5" height="2" fill="#dc9162" opacity="0.1891952"/><rect x="333" y="387" width="25" height="2" fill="#ecd3bb" opacity="0.1464972"/><rect x="308" y="141" width="7" height="7" fill="#df9f75" opacity="0.320284"/><rect x="319" y="143" width="5" height="2" fill="#dc9162" opacity="0.2548456"/><rect x="298" y="152" width="25" height="2" fill="#ecd3bb" opacity="0.14353559999999999"/><rect x="914" y="90" width="13" height="13" fill="#df9f75" opacity="0.265366"/><rect x="931" y="92" width="11" height="2" fill="#dc9162" opacity="0.2425608"/><rect x="904" y="107" width="31" height="2" fill="#ecd3bb" opacity="0.1574082"/><rect x="0" y="0" width="984" height="1" fill="#000000" opacity="0.08"/><rect x="0" y="4" width="984" height="1" fill="#000000" opacity="0.08"/><rect x="0" y="8" width="984" height="1" fill="#000000" opacity="0.08"/><rect x="0" y="12" width="984" height="1" fill="#000000" opacity="0.08"/><rect x="0" y="16" width="984" height="1" fill="#000000" opacity="0.08"/><rect x="0" y="20" width="984" height="1" fill="#000000" opacity="0.08"/><rect x="0" y="24" width="984" height="1" fill="#000000" opacity="0.08"/><rect x="0" y="28" width="984" height="1" fill="#000000" opacity="0.08"/><rect x="0" y="32" width="984" height="1" fill="#000000" opacity="0.08"/><rect x="0" y="36" width="984" height="1" fill="#000000" opacity="0.08"/><rect x="0" y="40" width="984" height="1" fill="#000000" opacity="0.08"/><rect x="0" y="44" width="984" height="1" fill="#000000" opacity="0.08"/><rect x="0" y="48" width="984" height="1" fill="#000000" opacity="0.08"/><rect x="0" y="52" width="984" height="1" fill="#000000" opacity="0.08"/><rect x="0" y="56" width="984" height="1" fill="#000000" opacity="0.08"/><rect x="0" y="60" width="984" height="1" fill="#000000" opacity="0.08"/><rect x="0" y="64" width="984" height="1" fill="#000000" opacity="0.08"/><rect x="0" y="68" width="984" height="1" fill="#000000" opacity="0.08"/><rect x="0" y="72" width="984" height="1" fill="#000000" opacity="0.08"/><rect x="0" y="76" width="984" height="1" fill="#000000" opacity="0.08"/><rect x="0" y="80" width="984" height="1" fill="#000000" opacity="0.08"/><rect x="0" y="84" width="984" height="1" fill="#000000" opacity="0.08"/><rect x="0" y="88" width="984" height="1" fill="#000000" opacity="0.08"/><rect x="0" y="92" width="984" height="1" fill="#000000" opacity="0.08"/><rect x="0" y="96" width="984" height="1" fill="#000000" opacity="0.08"/><rect x="0" y="100" width="984" height="1" fill="#000000" opacity="0.08"/><rect x="0" y="104" width="984" height="1" fill="#000000" opacity="0.08"/><rect x="0" y="108" width="984" height="1" fill="#000000" opacity="0.08"/><rect x="0" y="112" width="984" height="1" fill="#000000" opacity="0.08"/><rect x="0" y="116" width="984" height="1" fill="#000000" opacity="0.08"/><rect x="0" y="120" width="984" height="1" fill="#000000" opacity="0.08"/><rect x="0" y="124" width="984" height="1" fill="#000000" opacity="0.08"/><rect x="0" y="128" width="984" height="1" fill="#000000" opacity="0.08"/><rect x="0" y="132" width="984" height="1" fill="#000000" opacity="0.08"/><rect x="0" y="136" width="984" height="1" fill="#000000" opacity="0.08"/><rect x="0" y="140" width="984" height="1" fill="#000000" opacity="0.08"/><rect x="0" y="144" width="984" height="1" fill="#000000" opacity="0.08"/><rect x="0" y="148" width="984" height="1" fill="#000000" opacity="0.08"/><rect x="0" y="152" width="984" height="1" fill="#000000" opacity="0.08"/><rect x="0" y="156" width="984" height="1" fill="#000000" opacity="0.08"/><rect x="0" y="160" width="984" height="1" fill="#000000" opacity="0.08"/><rect x="0" y="164" width="984" height="1" fill="#000000" opacity="0.08"/><rect x="0" y="168" width="984" height="1" fill="#000000" opacity="0.08"/><rect x="0" y="172" width="984" height="1" fill="#000000" opacity="0.08"/><rect x="0" y="176" width="984" height="1" fill="#000000" opacity="0.08"/><rect x="0" y="180" width="984" height="1" fill="#000000" opacity="0.08"/><rect x="0" y="184" width="984" height="1" fill="#000000" opacity="0.08"/><rect x="0" y="188" width="984" height="1" fill="#000000" opacity="0.08"/><rect x="0" y="192" width="984" height="1" fill="#000000" opacity="0.08"/><rect x="0" y="196" width="984" height="1" fill="#000000" opacity="0.08"/><rect x="0" y="200" width="984" height="1" fill="#000000" opacity="0.08"/><rect x="0" y="204" width="984" height="1" fill="#000000" opacity="0.08"/><rect x="0" y="208" width="984" height="1" fill="#000000" opacity="0.08"/><rect x="0" y="212" width="984" height="1" fill="#000000" opacity="0.08"/><rect x="0" y="216" width="984" height="1" fill="#000000" opacity="0.08"/><rect x="0" y="220" width="984" height="1" fill="#000000" opacity="0.08"/><rect x="0" y="224" width="984" height="1" fill="#000000" opacity="0.08"/><rect x="0" y="228" width="984" height="1" fill="#000000" opacity="0.08"/><rect x="0" y="232" width="984" height="1" fill="#000000" opacity="0.08"/><rect x="0" y="236" width="984" height="1" fill="#000000" opacity="0.08"/><rect x="0" y="240" width="984" height="1" fill="#000000" opacity="0.08"/><rect x="0" y="244" width="984" height="1" fill="#000000" opacity="0.08"/><rect x="0" y="248" width="984" height="1" fill="#000000" opacity="0.08"/><rect x="0" y="252" width="984" height="1" fill="#000000" opacity="0.08"/><rect x="0" y="256" width="984" height="1" fill="#000000" opacity="0.08"/><rect x="0" y="260" width="984" height="1" fill="#000000" opacity="0.08"/><rect x="0" y="264" width="984" height="1" fill="#000000" opacity="0.08"/><rect x="0" y="268" width="984" height="1" fill="#000000" opacity="0.08"/><rect x="0" y="272" width="984" height="1" fill="#000000" opacity="0.08"/><rect x="0" y="276" width="984" height="1" fill="#000000" opacity="0.08"/><rect x="0" y="280" width="984" height="1" fill="#000000" opacity="0.08"/><rect x="0" y="284" width="984" height="1" fill="#000000" opacity="0.08"/><rect x="0" y="288" width="984" height="1" fill="#000000" opacity="0.08"/><rect x="0" y="292" width="984" height="1" fill="#000000" opacity="0.08"/><rect x="0" y="296" width="984" height="1" fill="#000000" opacity="0.08"/><rect x="0" y="300" width="984" height="1" fill="#000000" opacity="0.08"/><rect x="0" y="304" width="984" height="1" fill="#000000" opacity="0.08"/><rect x="0" y="308" width="984" height="1" fill="#000000" opacity="0.08"/><rect x="0" y="312" width="984" height="1" fill="#000000" opacity="0.08"/><rect x="0" y="316" width="984" height="1" fill="#000000" opacity="0.08"/><rect x="0" y="320" width="984" height="1" fill="#000000" opacity="0.08"/><rect x="0" y="324" width="984" height="1" fill="#000000" opacity="0.08"/><rect x="0" y="328" width="984" height="1" fill="#000000" opacity="0.08"/><rect x="0" y="332" width="984" height="1" fill="#000000" opacity="0.08"/><rect x="0" y="336" width="984" height="1" fill="#000000" opacity="0.08"/><rect x="0" y="340" width="984" height="1" fill="#000000" opacity="0.08"/><rect x="0" y="344" width="984" height="1" fill="#000000" opacity="0.08"/><rect x="0" y="348" width="984" height="1" fill="#000000" opacity="0.08"/><rect x="0" y="352" width="984" height="1" fill="#000000" opacity="0.08"/><rect x="0" y="356" width="984" height="1" fill="#000000" opacity="0.08"/><rect x="0" y="360" width="984" height="1" fill="#000000" opacity="0.08"/><rect x="0" y="364" width="984" height="1" fill="#000000" opacity="0.08"/><rect x="0" y="368" width="984" height="1" fill="#000000" opacity="0.08"/><rect x="0" y="372" width="984" height="1" fill="#000000" opacity="0.08"/><rect x="0" y="376" width="984" height="1" fill="#000000" opacity="0.08"/><rect x="0" y="380" width="984" height="1" fill="#000000" opacity="0.08"/><rect x="0" y="384" width="984" height="1" fill="#000000" opacity="0.08"/><rect x="0" y="388" width="984" height="1" fill="#000000" opacity="0.08"/><rect x="0" y="392" width="984" height="1" fill="#000000" opacity="0.08"/><rect x="0" y="396" width="984" height="1" fill="#000000" opacity="0.08"/><rect x="0" y="400" width="984" height="1" fill="#000000" opacity="0.08"/><rect x="0" y="404" width="984" height="1" fill="#000000" opacity="0.08"/><rect x="0" y="408" width="984" height="1" fill="#000000" opacity="0.08"/><rect x="0" y="412" width="984" height="1" fill="#000000" opacity="0.08"/><rect x="0" y="416" width="984" height="1" fill="#000000" opacity="0.08"/><rect x="0" y="420" width="984" height="1" fill="#000000" opacity="0.08"/><rect x="0" y="424" width="984" height="1" fill="#000000" opacity="0.08"/><rect x="0" y="428" width="984" height="1" fill="#000000" opacity="0.08"/><rect x="0" y="432" width="984" height="1" fill="#000000" opacity="0.08"/><rect x="0" y="436" width="984" height="1" fill="#000000" opacity="0.08"/><rect x="0" y="440" width="984" height="1" fill="#000000" opacity="0.08"/><rect x="0" y="444" width="984" height="1" fill="#000000" opacity="0.08"/><rect x="0" y="448" width="984" height="1" fill="#000000" opacity="0.08"/><rect x="0" y="452" width="984" height="1" fill="#000000" opacity="0.08"/><rect x="0" y="456" width="984" height="1" fill="#000000" opacity="0.08"/><rect x="0" y="460" width="984" height="1" fill="#000000" opacity="0.08"/><rect x="0" y="464" width="984" height="1" fill="#000000" opacity="0.08"/><rect x="0" y="468" width="984" height="1" fill="#000000" opacity="0.08"/><rect x="0" y="472" width="984" height="1" fill="#000000" opacity="0.08"/><rect x="0" y="476" width="984" height="1" fill="#000000" opacity="0.08"/><rect x="0" y="480" width="984" height="1" fill="#000000" opacity="0.08"/><rect x="0" y="484" width="984" height="1" fill="#000000" opacity="0.08"/><rect x="0" y="488" width="984" height="1" fill="#000000" opacity="0.08"/><rect x="0" y="492" width="984" height="1" fill="#000000" opacity="0.08"/><rect x="0" y="496" width="984" height="1" fill="#000000" opacity="0.08"/><rect x="0" y="500" width="984" height="1" fill="#000000" opacity="0.08"/><rect x="0" y="504" width="984" height="1" fill="#000000" opacity="0.08"/><rect x="0" y="508" width="984" height="1" fill="#000000" opacity="0.08"/><rect x="0" y="512" width="984" height="1" fill="#000000" opacity="0.08"/><rect x="0" y="516" width="984" height="1" fill="#000000" opacity="0.08"/><rect x="0" y="520" width="984" height="1" fill="#000000" opacity="0.08"/><rect x="0" y="524" width="984" height="1" fill="#000000" opacity="0.08"/><rect x="0" y="528" width="984" height="1" fill="#000000" opacity="0.08"/><rect x="0" y="532" width="984" height="1" fill="#000000" opacity="0.08"/><rect x="0" y="536" width="984" height="1" fill="#000000" opacity="0.08"/>
</svg>