<?xml version="1.0" encoding="UTF-8"?>
<svg xmlns="http://www.w3.org/2000/svg" width="984" height="540" viewBox="0 0 984 540" shape-rendering="crispEdges">
<rect x="0" y="0" width="984" height="540" fill="none" opacity="0"/><rect x="0" y="0" width="984" height="10" fill="#c9a4a1" opacity="0.14"/><rect x="0" y="530" width="984" height="10" fill="#c9a4a1" opacity="0.14"/><rect x="0" y="0" width="10" height="540" fill="#c9a4a1" opacity="0.1"/><rect x="974" y="0" width="10" height="540" fill="#c9a4a1" opacity="0.1"/><rect x="18" y="18" width="92" height="10" fill="#c9a4a1" opacity="0.5"/><rect x="18" y="18" width="10" height="72" fill="#c9a4a1" opacity="0.5"/><rect x="874" y="18" width="92" height="10" fill="#c9a4a1" opacity="0.5"/><rect x="956" y="18" width="10" height="72" fill="#c9a4a1" opacity="0.5"/><rect x="18" y="512" width="92" height="10" fill="#c9a4a1" opacity="0.5"/><rect x="18" y="450" width="10" height="72" fill="#c9a4a1" opacity="0.5"/><rect x="874" y="512" width="92" height="10" fill="#c9a4a1" opacity="0.5"/><rect x="956" y="450" width="10" height="72" fill="#c9a4a1" opacity="0.5"/><rect x="28" y="28" width="928" height="484" fill="#251e1b" opacity="0.08"/><polygon points="180,246 804,246 804,294 180,294" fill="#d1b0aa" opacity="0.22"/><polygon points="169.6650258271014,311.07558877981387 454.70237566249915,231.2651308259025 460.0949741728986,250.52441122018612 175.0576243375008,330.33486917409755" fill="#ceaba6" opacity="0.2"/><polygon points="529.2976243375009,209.66513082590248 814.3349741728986,289.47558877981385 808.9423756624991,308.7348691740975 523.9050258271014,228.9244112201861" fill="#ceaba6" opacity="0.2"/><rect x="0" y="0" width="984" height="68" fill="#17120f" opacity="0.2"/><rect x="0" y="472" width="984" height="68" fill="#17120f" opacity="0.2"/><rect x="0" y="0" width="4" height="540" fill="#c9a4a1" opacity="0.035"/><rect x="10" y="0" width="4" height="540" fill="#c9a4a1" opacity="0.02"/><rect x="20" y="0" width="4" height="540" fill="#c9a4a1" opacity="0.035"/><rect x="30" y="0" width="4" height="540" fill="#c9a4a1" opacity="0.02"/><rect x="40" y="0" width="4" height="540" fill="#c9a4a1" opacity="0.035"/><rect x="50" y="0" width="4" height="540" fill="#c9a4a1" opacity="0.02"/><rect x="60" y="0" width="4" height="540" fill="#c9a4a1" opacity="0.035"/><rect x="70" y="0" width="4" height="540" fill="#c9a4a1" opacity="0.02"/><rect x="80" y="0" width="4" height="540" fill="#c9a4a1" opacity="0.035"/><rect x="90" y="0" width="4" height="540" fill="#c9a4a1" opacity="0.02"/><rect x="100" y="0" width="4" height="540" fill="#c9a4a1" opacity="0.035"/><rect x="110" y="0" width="4" height="540" fill="#c9a4a1" opacity="0.02"/><rect x="120" y="0" width="4" height="540" fill="#c9a4a1" opacity="0.035"/><rect x="130" y="0" width="4" height="540" fill="#c9a4a1" opacity="0.02"/><rect x="140" y="0" width="4" height="540" fill="#c9a4a1" opacity="0.035"/><rect x="150" y="0" width="4" height="540" fill="#c9a4a1" opacity="0.02"/><rect x="160" y="0" width="4" height="540" fill="#c9a4a1" opacity="0.035"/><rect x="170" y="0" width="4" height="540" fill="#c9a4a1" opacity="0.02"/><rect x="180" y="0" width="4" height="540" fill="#c9a4a1" opacity="0.035"/><rect x="190" y="0" width="4" height="540" fill="#c9a4a1" opacity="0.02"/><rect x="200" y="0" width="4" height="540" fill="#c9a4a1" opacity="0.035"/><rect x="210" y="0" width="4" height="540" fill="#c9a4a1" opacity="0.02"/><rect x="220" y="0" width="4" height="540" fill="#c9a4a1" opacity="0.035"/><rect x="230" y="0" width="4" height="540" fill="#c9a4a1" opacity="0.02"/><rect x="240" y="0" width="4" height="540" fill="#c9a4a1" opacity="0.035"/><rect x="250" y="0" width="4" height="540" fill="#c9a4a1" opacity="0.02"/><rect x="260" y="0" width="4" height="540" fill="#c9a4a1" opacity="0.035"/><rect x="270" y="0" width="4" height="540" fill="#c9a4a1" opacity="0.02"/><rect x="280" y="0" width="4" height="540" fill="#c9a4a1" opacity="0.035"/><rect x="290" y="0" width="4" height="540" fill="#c9a4a1" opacity="0.02"/><rect x="300" y="0" width="4" height="540" fill="#c9a4a1" opacity="0.035"/><rect x="310" y="0" width="4" height="540" fill="#c9a4a1" opacity="0.02"/><rect x="320" y="0" width="4" height="540" fill="#c9a4a1" opacity="0.035"/><rect x="330" y="0" width="4" height="540" fill="#c9a4a1" opacity="0.02"/><rect x="340" y="0" width="4" height="540" fill="#c9a4a1" opacity="0.035"/><rect x="350" y="0" width="4" height="540" fill="#c9a4a1" opacity="0.02"/><rect x="360" y="0" width="4" height="540" fill="#c9a4a1" opacity="0.035"/><rect x="370" y="0" width="4" height="540" fill="#c9a4a1" opacity="0.02"/><rect x="380" y="0" width="4" height="540" fill="#c9a4a1" opacity="0.035"/><rect x="390" y="0" width="4" height="540" fill="#c9a4a1" opacity="0.02"/><rect x="400" y="0" width="4" height="540" fill="#c9a4a1" opacity="0.035"/><rect x="410" y="0" width="4" height="540" fill="#c9a4a1" opacity="0.02"/><rect x="420" y="0" width="4" height="540" fill="#c9a4a1" opacity="0.035"/><rect x="430" y="0" width="4" height="540" fill="#c9a4a1" opacity="0.02"/><rect x="440" y="0" width="4" height="540" fill="#c9a4a1" opacity="0.035"/><rect x="450" y="0" width="4" height="540" fill="#c9a4a1" opacity="0.02"/><rect x="460" y="0" width="4" height="540" fill="#c9a4a1" opacity="0.035"/><rect x="470" y="0" width="4" height="540" fill="#c9a4a1" opacity="0.02"/><rect x="480" y="0" width="4" height="540" fill="#c9a4a1" opacity="0.035"/><rect x="490" y="0" width="4" height="540" fill="#c9a4a1" opacity="0.02"/><rect x="500" y="0" width="4" height="540" fill="#c9a4a1" opacity="0.035"/><rect x="510" y="0" width="4" height="540" fill="#c9a4a1" opacity="0.02"/><rect x="520" y="0" width="4" height="540" fill="#c9a4a1" opacity="0.035"/><rect x="530" y="0" width="4" height="540" fill="#c9a4a1" opacity="0.02"/><rect x="540" y="0" width="4" height="540" fill="#c9a4a1" opacity="0.035"/><rect x="550" y="0" width="4" height="540" fill="#c9a4a1" opacity="0.02"/><rect x="560" y="0" width="4" height="540" fill="#c9a4a1" opacity="0.035"/><rect x="570" y="0" width="4" height="540" fill="#c9a4a1" opacity="0.02"/><rect x="580" y="0" width="4" height="540" fill="#c9a4a1" opacity="0.035"/><rect x="590" y="0" width="4" height="540" fill="#c9a4a1" opacity="0.02"/><rect x="600" y="0" width="4" height="540" fill="#c9a4a1" opacity="0.035"/><rect x="610" y="0" width="4" height="540" fill="#c9a4a1" opacity="0.02"/><rect x="620" y="0" width="4" height="540" fill="#c9a4a1" opacity="0.035"/><rect x="630" y="0" width="4" height="540" fill="#c9a4a1" opacity="0.02"/><rect x="640" y="0" width="4" height="540" fill="#c9a4a1" opacity="0.035"/><rect x="650" y="0" width="4" height="540" fill="#c9a4a1" opacity="0.02"/><rect x="660" y="0" width="4" height="540" fill="#c9a4a1" opacity="0.035"/><rect x="670" y="0" width="4" height="540" fill="#c9a4a1" opacity="0.02"/><rect x="680" y="0" width="4" height="540" fill="#c9a4a1" opacity="0.035"/><rect x="690" y="0" width="4" height="540" fill="#c9a4a1" opacity="0.02"/><rect x="700" y="0" width="4" height="540" fill="#c9a4a1" opacity="0.035"/><rect x="710" y="0" width="4" height="540" fill="#c9a4a1" opacity="0.02"/><rect x="720" y="0" width="4" height="540" fill="#c9a4a1" opacity="0.035"/><rect x="730" y="0" width="4" height="540" fill="#c9a4a1" opacity="0.02"/><rect x="740" y="0" width="4" height="540" fill="#c9a4a1" opacity="0.035"/><rect x="750" y="0" width="4" height="540" fill="#c9a4a1" opacity="0.02"/><rect x="760" y="0" width="4" height="540" fill="#c9a4a1" opacity="0.035"/><rect x="770" y="0" width="4" height="540" fill="#c9a4a1" opacity="0.02"/><rect x="780" y="0" width="4" height="540" fill="#c9a4a1" opacity="0.035"/><rect x="790" y="0" width="4" height="540" fill="#c9a4a1" opacity="0.02"/><rect x="800" y="0" width="4" height="540" fill="#c9a4a1" opacity="0.035"/><rect x="810" y="0" width="4" height="540" fill="#c9a4a1" opacity="0.02"/><rect x="820" y="0" width="4" height="540" fill="#c9a4a1" opacity="0.035"/><rect x="830" y="0" width="4" height="540" fill="#c9a4a1" opacity="0.02"/><rect x="840" y="0" width="4" height="540" fill="#c9a4a1" opacity="0.035"/><rect x="850" y="0" width="4" height="540" fill="#c9a4a1" opacity="0.02"/><rect x="860" y="0" width="4" height="540" fill="#c9a4a1" opacity="0.035"/><rect x="870" y="0" width="4" height="540" fill="#c9a4a1" opacity="0.02"/><rect x="880" y="0" width="4" height="540" fill="#c9a4a1" opacity="0.035"/><rect x="890" y="0" width="4" height="540" fill="#c9a4a1" opacity="0.02"/><rect x="900" y="0" width="4" height="540" fill="#c9a4a1" opacity="0.035"/><rect x="910" y="0" width="4" height="540" fill="#c9a4a1" opacity="0.02"/><rect x="920" y="0" width="4" height="540" fill="#c9a4a1" opacity="0.035"/><rect x="930" y="0" width="4" height="540" fill="#c9a4a1" opacity="0.02"/><rect x="940" y="0" width="4" height="540" fill="#c9a4a1" opacity="0.035"/><rect x="950" y="0" width="4" height="540" fill="#c9a4a1" opacity="0.02"/><rect x="960" y="0" width="4" height="540" fill="#c9a4a1" opacity="0.035"/><rect x="970" y="0" width="4" height="540" fill="#c9a4a1" opacity="0.02"/><rect x="980" y="0" width="4" height="540" fill="#c9a4a1" opacity="0.035"/><rect x="434" y="51" width="14" height="14" fill="#d0afa9" opacity="0.2432644"/><rect x="452" y="53" width="12" height="2" fill="#c9a4a1" opacity="0.24243599999999998"/><rect x="424" y="69" width="32" height="2" fill="#e8d6c6" opacity="0.155442"/><rect x="868" y="323" width="9" height="9" fill="#d0afa9" opacity="0.2455504"/><rect x="881" y="325" width="7" height="2" fill="#c9a4a1" opacity="0.23798239999999998"/><rect x="858" y="336" width="27" height="2" fill="#e8d6c6" opacity="0.1211814"/><rect x="162" y="113" width="8" height="8" fill="#d0afa9" opacity="0.3230716"/><rect x="174" y="115" width="6" height="2" fill="#c9a4a1" opacity="0.24716159999999998"/><rect x="152" y="125" width="26" height="2" fill="#e8d6c6" opacity="0.1510278"/><rect x="625" y="50" width="7" height="7" fill="#d0afa9" opacity="0.2873164"/><rect x="636" y="52" width="5" height="2" fill="#c9a4a1" opacity="0.21498479999999998"/><rect x="615" y="61" width="25" height="2" fill="#e8d6c6" opacity="0.1604928"/><rect x="331" y="258" width="9" height="9" fill="#d0afa9" opacity="0.3176404"/><rect x="344" y="260" width="7" height="2" fill="#c9a4a1" opacity="0.243512"/><rect x="321" y="271" width="27" height="2" fill="#e8d6c6" opacity="0.15255839999999998"/><rect x="686" y="375" width="10" height="10" fill="#d0afa9" opacity="0.3206308"/><rect x="700" y="377" width="8" height="2" fill="#c9a4a1" opacity="0.2593072"/><rect x="676" y="389" width="28" height="2" fill="#e8d6c6" opacity="0.1530924"/><rect x="925" y="237" width="8" height="8" fill="#d0afa9" opacity="0.2809996"/><rect x="937" y="239" width="6" height="2" fill="#c9a4a1" opacity="0.1891768"/><rect x="915" y="249" width="26" height="2" fill="#e8d6c6" opacity="0.16305599999999998"/><rect x="789" y="308" width="7" height="7" fill="#d0afa9" opacity="0.223084"/><rect x="800" y="310" width="5" height="2" fill="#c9a4a1" opacity="0.2527504"/><rect x="779" y="319" width="25" height="2" fill="#e8d6c6" opacity="0.1268262"/><rect x="518" y="351" width="8" height="8" fill="#d0afa9" opacity="0.3307696"/><rect x="530" y="353" width="6" height="2" fill="#c9a4a1" opacity="0.18191839999999998"/><rect x="508" y="363" width="26" height="2" fill="#e8d6c6" opacity="0.1476114"/><rect x="418" y="352" width="11" height="11" fill="#d0afa9" opacity="0.3319108"/><rect x="433" y="354" width="9" height="2" fill="#c9a4a1" opacity="0.22377919999999998"/><rect x="408" y="367" width="29" height="2" fill="#e8d6c6" opacity="0.1623396"/><rect x="471" y="476" width="6" height="6" fill="#d0afa9" opacity="0.2609224"/><rect x="481" y="478" width="4" height="2" fill="#c9a4a1" opacity="0.22938"/><rect x="461" y="486" width="24" height="2" fill="#e8d6c6" opacity="0.1674372"/><rect x="567" y="194" width="7" height="7" fill="#d0afa9" opacity="0.3348664"/><rect x="578" y="196" width="5" height="2" fill="#c9a4a1" opacity="0.18151599999999998"/><rect x="557" y="205" width="25" height="2" fill="#e8d6c6" opacity="0.1351872"/><rect x="807" y="137" width="10" height="10" fill="#d0afa9" opacity="0.3211288"/><rect x="821" y="139" width="8" height="2" fill="#c9a4a1" opacity="0.2429104"/><rect x="797" y="151" width="28" height="2" fill="#e8d6c6" opacity="0.12391379999999999"/><rect x="204" y="365" width="6" height="6" fill="#d0afa9" opacity="0.2656888"/><rect x="214" y="367" width="4" height="2" fill="#c9a4a1" opacity="0.1903952"/><rect x="194" y="375" width="24" height="2" fill="#e8d6c6" opacity="0.1500996"/><rect x="655" y="282" width="13" height="13" fill="#d0afa9" opacity="0.337654"/><rect x="672" y="284" width="11" height="2" fill="#c9a4a1" opacity="0.19794"/><rect x="645" y="299" width="31" height="2" fill="#e8d6c6" opacity="0.179346"/><rect x="233" y="253" width="8" height="8" fill="#d0afa9" opacity="0.28261000000000003"/><rect x="245" y="255" width="6" height="2" fill="#c9a4a1" opacity="0.19392959999999998"/><rect x="223" y="265" width="26" height="2" fill="#e8d6c6" opacity="0.1514604"/><rect x="0" y="0" width="984" height="1" fill="#000000" opacity="0.08"/><rect x="0" y="4" width="984" height="1" fill="#000000" opacity="0.08"/><rect x="0" y="8" width="984" height="1" fill="#000000" opacity="0.08"/><rect x="0" y="12" width="984" height="1" fill="#000000" opacity="0.08"/><rect x="0" y="16" width="984" height="1" fill="#000000" opacity="0.08"/><rect x="0" y="20" width="984" height="1" fill="#000000" opacity="0.08"/><rect x="0" y="24" width="984" height="1" fill="#000000" opacity="0.08"/><rect x="0" y="28" width="984" height="1" fill="#000000" opacity="0.08"/><rect x="0" y="32" width="984" height="1" fill="#000000" opacity="0.08"/><rect x="0" y="36" width="984" height="1" fill="#000000" opacity="0.08"/><rect x="0" y="40" width="984" height="1" fill="#000000" opacity="0.08"/><rect x="0" y="44" width="984" height="1" fill="#000000" opacity="0.08"/><rect x="0" y="48" width="984" height="1" fill="#000000" opacity="0.08"/><rect x="0" y="52" width="984" height="1" fill="#000000" opacity="0.08"/><rect x="0" y="56" width="984" height="1" fill="#000000" opacity="0.08"/><rect x="0" y="60" width="984" height="1" fill="#000000" opacity="0.08"/><rect x="0" y="64" width="984" height="1" fill="#000000" opacity="0.08"/><rect x="0" y="68" width="984" height="1" fill="#000000" opacity="0.08"/><rect x="0" y="72" width="984" height="1" fill="#000000" opacity="0.08"/><rect x="0" y="76" width="984" height="1" fill="#000000" opacity="0.08"/><rect x="0" y="80" width="984" height="1" fill="#000000" opacity="0.08"/><rect x="0" y="84" width="984" height="1" fill="#000000" opacity="0.08"/><rect x="0" y="88" width="984" height="1" fill="#000000" opacity="0.08"/><rect x="0" y="92" width="984" height="1" fill="#000000" opacity="0.08"/><rect x="0" y="96" width="984" height="1" fill="#000000" opacity="0.08"/><rect x="0" y="100" width="984" height="1" fill="#000000" opacity="0.08"/><rect x="0" y="104" width="984" height="1" fill="#000000" opacity="0.08"/><rect x="0" y="108" width="984" height="1" fill="#000000" opacity="0.08"/><rect x="0" y="112" width="984" height="1" fill="#000000" opacity="0.08"/><rect x="0" y="116" width="984" height="1" fill="#000000" opacity="0.08"/><rect x="0" y="120" width="984" height="1" fill="#000000" opacity="0.08"/><rect x="0" y="124" width="984" height="1" fill="#000000" opacity="0.08"/><rect x="0" y="128" width="984" height="1" fill="#000000" opacity="0.08"/><rect x="0" y="132" width="984" height="1" fill="#000000" opacity="0.08"/><rect x="0" y="136" width="984" height="1" fill="#000000" opacity="0.08"/><rect x="0" y="140" width="984" height="1" fill="#000000" opacity="0.08"/><rect x="0" y="144" width="984" height="1" fill="#000000" opacity="0.08"/><rect x="0" y="148" width="984" height="1" fill="#000000" opacity="0.08"/><rect x="0" y="152" width="984" height="1" fill="#000000" opacity="0.08"/><rect x="0" y="156" width="984" height="1" fill="#000000" opacity="0.08"/><rect x="0" y="160" width="984" height="1" fill="#000000" opacity="0.08"/><rect x="0" y="164" width="984" height="1" fill="#000000" opacity="0.08"/><rect x="0" y="168" width="984" height="1" fill="#000000" opacity="0.08"/><rect x="0" y="172" width="984" height="1" fill="#000000" opacity="0.08"/><rect x="0" y="176" width="984" height="1" fill="#000000" opacity="0.08"/><rect x="0" y="180" width="984" height="1" fill="#000000" opacity="0.08"/><rect x="0" y="184" width="984" height="1" fill="#000000" opacity="0.08"/><rect x="0" y="188" width="984" height="1" fill="#000000" opacity="0.08"/><rect x="0" y="192" width="984" height="1" fill="#000000" opacity="0.08"/><rect x="0" y="196" width="984" height="1" fill="#000000" opacity="0.08"/><rect x="0" y="200" width="984" height="1" fill="#000000" opacity="0.08"/><rect x="0" y="204" width="984" height="1" fill="#000000" opacity="0.08"/><rect x="0" y="208" width="984" height="1" fill="#000000" opacity="0.08"/><rect x="0" y="212" width="984" height="1" fill="#000000" opacity="0.08"/><rect x="0" y="216" width="984" height="1" fill="#000000" opacity="0.08"/><rect x="0" y="220" width="984" height="1" fill="#000000" opacity="0.08"/><rect x="0" y="224" width="984" height="1" fill="#000000" opacity="0.08"/><rect x="0" y="228" width="984" height="1" fill="#000000" opacity="0.08"/><rect x="0" y="232" width="984" height="1" fill="#000000" opacity="0.08"/><rect x="0" y="236" width="984" height="1" fill="#000000" opacity="0.08"/><rect x="0" y="240" width="984" height="1" fill="#000000" opacity="0.08"/><rect x="0" y="244" width="984" height="1" fill="#000000" opacity="0.08"/><rect x="0" y="248" width="984" height="1" fill="#000000" opacity="0.08"/><rect x="0" y="252" width="984" height="1" fill="#000000" opacity="0.08"/><rect x="0" y="256" width="984" height="1" fill="#000000" opacity="0.08"/><rect x="0" y="260" width="984" height="1" fill="#000000" opacity="0.08"/><rect x="0" y="264" width="984" height="1" fill="#000000" opacity="0.08"/><rect x="0" y="268" width="984" height="1" fill="#000000" opacity="0.08"/><rect x="0" y="272" width="984" height="1" fill="#000000" opacity="0.08"/><rect x="0" y="276" width="984" height="1" fill="#000000" opacity="0.08"/><rect x="0" y="280" width="984" height="1" fill="#000000" opacity="0.08"/><rect x="0" y="284" width="984" height="1" fill="#000000" opacity="0.08"/><rect x="0" y="288" width="984" height="1" fill="#000000" opacity="0.08"/><rect x="0" y="292" width="984" height="1" fill="#000000" opacity="0.08"/><rect x="0" y="296" width="984" height="1" fill="#000000" opacity="0.08"/><rect x="0" y="300" width="984" height="1" fill="#000000" opacity="0.08"/><rect x="0" y="304" width="984" height="1" fill="#000000" opacity="0.08"/><rect x="0" y="308" width="984" height="1" fill="#000000" opacity="0.08"/><rect x="0" y="312" width="984" height="1" fill="#000000" opacity="0.08"/><rect x="0" y="316" width="984" height="1" fill="#000000" opacity="0.08"/><rect x="0" y="320" width="984" height="1" fill="#000000" opacity="0.08"/><rect x="0" y="324" width="984" height="1" fill="#000000" opacity="0.08"/><rect x="0" y="328" width="984" height="1" fill="#000000" opacity="0.08"/><rect x="0" y="332" width="984" height="1" fill="#000000" opacity="0.08"/><rect x="0" y="336" width="984" height="1" fill="#000000" opacity="0.08"/><rect x="0" y="340" width="984" height="1" fill="#000000" opacity="0.08"/><rect x="0" y="344" width="984" height="1" fill="#000000" opacity="0.08"/><rect x="0" y="348" width="984" height="1" fill="#000000" opacity="0.08"/><rect x="0" y="352" width="984" height="1" fill="#000000" opacity="0.08"/><rect x="0" y="356" width="984" height="1" fill="#000000" opacity="0.08"/><rect x="0" y="360" width="984" height="1" fill="#000000" opacity="0.08"/><rect x="0" y="364" width="984" height="1" fill="#000000" opacity="0.08"/><rect x="0" y="368" width="984" height="1" fill="#000000" opacity="0.08"/><rect x="0" y="372" width="984" height="1" fill="#000000" opacity="0.08"/><rect x="0" y="376" width="984" height="1" fill="#000000" opacity="0.08"/><rect x="0" y="380" width="984" height="1" fill="#000000" opacity="0.08"/><rect x="0" y="384" width="984" height="1" fill="#000000" opacity="0.08"/><rect x="0" y="388" width="984" height="1" fill="#000000" opacity="0.08"/><rect x="0" y="392" width="984" height="1" fill="#000000" opacity="0.08"/><rect x="0" y="396" width="984" height="1" fill="#000000" opacity="0.08"/><rect x="0" y="400" width="984" height="1" fill="#000000" opacity="0.08"/><rect x="0" y="404" width="984" height="1" fill="#000000" opacity="0.08"/><rect x="0" y="408" width="984" height="1" fill="#000000" opacity="0.08"/><rect x="0" y="412" width="984" height="1" fill="#000000" opacity="0.08"/><rect x="0" y="416" width="984" height="1" fill="#000000" opacity="0.08"/><rect x="0" y="420" width="984" height="1" fill="#000000" opacity="0.08"/><rect x="0" y="424" width="984" height="1" fill="#000000" opacity="0.08"/><rect x="0" y="428" width="984" height="1" fill="#000000" opacity="0.08"/><rect x="0" y="432" width="984" height="1" fill="#000000" opacity="0.08"/><rect x="0" y="436" width="984" height="1" fill="#000000" opacity="0.08"/><rect x="0" y="440" width="984" height="1" fill="#000000" opacity="0.08"/><rect x="0" y="444" width="984" height="1" fill="#000000" opacity="0.08"/><rect x="0" y="448" width="984" height="1" fill="#000000" opacity="0.08"/><rect x="0" y="452" width="984" height="1" fill="#000000" opacity="0.08"/><rect x="0" y="456" width="984" height="1" fill="#000000" opacity="0.08"/><rect x="0" y="460" width="984" height="1" fill="#000000" opacity="0.08"/><rect x="0" y="464" width="984" height="1" fill="#000000" opacity="0.08"/><rect x="0" y="468" width="984" height="1" fill="#000000" opacity="0.08"/><rect x="0" y="472" width="984" height="1" fill="#000000" opacity="0.08"/><rect x="0" y="476" width="984" height="1" fill="#000000" opacity="0.08"/><rect x="0" y="480" width="984" height="1" fill="#000000" opacity="0.08"/><rect x="0" y="484" width="984" height="1" fill="#000000" opacity="0.08"/><rect x="0" y="488" width="984" height="1" fill="#000000" opacity="0.08"/><rect x="0" y="492" width="984" height="1" fill="#000000" opacity="0.08"/><rect x="0" y="496" width="984" height="1" fill="#000000" opacity="0.08"/><rect x="0" y="500" width="984" height="1" fill="#000000" opacity="0.08"/><rect x="0" y="504" width="984" height="1" fill="#000000" opacity="0.08"/><rect x="0" y="508" width="984" height="1" fill="#000000" opacity="0.08"/><rect x="0" y="512" width="984" height="1" fill="#000000" opacity="0.08"/><rect x="0" y="516" width="984" height="1" fill="#000000" opacity="0.08"/><rect x="0" y="520" width="984" height="1" fill="#000000" opacity="0.08"/><rect x="0" y="524" width="984" height="1" fill="#000000" opacity="0.08"/><rect x="0" y="528" width="984" height="1" fill="#000000" opacity="0.08"/><rect x="0" y="532" width="984" height="1" fill="#000000" opacity="0.08"/><rect x="0" y="536" width="984" height="1" fill="#000000" opacity="0.08"/>
</svg>