<?xml version="1.0" encoding="UTF-8"?>
<svg xmlns="http://www.w3.org/2000/svg" width="384" height="224" viewBox="0 0 384 224" shape-rendering="crispEdges">
<rect x="0" y="0" width="384" height="224" fill="#17120f"/><rect x="0" y="0" width="384" height="78" fill="#281c18"/><rect x="24" y="84" width="336" height="104" fill="#231d1e"/><rect x="58" y="96" width="268" height="56" fill="#3d302d"/><rect x="82" y="116" width="220" height="82" fill="#5f493f"/><rect x="160" y="80" width="64" height="116" fill="#231d1e"/><rect x="178" y="80" width="28" height="116" fill="#c9a4a1" opacity="0.56"/><polygon points="75.91284004410906,153.0049724206429 310.2317739270227,181.1232444865925 308.0871599558909,198.9950275793571 73.76822607297731,170.8767555134075" fill="#c9a4a1" opacity="0.2"/><polygon points="75.91284004410906,153.0049724206429 310.2317739270227,181.1232444865925 308.0871599558909,198.9950275793571 73.76822607297731,170.8767555134075" fill="none" stroke="#c9a4a1" stroke-width="2"/><line x1="88" y1="112" x2="296" y2="112" stroke="#cdaaa6" stroke-width="2" opacity="0.5" stroke-linecap="square"/><line x1="88" y1="128" x2="296" y2="128" stroke="#cdaaa6" stroke-width="2" opacity="0.5" stroke-linecap="square"/><line x1="88" y1="144" x2="296" y2="144" stroke="#cdaaa6" stroke-width="2" opacity="0.5" stroke-linecap="square"/><line x1="88" y1="160" x2="296" y2="160" stroke="#cdaaa6" stroke-width="2" opacity="0.5" stroke-linecap="square"/><line x1="88" y1="176" x2="296" y2="176" stroke="#cdaaa6" stroke-width="2" opacity="0.5" stroke-linecap="square"/><line x1="88" y1="192" x2="296" y2="192" stroke="#cdaaa6" stroke-width="2" opacity="0.5" stroke-linecap="square"/><polygon points="106,188 118,192 106,196 94,192" fill="#af5d4b" opacity="0.85"/><polygon points="160,184 172,188 160,192 148,188" fill="#af5d4b" opacity="0.85"/><polygon points="205,180 217,184 205,188 193,184" fill="#af5d4b" opacity="0.85"/><polygon points="250,176 262,180 250,184 238,180" fill="#af5d4b" opacity="0.85"/><rect x="0" y="0" width="384" height="1" fill="#000000" opacity="0.08"/><rect x="0" y="4" width="384" height="1" fill="#000000" opacity="0.08"/><rect x="0" y="8" width="384" height="1" fill="#000000" opacity="0.08"/><rect x="0" y="12" width="384" height="1" fill="#000000" opacity="0.08"/><rect x="0" y="16" width="384" height="1" fill="#000000" opacity="0.08"/><rect x="0" y="20" width="384" height="1" fill="#000000" opacity="0.08"/><rect x="0" y="24" width="384" height="1" fill="#000000" opacity="0.08"/><rect x="0" y="28" width="384" height="1" fill="#000000" opacity="0.08"/><rect x="0" y="32" width="384" height="1" fill="#000000" opacity="0.08"/><rect x="0" y="36" width="384" height="1" fill="#000000" opacity="0.08"/><rect x="0" y="40" width="384" height="1" fill="#000000" opacity="0.08"/><rect x="0" y="44" width="384" height="1" fill="#000000" opacity="0.08"/><rect x="0" y="48" width="384" height="1" fill="#000000" opacity="0.08"/><rect x="0" y="52" width="384" height="1" fill="#000000" opacity="0.08"/><rect x="0" y="56" width="384" height="1" fill="#000000" opacity="0.08"/><rect x="0" y="60" width="384" height="1" fill="#000000" opacity="0.08"/><rect x="0" y="64" width="384" height="1" fill="#000000" opacity="0.08"/><rect x="0" y="68" width="384" height="1" fill="#000000" opacity="0.08"/><rect x="0" y="72" width="384" height="1" fill="#000000" opacity="0.08"/><rect x="0" y="76" width="384" height="1" fill="#000000" opacity="0.08"/><rect x="0" y="80" width="384" height="1" fill="#000000" opacity="0.08"/><rect x="0" y="84" width="384" height="1" fill="#000000" opacity="0.08"/><rect x="0" y="88" width="384" height="1" fill="#000000" opacity="0.08"/><rect x="0" y="92" width="384" height="1" fill="#000000" opacity="0.08"/><rect x="0" y="96" width="384" height="1" fill="#000000" opacity="0.08"/><rect x="0" y="100" width="384" height="1" fill="#000000" opacity="0.08"/><rect x="0" y="104" width="384" height="1" fill="#000000" opacity="0.08"/><rect x="0" y="108" width="384" height="1" fill="#000000" opacity="0.08"/><rect x="0" y="112" width="384" height="1" fill="#000000" opacity="0.08"/><rect x="0" y="116" width="384" height="1" fill="#000000" opacity="0.08"/><rect x="0" y="120" width="384" height="1" fill="#000000" opacity="0.08"/><rect x="0" y="124" width="384" height="1" fill="#000000" opacity="0.08"/><rect x="0" y="128" width="384" height="1" fill="#000000" opacity="0.08"/><rect x="0" y="132" width="384" height="1" fill="#000000" opacity="0.08"/><rect x="0" y="136" width="384" height="1" fill="#000000" opacity="0.08"/><rect x="0" y="140" width="384" height="1" fill="#000000" opacity="0.08"/><rect x="0" y="144" width="384" height="1" fill="#000000" opacity="0.08"/><rect x="0" y="148" width="384" height="1" fill="#000000" opacity="0.08"/><rect x="0" y="152" width="384" height="1" fill="#000000" opacity="0.08"/><rect x="0" y="156" width="384" height="1" fill="#000000" opacity="0.08"/><rect x="0" y="160" width="384" height="1" fill="#000000" opacity="0.08"/><rect x="0" y="164" width="384" height="1" fill="#000000" opacity="0.08"/><rect x="0" y="168" width="384" height="1" fill="#000000" opacity="0.08"/><rect x="0" y="172" width="384" height="1" fill="#000000" opacity="0.08"/><rect x="0" y="176" width="384" height="1" fill="#000000" opacity="0.08"/><rect x="0" y="180" width="384" height="1" fill="#000000" opacity="0.08"/><rect x="0" y="184" width="384" height="1" fill="#000000" opacity="0.08"/><rect x="0" y="188" width="384" height="1" fill="#000000" opacity="0.08"/><rect x="0" y="192" width="384" height="1" fill="#000000" opacity="0.08"/><rect x="0" y="196" width="384" height="1" fill="#000000" opacity="0.08"/><rect x="0" y="200" width="384" height="1" fill="#000000" opacity="0.08"/><rect x="0" y="204" width="384" height="1" fill="#000000" opacity="0.08"/><rect x="0" y="208" width="384" height="1" fill="#000000" opacity="0.08"/><rect x="0" y="212" width="384" height="1" fill="#000000" opacity="0.08"/><rect x="0" y="216" width="384" height="1" fill="#000000" opacity="0.08"/><rect x="0" y="220" width="384" height="1" fill="#000000" opacity="0.08"/>
</svg>