<?xml version="1.0" encoding="UTF-8"?>
<svg xmlns="http://www.w3.org/2000/svg" width="256" height="96" viewBox="0 0 256 96" shape-rendering="crispEdges">
<rect x="0" y="0" width="256" height="96" fill="none" opacity="0"/><rect x="6" y="10" width="244" height="76" fill="#2b2323"/><rect x="14" y="18" width="228" height="60" fill="#3b3231"/><rect x="22" y="26" width="78" height="44" fill="#c9a4a1" opacity="0.82"/><polygon points="46,48 72,34 72,43 100,43 100,53 72,53 72,62" fill="#17120f" opacity="0.9"/><rect x="118" y="30" width="112" height="10" fill="#e8d6c6" opacity="0.88"/><rect x="118" y="48" width="98" height="8" fill="#c4b7a7" opacity="0.72"/><rect x="118" y="64" width="124" height="6" fill="#bdafa1" opacity="0.54"/><rect x="210" y="26" width="18" height="44" fill="#c9a4a1" opacity="0.6"/><rect x="126" y="74" width="14" height="6" fill="#c9a4a1" opacity="0.68"/><rect x="150" y="74" width="14" height="6" fill="#c9a4a1" opacity="0.56"/><rect x="174" y="74" width="14" height="6" fill="#c9a4a1" opacity="0.44000000000000006"/><rect x="0" y="0" width="256" height="1" fill="#000000" opacity="0.08"/><rect x="0" y="4" width="256" height="1" fill="#000000" opacity="0.08"/><rect x="0" y="8" width="256" height="1" fill="#000000" opacity="0.08"/><rect x="0" y="12" width="256" height="1" fill="#000000" opacity="0.08"/><rect x="0" y="16" width="256" height="1" fill="#000000" opacity="0.08"/><rect x="0" y="20" width="256" height="1" fill="#000000" opacity="0.08"/><rect x="0" y="24" width="256" height="1" fill="#000000" opacity="0.08"/><rect x="0" y="28" width="256" height="1" fill="#000000" opacity="0.08"/><rect x="0" y="32" width="256" height="1" fill="#000000" opacity="0.08"/><rect x="0" y="36" width="256" height="1" fill="#000000" opacity="0.08"/><rect x="0" y="40" width="256" height="1" fill="#000000" opacity="0.08"/><rect x="0" y="44" width="256" height="1" fill="#000000" opacity="0.08"/><rect x="0" y="48" width="256" height="1" fill="#000000" opacity="0.08"/><rect x="0" y="52" width="256" height="1" fill="#000000" opacity="0.08"/><rect x="0" y="56" width="256" height="1" fill="#000000" opacity="0.08"/><rect x="0" y="60" width="256" height="1" fill="#000000" opacity="0.08"/><rect x="0" y="64" width="256" height="1" fill="#000000" opacity="0.08"/><rect x="0" y="68" width="256" height="1" fill="#000000" opacity="0.08"/><rect x="0" y="72" width="256" height="1" fill="#000000" opacity="0.08"/><rect x="0" y="76" width="256" height="1" fill="#000000" opacity="0.08"/><rect x="0" y="80" width="256" height="1" fill="#000000" opacity="0.08"/><rect x="0" y="84" width="256" height="1" fill="#000000" opacity="0.08"/><rect x="0" y="88" width="256" height="1" fill="#000000" opacity="0.08"/><rect x="0" y="92" width="256" height="1" fill="#000000" opacity="0.08"/>
</svg>